<svg width="390" height="253" viewBox="0 0 390 253" fill="none" xmlns="http://www.w3.org/2000/svg">
<path opacity="0.2" fill-rule="evenodd" clip-rule="evenodd" d="M26.2278 0.423472C25.9856 1.12722 26.2783 4.11142 26.8788 7.05437C27.4785 9.99732 28.2766 15.3024 28.6515 18.8438C29.0256 22.3853 29.8509 26.4007 30.4838 27.767C31.6289 30.2385 31.6131 30.2781 27.4815 35.2178C24.3917 38.9116 21.8842 43.4077 17.6953 52.7644C14.598 59.6832 10.1194 68.1509 7.74396 71.5821C-2.36658 86.1857 -2.4918 89.4326 6.86967 94.3538C11.917 97.0071 15.7672 96.6957 22.9433 93.0532C30.4559 89.2398 35.931 88.6228 44.1458 90.6625C52.6451 92.772 60.6057 97.5863 67.7705 104.949C75.0311 112.41 76.2652 113.184 84.5631 115.488C95.3344 118.48 99.3159 123.728 100.468 136.453C101.946 152.792 105.676 157.385 118.167 158.254C123.506 158.626 124.829 158.429 127.807 156.821C131.923 154.598 138.493 148.206 139.034 145.899C139.6 143.481 137.662 140.965 134.472 139.975C130.084 138.616 129.024 138.835 129.024 141.098C129.024 143.748 127.833 144.716 123.741 145.396C120.722 145.897 120.14 145.718 118.514 143.786C116.956 141.935 116.635 140.574 116.355 134.619C115.974 126.515 117.408 122.186 121.663 118.604C125.249 115.583 129.112 114.694 138.673 114.689C148.433 114.683 149.146 114.966 158.821 122.691C165.486 128.012 171.515 133.646 180.831 143.256C184.224 146.756 188.552 151.164 190.449 153.051C193.296 155.884 193.898 156.995 193.898 159.414C193.898 161.026 193.474 162.953 192.955 163.696C192.437 164.439 183.744 171.566 173.638 179.534C156.923 192.714 154.81 194.135 150.253 195.27C137.835 198.363 131.281 204.379 131.295 212.67C131.302 216.914 133.936 224.929 135.73 226.165C136.793 226.898 145.633 220.547 154.295 212.826C158.029 209.498 164.309 204.501 168.251 201.722C172.192 198.943 183.86 189.715 194.18 181.215L212.943 165.762L214.342 167.792C216.309 170.647 216.184 175.536 214.077 178.139C211.749 181.014 170.64 213.304 168.271 214.118C167.222 214.479 164.12 215.389 161.376 216.141C152.055 218.697 144.753 223.717 142.133 229.369C140.364 233.187 140.675 240.219 142.84 245.378C146.388 253.829 146.02 253.719 153.396 248.535C156.944 246.041 162.84 241.267 166.5 237.925C170.16 234.583 177.5 228.738 182.813 224.935C188.126 221.133 203.741 208.801 217.513 197.531C231.285 186.262 243.307 176.45 244.226 175.729C245.926 174.394 247.736 168.838 247.15 166.756C246.974 166.128 246.608 164.502 246.339 163.144C245.992 161.393 240.642 154.904 227.944 140.836C217.03 128.743 209.633 119.885 209 118.147C207.592 114.278 208.963 111.622 213.912 108.63C215.974 107.383 219.236 104.361 221.162 101.915C224.284 97.9483 224.988 97.4651 227.655 97.4651C230.267 97.4651 231.466 98.2345 237.082 103.512C262.036 126.962 287.091 143.801 309.363 152.091C322.129 156.843 330.457 158.462 342.038 158.444C354.026 158.424 360.025 156.951 369.336 151.739C383.366 143.886 390.061 134.632 390 123.178L389.97 117.631L388.846 120.521C387.044 125.156 377.468 134.914 371.579 138.115C345.017 152.554 307.239 136.99 260.566 92.3764C247.689 80.0683 230.922 61.3685 224.206 51.8275C215.418 39.3435 207.699 32.4457 195.123 25.8376C191.337 23.8492 185.525 21.4577 182.206 20.5241C178.887 19.5905 173.795 18.1393 170.891 17.2991C163.635 15.2005 153.216 15.4177 144.866 17.8404C130.212 22.0924 110.421 32.6612 102.121 40.666C94.0829 48.419 83.2045 54.8512 78.0545 54.8958C73.7895 54.9329 68.0194 52.4428 65.2759 49.382C63.0981 46.9509 62.6424 45.8271 62.6447 42.8925C62.6462 40.8907 63.2731 38.1978 64.0817 36.7179C66.0438 33.1268 68.3446 10.2212 67.1331 6.34304C66.074 2.95225 64.3526 2.24766 61.9288 4.21244C60.869 5.07108 56.3323 8.54858 51.8477 11.941C44.2258 17.7049 43.5725 18.0357 41.8383 17.0003C39.8928 15.8378 33.947 9.08228 29.3659 2.82851C27.348 0.0732813 26.5567 -0.532819 26.2278 0.423472Z" fill="white"/>
</svg>
