<svg width="303" height="196" viewBox="0 0 303 196" fill="none" xmlns="http://www.w3.org/2000/svg">
<path fill-rule="evenodd" clip-rule="evenodd" d="M20.377 0.329192C20.1888 0.876262 20.4162 3.19607 20.8827 5.48382C21.3487 7.77156 21.9687 11.8955 22.26 14.6485C22.5507 17.4016 23.1919 20.523 23.6836 21.5851C24.5732 23.5064 24.5609 23.5371 21.351 27.3771C18.9505 30.2485 17.0024 33.7436 13.7479 41.0172C11.3415 46.3956 7.862 52.9781 6.01646 55.6454C-1.83865 66.9977 -1.93594 69.5217 5.3372 73.3473C9.2586 75.4099 12.2499 75.1678 17.8252 72.3362C23.6619 69.3718 27.9156 68.8922 34.2979 70.4778C40.9012 72.1177 47.086 75.8601 52.6525 81.5834C58.2934 87.3833 59.2522 87.9853 65.699 89.7764C74.0675 92.1021 77.1608 96.1815 78.0557 106.074C79.2044 118.775 82.1019 122.345 91.8067 123.021C95.9543 123.311 96.9829 123.157 99.2961 121.907C102.494 120.179 107.598 115.21 108.019 113.417C108.459 111.537 106.953 109.581 104.474 108.812C101.065 107.755 100.242 107.925 100.242 109.685C100.242 111.744 99.3166 112.497 96.1372 113.026C93.7917 113.416 93.3393 113.276 92.0763 111.774C90.8655 110.335 90.6164 109.277 90.399 104.648C90.103 98.3482 91.2171 94.9833 94.5226 92.1983C97.3087 89.8503 100.31 89.1593 107.738 89.1553C115.321 89.1508 115.875 89.3706 123.392 95.376C128.57 99.5124 133.254 103.892 140.492 111.362C143.128 114.083 146.49 117.509 147.964 118.977C150.176 121.179 150.644 122.042 150.644 123.923C150.644 125.176 150.315 126.674 149.912 127.251C149.509 127.829 142.755 133.369 134.903 139.564C121.917 149.809 120.276 150.913 116.735 151.796C107.087 154.2 101.995 158.877 102.006 165.322C102.011 168.621 104.058 174.852 105.452 175.813C106.277 176.383 113.146 171.445 119.875 165.443C122.776 162.856 127.655 158.972 130.718 156.811C133.78 154.651 142.845 147.478 150.863 140.87L165.441 128.857L166.527 130.436C168.056 132.655 167.958 136.455 166.322 138.479C164.513 140.714 132.574 165.815 130.734 166.448C129.919 166.728 127.508 167.435 125.377 168.02C118.135 170.007 112.462 173.91 110.426 178.303C109.052 181.271 109.293 186.738 110.976 190.748C113.732 197.317 113.446 197.232 119.177 193.202C121.933 191.264 126.514 187.553 129.357 184.955C132.201 182.357 137.904 177.813 142.032 174.857C146.159 171.901 158.291 162.315 168.991 153.554C179.691 144.793 189.031 137.166 189.745 136.605C191.065 135.568 192.472 131.249 192.017 129.63C191.879 129.142 191.596 127.878 191.387 126.822C191.117 125.461 186.96 120.417 177.095 109.481C168.615 100.08 162.869 93.1942 162.377 91.8429C161.283 88.836 162.349 86.7708 166.193 84.4451C167.795 83.4759 170.33 81.1266 171.826 79.225C174.251 76.1415 174.798 75.7659 176.871 75.7659C178.9 75.7659 179.831 76.364 184.194 80.4664C203.582 98.6957 223.047 111.786 240.351 118.23C250.269 121.924 256.74 123.183 265.737 123.169C275.051 123.153 279.712 122.008 286.946 117.956C297.846 111.852 303.047 104.658 303 95.7542L302.977 91.4418L302.104 93.689C300.703 97.292 293.263 104.877 288.688 107.366C268.052 118.59 238.701 106.491 202.44 71.8101C192.436 62.2423 179.408 47.7057 174.191 40.2888C167.364 30.5842 161.366 25.2222 151.595 20.0852C148.654 18.5395 144.139 16.6804 141.56 15.9547C138.981 15.229 135.025 14.1008 132.769 13.4477C127.132 11.8163 119.037 11.9852 112.55 13.8685C101.164 17.1738 85.7883 25.3897 79.3404 31.6123C73.0952 37.6392 64.6435 42.6394 60.6424 42.6741C57.3287 42.7029 52.8459 40.7672 50.7143 38.3878C49.0223 36.4979 48.6684 35.6243 48.6701 33.3431C48.6713 31.787 49.1583 29.6936 49.7866 28.5432C51.311 25.7516 53.0985 7.94563 52.1572 4.93086C51.3344 2.29498 49.997 1.74725 48.1139 3.2746C47.2905 3.94208 43.7659 6.64536 40.2817 9.28255C34.36 13.7632 33.8525 14.0203 32.5051 13.2154C30.9936 12.3117 26.3742 7.06024 22.815 2.19878C21.2473 0.0569663 20.6325 -0.414194 20.377 0.329192Z" fill="#0046AA"/>
</svg>
