<svg width="261" height="92" viewBox="0 0 261 92" fill="none" xmlns="http://www.w3.org/2000/svg">
<g clip-path="url(#clip0_924_4692)">
<path d="M109.63 24.7664L118.285 0.750854H121.747L130.414 24.7664H127.284L124.926 18.1932H115.142L112.736 24.7664H109.63ZM115.915 15.3744H124.116L120.04 3.80357L115.915 15.3744Z" fill="black"/>
<path d="M139.34 25.0987C138.443 25.0864 137.609 24.9633 136.811 24.7048C136.013 24.4464 135.325 24.0894 134.711 23.597C134.11 23.1046 133.631 22.5015 133.275 21.7752C132.931 21.049 132.747 20.2119 132.747 19.2395V7.60718H135.816V18.9441C135.816 20.0642 136.16 20.9751 136.847 21.6644C137.535 22.3661 138.578 22.7107 139.966 22.7107C141.218 22.7107 142.237 22.3784 142.998 21.726C143.759 21.0736 144.152 20.0888 144.152 18.7841V7.60718H147.197V24.7787H144.766L144.447 21.4921C144.238 22.3538 143.882 23.0554 143.379 23.5847C142.875 24.114 142.274 24.5079 141.574 24.7541C140.899 25.0003 140.138 25.1111 139.34 25.0987Z" fill="black"/>
<path d="M157.754 25.0988C156.563 25.0988 155.458 24.9142 154.439 24.5449C153.42 24.1756 152.573 23.5971 151.898 22.797C151.223 22.0092 150.793 20.9998 150.621 19.7689H153.408C153.567 20.4459 153.838 20.9998 154.243 21.4553C154.648 21.8984 155.151 22.2431 155.753 22.4646C156.354 22.6862 157.017 22.8093 157.742 22.8093C158.896 22.8093 159.816 22.5877 160.528 22.1569C161.24 21.7261 161.584 21.0614 161.584 20.1628C161.584 19.535 161.4 19.0303 161.032 18.6487C160.663 18.2671 160.086 17.984 159.313 17.8117L155.765 16.9377C154.39 16.6054 153.285 16.0884 152.45 15.3744C151.628 14.6605 151.21 13.6758 151.21 12.4079C151.198 11.3985 151.431 10.5123 151.922 9.74908C152.413 8.9859 153.138 8.38274 154.108 7.93961C155.077 7.49647 156.293 7.2749 157.729 7.2749C159.583 7.2749 161.081 7.69342 162.222 8.53045C163.364 9.36749 163.953 10.5984 164.003 12.2109H161.302C161.191 11.3985 160.823 10.7461 160.197 10.2661C159.571 9.78601 158.736 9.53982 157.692 9.53982C156.6 9.53982 155.716 9.76139 155.028 10.1922C154.341 10.6354 153.997 11.3124 153.997 12.2233C153.997 12.8264 154.243 13.3065 154.721 13.6634C155.213 14.0081 155.925 14.3035 156.87 14.5374L160.295 15.3991C161.093 15.6083 161.744 15.8914 162.259 16.2238C162.775 16.5685 163.18 16.95 163.487 17.3686C163.794 17.7871 164.003 18.2302 164.138 18.6857C164.26 19.1411 164.334 19.5842 164.334 20.0028C164.334 21.0491 164.076 21.9599 163.548 22.7231C163.02 23.4863 162.272 24.0648 161.302 24.4834C160.332 24.8896 159.141 25.0988 157.754 25.0988Z" fill="black"/>
<path d="M176.611 9.84751H172.756V20.5197C172.756 21.1229 172.818 21.5783 172.953 21.8614C173.076 22.1445 173.296 22.3292 173.603 22.403C173.91 22.4769 174.328 22.5138 174.856 22.5138H176.722V24.5695C176.513 24.6433 176.194 24.7172 175.776 24.7664C175.347 24.8157 174.819 24.8526 174.193 24.8526C173.014 24.8526 172.093 24.6926 171.443 24.3725C170.792 24.0525 170.338 23.5724 170.08 22.9446C169.822 22.3169 169.687 21.5414 169.687 20.6182V9.84751H166.9V7.60721H169.761L170.51 2.60962H172.756V7.5949H176.611V9.84751Z" fill="black"/>
<path d="M180.687 24.7665V7.60725H183.596V10.9062C183.878 10.0814 184.284 9.40442 184.799 8.87512C185.315 8.33351 185.916 7.93961 186.579 7.6688C187.242 7.398 187.942 7.2749 188.654 7.2749C188.912 7.2749 189.157 7.28721 189.403 7.32414C189.648 7.36107 189.833 7.41031 189.968 7.48416V10.463C189.808 10.3892 189.587 10.3276 189.329 10.303C189.071 10.2784 188.85 10.2661 188.679 10.2661C187.991 10.2168 187.353 10.2661 186.751 10.3892C186.15 10.5123 185.634 10.7338 185.18 11.0416C184.726 11.3493 184.37 11.7555 184.112 12.2602C183.854 12.7649 183.719 13.3803 183.719 14.0943V24.7665H180.687Z" fill="black"/>
<path d="M197.493 25.0987C196.389 25.0987 195.406 24.9018 194.559 24.5079C193.712 24.114 193.049 23.5477 192.558 22.8092C192.08 22.0706 191.834 21.172 191.834 20.1258C191.834 18.2178 192.497 16.8022 193.823 15.879C195.149 14.9435 197.273 14.4511 200.194 14.3896L203.263 14.3034V12.9617C203.263 11.9154 202.944 11.0784 202.318 10.4629C201.692 9.84745 200.71 9.53972 199.384 9.53972C198.402 9.55203 197.543 9.7859 196.794 10.2414C196.045 10.6968 195.566 11.4354 195.345 12.4693H192.644C192.706 11.3492 193.025 10.4137 193.59 9.63819C194.154 8.8627 194.94 8.28417 195.947 7.89027C196.953 7.49637 198.156 7.28711 199.531 7.28711C201.017 7.28711 202.257 7.49637 203.251 7.91489C204.233 8.3334 204.982 8.96118 205.473 9.7736C205.964 10.5983 206.21 11.5954 206.21 12.7894V24.7787H203.595L203.386 21.5536C202.723 22.8954 201.876 23.8186 200.857 24.3355C199.838 24.8402 198.721 25.0987 197.493 25.0987ZM198.427 22.8954C199.004 22.8954 199.568 22.7846 200.145 22.5753C200.71 22.366 201.238 22.0829 201.717 21.726C202.195 21.369 202.564 20.9628 202.846 20.5196C203.128 20.0765 203.276 19.6088 203.288 19.1287V16.1868L200.735 16.236C199.433 16.2606 198.341 16.396 197.469 16.6299C196.597 16.8761 195.934 17.2577 195.492 17.7747C195.05 18.2917 194.842 18.981 194.842 19.818C194.842 20.7781 195.173 21.529 195.848 22.0706C196.499 22.6245 197.358 22.8954 198.427 22.8954Z" fill="black"/>
<path d="M215.184 24.988C214.251 24.988 213.515 24.8649 212.938 24.6064C212.373 24.3479 211.931 24.0032 211.624 23.5724C211.317 23.1416 211.121 22.6492 211.01 22.083C210.9 21.5291 210.851 20.9505 210.851 20.3474V0.0985107H213.871V20.052C213.871 20.9136 214.042 21.566 214.374 21.9968C214.705 22.4277 215.184 22.6615 215.786 22.7108L216.719 22.7231V24.7172C216.461 24.791 216.203 24.8526 215.921 24.9141C215.651 24.9634 215.405 24.988 215.184 24.988Z" fill="black"/>
<path d="M223.593 0.775513V3.96363H220.463V0.775513H223.593ZM223.532 7.6072V24.7787H220.573V7.6072H223.532Z" fill="black"/>
<path d="M233.317 25.0987C232.212 25.0987 231.23 24.9018 230.383 24.5079C229.536 24.114 228.873 23.5477 228.382 22.8092C227.903 22.0706 227.657 21.172 227.657 20.1258C227.657 18.2178 228.32 16.8022 229.646 15.879C230.972 14.9435 233.096 14.4511 236.018 14.3896L239.087 14.3034V12.9617C239.087 11.9154 238.768 11.0784 238.141 10.4629C237.515 9.84745 236.533 9.53972 235.207 9.53972C234.225 9.55203 233.366 9.7859 232.617 10.2414C231.868 10.6968 231.389 11.4354 231.168 12.4693H228.467C228.529 11.3492 228.848 10.4137 229.413 9.63819C229.977 8.8627 230.763 8.28417 231.77 7.89027C232.777 7.49637 233.98 7.28711 235.355 7.28711C236.84 7.28711 238.08 7.49637 239.074 7.91489C240.057 8.3334 240.805 8.96118 241.297 9.7736C241.788 10.5983 242.033 11.5954 242.033 12.7894V24.7787H239.418L239.209 21.5536C238.547 22.8954 237.699 23.8186 236.68 24.3355C235.662 24.8402 234.544 25.0987 233.317 25.0987ZM234.237 22.8954C234.814 22.8954 235.379 22.7846 235.956 22.5753C236.521 22.366 237.049 22.0829 237.528 21.726C238.006 21.369 238.375 20.9628 238.657 20.5196C238.939 20.0765 239.087 19.6088 239.099 19.1287V16.1868L236.545 16.236C235.244 16.2606 234.152 16.396 233.28 16.6299C232.408 16.8761 231.745 17.2577 231.303 17.7747C230.861 18.2917 230.653 18.981 230.653 19.818C230.653 20.7781 230.984 21.529 231.659 22.0706C232.322 22.6245 233.182 22.8954 234.237 22.8954Z" fill="black"/>
<path d="M246.538 24.7664V7.60715H249.509V10.0936C249.779 9.61357 250.172 9.17043 250.663 8.75192C251.154 8.3334 251.756 7.98874 252.455 7.74255C253.155 7.48406 253.965 7.36096 254.886 7.36096C255.966 7.36096 256.961 7.58253 257.869 8.01336C258.778 8.44418 259.514 9.1212 260.055 10.0321C260.607 10.943 260.877 12.1247 260.877 13.5649V24.791H257.808V13.8603C257.808 12.5186 257.452 11.5215 256.752 10.8814C256.052 10.229 255.144 9.909 254.027 9.909C253.253 9.909 252.529 10.0321 251.854 10.2783C251.179 10.5245 250.638 10.9061 250.209 11.4107C249.791 11.9154 249.583 12.5432 249.583 13.3064V24.7787H246.538V24.7664Z" fill="black"/>
<path d="M125.675 31.635H128.744V55.6505H126.007L113.153 36.7188V55.6505H110.084V31.635H113.018L125.675 50.296V31.635Z" fill="black"/>
<path d="M138.725 55.983C137.62 55.983 136.638 55.786 135.791 55.3921C134.944 54.9982 134.281 54.432 133.79 53.6934C133.311 52.9549 133.065 52.0563 133.065 51.01C133.065 49.102 133.728 47.6865 135.054 46.7633C136.38 45.8278 138.504 45.3354 141.426 45.2738L144.495 45.1877V43.8213C144.495 42.775 144.176 41.938 143.55 41.3225C142.924 40.7071 141.941 40.3993 140.616 40.3993C139.633 40.4116 138.774 40.6455 138.025 41.101C137.276 41.5564 136.798 42.295 136.577 43.329H133.876C133.937 42.2088 134.256 41.2733 134.821 40.4978C135.386 39.7223 136.171 39.1438 137.178 38.7499C138.185 38.356 139.388 38.1467 140.763 38.1467C142.248 38.1467 143.488 38.356 144.483 38.7745C145.477 39.193 146.214 39.8208 146.705 40.6332C147.196 41.4579 147.441 42.455 147.441 43.649V55.6383H144.826L144.618 52.4133C143.955 53.755 143.108 54.6782 142.089 55.1952C141.07 55.7245 139.953 55.983 138.725 55.983ZM139.646 53.7673C140.223 53.7673 140.787 53.6565 141.364 53.4472C141.929 53.238 142.457 52.9549 142.924 52.5979C143.402 52.2409 143.771 51.8347 144.053 51.3793C144.335 50.9361 144.483 50.4684 144.495 49.9883V47.0464L141.941 47.0956C140.64 47.1202 139.547 47.2556 138.676 47.4895C137.792 47.7357 137.141 48.1173 136.699 48.6343C136.257 49.1513 136.049 49.8406 136.049 50.6776C136.049 51.6378 136.38 52.3886 137.055 52.9302C137.731 53.4965 138.59 53.7673 139.646 53.7673Z" fill="black"/>
<path d="M159.927 40.7193H156.072V51.3915C156.072 51.9947 156.133 52.4501 156.268 52.7332C156.391 53.0163 156.612 53.201 156.919 53.2748C157.226 53.3487 157.643 53.3856 158.171 53.3856H160.037V55.4413C159.828 55.5151 159.509 55.589 159.092 55.6382C158.662 55.6998 158.134 55.7244 157.508 55.7244C156.33 55.7244 155.409 55.5644 154.758 55.2443C154.107 54.9243 153.653 54.4442 153.395 53.8165C153.138 53.1887 153.003 52.4132 153.003 51.49V40.707H150.216V38.4667H153.076L153.825 33.4691H156.072V38.4544H159.927V40.7193Z" fill="black"/>
<path d="M167.367 31.6473V34.8355H164.236V31.6473H167.367ZM167.305 38.479V55.6506H164.347V38.479H167.305Z" fill="black"/>
<path d="M179.164 55.983C177.581 55.983 176.206 55.6383 175.027 54.9613C173.848 54.2843 172.928 53.2872 172.277 51.9701C171.626 50.653 171.295 49.0405 171.295 47.1325C171.295 45.3354 171.602 43.7721 172.203 42.4181C172.805 41.064 173.701 40.0177 174.88 39.2669C176.058 38.516 177.482 38.1467 179.164 38.1467C180.748 38.1467 182.111 38.4914 183.277 39.1807C184.443 39.87 185.339 40.8917 185.99 42.2334C186.628 43.5751 186.948 45.2 186.948 47.1325C186.948 48.8805 186.653 50.4191 186.064 51.7486C185.474 53.078 184.603 54.1119 183.449 54.8628C182.295 55.6014 180.858 55.983 179.164 55.983ZM179.164 53.558C180.195 53.558 181.055 53.2995 181.767 52.7825C182.479 52.2655 183.007 51.5147 183.375 50.5422C183.743 49.5698 183.928 48.4127 183.928 47.071C183.928 45.8401 183.768 44.7322 183.449 43.7598C183.13 42.775 182.614 41.9996 181.914 41.421C181.214 40.8425 180.294 40.5594 179.176 40.5594C178.133 40.5594 177.261 40.8179 176.549 41.3349C175.837 41.8518 175.285 42.5904 174.917 43.5628C174.548 44.5353 174.364 45.7047 174.364 47.071C174.364 48.2773 174.524 49.3728 174.855 50.3576C175.187 51.3423 175.702 52.1178 176.414 52.6964C177.102 53.2626 178.022 53.558 179.164 53.558Z" fill="black"/>
<path d="M190.643 55.6505V38.479H193.614V40.9655C193.884 40.4854 194.276 40.0423 194.768 39.6237C195.259 39.2052 195.86 38.8606 196.56 38.6144C197.26 38.3559 198.07 38.2328 198.991 38.2328C200.071 38.2328 201.065 38.4544 201.974 38.8852C202.882 39.316 203.619 39.993 204.159 40.9039C204.712 41.8148 204.982 42.9965 204.982 44.4367V55.6628H201.912V44.7321C201.912 43.3904 201.556 42.3933 200.857 41.7533C200.157 41.1009 199.248 40.7808 198.131 40.7808C197.358 40.7808 196.634 40.9039 195.958 41.1501C195.283 41.3963 194.743 41.7779 194.313 42.2826C193.896 42.7872 193.687 43.415 193.687 44.1782V55.6505H190.643Z" fill="black"/>
<path d="M214.104 55.983C212.999 55.983 212.017 55.786 211.17 55.3921C210.323 54.9982 209.66 54.432 209.169 53.6934C208.69 52.9549 208.444 52.0563 208.444 51.01C208.444 49.102 209.107 47.6865 210.433 46.7633C211.759 45.8278 213.883 45.3354 216.805 45.2738L219.874 45.1877V43.8213C219.874 42.775 219.555 41.938 218.929 41.3225C218.302 40.7071 217.32 40.3993 215.994 40.3993C215.012 40.4116 214.153 40.6455 213.404 41.101C212.655 41.5564 212.176 42.295 211.955 43.329H209.255C209.316 42.2088 209.635 41.2733 210.2 40.4978C210.765 39.7223 211.55 39.1438 212.557 38.7499C213.564 38.356 214.767 38.1467 216.142 38.1467C217.627 38.1467 218.867 38.356 219.862 38.7745C220.856 39.193 221.593 39.8208 222.084 40.6332C222.575 41.4579 222.82 42.455 222.82 43.649V55.6383H220.205L219.997 52.4133C219.334 53.755 218.487 54.6782 217.468 55.1952C216.449 55.7245 215.331 55.983 214.104 55.983ZM215.037 53.7673C215.614 53.7673 216.179 53.6565 216.756 53.4472C217.32 53.238 217.848 52.9549 218.327 52.5979C218.806 52.2409 219.174 51.8347 219.456 51.3793C219.739 50.9361 219.886 50.4684 219.898 49.9883V47.0464L217.345 47.0956C216.044 47.1202 214.951 47.2556 214.079 47.4895C213.208 47.7357 212.545 48.1173 212.103 48.6343C211.661 49.1513 211.452 49.8406 211.452 50.6776C211.452 51.6378 211.784 52.3886 212.459 52.9302C213.109 53.4965 213.969 53.7673 215.037 53.7673Z" fill="black"/>
<path d="M231.794 55.8598C230.861 55.8598 230.124 55.7367 229.547 55.4782C228.982 55.2197 228.54 54.8751 228.233 54.4442C227.926 54.0134 227.73 53.521 227.62 52.9548C227.509 52.4009 227.46 51.8224 227.46 51.2192V30.9703H230.48V50.9238C230.48 51.7854 230.652 52.4378 230.983 52.8687C231.315 53.2995 231.794 53.5334 232.395 53.5826L233.328 53.5949V55.589C233.07 55.6629 232.813 55.7244 232.53 55.786C232.26 55.8352 232.015 55.8598 231.794 55.8598Z" fill="black"/>
<path d="M127.591 78.2136C127.591 80.06 127.284 81.6232 126.682 82.9157C126.081 84.1959 125.123 85.1806 123.846 85.8453C122.557 86.51 120.888 86.8547 118.838 86.8547C116.763 86.8547 115.081 86.51 113.792 85.8207C112.503 85.1314 111.57 84.122 110.981 82.7926C110.391 81.4632 110.097 79.8261 110.097 77.8935V62.5068H113.276V78.3613C113.276 80.2938 113.755 81.7463 114.713 82.7065C115.67 83.6666 117.045 84.1467 118.838 84.1467C120.041 84.1467 121.06 83.9374 121.907 83.5189C122.754 83.1004 123.392 82.4603 123.846 81.5986C124.288 80.737 124.522 79.6537 124.522 78.349V62.5068H127.603V78.2136H127.591Z" fill="black"/>
<path d="M132.071 86.5223V69.3508H135.03V71.8373C135.312 71.3572 135.693 70.9141 136.184 70.4956C136.675 70.0771 137.277 69.7324 137.976 69.4862C138.676 69.2277 139.486 69.1046 140.407 69.1046C141.487 69.1046 142.482 69.3139 143.39 69.757C144.299 70.1878 145.035 70.8649 145.576 71.7757C146.116 72.6866 146.398 73.8683 146.398 75.3085V86.5346H143.329V75.6039C143.329 74.2622 142.973 73.2652 142.273 72.6251C141.573 71.9727 140.665 71.6526 139.548 71.6526C138.774 71.6526 138.05 71.7757 137.375 72.0219C136.7 72.2681 136.159 72.6497 135.742 73.1544C135.325 73.6591 135.116 74.2868 135.116 75.05V86.5223H132.071Z" fill="black"/>
<path d="M154.12 62.5192V65.7073H150.989V62.5192H154.12ZM154.058 69.3508V86.5224H151.1V69.3508H154.058Z" fill="black"/>
<path d="M172.486 69.3508L166.311 86.5224H163.524L157.324 69.3508H160.209L164.764 82.6695H165.046L169.613 69.3508H172.486Z" fill="black"/>
<path d="M177.004 78.6444C177.004 79.7277 177.188 80.7124 177.544 81.5864C177.9 82.4726 178.452 83.162 179.189 83.6913C179.926 84.2083 180.846 84.4668 181.951 84.4668C183.044 84.4668 183.989 84.2083 184.775 83.7036C185.561 83.1989 186.064 82.4603 186.285 81.5002H189.182C188.974 82.6573 188.507 83.642 187.795 84.4421C187.083 85.2422 186.211 85.8454 185.192 86.2393C184.173 86.6455 183.118 86.8425 182.013 86.8425C180.417 86.8425 179.005 86.4978 177.79 85.7962C176.574 85.0945 175.629 84.0975 174.941 82.7927C174.254 81.4879 173.91 79.9246 173.91 78.0905C173.91 76.281 174.217 74.7055 174.843 73.3391C175.457 71.9728 176.353 70.9142 177.532 70.151C178.71 69.3878 180.122 69.0062 181.779 69.0062C183.388 69.0062 184.75 69.3509 185.868 70.0525C186.985 70.7541 187.832 71.7266 188.409 72.9944C188.986 74.2623 189.28 75.7641 189.28 77.4997V78.6321H177.004V78.6444ZM177.028 76.5765H186.334C186.334 75.5917 186.174 74.7054 185.843 73.9053C185.512 73.1175 185.008 72.4898 184.333 72.0343C183.658 71.5789 182.798 71.345 181.779 71.345C180.711 71.345 179.827 71.6035 179.115 72.1205C178.416 72.6375 177.888 73.2899 177.544 74.1023C177.188 74.8901 177.016 75.7148 177.028 76.5765Z" fill="black"/>
<path d="M193.135 86.5224V69.3509H196.044V72.6498C196.327 71.8374 196.732 71.1481 197.247 70.6188C197.763 70.0772 198.365 69.6833 199.028 69.4125C199.69 69.1416 200.39 69.0186 201.102 69.0186C201.36 69.0186 201.606 69.0309 201.851 69.0678C202.097 69.1047 202.281 69.154 202.416 69.2401V72.2067C202.256 72.1328 202.035 72.0713 201.777 72.0467C201.52 72.022 201.299 72.0097 201.127 72.0097C200.439 71.9605 199.801 72.0097 199.199 72.1328C198.598 72.2559 198.082 72.4775 197.628 72.7852C197.174 73.0929 196.818 73.4992 196.56 74.0038C196.302 74.5085 196.167 75.124 196.167 75.8379V86.5101H193.135V86.5224Z" fill="black"/>
<path d="M211.599 86.8548C210.409 86.8548 209.304 86.6701 208.285 86.3009C207.266 85.9316 206.419 85.3531 205.744 84.5529C205.068 83.7651 204.639 82.7558 204.467 81.5248H207.254C207.413 82.2019 207.683 82.7681 208.088 83.2112C208.494 83.6544 208.997 83.999 209.598 84.2206C210.2 84.4422 210.863 84.5652 211.587 84.5652C212.741 84.5652 213.662 84.356 214.374 83.9129C215.086 83.482 215.43 82.8173 215.43 81.9187C215.43 81.291 215.246 80.7863 214.877 80.4047C214.509 80.0231 213.932 79.74 213.159 79.5677L209.611 78.6814C208.236 78.349 207.131 77.832 206.296 77.1181C205.473 76.4042 205.056 75.4194 205.056 74.1516C205.044 73.1422 205.277 72.2559 205.768 71.4927C206.259 70.7296 206.983 70.1264 207.953 69.6833C208.923 69.2401 210.139 69.0186 211.575 69.0186C213.429 69.0186 214.926 69.4371 216.068 70.2741C217.21 71.1111 217.799 72.3421 217.848 73.9546H215.147C215.037 73.1422 214.669 72.4898 214.043 72.0097C213.416 71.5297 212.582 71.2835 211.538 71.2835C210.445 71.2835 209.562 71.505 208.874 71.9359C208.187 72.3667 207.843 73.056 207.843 73.9669C207.843 74.5824 208.088 75.0501 208.567 75.4071C209.058 75.7518 209.77 76.0472 210.716 76.2811L214.141 77.1427C214.939 77.352 215.589 77.6351 216.105 77.9798C216.621 78.3244 217.026 78.706 217.333 79.1245C217.64 79.543 217.848 79.9862 217.983 80.4416C218.106 80.8971 218.18 81.3402 218.18 81.7587C218.18 82.805 217.922 83.7159 217.394 84.4791C216.866 85.2423 216.117 85.8208 215.147 86.2393C214.178 86.6455 212.999 86.8548 211.599 86.8548Z" fill="black"/>
<path d="M225.508 62.5192V65.7073H222.378V62.5192H225.508ZM225.447 69.3508V86.5224H222.488V69.3508H225.447Z" fill="black"/>
<path d="M239.098 71.5911H235.244V82.2633C235.244 82.8665 235.305 83.3219 235.44 83.6051C235.563 83.8882 235.784 84.0728 236.091 84.1467C236.398 84.2205 236.815 84.2574 237.343 84.2574H239.209V86.3131C239 86.387 238.681 86.4608 238.264 86.5101C237.834 86.5716 237.306 86.5962 236.68 86.5962C235.501 86.5962 234.581 86.4362 233.93 86.1162C233.279 85.7961 232.825 85.3161 232.567 84.6883C232.31 84.0605 232.174 83.285 232.174 82.3618V71.5788H229.388V69.3385H232.248L232.997 64.3409H235.244V69.3262H239.098V71.5911Z" fill="black"/>
<path d="M244.967 92C243.961 92 243.089 91.8523 242.34 91.5692V89.5751L244.083 89.612C244.722 89.6366 245.25 89.5874 245.667 89.4766C246.084 89.3658 246.428 89.2181 246.674 89.0335C246.932 88.8488 247.128 88.6396 247.263 88.4057C247.398 88.1718 247.509 87.9503 247.607 87.741L248.208 86.1162L241.518 69.3632H244.611L249.657 82.608L254.678 69.3632H257.674L250.455 87.8272C250.013 88.9104 249.522 89.7597 248.969 90.3629C248.417 90.9661 247.815 91.3969 247.153 91.6431C246.477 91.8769 245.753 92 244.967 92Z" fill="black"/>
<path d="M71.2652 2.57263C71.4126 5.80999 71.8913 16.9869 71.8913 30.6749C71.8913 47.3417 70.7987 56.229 67.8769 63.4669C66.4651 66.9628 64.6604 69.6093 62.0578 72.0589C59.713 74.2499 56.607 76.4041 51.3526 79.4814C47.3259 81.8325 44.1095 83.4204 41.5314 84.319C39.1988 85.1314 37.7993 85.2422 36.854 85.2422C35.8964 85.2422 34.5092 85.1314 32.1766 84.319C29.5863 83.4081 26.3821 81.8325 22.3554 79.4814C17.0887 76.4041 13.995 74.2622 11.6502 72.0589C9.04756 69.6216 7.2429 66.9628 5.8311 63.4669C2.89699 56.229 1.81666 47.3417 1.81666 30.6749C1.81666 16.9992 2.29544 5.83461 2.44276 2.58494L71.2652 2.57263ZM1.62023 0.89856C1.42381 0.89856 1.22738 0.960106 1.08006 1.0832C0.920466 1.23091 0.822254 1.41555 0.809977 1.62481C0.809977 1.7479 0.134766 14.4142 0.134766 30.6625C0.134766 47.5756 1.25193 56.6229 4.27197 64.0824C7.32884 71.6526 12.0676 75.3824 21.496 80.897C30.5316 86.1777 34.3128 86.8793 36.8294 86.8793C39.3461 86.8793 43.1273 86.1654 52.1629 80.897C61.6036 75.3824 66.3301 71.6526 69.3869 64.0824C72.407 56.6229 73.5241 47.5756 73.5241 30.6625C73.5241 14.4142 72.8612 1.7479 72.8489 1.62481C72.8612 1.41555 72.7753 1.23091 72.6157 1.0832C72.4684 0.947797 72.2596 0.89856 72.0632 0.89856C72.0509 0.89856 1.82893 0.89856 1.62023 0.89856Z" fill="#BF872B"/>
<path d="M58.0559 21.369L57.2702 19.141L56.4845 21.3321L54.1396 21.4182L56.0057 22.8707L55.3305 25.111L57.2579 23.7816L59.1976 25.111L58.5347 22.8461L60.4007 21.4182L58.0559 21.369Z" fill="#BF872B"/>
<path d="M55.318 33.9737L57.0981 35.6232L56.9262 33.1983L59.3202 32.829L57.3191 31.4626L58.5222 29.3577L56.2142 30.0717L55.318 27.8068L54.4341 30.0717L52.1138 29.3577L53.3169 31.4626L51.3281 32.829L53.7221 33.1983L53.5379 35.6232L55.318 33.9737Z" fill="#BF872B"/>
<path d="M64.9797 20.6551L66.7598 22.3046L66.5757 19.8796L68.9696 19.5104L66.9808 18.144L68.1839 16.0391L65.8636 16.7531L64.9797 14.4882L64.0835 16.7531L61.7755 16.0391L62.9786 18.144L60.9775 19.5104L63.3715 19.8796L63.1996 22.3046L64.9797 20.6551Z" fill="#BF872B"/>
<path d="M56.3371 11.5708L58.1172 13.2202L57.9331 10.7953L60.327 10.4383L58.3382 9.05968L59.5413 6.95479L57.221 7.66873L56.3371 5.40381L55.4532 7.66873L53.1329 6.95479L54.336 9.05968L52.335 10.4383L54.7289 10.7953L54.557 13.2202L56.3371 11.5708Z" fill="#BF872B"/>
<path d="M46.135 19.4487L47.9151 21.0859L47.7309 18.6732L50.1249 18.3039L48.1238 16.9376L49.3392 14.8327L47.0189 15.5343L46.135 13.2817L45.2388 15.5343L42.9308 14.8327L44.1339 16.9376L42.1328 18.3039L44.5267 18.6732L44.3549 21.0859L46.135 19.4487Z" fill="#BF872B"/>
<path d="M55.4043 39.7345C45.6076 35.0447 39.0273 31.7089 36.6579 31.7089C34.2886 31.7089 28.0889 35.0447 18.2922 39.7345C8.49548 44.4367 5.15625 45.4338 5.15625 47.4894C5.15625 49.5451 7.56246 48.5727 8.28678 48.3511C9.02337 48.1295 34.0062 40.03 36.6579 40.03C39.3097 40.03 64.6731 48.1418 65.4097 48.3511C66.1463 48.5727 68.5402 49.5451 68.5402 47.4894C68.5402 45.4338 65.201 44.4367 55.4043 39.7345Z" fill="#BF872B"/>
<path d="M61.0388 55.0843C56.7911 56.5122 53.4151 59.6265 48.7131 58.7402C44.5882 57.9647 41.163 54.395 36.8417 54.4442C32.1029 54.5058 28.5182 58.5925 23.8776 58.9864C19.3107 59.368 15.7505 55.6629 11.4906 54.7889C9.56314 54.395 7.86897 54.6535 6.26074 55.2074C6.59221 56.7953 6.96051 58.2601 7.40246 59.6388C8.66695 59.331 10.0051 59.2449 11.4906 59.5526C15.7505 60.4266 19.3107 64.1317 23.8776 63.7501C28.5305 63.3562 32.1029 59.2695 36.8417 59.2079C41.1753 59.1587 44.6005 62.7284 48.7131 63.5039C53.4151 64.3902 56.7911 61.2759 61.0388 59.848C62.9417 59.2079 64.6359 59.2695 66.2441 59.6634C66.686 58.2847 67.0543 56.8199 67.3858 55.232C65.4216 54.5673 63.3837 54.2965 61.0388 55.0843Z" fill="#BF872B"/>
<path d="M61.0389 64.624C56.7912 66.0519 53.4151 69.1661 48.7132 68.2799C44.5883 67.5044 41.1631 63.9347 36.8417 63.9839C32.103 64.0454 28.5182 68.1321 23.8777 68.526C19.3108 68.9076 15.7506 65.2025 11.4906 64.3286C10.6804 64.1685 9.91921 64.107 9.18262 64.1562C10.1525 66.1011 11.3433 67.7752 12.8165 69.3015C12.8656 69.3508 12.9147 69.3877 12.9638 69.4123C13.4426 69.6462 15.9225 70.8525 17.1501 71.468C19.2494 72.5266 21.4469 73.499 23.8654 73.3021C28.5182 72.9082 32.0907 68.8215 36.8295 68.7599C41.1631 68.7107 44.5883 72.2804 48.7009 73.0559C51.5736 73.5975 54.0044 72.6251 56.3861 71.468C57.626 70.8648 60.2777 69.5477 60.7688 69.3015C60.8302 69.2769 60.8793 69.24 60.9161 69.1908C62.3156 67.7136 63.5187 66.0396 64.4518 64.1685C63.3837 64.0824 62.2543 64.2055 61.0389 64.624Z" fill="#BF872B"/>
<path d="M25.1553 77.8566C27.0459 78.9275 28.7278 79.8015 30.2255 80.4785C32.3248 79.383 34.4364 78.312 36.8426 78.2874C39.2488 78.2628 41.3726 79.346 43.4965 80.4539C45.0065 79.7522 46.7007 78.8783 48.6158 77.7951C44.54 76.9703 41.1394 73.4745 36.8548 73.5237C32.5458 73.5729 29.2065 76.9334 25.1553 77.8566Z" fill="#BF872B"/>
<path d="M52.1634 49.1882C47.1423 47.6495 43.7171 46.6525 41.3723 45.9877C39.138 45.36 38.0945 45.1261 37.407 44.9538C37.1983 44.9045 36.8545 44.8307 36.744 44.8184C36.5845 44.843 36.3757 44.8922 36.0934 44.9538C35.5164 45.0892 34.6202 45.3107 33.2575 45.6923C30.9372 46.3324 27.2297 47.4156 21.3369 49.2497C19.4464 49.8406 17.3225 50.5053 14.9531 51.2561C17.8504 52.6348 20.6249 54.4935 23.9273 54.2227C28.5801 53.8288 32.1526 49.7421 36.8914 49.6805C41.225 49.6313 44.6502 53.201 48.7628 53.9765C52.5931 54.7028 55.5395 52.7702 58.8051 51.2561C56.3252 50.4683 54.1154 49.7913 52.1634 49.1882Z" fill="#BF872B"/>
</g>
<defs>
<clipPath id="clip0_924_4692">
<rect width="261" height="92" fill="white"/>
</clipPath>
</defs>
</svg>
