<svg width="166" height="178" viewBox="0 0 166 178" fill="none" xmlns="http://www.w3.org/2000/svg">
<g clip-path="url(#clip0_924_4680)">
<path d="M125.976 19.4975L111.858 1.21973C109.795 2.5053 106.543 3.76852 103.269 3.76852C99.9949 3.76852 97.64 3.4667 94.8813 2.91892C91.4616 2.237 87.5815 1.4768 81.426 1.4768C75.2699 1.4768 71.3899 2.24817 67.9701 2.91892C65.2001 3.4667 62.8566 3.76852 59.5827 3.76852C56.3082 3.76852 53.0566 2.5053 50.9933 1.21973L36.8535 19.4975C38.6028 21.1744 41.7875 24.9529 41.7875 30.3188C41.7875 33.9744 41.2488 37.2834 40.6324 41.118C39.7912 46.2714 38.8493 52.118 38.8493 60.8153C38.8493 75.7285 48.3919 88.5843 63.7424 94.3528C74.8548 98.5227 79.4971 101.597 81.4146 103.285C83.332 101.585 87.9744 98.5227 99.0862 94.3528C114.449 88.5843 123.98 75.7394 123.98 60.8153C123.98 52.118 123.027 46.2714 122.197 41.118C121.569 37.2834 121.042 33.9744 121.042 30.3188C121.042 24.9529 124.226 21.1632 125.976 19.4975Z" fill="white"/>
<path d="M111.858 1.21943L125.975 19.4972C124.226 21.1741 121.042 24.9526 121.042 30.3188C121.042 33.9744 121.58 37.2834 122.197 41.1175C123.038 46.2714 123.98 52.118 123.98 60.8153C123.98 75.728 114.438 88.5843 99.0866 94.3522C87.9742 98.5221 83.3318 101.597 81.4144 103.284C79.4969 101.585 74.8551 98.5221 63.7427 94.3522C48.3809 88.5843 38.8497 75.7394 38.8497 60.8153C38.8497 52.118 39.8024 46.2714 40.6322 41.1175C41.2601 37.2834 41.7873 33.9744 41.7873 30.3188C41.7873 24.9639 38.6026 21.1741 36.8533 19.4972L50.9708 1.21943C53.0341 2.50505 56.2857 3.76828 59.5602 3.76828C62.8346 3.76828 65.189 3.46645 67.9476 2.91868C71.3674 2.23675 75.2474 1.47655 81.4035 1.47655C87.5596 1.47655 91.4391 2.24793 94.8594 2.91868C97.6289 3.46645 99.9724 3.76828 103.247 3.76828C106.543 3.76828 109.784 2.50505 111.858 1.21943ZM112.116 -0.244995L111.264 0.280375C109.414 1.43185 106.341 2.66155 103.258 2.66155C99.9278 2.66155 97.6626 2.34855 95.0836 1.8343C91.6072 1.15238 87.6825 0.369828 81.4144 0.369828C75.1462 0.369828 71.2107 1.15238 67.7458 1.8343C65.1667 2.34855 62.9016 2.66155 59.5716 2.66155C56.4876 2.66155 53.4155 1.43185 51.565 0.280375L50.7129 -0.244995L50.1073 0.548676L35.9904 18.8265L35.3848 19.609L36.091 20.291C37.8066 21.9343 40.6882 25.4222 40.6882 30.3188C40.6882 33.8849 40.1615 37.1489 39.5445 40.9385C38.7038 46.1369 37.7391 52.0285 37.7391 60.8153C37.7391 76.1978 47.5511 89.4446 63.3504 95.3808C74.6304 99.6179 79.0486 102.67 80.6858 104.112L81.4144 104.76L82.1435 104.112C83.7693 102.67 88.1875 99.6179 99.4789 95.3808C115.278 89.4446 125.09 76.2086 125.09 60.8153C125.09 52.0285 124.137 46.1369 123.284 40.9385C122.668 37.1489 122.141 33.8735 122.141 30.3188C122.141 25.4222 125.023 21.9343 126.738 20.291L127.445 19.609L126.839 18.8265L112.733 0.548676L112.116 -0.244995Z" fill="#000F46"/>
<path d="M118.182 30.1397C118.182 25.3101 120.279 21.5875 122.241 19.1616L111.05 4.68467C108.942 5.80257 106.319 6.4398 103.268 6.4398C99.7137 6.4398 97.1014 6.09322 94.3205 5.53427C91.0237 4.88587 87.2786 4.14807 81.4027 4.14807C75.5274 4.14807 71.7817 4.88587 68.4855 5.53427C65.7046 6.08205 63.0917 6.4398 59.5371 6.4398C56.4873 6.4398 53.8636 5.80257 51.7552 4.68467L40.5645 19.1616C42.5271 21.5875 44.6235 25.3101 44.6235 30.1397C44.6235 34.0188 44.0745 37.4396 43.4238 41.3968C42.6054 46.4498 41.6744 52.1733 41.6744 60.6362C41.6744 74.3306 50.4994 86.1578 64.7175 91.5016C73.5425 94.8106 78.5657 97.5272 81.4027 99.4947C84.2397 97.5272 89.2635 94.8106 98.0879 91.5016C112.306 86.1692 121.131 74.3414 121.131 60.6362C121.131 52.1625 120.201 46.4384 119.382 41.3968C118.731 37.4396 118.182 34.0188 118.182 30.1397Z" fill="#000F46"/>
<path d="M49.1538 9.07843C43.6034 7.81515 41.0352 7.02148 41.0352 7.02148C41.0352 10.3528 42.7513 12.0073 42.7513 12.0073C42.7513 12.0073 43.1213 13.237 44.1752 15.0704" fill="#000F46"/>
<path d="M118.249 26.3389C120.75 24.9415 121.411 24.3714 122.286 21.8561C122.286 21.8561 124.259 20.1457 125.089 18.7595C127.354 16.3672 128.049 13.427 128.072 13.4047C129.832 11.3254 130.404 8.45238 130.404 8.45238C132.176 5.67992 132.4 3.20935 132.4 3.20935C132.4 3.20935 128.307 4.5732 119.583 7.34565C118.317 7.7481 113.641 9.35785 113.641 9.35785" fill="#000F46"/>
<path d="M52.1368 37.8974L52.9997 40.0775L55.2986 39.4065L54.1772 41.4304L56.1398 42.9396L53.7849 43.1408L53.897 45.5217L52.1814 43.9789L50.3314 45.5217L50.4995 43.2526L48.2567 42.7492L50.2525 41.3518L49.1539 39.3062L51.2618 40.0553L52.1368 37.8974ZM64.7737 43.5319L62.6659 42.8387L63.7535 44.8512L61.7572 46.2258L64.0675 46.7292L63.8433 49.0319L65.671 47.4892L67.4426 49.0319L67.2968 46.6511L69.6626 46.4498L67.7342 44.9738L68.8219 42.9282L66.5231 43.5433L65.6819 41.4191L64.7737 43.5319ZM48.7611 57.2708L46.6532 56.5781L47.7186 58.5678L45.756 59.9429L47.9988 60.4458L47.8084 62.7377L49.6583 61.1727L51.3739 62.7377L51.2618 60.334L53.6167 60.1328L51.677 58.6237L52.7755 56.6339L50.4658 57.2708L49.6246 55.1134L48.7611 57.2708ZM64.8521 58.1094L62.834 58.1431L64.5158 59.4064L63.8994 61.4521L65.6035 60.2223L67.3191 61.4521L66.6798 59.4064L68.3621 58.1208H66.2875L65.6149 56.1305L64.8521 58.1094ZM64.684 72.2177L62.5761 71.4908L63.6414 73.5033L61.6451 74.8779L63.9217 75.3813L63.7535 77.6727L65.5812 76.1077L67.3191 77.7063L67.151 75.3585L69.5391 75.0792L67.5993 73.57L68.6984 71.5803L66.4219 72.2285L65.5812 70.0489L64.684 72.2177ZM85.2263 77.684C86.505 77.0467 86.8412 76.4321 87.2559 75.6384L87.2896 75.5712C87.3794 75.3922 87.4577 75.2137 87.5366 75.0233C87.671 74.6994 87.8277 74.3414 88.1085 73.9053C88.1085 73.8944 88.1085 73.883 88.1085 73.883C81.201 66.0575 76.3345 56.8911 74.6526 53.6938C74.6412 53.6716 74.6075 53.6824 74.6075 53.7047C74.5068 56.4772 74.5628 62.2457 76.514 66.0575C77.6126 68.1932 77.7921 68.4053 80.7298 72.005L81.1896 72.5752L81.5149 72.9663C81.5264 72.9891 81.5149 73.0113 81.4926 72.9999C81.1226 72.8209 80.5394 72.4412 80.5394 72.4412C79.6759 71.9492 77.6463 70.3619 75.8633 67.7907C75.8524 67.7679 75.8187 67.7793 75.8187 67.8015C75.7289 71.5917 77.6801 75.1578 78.981 76.5552C80.2368 77.9075 82.0308 78.1088 82.9949 78.1088C83.8584 78.1088 84.6882 77.9412 85.2263 77.684ZM97.7964 80.0763C99.5234 79.9759 101.654 79.3049 102.416 78.2097C102.651 77.9189 103.033 77.5164 103.919 77.013C104.457 76.7337 104.973 76.5552 105.432 76.3984C106.789 75.94 107.687 75.6384 107.675 73.1675C98.1218 67.4663 94.2417 61.7314 94.4996 61.6978C94.4996 61.6978 96.1592 63.3745 98.5701 65.3198C100.678 67.0193 105.13 70.7308 109.021 72.4634C109.29 72.5974 109.032 76.2194 106.834 77.2034C106.644 77.2929 106.363 77.4047 106.027 77.5273C104.883 77.9526 103.156 78.5894 103.336 79.7519C103.392 79.8528 103.762 79.9982 104.536 79.9982C106.251 79.9982 108.483 79.3163 109.335 77.8072C109.671 77.2034 109.918 76.6555 110.142 76.1749C110.837 74.6658 111.264 73.7377 113.237 73.3129C112.407 72.4298 108.045 67.7907 106.027 65.6328C103.896 63.3523 102.349 60.781 102.181 60.5017C102.181 60.4908 101.833 59.9429 101.317 59.5963C99.1534 57.9196 96.8099 57.4612 94.7352 57.0587C92.4592 56.6562 91.3264 56.2314 90.5526 55.4937C89.2522 54.2862 89.465 52.3523 89.5547 51.6254C89.5547 51.5809 89.5662 51.5359 89.5662 51.4914C89.4426 51.6254 89.2408 51.9498 89.151 52.0838C88.8147 52.6317 88.2989 53.4475 87.3456 53.4475C87.245 53.4475 87.1329 53.4367 87.0208 53.4144C86.2694 53.2799 85.7421 52.911 85.3275 51.4578C85.2155 51.0775 85.0022 50.9549 84.9124 50.9435C84.7894 50.9435 84.7334 50.9886 84.6996 51.0217C84.3634 51.3797 84.4417 52.6875 84.5647 53.2691C84.5984 53.5262 84.5201 53.6716 84.4526 53.7497C84.3634 53.8614 84.2175 53.9173 84.0489 53.9173C83.8475 53.9173 83.668 53.8278 83.5896 53.6938C83.3426 53.3358 83.107 52.9447 82.9052 52.5536C82.7485 53.1459 82.4459 53.7833 81.7505 53.7942C81.2456 53.7942 80.7973 53.3917 80.3152 52.9669C79.7771 52.4863 79.3282 52.1174 78.9473 52.1174C78.8238 52.1174 78.7117 52.1511 78.5882 52.2292C78.3863 52.3632 78.1736 52.4304 77.9603 52.4304C77.6915 52.4304 77.4559 52.3187 77.2763 52.106C76.6261 51.2679 77.4559 50.1836 77.7807 49.8255C77.568 49.6802 77.0968 49.5353 76.514 49.5353C76.0766 49.5353 75.0226 49.6243 74.5628 50.4071C74.417 50.8877 74.6972 51.4356 74.9214 51.8825C75.7626 53.7274 82.4008 65.5547 89.2185 73.0558C89.6559 73.5592 89.7006 74.0062 89.3752 74.4423C88.4562 75.7279 88.1417 76.7451 88.4448 77.4606C88.8262 78.3659 90.0482 78.5672 90.0591 78.5672C90.3959 78.6344 90.7099 78.6567 90.9787 78.6567C92.3243 78.6567 92.7617 77.9298 93.2661 77.0917C93.9169 75.9286 94.5557 75.6829 94.9817 75.6829C95.2173 75.6829 95.3854 75.7502 95.4529 75.7838L95.4752 75.7947C95.6325 75.8728 95.8343 76.1077 95.9012 76.4098C95.9573 76.6441 95.9687 77.0244 95.6662 77.4492L95.6548 77.4606C95.3745 77.7736 94.8696 78.0084 94.4327 78.2205C93.9952 78.4332 93.5017 78.6675 93.524 78.8465C93.5915 79.0928 95.2848 80.054 97.5608 80.054C97.6506 80.0763 97.718 80.0763 97.7964 80.0763ZM86.0452 58.4447C87.245 60.1887 90.452 64.8392 95.9464 71.0774C95.9464 71.0774 96.3273 71.5912 95.7783 72.6311L95.5312 72.9999L95.3522 72.6088C95.3522 72.6088 95.1836 72.2285 94.825 71.826C88.1085 64.1459 85.2263 57.5507 85.2601 57.5279C85.2601 57.5393 85.4059 57.5279 86.0452 58.4447ZM102.562 59.0821C102.842 58.8808 102.988 58.3443 102.988 57.4612C102.988 56.9806 102.988 56.5222 103.28 56.1419C103.56 55.7731 103.941 55.5604 104.401 55.5159C103.908 55.2252 103.325 54.9008 102.663 54.5433C101.015 53.6488 98.5815 52.3301 95.6325 50.1613C96.3387 51.1112 97.2468 52.0616 98.2785 52.9561L98.6485 53.2799C98.6262 53.3135 98.2224 53.1796 98.2224 53.1796C98.1887 53.1682 97.4041 52.9002 96.9106 52.5872C96.8991 52.5758 96.8768 52.5644 96.8545 52.5536C95.4192 51.7372 94.0513 50.4184 92.9859 48.8084C92.975 48.7862 91.5734 46.5057 89.8687 42.6488C89.3643 41.4972 86.628 36.8689 85.574 35.8854C83.9259 35.5502 81.8175 35.5274 81.2124 35.5274C80.887 35.5274 80.6068 35.5388 80.4273 35.5502C79.1715 35.6283 78.2296 35.8404 77.7361 36.0308C75.5831 41.9778 74.8882 46.1591 74.6972 48.6294L74.6749 48.8307C75.2245 48.5849 75.841 48.4509 76.4689 48.4509C77.624 48.4509 78.6556 48.8979 78.8684 49.5017C79.0371 50.049 78.79 50.3398 78.5436 50.6197C78.3977 50.7982 78.2405 50.9658 78.1736 51.2229C78.42 51.1003 78.678 51.0331 78.9473 51.0331C79.7879 51.0331 80.5056 51.6704 81.0329 52.1397L81.0438 52.1511C81.4589 52.5313 81.6385 52.6431 81.7168 52.6876C81.7952 52.5644 81.997 52.0838 82.1091 50.4184C82.1091 50.4071 82.1091 50.3957 82.1091 50.3957C81.2347 45.2537 83.9259 41.6203 83.9259 41.6203C83.9259 41.6203 82.1766 47.5228 83.477 51.1334C83.7017 50.2394 84.2284 49.9487 84.6659 49.8814C84.7334 49.8706 84.8003 49.8592 84.8678 49.8592C85.4282 49.8592 86.1121 50.2617 86.3701 51.1562C86.684 52.2514 86.8973 52.285 87.2112 52.3523C87.2559 52.3632 87.301 52.3632 87.3348 52.3632C87.6487 52.3632 87.8506 52.106 88.2315 51.5028C88.5454 50.9994 88.9383 50.3626 89.6445 50.3626C89.7229 50.3626 89.8126 50.3734 89.9024 50.3957C90.2501 50.4743 90.7208 50.8318 90.631 51.5028C90.1718 55.0576 91.7638 55.3706 94.9371 55.9852C96.6864 56.3318 98.8503 56.7457 100.925 58.0091C100.689 57.5279 100.297 57.0923 100.017 56.7902C99.8934 56.6562 99.8036 56.5553 99.7361 56.4663L99.5903 56.2651L99.8373 56.2873C99.8596 56.2873 101.945 56.4886 102.427 59.1157C102.427 59.1157 102.427 59.1157 102.439 59.1157C102.461 59.1493 102.506 59.1265 102.562 59.0821ZM104.805 56.4994C104.692 56.4994 104.58 56.5108 104.457 56.5444C104.042 56.6448 104.008 56.9692 103.997 57.5615C103.986 57.9977 103.975 58.5233 103.695 59.0148C104.939 58.7468 105.724 58.1094 105.713 57.3494C105.702 57.0695 105.578 56.8238 105.376 56.6676C105.231 56.5553 105.029 56.4994 104.805 56.4994ZM90.0145 40.3792C90.0368 40.4128 90.082 40.4128 90.1157 40.3792C91.0124 39.3062 90.3959 37.0257 90.205 36.1648C91.4722 36.9248 93.2101 37.4618 94.1634 37.5513C94.2754 36.4669 93.9952 35.3598 93.524 34.0633C94.9485 35.0918 97.0678 35.7064 97.7855 35.6728C97.9422 34.5325 97.101 32.3866 97.045 32.0844C97.5836 32.2971 98.8503 33.0126 99.9157 33.1352C100.196 32.4424 100.375 31.313 100.275 30.2178C100.275 30.2178 98.3008 30.5975 97.3143 30.5975C97.045 30.5975 96.7985 30.5867 96.5852 30.5639C96.0362 30.5194 95.0269 30.3296 94.029 30.1169C93.4571 29.9938 92.8738 29.8934 92.3694 29.8039C92.1676 29.7703 91.9657 29.7367 91.7861 29.6922C91.2257 29.5913 90.7545 29.5246 90.0259 29.4573C89.7566 29.4351 89.2408 29.4128 89.0052 29.4128C88.9943 29.4128 88.9943 29.4128 88.9943 29.4237C88.6466 31.5816 87.3794 33.4932 86.6954 34.5325C86.5948 34.6893 86.505 34.8233 86.4375 34.9242V34.935C87.7717 36.8022 89.6782 39.8541 90.0145 40.3792ZM66.3326 26.8862C65.8391 26.4502 65.6596 25.936 65.8168 25.4329C64.9081 25.3212 63.3384 25.0305 62.0826 24.3374C61.533 24.4603 59.7614 24.8181 57.5414 24.8181C57.0479 24.8181 56.5321 24.8069 55.9825 24.7734C56.0277 24.8069 56.0723 24.8293 56.1169 24.8628C56.5881 25.1646 57.0593 25.4777 57.53 25.5671C57.7204 25.5335 58.1693 25.5 59.3016 25.4217C59.4697 25.4106 59.6493 25.3994 59.8174 25.3994C61.0063 25.3994 62.3067 25.813 63.7867 26.6738C63.9102 26.7185 65.1214 27.1992 65.7602 27.5234C65.8614 27.3893 66.0633 27.1657 66.3326 26.8862ZM118.115 25.2205C119.124 24.9522 120.268 23.9237 120.907 22.7611C119.628 23.5101 118.574 23.8119 117.352 23.8119C117.117 23.8119 116.859 23.8008 116.579 23.7784C116.399 24.0691 116.197 24.6168 115.211 25.0976C116.209 25.5 117.61 25.3547 118.115 25.2205ZM101.934 25.4665C102.45 25.4106 102.909 25.3547 103.313 25.3099C105.937 25.0081 106.341 24.9634 106.744 24.7063C106.801 24.6728 106.89 24.5833 106.991 24.4715C107.317 24.1473 107.799 23.6666 108.348 23.5996C108.427 23.5884 108.505 23.5772 108.573 23.566C108.639 23.5549 108.718 23.5437 108.785 23.5325C109.021 23.4989 109.223 23.4542 109.402 23.3201C109.862 22.9959 110.288 22.694 110.714 22.6717C110.725 22.6717 110.736 22.6717 110.736 22.6717C111.073 22.6717 111.219 22.9959 111.252 23.1077C111.342 23.2754 111.331 23.6778 111.308 23.9685C111.42 23.9461 111.566 23.9014 111.701 23.8455C111.734 23.8343 111.779 23.812 111.836 23.7896C112.004 23.7225 112.239 23.6219 112.452 23.5549C112.598 23.5101 112.71 23.4878 112.822 23.4878C113.069 23.4878 113.214 23.6107 113.36 23.7672C113.596 24.0132 113.73 24.3598 113.764 24.6168C114.482 24.4156 115.132 23.9349 115.413 23.5884C114.336 23.2866 112.946 22.627 112.104 21.5873C111.746 21.1402 111.611 20.7042 111.578 20.38C107.743 21.8333 101.194 23.2866 99.0636 23.7337C99.1311 23.9797 99.1311 24.2256 99.0636 24.4603C99.0076 24.6616 98.9064 24.8516 98.7497 25.0305C98.9853 25.2317 99.5011 25.7348 99.5011 25.7348C99.5011 25.7348 101.62 25.5 101.934 25.4665ZM67.7789 24.315C67.6891 24.1473 67.6216 23.9237 67.6107 23.7225C65.0991 22.2134 62.2284 21.755 60.6026 21.6097C61.0732 22.2804 61.6451 22.8058 62.3628 23.253C64.0114 24.2703 66.6237 24.4268 66.9828 24.4492C67.1287 24.4156 67.4426 24.3598 67.7789 24.315ZM60.8382 23.4766C60.2212 22.9512 59.7391 22.3475 59.313 21.5985C58.517 21.6879 57.7319 21.7438 56.9581 21.7438C54.5249 21.7438 52.1476 21.2631 49.7144 20.2794C50.9256 21.5091 53.0335 23.1636 54.8279 23.5437C55.6909 23.6778 56.5996 23.7449 57.53 23.7449C58.8756 23.7449 60.0416 23.6107 60.8382 23.4766ZM111.902 19.0944C111.936 19.0385 112.127 18.7926 112.441 18.5578C112.609 18.4236 112.788 18.3118 112.979 18.2336L113.147 18.1665C113.831 17.8647 114.549 17.5629 114.964 17.2498L115.087 17.1604C115.401 16.9368 115.693 16.7132 115.917 16.2884C114.762 16.2325 113.764 15.9419 113.102 15.6848C106.094 17.2051 99.4113 19.8434 97.2806 20.7265C97.7518 21.1625 97.8524 21.7438 97.5945 22.4928C97.9085 22.5152 98.1887 22.6046 98.4357 22.7723C99.568 22.5264 107.955 20.7489 111.902 19.0944ZM120.862 21.4867C121.703 20.8719 122.824 20.0446 123.777 18.7926C121.355 19.7987 119.46 20.0111 116.893 20.0334C116.825 20.0334 116.769 20.0334 116.713 20.0334C114.874 20.0334 113.562 19.7428 112.923 19.5639C112.856 19.631 112.811 19.6869 112.788 19.7092C112.755 19.7651 112.474 20.257 112.99 20.883C113.854 21.9451 115.513 22.5599 116.421 22.6605C116.702 22.694 117.005 22.7164 117.33 22.7164C118.092 22.7276 119.292 22.6046 120.862 21.4867ZM58.7972 20.57C58.5393 19.9775 58.3374 19.3739 58.1356 18.7814L58.1018 18.7031C57.6083 17.261 56.3525 16.8585 56.2181 16.825C50.2416 15.573 45.9916 13.6166 43.8614 12.1186C44.6122 13.8514 45.3637 15.4053 46.5749 16.7244C48.0325 18.323 49.9946 19.4074 52.7309 20.1341H52.7532C53.5944 20.3464 54.4242 20.4918 55.2202 20.5589C55.8367 20.6147 56.4537 20.6371 57.0479 20.6371C57.8102 20.6594 58.4049 20.6147 58.7972 20.57ZM95.7445 20.1452C95.7783 20.1452 95.8006 20.1452 95.8343 20.1452C96.7201 19.754 103.627 16.8027 111.432 14.9469C109.806 14.2762 108.281 13.9632 106.666 13.9632C105.444 13.9632 104.154 14.1421 102.741 14.5221C98.2224 15.7183 95.3854 17.5069 94.0067 18.569C94.2417 18.6248 94.4436 18.7255 94.6346 18.8708C95.1052 19.2285 95.3522 19.6869 95.3522 20.1788C95.4866 20.1564 95.621 20.1452 95.7445 20.1452ZM117.005 18.9267C118.574 18.9267 120.918 18.7478 123.093 17.9317C125.156 17.1268 126.244 14.9581 126.636 13.9632C123.62 15.573 120.828 16.0313 117.083 16.2772C116.758 17.2834 116.175 17.7082 115.715 18.0435L115.603 18.133C115.289 18.3678 114.863 18.5913 114.459 18.7814C114.986 18.8373 115.872 18.9267 117.005 18.9267ZM69.2365 28.8872C70.5821 27.7023 71.1877 27.3669 72.9147 26.6291C73.9796 25.2429 75.4487 24.4156 76.9847 24.315C75.2022 22.9065 74.0247 21.4643 74.0133 19.2397C74.0024 17.0263 72.7129 14.7569 71.5354 13.9185C69.6517 12.4875 67.1395 12.3646 63.6523 12.208C61.2974 12.0963 58.6291 11.9733 55.4781 11.4255C55.433 11.4144 50.0174 10.33 48.5032 9.98341C48.4586 9.97223 44.4893 9.16733 42.3477 8.50776C42.6388 9.45798 43.4685 10.4306 44.8141 11.4144C44.9828 11.5261 48.963 14.1979 56.2296 15.7295L56.3079 15.7518C56.3079 15.7518 56.8237 15.8636 57.0027 15.8971C63.1817 17.0821 64.4821 17.4511 64.6056 17.4846C66.5116 18.0212 68.0705 18.7143 68.6532 19.2844C68.9226 19.5304 69.2365 19.9105 69.2589 19.9328L69.5282 20.257L68.3393 19.8098C66.9377 19.2844 65.8277 18.9044 64.3254 18.5354C64.2802 18.5243 63.2377 18.2224 58.6062 17.3169C58.831 17.6411 59.0214 17.9988 59.1449 18.3789L59.1781 18.4572C59.4137 19.1391 59.6493 19.8434 59.9633 20.5029C61.1184 20.5477 64.7623 20.8383 67.9693 22.6829C68.3953 22.1574 69.0684 22.0457 69.5728 22.0457C69.5957 22.0457 69.6288 22.0457 69.6517 22.0457C69.6288 21.6097 69.7638 21.2072 70.044 20.883C70.47 20.3911 71.1094 20.3353 71.5463 20.3353C71.6475 20.3353 71.7482 20.3353 71.8271 20.3464C71.95 20.1341 72.264 19.9105 72.455 19.7875C72.7352 19.6086 73.307 19.4745 73.3408 19.4745L73.6547 19.4074L73.2396 19.9216C72.7014 20.6818 72.8358 21.2631 72.8358 21.2743L72.881 21.4308L72.3314 21.3638C72.2079 21.3525 72.085 21.3414 71.9391 21.3414C71.4233 21.3414 70.9973 21.442 70.8623 21.5985C70.5598 21.9451 70.8063 22.4257 70.8063 22.4369L71.2215 23.253L71.0196 23.2306C70.8738 23.2195 70.7165 23.1971 70.5707 23.1859C70.2459 23.1524 69.9096 23.1077 69.618 23.1077C69.1691 23.1077 68.9003 23.1971 68.7882 23.3871L68.7768 23.4207C68.6647 23.6219 68.5189 23.9014 69.5391 24.874L69.7077 25.0417L69.4721 25.0752C69.4607 25.0752 67.9922 25.2652 67.2745 25.5224C67.0835 25.5895 66.9714 25.69 66.9491 25.8018C66.9377 25.8689 66.9491 26.0925 67.4535 26.3831L67.9807 26.6962C67.9807 26.6962 66.8033 27.2663 66.781 28.0265L69.2365 28.8872ZM58.1242 13.2477C58.1133 13.2477 58.1242 13.2365 58.1242 13.2365C58.7074 13.2365 61.4324 13.7172 63.0021 13.8849C63.8096 13.9855 67.9247 14.4998 69.1359 15.2264C70.3356 15.9307 70.9184 17.1828 71.2998 18.1889L71.5017 18.7366C71.5017 18.7366 71.3335 18.7366 70.6719 18.0435C70.2236 17.4846 69.5619 16.6462 68.5749 16.1543C65.727 14.7904 61.0732 14.8352 58.1242 13.2477ZM116.354 15.2152C116.444 15.2152 116.533 15.2152 116.623 15.2152C118.877 15.1258 123.351 14.578 125.796 13.1247C127.825 12.0404 128.431 10.4865 128.947 9.08911C128.924 9.10028 128.857 9.12264 128.857 9.12264C128.319 9.34618 127.702 9.60331 126.715 9.93871L126.233 10.0952C124.955 10.5312 123.026 11.1125 121.086 11.6379C117.834 12.5211 114.941 13.8626 113.383 14.6563C114.044 14.891 115.132 15.2152 116.354 15.2152ZM85.0582 19.1279C85.8434 18.446 85.821 17.9094 85.7421 17.574C85.3275 16.5455 84.5424 15.9084 83.4101 15.6959L78.1959 14.9805C78.1844 14.9917 78.1513 15.0475 78.1398 15.0699C78.1844 15.0923 78.2405 15.1258 78.2965 15.1482C78.8798 15.4388 80.091 16.0425 80.5279 17.3169C80.6629 17.697 80.8985 17.7194 82.2664 17.7976L82.681 17.82C83.0064 17.8423 83.1522 17.8535 83.3987 17.8759C83.982 17.9429 84.4194 18.4236 84.5086 18.5131C84.5875 18.6025 84.834 18.9155 84.8901 19.2732L85.0582 19.1279ZM98.1441 26.0925C98.2338 26.0701 98.3236 26.0478 98.402 26.0254C97.8078 25.3659 97.0787 24.9075 97.0787 24.9075L97.4824 24.7063C97.8078 24.5386 98.0097 24.3485 98.0543 24.1585C98.0766 24.0691 98.0543 23.9908 97.9983 23.8679C97.8524 23.5772 97.5608 23.4319 97.1462 23.4319C96.978 23.4319 96.8208 23.4542 96.7201 23.4766L95.7783 23.6219L96.1483 22.9288C96.7871 21.6768 96.4399 21.442 96.2827 21.3302C96.0585 21.1737 95.8229 21.0955 95.565 21.0955C95.2848 21.0955 95.0492 21.1849 94.8473 21.2631C94.7913 21.2855 94.7352 21.3078 94.6906 21.319L93.7259 21.6656C93.7259 21.6656 94.0736 20.9166 94.0959 20.8719C94.3206 20.3911 94.3652 20.0558 93.9615 19.7316C93.7934 19.6086 93.6138 19.5415 93.4234 19.5415C93.2329 19.5415 93.0311 19.6086 92.8292 19.7428L91.9205 20.3576L91.9657 20.1005C92.1224 19.1614 91.192 17.8535 91.192 17.8535C91.192 17.8535 91.7187 17.8982 92.4363 18.2895C92.4815 18.3118 92.5152 18.3342 92.5484 18.3454C93.838 17.1492 96.8099 14.9805 102.461 13.4825C103.975 13.08 105.354 12.89 106.666 12.89C108.516 12.89 110.254 13.2701 112.138 14.0861C113.203 13.516 116.735 11.705 120.817 10.5983C122.947 10.0169 125.022 9.32383 125.818 9.05553L127.186 8.56368C128.487 8.04943 130.057 7.16626 130.808 4.82983L114.459 10.2852C112.015 11.2578 107.619 11.6156 103.728 11.9397C101.845 12.0963 100.073 12.2416 98.7606 12.4428C91.5282 13.6949 90.7768 17.1716 90.3731 19.0497C90.3508 19.1726 90.3285 19.2844 90.2947 19.385C89.9699 21.1178 89.2631 22.4817 88.2091 23.4431C88.4556 23.4319 88.7473 23.4319 88.8822 23.4319C89.6445 23.4542 90.1826 23.6554 90.7545 23.9014C90.9564 23.9908 91.1697 24.0803 91.3824 24.1809C91.5505 24.2591 91.7301 24.3374 91.9096 24.4156C92.7171 24.7734 93.8048 25.0976 95.5089 25.5782L95.6433 25.6118C96.0694 25.7348 96.4062 25.8242 96.6978 25.9248C96.9666 26.0143 97.4041 26.1931 97.5162 26.2378C97.7289 26.1931 97.9422 26.1484 98.1441 26.0925ZM85.4396 15.4053C85.8433 15.1929 85.8771 14.5892 85.821 14.388C85.6524 13.8067 85.2155 13.3707 84.5315 13.0912C84.1615 12.9571 83.6789 12.9011 83.107 12.9011C81.3354 12.9011 79.0703 13.5719 78.5659 14.2203L83.5896 14.7904C83.8476 14.824 84.5201 14.9693 85.2154 15.4612C85.3052 15.45 85.3722 15.4276 85.4396 15.4053ZM55.6349 26.6514C55.3546 26.372 54.9172 26.2155 54.57 26.1819C53.8523 26.1372 53.0558 26.4279 52.3718 27.0651C53.9193 27.1545 54.1549 27.8364 54.9846 27.188L55.6349 26.6514ZM56.0609 27.0762L55.5342 27.6688C54.9063 28.4289 55.5342 28.6637 55.5902 30.1055C56.2067 29.4909 56.4984 28.7418 56.476 28.0824C56.4537 27.747 56.3188 27.3334 56.0609 27.0762ZM54.0988 28.8535L53.6614 29.5132C53.157 30.3627 53.8186 30.4972 54.0765 31.9168C54.5923 31.2127 54.7828 30.4413 54.6484 29.7817C54.5923 29.4573 54.3905 29.0662 54.0988 28.8535ZM52.6858 31.1454L52.3495 31.8387C51.9681 32.7218 52.6188 32.7777 53.0558 34.1078C53.4709 33.3701 53.5493 32.5873 53.3365 31.9727C53.2353 31.6711 52.9997 31.3244 52.6858 31.1454ZM53.4823 28.4513C53.1455 28.2612 52.6749 28.2277 52.3272 28.2948C51.6318 28.4401 50.9365 28.9544 50.4658 29.7481C51.9795 29.4128 52.3947 29.9938 53.0111 29.1443L53.4823 28.4513ZM51.9572 30.8102C51.5758 30.687 51.1051 30.7429 50.7683 30.8883C50.0958 31.1791 49.5016 31.8273 49.1877 32.7218C50.6339 32.0844 51.1721 32.5873 51.6209 31.6152L51.9572 30.8102ZM51.4414 32.9567C51.1835 33.1466 51.0039 33.4818 50.9364 33.7612C50.8135 34.3313 50.9593 35.0132 51.3962 35.6397C51.6541 34.3986 52.226 34.2868 51.8 33.5377L51.4414 32.9567ZM62.273 30.1283L62.094 30.9556C61.903 31.9949 62.6207 31.8832 63.4167 33.2138C63.6746 32.3193 63.5625 31.4698 63.1926 30.8661C63.0021 30.5639 62.6544 30.2401 62.273 30.1283ZM61.7011 29.9607C61.3535 29.8598 60.9165 29.9271 60.6135 30.0611C60.0079 30.3404 59.4812 30.9556 59.2233 31.7828C60.5237 31.1568 61.0286 31.6038 61.4209 30.6984L61.7011 29.9607ZM61.0286 32.5092C60.6924 32.3529 60.2549 32.3529 59.9409 32.4533C59.3016 32.6437 58.696 33.1688 58.3037 33.9516C59.683 33.5268 60.1205 34.0411 60.6363 33.2024L61.0286 32.5092ZM59.6493 34.8233C59.3468 34.6334 58.9202 34.5776 58.6062 34.6334C57.9675 34.7338 57.3058 35.1699 56.8346 35.874C58.2254 35.6397 58.573 36.1984 59.1781 35.4493L59.6493 34.8233ZM61.6451 32.7999L61.2414 33.5491C60.7707 34.4989 61.4884 34.5884 61.8921 36.0753C62.3851 35.2817 62.52 34.443 62.3182 33.7503C62.217 33.4145 61.9705 33.0126 61.6451 32.7999ZM60.2097 35.1813L59.6607 35.8518C58.9991 36.7013 59.6939 36.9476 59.8065 38.5126C60.4568 37.8193 60.7593 36.992 60.7032 36.2657C60.6695 35.9077 60.5014 35.4607 60.2097 35.1813ZM58.6062 36.7572L57.9114 36.7013C57.0479 36.6677 57.216 37.2378 56.2296 38.0319C56.9804 38.1323 57.6644 37.9424 58.1133 37.5736C58.3483 37.3946 58.5616 37.0702 58.6062 36.7572ZM85.9331 30.1842C86.0789 31.6038 86.2019 32.8222 85.6078 33.9179V33.9288C85.5071 34.1859 85.3275 34.5884 85.2378 34.756C83.5559 34.4658 81.7054 34.443 81.1787 34.443C80.8533 34.443 80.5731 34.4544 80.3712 34.4658C79.5752 34.5103 78.8352 34.622 78.2182 34.7788C78.2965 34.5217 78.4315 34.13 78.678 33.8062L78.8124 33.6158L78.5773 33.6272C78.4652 33.6386 78.3531 33.6386 78.2405 33.6386C77.3101 33.6386 76.7605 33.4145 76.3345 32.8672C76.0428 32.4647 75.9645 31.9613 76.1326 31.5257C76.267 31.1454 76.5701 30.7652 76.8503 30.3963C77.0968 30.0724 77.6354 29.2224 77.8145 28.8535C77.9265 28.63 78.0386 28.3954 78.1398 28.1383C78.3754 28.4513 78.7231 28.6637 79.2052 28.7754C79.4854 28.8427 79.7319 28.8763 79.9789 28.8763C80.4496 28.8763 80.9431 28.764 81.5596 28.5069C80.7412 29.2338 78.4424 29.6922 78.4424 29.6922C78.3863 29.7594 78.42 29.8484 78.4984 29.882C78.5212 29.8934 78.5436 29.8934 78.5544 29.9048C78.8575 29.9829 79.1492 30.0166 79.4631 30.0166C80.4273 30.0166 81.3131 29.6363 82.2772 29.1779C83.8361 28.3619 85.7421 25.7683 85.821 25.6565C85.9331 25.5 86.0898 25.3659 86.2471 25.2764C85.5631 26.4838 85.7084 27.8029 85.8542 29.1893C85.8657 29.5246 85.8994 29.8484 85.9331 30.1842ZM84.5538 31.7042C84.1724 32.4197 83.7687 33.0457 82.367 33.1015C80.6406 33.1802 80.2031 31.9504 80.2031 31.9504C80.3038 32.4869 80.7189 34.0742 82.3785 34.0074C84.4978 33.9179 84.5538 31.7042 84.5538 31.7042ZM86.8973 32.1067L86.998 31.9727C87.1215 31.8165 87.2227 31.626 87.2336 31.5924C87.8615 30.4413 87.9627 29.5354 88.0073 29.1443L88.0187 29.0884C88.0187 29.0884 88.1085 28.373 88.3887 28.373C90.1941 28.373 92.3694 28.7309 94.0736 29.0662C94.5225 29.1557 94.9931 29.2452 95.4415 29.3342C96.0248 29.4795 96.6641 29.5468 97.3366 29.5468C98.3008 29.5468 99.3438 29.4014 100.42 29.1107L104.838 27.8141C105.018 27.7694 105.197 27.7358 105.376 27.6911C106.016 27.5458 106.632 27.3893 107.35 27.3893C107.552 27.3781 107.911 27.434 108.101 27.434C109.649 27.434 111.454 26.6626 111.981 26.2602C112.53 25.8354 112.632 25.4665 112.71 25.0305C112.744 24.8293 112.732 24.7063 112.676 24.6392C112.642 24.6057 112.598 24.5833 112.542 24.5833C112.407 24.5833 112.183 24.6728 111.892 24.7846C111.488 24.9411 109.581 25.4665 109.178 25.4888C109.256 25.3547 109.537 25.0864 109.806 24.8851C110.165 24.6168 110.501 24.3598 110.546 23.879C110.546 23.7896 110.479 23.7561 110.422 23.7561C110.389 23.7561 110.333 23.7896 110.299 23.8008C110.153 23.879 110.019 23.9797 109.884 24.0802C109.559 24.315 109.223 24.561 108.774 24.561C108.774 24.561 108.752 24.561 108.741 24.561C108.729 24.561 108.729 24.561 108.729 24.561C108.247 24.6057 107.967 24.8851 107.675 25.1758C107.361 25.4888 107.036 25.813 106.43 25.8913L100.095 26.7185C99.6132 26.7744 99.142 26.875 98.6936 26.9757C98.2562 27.0762 97.7964 27.1769 97.348 27.2328C96.4622 26.8862 95.4529 26.6067 94.4773 26.3384C93.1317 25.9583 91.8645 25.6118 90.9564 25.1199C90.8329 25.0529 89.6668 24.438 88.5122 24.438C88.2429 24.438 87.985 24.4715 87.7608 24.5386H87.7494H87.7385C87.6036 24.628 86.3815 25.5 86.5387 27.8923C86.6057 28.8649 86.6731 29.5582 86.74 30.1169C86.7738 30.4413 86.8075 30.7093 86.8298 30.9778C86.8298 31.0337 86.8636 31.5365 86.8527 31.9282L86.8973 32.1067ZM77.68 25.2094C77.624 25.2094 77.568 25.2094 77.5119 25.2094C76.0989 25.2094 74.7984 25.9583 73.6319 27.4228C72.1182 28.06 70.9521 28.8313 69.5728 29.882C69.3709 29.8598 67.7228 29.2452 66.1308 28.6523C65.166 28.2948 64.1681 27.9147 63.4058 27.6464C62.329 26.8974 61.0172 26.4391 60.2097 26.3273C60.0645 26.3049 59.8958 26.2937 59.6939 26.2937C58.8418 26.2937 57.7879 26.4726 57.4625 26.6291C57.4179 26.6403 57.3396 26.685 57.3281 26.7744C57.3281 26.8192 57.3395 26.8639 57.3733 26.8974C57.4179 26.9421 57.4854 26.9645 57.6083 26.9645C57.7319 26.9645 57.9 26.9421 58.1018 26.9086C58.3712 26.875 58.7074 26.8192 59.0437 26.8192C60.0079 26.8192 60.5574 27.1992 60.793 28.0153C60.4453 28.0824 60.3224 28.183 60.1989 28.2948C60.0645 28.4177 59.9409 28.5297 59.4926 28.5964L59.38 28.6192H59.3691C59.2907 28.6414 59.2347 28.6859 59.2347 28.7418C59.2233 28.8204 59.2907 28.8872 59.313 28.8986C59.4137 28.9767 59.571 29.0212 59.7614 29.0212C59.9518 29.0212 60.1651 28.9767 60.3332 28.8986C60.5128 28.8091 60.7256 28.7868 60.9503 28.764C61.2642 28.7309 61.6228 28.6414 62.0151 28.4289C63.1817 28.9208 64.3025 29.6477 65.3679 30.6089C66.0856 31.2572 66.9045 32.0063 68.4851 32.8336C68.5863 32.878 68.7321 32.9231 68.9003 32.9231C69.1691 32.9231 69.4721 32.8113 69.8198 32.5764C70.7954 32.0063 75.841 29.0998 76.3459 28.8427H76.3568L76.3682 28.8313C76.9738 28.2501 77.3215 27.0315 77.3661 26.8862C77.3884 26.8079 77.4107 26.7074 77.4445 26.6067C77.568 26.1708 77.7361 25.5782 77.7584 25.2652L77.7698 25.2094H77.68ZM88.3327 17.4622C87.9512 17.8312 87.5927 17.9429 87.3233 17.9429C87.0208 17.9429 86.7401 17.8647 86.505 17.7641C86.4936 17.887 86.5273 18.0435 86.5719 18.1553C86.684 18.446 86.9757 18.6137 87.245 18.6137C87.8506 18.6137 88.3327 18.0659 88.3327 17.4622ZM86.3929 16.7468C86.8859 17.0598 87.3119 17.1381 87.671 16.9815C88.1417 16.7691 88.3435 16.2214 88.355 16.1543C88.4224 15.7183 88.2315 15.6512 87.9735 15.573C87.7494 15.4947 87.4806 15.4053 87.4577 15.014C87.4577 14.8687 87.4131 14.7792 87.3348 14.7345C87.1998 14.6451 86.9533 14.7122 86.8298 14.7681C86.7515 15.6288 86.3031 16.0313 85.9777 16.2214L86.3929 16.7468ZM81.4475 12.3422C81.4475 12.3422 80.8533 12.0739 80.2031 12.018C79.4071 11.9509 78.8798 12.1186 78.5773 12.264C78.0838 12.4987 77.8482 13.1136 78.1061 13.4937C78.8684 12.8788 80.091 12.5211 81.4475 12.3422ZM86.3254 23.9685C86.0561 23.879 85.888 23.8343 85.6415 23.7337C83.8584 23.0294 84.5424 21.2967 84.2959 19.9216C84.2622 19.6422 84.1838 19.3627 83.8247 19.4745C83.6566 19.5192 83.0178 20.2123 82.0085 19.8545C82.4008 19.7316 82.7599 19.6086 83.0064 19.4186C83.3426 19.1614 83.4547 18.8261 83.2866 18.5913C83.1859 18.4236 82.9503 18.3901 82.7599 18.446C82.5912 18.5019 82.4008 18.7702 82.4568 19.0385C82.4568 19.0385 82.0531 19.0832 81.627 18.6808C81.4475 18.5131 81.145 18.4572 80.7973 18.4683C80.3038 18.5019 79.9898 18.3789 79.8108 17.8312C79.5975 16.9145 78.6219 16.1766 77.8373 15.763C77.6354 16.2772 77.4445 16.6238 77.4559 17.2386C77.5119 17.6523 78.2519 17.574 78.5213 17.6187C79.2836 17.8088 78.0277 18.3454 78.0386 18.7143C77.9603 18.6025 77.9042 18.3789 78.0163 18.2783C78.2073 18.01 77.8036 18.0324 77.7024 17.8982C77.68 18.6248 77.1082 19.6422 77.1528 19.8993C77.1642 19.9663 77.8036 20.0111 77.8036 20.0111C77.9717 20.1676 77.8596 20.4694 77.8819 20.6818C77.8819 20.693 77.9042 20.7042 77.9156 20.7042C77.9603 20.7265 78.1844 20.7489 78.2519 20.7489C78.308 20.7601 78.364 20.8048 78.364 20.8607C78.364 20.9277 78.3194 20.9725 78.2519 20.9725C78.2519 20.9725 78.1621 20.9725 78.0615 20.9501C78.1061 21.1402 78.0952 21.3414 78.364 21.4532C78.4984 21.6432 78.308 22.1686 78.6556 22.2581C79.6198 22.4817 80.8756 21.3973 81.9187 20.6706C81.7614 21.2855 80.8985 21.9451 80.6852 22.5599C80.6852 22.5599 80.6514 23.5437 80.4387 24.1809C80.1808 24.9522 79.351 24.8069 78.734 25.1199C78.734 25.1646 78.7231 25.2205 78.7117 25.2876C78.7003 25.377 78.678 25.4777 78.678 25.5895V25.6453C78.678 25.6677 78.6671 25.7012 78.6671 25.746C78.6219 26.1484 78.4984 27.2328 79.1938 27.6017C79.4179 27.7135 79.6759 27.7694 79.9789 27.7694C80.6738 27.7694 81.5487 27.4675 82.4905 26.8974C83.4999 26.2937 84.0266 25.8242 84.5984 25.3212C85.0136 24.9299 85.5071 24.4939 86.3254 23.9685ZM101.082 30.0166C102.192 31.7937 103.896 31.7492 105.074 31.4139C103.728 30.9664 103.246 30.7321 102.237 29.6922C102.248 29.6922 101.609 29.8934 101.082 30.0166ZM77.0184 34.6893C76.637 34.5776 76.4357 34.4881 76.1103 34.2646C75.0787 33.5713 74.4616 32.0844 75.2022 30.7988C75.2131 30.7652 75.2582 30.687 75.3926 30.4749C74.8322 30.821 69.9428 33.6831 69.9428 33.6831C69.9428 33.6831 69.9656 34.0411 70.4477 34.2195C71.4456 34.5325 72.6454 34.2532 73.3179 34.1192C72.8473 34.622 72.264 35.6505 72.5779 36.8022C73.5649 36.5559 74.0356 36.3883 74.7756 35.2703C74.7533 36.3102 74.6864 38.0319 75.6059 38.8814C75.7626 38.4231 76.3122 36.7349 77.0184 34.6893ZM103.291 29.4128C103.796 29.9157 104.558 30.5975 106.307 30.8997C107.238 31.0451 108.785 30.8438 109.413 30.6757C107.675 30.2623 106.711 29.4909 105.746 28.6859C105.444 28.7418 104.266 29.0439 103.291 29.4128ZM107.115 28.3507C107.821 28.9208 108.707 29.6363 110.187 30.0166C111.948 30.4413 114.302 29.4014 114.437 29.2674C112.889 29.1893 111.723 28.6523 110.523 27.8923C109.065 28.6414 107.664 28.1271 107.115 28.3507ZM111.69 27.3222C112.474 27.747 113.102 27.9929 113.831 28.183C115.76 28.764 116.96 27.3669 117.509 26.562C117.532 26.5285 117.532 26.4614 117.476 26.4614C114.975 26.4502 114.773 26.2266 113.798 25.813C113.652 26.1372 113.147 26.9309 111.69 27.3222Z" fill="white"/>
<path d="M81.4141 90.2832C100.959 90.2832 104.322 105.945 124.372 105.945C136.515 105.945 136.751 100.803 136.751 100.803L134.699 90.2946C137.356 87.131 148.233 87.4998 148.233 87.4998L138.803 75.3146C130.034 75.8733 122.835 78.1316 122.835 81.9212V93.2125C111.016 93.2125 103.122 77.6173 81.4249 77.6173C59.728 77.6173 51.8226 93.2125 40.0148 93.2125V81.9212C40.0148 78.143 32.8048 75.8847 24.0475 75.3146L14.6172 87.4998C14.6172 87.4998 25.5052 87.1196 28.1516 90.2946L26.0995 100.803C26.0995 100.803 26.3349 105.945 38.4788 105.945C58.5054 105.945 61.8805 90.2832 81.4141 90.2832Z" fill="#000F46"/>
<path d="M128.184 86.6618C132.848 87.9474 133.285 88.7747 133.397 89.2439C133.487 89.7245 133.375 90.172 133.039 90.5968C131.85 92.1059 128.262 93.123 123.878 93.2017V84.5039C124.752 85.3984 126.176 86.1139 128.184 86.6618ZM123.889 81.8768C123.889 84.0124 126.12 84.9959 128.475 85.6441C132.949 86.8739 134.115 87.7907 134.463 89.0649C136.56 87.4554 140.249 86.7735 146.046 86.55L138.185 76.3545C135.27 76.6453 132.052 77.0923 129.787 77.7633C126.266 78.8027 123.889 80.2781 123.889 81.8768ZM133.812 91.3568C132.085 93.4138 127.578 94.2074 123.889 94.2747H122.824C117.486 94.2747 113.068 91.3904 107.955 88.0592C101.418 83.7998 94.0281 78.9817 82.4788 78.7023H80.3481C68.7874 78.9817 61.4092 83.7998 54.8717 88.0592C49.7587 91.3904 45.3405 94.2747 40.0033 94.2747H38.938C35.2489 94.2074 30.7409 93.4138 29.0145 91.3568L27.1642 100.837C27.3211 101.463 28.6107 104.895 38.4559 104.895C48.2113 104.895 53.7617 101.138 59.6376 97.1698C65.1989 93.4024 70.9513 89.5233 80.3481 89.2439H82.4788C91.8751 89.5233 97.6274 93.4024 103.189 97.1698C109.065 101.138 114.616 104.895 124.371 104.895C134.216 104.895 135.517 101.451 135.662 100.837L133.812 91.3568ZM34.6433 86.6618C29.9786 87.9474 29.5412 88.7747 29.4291 89.2439C29.3393 89.7245 29.4514 90.172 29.7882 90.5968C30.9765 92.1059 34.565 93.123 38.9494 93.2017V84.5039C38.0745 85.3984 36.662 86.1139 34.6433 86.6618ZM33.0512 77.7519C30.7861 77.0814 27.5678 76.6339 24.6524 76.3431L16.792 86.5387C22.5892 86.7622 26.2671 87.4554 28.3751 89.054C28.7114 87.7906 29.878 86.8739 34.3631 85.6333C36.7066 84.9851 38.9494 84.001 38.9494 81.8659C38.938 80.2781 36.5607 78.8026 33.0512 77.7519Z" fill="white"/>
<path d="M132.579 100.166C132.579 100.166 132.848 101.362 132.804 101.429C132.804 101.429 132.658 101.485 132.602 101.451C132.557 101.351 132.523 101.328 132.277 101.373C132.277 101.373 128.565 102.201 128.498 102.156C128.498 102.156 128.453 102.01 128.498 101.943C128.756 101.854 128.756 101.798 128.733 101.675L127.713 97.1025C127.69 96.9799 127.668 96.9349 127.309 96.9235C127.309 96.9235 127.276 96.7787 127.32 96.7114L130.919 95.9178C131.155 95.8619 131.177 95.8169 131.223 95.6607C131.223 95.6607 131.357 95.6048 131.424 95.6493C131.424 95.6493 131.705 96.879 131.66 96.9463C131.66 96.9463 131.514 96.9799 131.447 96.9463C131.402 96.8676 131.368 96.8345 131.133 96.8904C131.133 96.8904 128.969 97.371 128.957 97.3152C128.957 97.326 129.193 98.4104 129.193 98.578C129.193 98.5894 129.193 98.6008 129.182 98.6008C129.193 98.6008 130.493 98.31 130.493 98.31C130.74 98.2542 130.751 98.2319 130.797 98.0751C130.797 98.0751 130.953 98.0193 131.009 98.0415C131.009 98.0415 131.312 99.2713 131.267 99.3385C131.267 99.3385 131.11 99.3944 131.054 99.383C131.021 99.3049 130.953 99.249 130.707 99.2935C130.707 99.2935 129.552 99.5506 129.44 99.5734C129.473 99.7296 129.709 100.77 129.697 100.926C129.697 100.937 129.686 100.948 129.686 100.948C129.697 100.948 132.041 100.434 132.041 100.434C132.288 100.378 132.299 100.356 132.344 100.188C132.344 100.188 132.49 100.121 132.557 100.154L132.579 100.166ZM109.783 97.0803C109.783 97.0803 109.917 97.1475 109.94 97.2256C109.94 97.2256 109.2 98.3545 109.121 98.3659C109.121 98.3659 108.998 98.2986 108.975 98.2319C109.021 98.131 109.021 98.0643 108.807 97.9298C108.807 97.9298 105.746 95.9286 105.735 95.8505C105.735 95.8505 105.814 95.7165 105.881 95.6943C106.082 95.7946 106.138 95.7724 106.206 95.6607L108.774 91.7587C108.852 91.647 108.863 91.5911 108.662 91.3568C108.662 91.3568 108.729 91.2223 108.807 91.2114C108.807 91.2114 110.265 92.1613 110.276 92.2399C110.276 92.2399 110.22 92.3739 110.142 92.3961C109.884 92.2621 109.828 92.2844 109.749 92.3961C109.749 92.3961 107.484 95.8391 107.417 95.8391L109.345 97.1025C109.547 97.2257 109.593 97.2257 109.783 97.0803ZM72.544 87.4885C72.544 87.4885 72.4656 87.6225 72.4096 87.6339C72.3421 87.6003 72.2975 87.578 72.2523 87.5894C71.9498 87.8015 71.8486 88.4948 70.6265 88.8523C69.1689 89.2998 67.8119 88.4948 67.3298 86.9075C66.7356 84.9731 67.7672 83.7103 69.0568 83.3078C70.1445 83.0056 70.5928 83.464 70.7277 83.3186C70.8284 83.2069 70.8845 83.1174 70.9519 83.1288L71.0749 83.1402L71.0417 83.2964C71.0417 83.2964 70.7386 84.7052 70.6826 84.7496L70.5591 84.7274C70.5591 84.7274 70.5368 84.5598 70.4024 84.4144C70.2005 84.2018 69.7407 84.135 69.3707 84.2468C68.911 84.3808 67.8908 84.7719 68.4403 86.5495C68.7314 87.399 69.3147 88.1481 70.4247 87.8574C70.7501 87.757 71.0526 87.5221 71.1875 87.265C71.1875 87.265 71.3219 86.9857 71.1647 86.6504C71.1647 86.6504 71.2321 86.5381 71.2996 86.5381L72.544 87.4885ZM39.9474 97.4828C39.5099 97.0244 38.8934 96.7673 38.1981 96.745C37.4918 96.7336 36.8748 96.9571 36.4156 97.3933C35.8769 97.8961 35.5744 98.6675 35.5521 99.5506C35.5069 101.272 36.5162 102.446 38.0637 102.491C38.7699 102.502 39.3869 102.289 39.8467 101.843C40.3848 101.34 40.6874 100.568 40.7097 99.6738C40.7211 98.802 40.4518 98.0079 39.9474 97.4828ZM39.5328 99.6515C39.5213 100.333 39.3418 100.859 39.017 101.172C38.7814 101.406 38.456 101.518 38.0751 101.507C37.1664 101.485 36.6843 100.803 36.7067 99.5957C36.7181 98.9024 36.9085 98.3881 37.2339 98.0751C37.4695 97.8517 37.7835 97.7399 38.1643 97.7507C38.5458 97.7621 38.8597 97.8853 39.0839 98.1202C39.3978 98.444 39.5551 98.9697 39.5328 99.6515ZM124.483 97.013L122.173 97.0022C122.117 97.058 122.106 97.2034 122.106 97.2034C122.331 97.2815 122.364 97.3374 122.353 97.4828L122.342 102.156C122.342 102.301 122.319 102.335 122.129 102.368L122.084 102.569C122.14 102.625 124.248 102.636 124.248 102.636C125.167 102.636 125.874 102.401 126.345 101.932C126.827 101.462 127.062 100.758 127.062 99.8305C127.074 98.0865 126.11 97.0244 124.483 97.013ZM125.908 99.8414C125.896 101.217 125.459 101.653 124.069 101.653H123.463C123.519 101.641 123.53 98.3209 123.541 98.0193C123.631 98.0193 124.091 98.0307 124.091 98.0307C125.47 98.0307 125.919 98.4776 125.919 99.8305V99.8414H125.908ZM87.6371 81.72C87.6371 81.72 88.0969 81.9885 88.1638 82.0108C88.2313 82.033 88.3096 81.9885 88.3771 81.9327L88.5452 82.0666C88.5452 82.0666 87.5919 83.285 87.5136 83.2964C87.5136 83.2964 87.3792 83.2183 87.3454 83.1624C87.3454 83.1624 87.3678 83.017 87.3792 82.9834C87.4352 82.7149 86.9194 82.346 86.1457 82.257C85.854 82.212 85.6299 82.257 85.4726 82.3796C85.3159 82.4914 85.2822 82.6259 85.2707 82.7599C85.2261 83.1846 85.7757 83.3859 86.4145 83.6094C87.3454 83.9446 88.5006 84.3471 88.3433 85.6778C88.2873 86.1025 88.0631 86.4823 87.7154 86.7622C87.3569 87.0415 86.7061 87.3545 85.6184 87.1978C85.6184 87.1978 84.5536 87.0079 83.7685 86.4823C83.7685 86.4823 83.7462 86.46 83.5329 86.6054L83.387 86.4936L83.4208 86.4492C83.4208 86.4492 84.2282 85.208 84.3066 85.1858L84.4524 85.2639C84.4524 85.2639 84.441 85.3648 84.441 85.3979C84.3964 85.8004 85.3496 86.1248 85.798 86.1806C86.3252 86.2479 86.6952 86.192 86.908 86.0239C87.0092 85.9349 87.1098 85.7781 87.1436 85.566C87.2111 85.1077 86.6055 84.895 85.9324 84.6493C85.0357 84.3249 83.9252 83.9338 84.071 82.7599C84.1722 81.9885 84.8338 81.1499 86.3584 81.3403C86.8411 81.3962 87.2671 81.5301 87.6371 81.72ZM96.8543 84.4925C96.7754 84.5262 96.7194 84.6601 96.7194 84.6601C96.8989 84.8169 96.8881 84.8505 96.8766 84.8728L96.5741 85.2194L93.322 88.5056C93.322 88.5056 93.2322 88.5951 93.1315 88.6065C93.0755 88.6179 92.9966 88.6288 92.9297 88.6288L92.8513 88.8078L94.2976 89.4783L94.3759 89.2998C94.3536 89.2884 94.3313 89.2662 94.309 89.2325C94.2861 89.1989 94.2861 89.1653 94.2976 89.1208C94.3199 89.0871 94.3759 88.9976 94.3759 88.9976C94.3759 88.9976 95.0152 88.3158 95.0375 88.2713C95.0827 88.3049 96.7194 89.0535 96.7194 89.0649C96.7085 89.143 96.5964 90.0261 96.5964 90.0261C96.5964 90.0261 96.5741 90.127 96.5627 90.1607C96.5404 90.1938 96.5175 90.2165 96.4729 90.2274C96.4283 90.2274 96.3946 90.2274 96.3722 90.2165L96.2934 90.395L97.7402 91.066L97.8185 90.887C97.7739 90.8311 97.7287 90.7753 97.7064 90.7194C97.6504 90.6413 97.6727 90.5068 97.6727 90.5068L98.0764 85.9121L98.1324 85.4874C98.1439 85.4538 98.1771 85.387 98.3343 85.4429C98.4018 85.4093 98.4687 85.2753 98.4687 85.2753C98.4687 85.1966 96.8543 84.4925 96.8543 84.4925ZM96.8429 88.1926C96.8429 88.1926 95.8004 87.712 95.6317 87.6339C95.7215 87.5335 96.9441 86.192 97.1122 86.013C97.1122 86.013 96.8543 88.1368 96.8429 88.1926ZM113.91 94.3192C113.831 94.3414 113.775 94.4754 113.775 94.4754C113.943 94.643 113.932 94.6766 113.92 94.688L113.606 95.0233C113.606 95.0233 110.243 98.1869 110.243 98.1983C110.243 98.1983 110.153 98.2878 110.052 98.2986C109.985 98.31 109.917 98.31 109.85 98.31L109.761 98.4776L111.185 99.1931L111.274 99.0255C111.252 99.0141 111.229 98.9919 111.207 98.9583C111.185 98.9246 111.185 98.8915 111.207 98.8465C111.229 98.8129 111.297 98.7348 111.297 98.7348C111.297 98.7348 111.958 98.0751 111.992 98.0307C112.037 98.0643 113.64 98.8688 113.652 98.8801C113.64 98.9583 113.494 99.8414 113.494 99.8414C113.494 99.8414 113.472 99.9423 113.45 99.9754C113.427 100.009 113.405 100.032 113.36 100.032C113.315 100.032 113.282 100.032 113.259 100.02L113.169 100.188L114.593 100.904L114.683 100.736C114.638 100.669 114.604 100.613 114.571 100.557C114.526 100.479 114.537 100.345 114.537 100.345L115.098 95.761L115.177 95.3363C115.188 95.3026 115.221 95.2359 115.378 95.3026C115.446 95.2804 115.513 95.135 115.513 95.135C115.491 95.0791 113.91 94.3192 113.91 94.3192ZM113.764 98.0193C113.764 98.0193 112.743 97.505 112.575 97.4155C112.665 97.3152 113.943 96.0181 114.111 95.8391C114.1 95.8505 113.775 97.9634 113.764 98.0193ZM83.0062 85.5883C83.0062 85.5883 83.0508 86.818 82.9947 86.8739C82.9947 86.8739 82.8375 86.9075 82.7814 86.8625C82.7591 86.7622 82.7254 86.7285 82.4789 86.7285C82.4789 86.7285 78.6778 86.8511 78.6217 86.7953C78.6217 86.7953 78.6103 86.639 78.6554 86.5832C78.9242 86.5381 78.9357 86.4936 78.9357 86.3597L78.7898 81.6755C78.7898 81.5524 78.7784 81.4965 78.4198 81.4184C78.4198 81.4184 78.4198 81.273 78.4759 81.2171L82.165 81.1054C82.4114 81.094 82.4452 81.0495 82.5126 80.9042C82.5126 80.9042 82.6585 80.8819 82.7145 80.9378C82.7145 80.9378 82.7591 82.2006 82.7031 82.257C82.7031 82.257 82.5573 82.2679 82.5012 82.2234C82.4789 82.1339 82.4452 82.1003 82.1987 82.1117C82.1987 82.1117 79.9896 82.1784 79.9782 82.1225C79.9782 82.1339 80.0119 83.2405 79.9782 83.4081C79.9782 83.4195 79.9673 83.4304 79.9673 83.4304C79.9782 83.4304 81.3129 83.3859 81.3129 83.3859C81.5594 83.3745 81.5817 83.3637 81.6491 83.2069C81.6491 83.2069 81.8173 83.1733 81.8624 83.2069C81.8624 83.2069 81.9294 84.4703 81.8733 84.5261C81.8733 84.5261 81.7052 84.5484 81.6606 84.5261C81.6377 84.4366 81.5931 84.3694 81.3352 84.3808C81.3352 84.3808 80.1463 84.4144 80.0457 84.4144C80.0571 84.5706 80.0903 85.6328 80.0571 85.8004C80.0571 85.8118 80.0457 85.8118 80.0457 85.8118C80.0571 85.8118 82.4566 85.7337 82.4566 85.7337C82.7031 85.7223 82.7254 85.7 82.7929 85.5546C82.7929 85.5546 82.9501 85.5096 83.0062 85.566V85.5883ZM44.186 96.2753C44.186 96.2753 44.6904 96.387 44.7693 96.387C44.8362 96.387 44.9037 96.3203 44.9374 96.2416L45.1393 96.3089C45.1393 96.3089 44.6344 97.7285 44.5674 97.7735C44.5674 97.7735 44.4102 97.7399 44.3656 97.6949C44.3656 97.6949 44.3433 97.55 44.3433 97.5164C44.3095 97.2593 43.7148 97.0689 42.9748 97.2143C42.6946 97.2701 42.5042 97.3819 42.3921 97.5273C42.28 97.6726 42.2909 97.818 42.3246 97.9412C42.4144 98.3545 42.9748 98.3659 43.6479 98.3773C44.612 98.3995 45.8118 98.4218 46.0697 99.696C46.1481 100.099 46.0588 100.535 45.8232 100.892C45.5762 101.261 45.0718 101.753 44.0179 101.932C44.0179 101.932 42.9748 102.077 42.089 101.843C42.089 101.843 42.0553 101.831 41.91 102.022L41.7413 101.966L41.7527 101.91C41.7527 101.91 42.1113 100.512 42.1788 100.467L42.336 100.501C42.336 100.501 42.3583 100.602 42.3692 100.635C42.4481 101.027 43.4346 101.027 43.8721 100.937C44.3764 100.836 44.7018 100.669 44.8585 100.445C44.926 100.333 44.9712 100.154 44.9374 99.9423C44.8585 99.4948 44.2421 99.4839 43.5244 99.4617C42.5939 99.4389 41.4502 99.4166 41.2146 98.2764C41.0688 97.5273 41.4165 96.5546 42.8965 96.2644C43.3562 96.2194 43.7937 96.2085 44.186 96.2753ZM56.2963 95.1686C56.2963 95.1686 56.9688 96.1971 56.9579 96.2753C56.9579 96.2753 56.8458 96.387 56.7784 96.3762C56.7 96.2975 56.6549 96.2867 56.453 96.4206C56.453 96.4206 53.2689 98.489 53.19 98.4776C53.19 98.4776 53.1007 98.3545 53.1116 98.2764C53.3249 98.0974 53.302 98.0529 53.2351 97.9412L50.6675 94.017C50.6 93.9053 50.5548 93.8716 50.2186 93.9839C50.2186 93.9839 50.1402 93.8608 50.1516 93.7827L53.2351 91.7815C53.437 91.647 53.4479 91.5911 53.4256 91.4349C53.4256 91.4349 53.5376 91.334 53.616 91.3568C53.616 91.3568 54.3114 92.4075 54.2891 92.4856C54.2891 92.4856 54.1656 92.5752 54.0986 92.5638C54.0312 92.497 53.9865 92.4856 53.7732 92.6196C53.7732 92.6196 51.9233 93.8271 51.8895 93.7827C51.8895 93.7935 52.4951 94.7217 52.5512 94.8779C52.5512 94.8893 52.5512 94.9001 52.5512 94.9001C52.5621 94.9001 53.6835 94.1738 53.6835 94.1738C53.8968 94.0398 53.8968 94.017 53.8739 93.8494C53.8739 93.8494 53.9974 93.7376 54.0535 93.7376C54.0535 93.7376 54.7711 94.7775 54.7488 94.8557C54.7488 94.8557 54.6144 94.9674 54.5693 94.9674C54.5024 94.9001 54.4235 94.8779 54.2216 95.0119C54.2216 95.0119 53.2237 95.6493 53.1339 95.7165C53.2237 95.8505 53.807 96.745 53.863 96.8904C53.863 96.9013 53.863 96.9127 53.863 96.9127C53.8739 96.9127 55.8811 95.6048 55.8811 95.6048C56.0944 95.4703 56.0944 95.4372 56.083 95.269C56.083 95.269 56.1951 95.1573 56.274 95.1686H56.2963ZM60.9049 87.1082C60.8826 87.1869 60.9495 87.3095 60.9495 87.3095C61.1851 87.265 61.2074 87.2987 61.2074 87.3095L61.3086 87.757L61.9589 92.3294C61.9589 92.3294 61.9812 92.4634 61.9365 92.5415C61.9028 92.5974 61.8691 92.6533 61.8245 92.7205L61.9142 92.8881L63.3267 92.139L63.237 91.9714C63.2147 91.9828 63.1809 91.9828 63.1472 91.9828C63.1026 91.9828 63.0688 91.96 63.058 91.9269C63.0351 91.8933 63.0128 91.7924 63.0128 91.7924C63.0128 91.7924 62.8561 90.8756 62.8332 90.8198C62.8784 90.8089 64.4819 89.9703 64.4819 89.9594C64.5379 90.0261 65.1773 90.6413 65.1773 90.6413C65.1773 90.6413 65.2442 90.7194 65.2665 90.753C65.2894 90.7867 65.2894 90.8311 65.2665 90.8648C65.2442 90.8984 65.2219 90.9207 65.1996 90.9315L65.2894 91.0997L66.7019 90.3505L66.6121 90.1829C66.5337 90.1829 66.4663 90.1829 66.4102 90.1715C66.321 90.1607 66.2198 90.0712 66.2198 90.0712L62.8 86.9634L62.497 86.6613C62.4747 86.6276 62.4409 86.5609 62.5868 86.4714C62.6091 86.3933 62.5307 86.2588 62.5307 86.2588C62.4409 86.2702 60.9049 87.1082 60.9049 87.1082ZM63.854 89.3779C63.854 89.3779 62.8447 89.9035 62.6765 90.0039C62.6542 89.8699 62.3174 88.0809 62.2728 87.8465C62.2728 87.8465 63.8088 89.3334 63.854 89.3779ZM93.1876 88.1595C93.1876 88.1595 93.0532 88.2263 92.9966 88.204C92.9634 88.1368 92.9405 88.0923 92.8845 88.0809C92.5145 88.0923 92.0438 88.6065 90.8327 88.2376C89.375 87.8129 88.6796 86.3933 89.1508 84.7947C89.7227 82.8494 91.2924 82.3688 92.582 82.7485C93.6582 83.0951 93.7817 83.7211 93.9722 83.6767C94.118 83.643 94.2192 83.598 94.2638 83.643L94.365 83.7211L94.2529 83.8329C94.2529 83.8329 93.2213 84.8505 93.1538 84.8505L93.0641 84.7719C93.0641 84.7719 93.1424 84.6265 93.1092 84.4252C93.0532 84.135 92.7055 83.8329 92.3355 83.7211C91.8757 83.5872 90.8103 83.3414 90.2831 85.1408C90.0589 86.013 90.1373 86.952 91.2141 87.3323C91.5389 87.4213 91.9203 87.399 92.1782 87.2536C92.1782 87.2536 92.4476 87.0974 92.5036 86.7285C92.5036 86.7285 92.6266 86.6727 92.6718 86.7063L93.1876 88.1595ZM33.6569 96.0518L31.1453 95.5712C31.0778 95.6156 31.0893 95.761 31.0893 95.761C31.3243 95.8955 31.3357 95.9514 31.302 96.0854L30.4053 100.68C30.3825 100.814 30.3378 100.87 30.136 100.859C30.0685 100.904 30.0576 101.083 30.0576 101.083C30.0685 101.093 31.7395 101.406 31.7395 101.406L31.7732 101.217C31.5822 101.116 31.549 101.06 31.549 100.971C31.549 100.948 31.549 100.926 31.5599 100.904C31.5599 100.904 31.919 99.0923 31.919 99.07C31.919 99.1259 33.0176 99.3385 33.0176 99.3385C34.4306 99.6179 35.1032 98.8579 35.2604 98.0637C35.4285 97.2701 35.0809 96.3203 33.6569 96.0518ZM33.029 98.3209C33.029 98.3209 32.1209 98.1424 32.1095 98.1424C32.1655 97.9748 32.3336 96.9685 32.3674 96.8118C32.468 96.8345 33.2869 96.9908 33.2869 96.9908C33.9709 97.1361 34.2173 97.3596 34.1276 97.8516C34.0269 98.3437 33.7353 98.4554 33.029 98.3209ZM61.4207 92.8431C61.2189 92.8768 61.1405 92.8431 60.8151 92.6533L59.2116 91.7479C59.851 91.0546 59.7612 90.2833 59.3912 89.7245C58.9423 89.0427 58.0456 88.6065 56.823 89.3893L54.6814 90.7753C54.6705 90.8534 54.7826 90.9543 54.7826 90.9543C55.0405 90.887 55.0851 90.9207 55.1635 91.0324L57.7202 94.956C57.7986 95.0683 57.81 95.1464 57.6419 95.269C57.6304 95.3477 57.7425 95.4816 57.7425 95.4816C57.7654 95.4816 59.1779 94.554 59.1779 94.554L59.0544 94.3528C58.8531 94.4087 58.7856 94.3973 58.7181 94.33C58.7072 94.3078 58.6844 94.2969 58.6735 94.2741C58.6735 94.2741 57.7088 92.7986 57.6979 92.7764C57.6979 92.7764 58.0004 92.586 58.2584 92.4184C58.5277 92.5974 60.1198 93.5028 60.1421 93.5141C60.1872 93.5478 60.0751 93.6595 60.0414 93.6818C60.03 93.7154 60.1649 93.8944 60.1649 93.8944C60.1987 93.9053 61.5437 93.0113 61.5437 93.0113C61.5214 92.9777 61.4207 92.8431 61.4207 92.8431ZM56.4307 90.8425C56.5205 90.7867 57.2158 90.3283 57.2158 90.3283C57.81 89.9594 58.1354 89.948 58.4156 90.3614C58.6844 90.7867 58.5614 91.0769 57.9558 91.4571C57.9558 91.4571 57.1821 91.96 57.1707 91.9714C57.0923 91.826 56.509 90.9765 56.4307 90.8425ZM77.848 86.773C77.6461 86.7285 77.5901 86.6613 77.3545 86.3597L76.2222 84.9064C77.0743 84.5148 77.287 83.7662 77.1749 83.1174C77.0291 82.3238 76.368 81.5638 74.9435 81.8209L72.4319 82.2793C72.3873 82.346 72.4542 82.4805 72.4542 82.4805C72.7236 82.525 72.7459 82.57 72.7796 82.704L73.6208 87.3095C73.6431 87.444 73.6317 87.5108 73.4298 87.5666C73.3852 87.6339 73.4298 87.8015 73.4298 87.8015C73.4521 87.8129 75.1116 87.4999 75.1116 87.4999L75.067 87.265C74.8537 87.2314 74.7977 87.1978 74.7645 87.1196C74.7531 87.0974 74.7531 87.0752 74.7417 87.0524C74.7417 87.0524 74.4277 85.3198 74.4168 85.2975C74.4168 85.2975 74.7645 85.2417 75.0785 85.1858C75.2575 85.4538 76.3789 86.9075 76.3903 86.9184C76.424 86.9634 76.2782 87.0193 76.2331 87.0301C76.2108 87.0524 76.2668 87.265 76.2668 87.265C76.2891 87.2873 77.8817 86.9857 77.8817 86.9857C77.8926 86.9298 77.848 86.773 77.848 86.773ZM74.0131 83.0056C74.1138 82.9834 74.9326 82.838 74.9326 82.838C75.6166 82.7263 75.9305 82.838 76.0203 83.33C76.1101 83.822 75.8745 84.0455 75.1677 84.1687C75.1677 84.1687 74.2596 84.3363 74.2487 84.3363C74.2487 84.1687 74.0468 83.1624 74.0131 83.0056ZM50.2637 99.4839C50.3198 99.6179 50.3644 99.6401 50.6 99.6179L50.6898 99.7969L50.6337 99.8191C50.6337 99.8191 49.3328 100.412 49.2092 100.457C49.2092 100.457 49.12 100.3 49.1309 100.255C49.1646 100.233 49.2321 100.154 49.2321 100.099C49.2321 100.065 49.2207 100.02 49.1869 99.9645C49.1869 99.9645 47.5274 96.387 47.4605 96.1858L46.3167 96.7228C46.1372 96.8118 46.092 96.8568 46.092 97.013C46.092 97.0358 46.092 97.0689 46.1035 97.1025C46.1035 97.1025 45.9799 97.2034 45.9016 97.1698C45.9016 97.1698 45.3297 95.9514 45.352 95.8728C45.352 95.8728 45.4641 95.7946 45.5316 95.806C45.5991 95.8955 45.6437 95.9178 45.8679 95.806L49.12 94.33C49.3328 94.2296 49.3779 94.2183 49.3779 94.0398C49.3779 94.0398 49.4671 93.9725 49.546 93.9503C49.546 93.9503 50.1625 95.2023 50.1402 95.269C50.1402 95.269 50.0167 95.3585 49.9498 95.3363C49.86 95.2023 49.804 95.1128 49.5907 95.2131C49.5907 95.2131 48.5705 95.6943 48.5253 95.6943C48.559 95.7274 50.2637 99.4839 50.2637 99.4839ZM117.609 101.921C116.208 101.53 115.692 100.635 116.051 99.2827L116.869 96.3089C116.903 96.1749 116.836 96.0632 116.657 95.9845C116.657 95.9064 116.701 95.7724 116.701 95.7724C116.701 95.7724 117.845 96.074 118.35 96.2308C118.35 96.2308 118.316 96.387 118.26 96.432C118.081 96.4092 118.036 96.4765 118.002 96.6105L117.183 99.6065C117.094 99.9423 117.116 100.244 117.251 100.479C117.374 100.702 117.587 100.859 117.89 100.948C118.193 101.027 118.462 100.993 118.686 100.881C118.922 100.747 119.101 100.501 119.202 100.166L120.066 97.1806C120.099 97.0466 120.099 96.9685 119.942 96.8904C119.908 96.8231 119.964 96.6664 119.964 96.6664C120.469 96.8009 121.613 97.1248 121.613 97.1248C121.613 97.1248 121.59 97.2701 121.546 97.326C121.355 97.3038 121.232 97.371 121.198 97.4936L120.334 100.457C119.92 101.82 119 102.312 117.609 101.921ZM100.51 92.7764C100.487 92.7542 100.454 92.7428 100.431 92.7205C100.431 92.7205 101.115 89.0763 101.295 88.4611C101.306 88.4275 101.306 88.3939 101.317 88.3608C101.082 88.7405 99.3099 91.5244 99.3099 91.5244C99.2876 91.5466 99.2762 91.5803 99.2762 91.6139C99.2762 91.6584 99.3099 91.7257 99.4106 91.8374L99.3099 92.005C99.3099 92.005 98.0878 91.2336 98.0089 91.1778C98.0089 91.1778 98.0878 91.0324 98.1324 91.021C98.2337 91.0769 98.3457 91.021 98.4018 90.9429L100.981 86.8848C101.025 86.8066 101.037 86.7508 100.913 86.594C100.913 86.594 100.958 86.4492 101.048 86.4264C101.048 86.4264 102.696 87.4549 102.696 87.4777C102.696 87.4777 102.618 87.6003 102.562 87.6225C102.449 87.6003 102.393 87.6784 102.371 87.7012C102.315 87.7907 101.732 90.8648 101.721 90.887C101.743 90.8756 104.277 89.0313 104.345 88.9532C104.367 88.9309 104.401 88.8414 104.333 88.7519C104.333 88.6846 104.412 88.562 104.412 88.562C104.434 88.5507 106.06 89.6014 106.06 89.6014C106.082 89.6795 105.97 89.7912 105.97 89.7912C105.78 89.7468 105.724 89.7804 105.679 89.8585L103.1 93.9167C103.044 94.0062 103.055 94.1288 103.145 94.196C103.156 94.2405 103.055 94.375 103.055 94.375C102.965 94.33 101.743 93.5478 101.743 93.5478L101.855 93.3802C102.001 93.4246 102.079 93.4246 102.113 93.4024C102.147 93.391 102.158 93.3688 102.181 93.3351C102.181 93.3351 103.952 90.5518 104.199 90.1715C104.176 90.1938 104.143 90.2165 104.109 90.2388C103.638 90.6635 100.61 92.8323 100.61 92.8323C100.566 92.81 100.532 92.7873 100.51 92.7764Z" fill="#000F46"/>
<path d="M1.11652 137.526H164.212V138.454H1.11652V137.526ZM21.502 116.733H21.0535L19.5061 116.688C19.4163 116.688 19.136 116.688 19.136 116.934C19.136 117.057 19.2369 117.146 19.3715 117.146L19.8761 117.191C20.291 117.281 20.4143 117.448 20.448 117.963L20.4816 121.272V121.596L13.9668 121.562L13.9892 121.26L14.0228 117.951C14.0565 117.426 14.1686 117.236 14.505 117.18L14.8638 117.135C14.9984 117.135 15.1105 117.046 15.1105 116.923C15.1105 116.767 14.9872 116.677 14.7405 116.677L13.4846 116.711H13.0249L11.4886 116.666C11.242 116.666 11.1186 116.744 11.1186 116.911C11.1186 117.035 11.2195 117.124 11.3541 117.124L11.8475 117.169C12.2736 117.258 12.3969 117.426 12.4193 117.94L12.453 121.26V123.966C12.453 125.408 12.453 126.649 12.3745 127.286C12.3072 127.744 12.2399 127.99 12.0157 128.035L11.5784 128.091C11.4102 128.091 11.3317 128.191 11.3317 128.303C11.3317 128.538 11.6008 128.538 11.7017 128.538L12.9576 128.504H13.3949L15.1105 128.549C15.4357 128.549 15.4694 128.381 15.4694 128.314C15.4694 128.214 15.3908 128.102 15.2339 128.102L14.5499 128.046C14.191 127.99 14.1013 127.755 14.0452 127.297C13.9668 126.66 13.9668 125.419 13.9668 123.977V122.367L20.4928 122.389L20.4592 123.977C20.4592 125.419 20.4592 126.66 20.3807 127.297C20.3246 127.744 20.2462 128.001 20.0219 128.046L19.5846 128.102C19.4163 128.102 19.3379 128.214 19.3379 128.314C19.3379 128.549 19.607 128.549 19.7079 128.549L20.975 128.516H21.4011L23.1279 128.56C23.4643 128.56 23.4979 128.393 23.4979 128.325C23.4979 128.225 23.4195 128.113 23.2512 128.113L22.5672 128.057C22.1972 128.001 22.1075 127.767 22.0627 127.308C21.9842 126.671 21.9842 125.43 21.9842 123.988V121.283L22.0178 117.974C22.0515 117.448 22.1636 117.258 22.4888 117.202L22.8476 117.158C22.9934 117.158 23.0943 117.068 23.0943 116.945C23.0943 116.699 22.8251 116.699 22.7243 116.699L21.502 116.733ZM31.392 116.655C31.0781 116.722 30.7527 116.733 30.7527 116.733L27.2207 116.744L27.0077 116.733L25.4715 116.699C25.3818 116.699 25.1014 116.699 25.1014 116.934C25.1014 117.057 25.2024 117.135 25.3369 117.146L25.8303 117.191C26.2339 117.225 26.3685 117.448 26.4022 117.963L26.4358 121.272V123.977C26.4358 125.419 26.4358 126.66 26.3573 127.297C26.29 127.755 26.2227 128.001 25.9985 128.046C25.9312 128.057 25.5611 128.102 25.5611 128.102C25.3818 128.113 25.3257 128.203 25.3257 128.314C25.3257 128.549 25.5948 128.549 25.6845 128.549L26.9404 128.516L27.7814 128.527L31.0106 128.594C31.6162 128.594 31.8295 128.594 31.9524 128.113C32.0313 127.789 32.1543 126.727 32.1543 126.593C32.1543 126.481 32.1543 126.246 31.9416 126.246C31.7506 126.246 31.7174 126.459 31.6945 126.57C31.5939 127.163 31.4257 127.442 31.0666 127.588C30.6857 127.744 30.0241 127.744 29.6318 127.744C28.1404 127.744 27.9946 127.554 27.9608 126.593V124.647V123.966V122.613C27.9608 122.624 30.1471 122.703 30.1471 122.703C30.6743 122.759 30.8201 122.971 30.8425 123.15C30.8762 123.329 30.8985 123.63 30.8985 123.63C30.9208 123.798 30.9883 123.887 31.1227 123.887C31.3474 123.887 31.3474 123.608 31.3474 123.485L31.4034 122.512L31.5264 121.641C31.5264 121.417 31.3697 121.394 31.336 121.406C31.2576 121.406 31.1341 121.562 31.022 121.629C30.7755 121.775 30.7755 121.786 30.3604 121.819L27.9157 121.853L27.9385 117.571C28.1175 117.538 29.7662 117.549 30.0127 117.582C30.8539 117.672 30.9437 117.862 31.0106 118.041L31.0895 118.544C31.0895 118.824 31.2576 118.857 31.336 118.857C31.4143 118.857 31.5155 118.812 31.5601 118.589L31.6162 117.806L31.6276 117.56L31.7174 117.035L31.7506 116.833C31.7506 116.598 31.6162 116.576 31.5716 116.576C31.5264 116.576 31.5264 116.632 31.392 116.655ZM52.2935 117.37L52.2821 126.19C52.2821 127.565 52.17 127.99 51.9006 128.035C51.6318 128.08 51.3065 128.125 51.3065 128.125C51.1269 128.135 51.06 128.225 51.06 128.337C51.06 128.572 51.3179 128.572 51.43 128.572L52.6635 128.538H53.1456L54.5586 128.572C54.6707 128.572 54.9509 128.572 54.9509 128.337C54.9509 128.236 54.9058 128.147 54.7039 128.125C54.7039 128.125 54.2556 128.08 53.9639 128.035C53.6723 127.99 53.4818 127.655 53.4481 126.358C53.4481 126.358 53.28 119.885 53.2577 119.304C53.6391 119.729 57.0702 123.485 57.0702 123.485C58.7407 125.285 60.9389 127.509 61.107 127.666C61.9928 128.538 62.1386 128.683 62.3176 128.683C62.5532 128.683 62.5756 128.504 62.5756 127.476L62.5984 118.466C62.5984 117.504 62.6768 117.292 63.0805 117.202L63.4282 117.158C63.63 117.135 63.7193 117.035 63.7193 116.934C63.7193 116.711 63.4505 116.711 63.327 116.711L62.2953 116.744H61.6897L60.4116 116.711C60.2658 116.711 59.9856 116.711 59.9856 116.934C59.9856 117.08 60.0416 117.146 60.2321 117.158L60.9612 117.236C61.3312 117.292 61.4547 117.538 61.4656 118.589C61.4656 118.589 61.6 124.659 61.6337 126.101C61.3312 125.777 60.4791 124.86 60.4791 124.86L58.1356 122.311L53.0895 116.889C52.8762 116.643 52.7304 116.509 52.596 116.509C52.3158 116.487 52.2935 116.833 52.2935 117.37ZM67.4535 116.733H66.9714L65.6482 116.699C65.5584 116.699 65.2896 116.699 65.2896 116.945C65.2896 117.068 65.3679 117.146 65.5246 117.158L65.9735 117.214C66.2086 117.247 66.3773 117.426 66.4105 117.974L66.4442 121.283V123.988C66.4442 125.43 66.4442 126.671 66.3658 127.308C66.2984 127.778 66.2314 128.012 66.0073 128.057L65.5698 128.113C65.3679 128.135 65.3228 128.225 65.3228 128.325C65.3228 128.56 65.6035 128.56 65.6928 128.56L66.96 128.527H67.386L69.1131 128.572C69.4493 128.572 69.4716 128.404 69.4716 128.337C69.4716 128.236 69.4047 128.135 69.2366 128.125L68.5635 128.068C68.1935 128.012 68.1037 127.778 68.0591 127.32C67.9808 126.682 67.9808 125.442 67.9808 123.999V121.294L68.0139 117.985C68.0477 117.459 68.1598 117.269 68.4851 117.214L68.8551 117.169C69.0124 117.158 69.1016 117.08 69.1016 116.956C69.1016 116.711 68.8214 116.711 68.7316 116.711L67.4535 116.733ZM81.6717 116.733H81.0889L79.9338 116.699C79.7765 116.699 79.474 116.699 79.474 116.934C79.474 117.012 79.5078 117.124 79.7657 117.146L80.3152 117.202C80.4382 117.225 80.4605 117.348 80.4382 117.448L80.3038 117.996C79.9898 119.013 78.0838 123.999 77.1191 126.257C76.9287 125.743 74.2598 118.655 74.2598 118.655C74.0356 118.085 73.8452 117.594 73.8452 117.426C73.8452 117.348 73.8675 117.247 73.9796 117.225L74.5177 117.158C74.787 117.135 74.787 117.001 74.787 116.934C74.787 116.711 74.4502 116.711 74.2489 116.711L73.1275 116.744H72.4321L71.0082 116.711C70.7949 116.711 70.4924 116.711 70.4924 116.934C70.4924 117.068 70.5593 117.146 70.7389 117.158L71.2884 117.214C71.7482 117.292 71.9838 117.482 72.32 118.332L76.1326 127.856C76.4243 128.572 76.5026 128.795 76.7605 128.795C76.951 128.795 77.0184 128.638 77.2426 128.135L77.512 127.554L79.418 123.094L80.3261 120.891L81.2342 118.711C81.6379 117.694 81.8627 117.437 82.0417 117.314C82.2996 117.146 82.6135 117.146 82.7147 117.146C82.9726 117.146 83.0173 117.001 83.0173 116.923C83.0173 116.777 82.8938 116.699 82.6358 116.699L81.6717 116.733ZM105.197 119.371C105.197 120.422 105.545 121.406 107.249 122.803L107.944 123.373C109.312 124.491 109.682 125.061 109.682 126.056C109.682 127.007 108.965 127.979 107.596 127.979C107.036 127.979 105.702 127.834 105.421 126.503L105.376 125.956C105.376 125.866 105.376 125.665 105.152 125.665C104.95 125.665 104.928 125.889 104.905 126.012L104.894 126.168L104.827 127.666C104.827 128.08 104.838 128.214 105.13 128.359C105.724 128.65 106.419 128.784 107.249 128.784C108.191 128.784 109.021 128.549 109.649 128.113C110.658 127.398 111.017 126.28 111.017 125.464C111.017 124.256 110.635 123.261 108.718 121.752L108.292 121.417C106.812 120.21 106.453 119.718 106.453 118.924C106.453 117.929 107.17 117.258 108.236 117.258C109.514 117.258 109.94 117.784 110.063 118.019C110.142 118.175 110.243 118.566 110.254 118.745C110.265 118.857 110.288 119.058 110.489 119.058C110.714 119.058 110.714 118.745 110.714 118.589L110.77 117.08V116.968C110.77 116.767 110.579 116.744 110.501 116.744C110.423 116.744 109.985 116.666 109.985 116.666C109.548 116.554 109.077 116.509 108.527 116.509C106.532 116.487 105.197 117.65 105.197 119.371ZM138.298 116.733H137.648L136.874 116.699C136.56 116.699 136.504 116.833 136.504 116.911C136.504 117.068 136.661 117.124 136.807 117.169C136.885 117.202 136.986 117.214 136.986 117.493C136.986 117.716 136.908 117.963 136.74 118.22C136.482 118.655 134.744 121.629 134.273 122.557C133.757 121.707 131.772 118.298 131.548 117.884C131.436 117.672 131.369 117.504 131.369 117.337C131.369 117.269 131.413 117.214 131.503 117.158L131.581 117.124C131.683 117.08 131.795 117.046 131.795 116.911C131.795 116.767 131.683 116.688 131.481 116.688L130.393 116.722H129.821L128.655 116.688C128.352 116.688 128.33 116.878 128.33 116.911C128.33 117.046 128.442 117.135 128.599 117.135C128.711 117.135 128.98 117.214 129.193 117.359C129.496 117.56 129.877 117.974 130.202 118.466C130.763 119.281 132.815 122.658 132.916 122.881C133.118 123.329 133.263 123.653 133.263 124.446V125.765L133.219 127.297C133.196 127.599 133.118 127.979 132.837 128.035L132.4 128.091C132.198 128.113 132.153 128.191 132.153 128.303C132.153 128.538 132.423 128.538 132.512 128.538L133.779 128.504H134.206L135.921 128.538C136.246 128.538 136.28 128.37 136.28 128.303C136.28 128.203 136.201 128.091 136.044 128.091L135.36 128.035C135.024 127.99 134.867 127.767 134.834 127.297L134.788 125.765V124.446C134.788 123.955 134.788 123.485 135.013 122.948C135.27 122.322 137.423 118.711 137.939 118.085C138.287 117.661 138.444 117.493 138.735 117.325C138.949 117.191 139.217 117.124 139.386 117.124C139.621 117.124 139.7 116.99 139.7 116.878C139.7 116.777 139.621 116.666 139.386 116.666L138.298 116.733ZM143.983 122.613C143.983 120.243 145.665 116.476 150.184 116.476C153.884 116.476 156.362 118.846 156.362 122.367C156.362 126.078 153.727 128.784 150.094 128.784C145.889 128.784 143.983 125.586 143.983 122.613ZM145.687 122.188C145.687 125.586 147.672 127.968 150.509 127.968C151.205 127.968 154.658 127.722 154.658 122.803C154.658 118.98 152.281 117.236 150.083 117.236C147.37 117.247 145.687 119.137 145.687 122.188ZM163.853 116.722C163.797 116.722 163.674 116.733 163.674 116.733L159.883 116.744L159.681 116.733L158.145 116.699C158.056 116.699 157.775 116.699 157.775 116.945C157.775 117.068 157.854 117.146 158.022 117.158L158.515 117.202C158.931 117.258 159.065 117.459 159.087 117.974L159.121 121.294V123.999C159.121 125.442 159.121 126.682 159.043 127.32C158.975 127.778 158.908 128.024 158.684 128.068L158.247 128.125C158.045 128.147 158.011 128.225 158.011 128.337C158.011 128.572 158.291 128.572 158.37 128.572L159.625 128.538H160.063L161.778 128.582C162.104 128.582 162.148 128.415 162.148 128.348C162.148 128.247 162.092 128.147 161.902 128.135L161.229 128.08C160.859 128.035 160.769 127.789 160.724 127.342C160.646 126.704 160.646 125.452 160.646 124.021V122.714C161.218 122.691 162.608 122.703 162.956 122.736C163.371 122.792 163.606 123.038 163.662 123.217C163.718 123.395 163.741 123.608 163.741 123.742C163.741 123.887 163.83 123.977 163.965 123.977C164.189 123.977 164.189 123.708 164.189 123.563L164.257 122.546L164.38 121.674C164.402 121.462 164.234 121.439 164.189 121.439C164.077 121.439 164.01 121.529 163.954 121.607C163.819 121.786 163.685 121.842 163.304 121.864L162.62 121.875L160.646 121.886L160.657 117.616C160.68 117.56 163.046 117.605 163.046 117.605C163.595 117.616 163.942 117.84 163.999 118.029C164.044 118.175 164.122 118.566 164.122 118.566C164.178 118.868 164.313 118.868 164.346 118.868C164.425 118.868 164.548 118.846 164.582 118.611C164.582 118.611 164.627 117.772 164.66 117.582C164.671 117.482 164.75 117.057 164.75 117.057L164.784 116.856C164.806 116.688 164.694 116.588 164.571 116.598C164.436 116.588 164.111 116.699 163.853 116.722ZM49.1534 116.733H48.6713L47.2474 116.699C47.1576 116.699 46.8888 116.699 46.8888 116.934C46.8888 117.057 46.9895 117.146 47.1239 117.146L47.6174 117.191C48.0772 117.247 48.167 117.482 48.1893 117.963L48.223 121.283V123.206C48.223 125.05 47.9651 126.146 47.3595 126.906C46.8099 127.565 45.9132 127.968 45.0274 127.968C44.1525 127.968 43.5023 127.834 42.7732 127.152C42.2242 126.626 41.6518 125.777 41.6518 123.44V121.283L41.6855 117.963C41.7192 117.426 41.8313 117.236 42.1567 117.191L42.5267 117.146C42.6834 117.135 42.7732 117.057 42.7732 116.934C42.7732 116.699 42.5044 116.699 42.4032 116.699L41.2595 116.733H40.5532L39.0955 116.699C39.0058 116.699 38.7255 116.699 38.7255 116.934C38.7255 117.057 38.8262 117.146 38.972 117.146L39.4655 117.191C39.8693 117.236 40.0037 117.448 40.0374 117.963L40.0711 121.283V123.53C40.0711 126.023 40.8111 127.051 41.4504 127.666C42.493 128.65 43.9397 128.795 44.7135 128.795C45.5432 128.795 46.7876 128.672 47.9765 127.621C49.2655 126.47 49.4342 124.513 49.4342 122.937V121.283L49.4674 117.963C49.5011 117.437 49.6132 117.258 49.9386 117.191L50.2971 117.146C50.4544 117.135 50.5442 117.057 50.5442 116.934C50.5442 116.699 50.2748 116.699 50.1851 116.699L49.1534 116.733ZM0.0960921 116.822C0.0736747 116.878 -0.262695 118.309 -0.262695 118.499C-0.262695 118.689 -0.161818 118.756 -0.0608849 118.756C0.0960912 118.756 0.163397 118.622 0.197023 118.521L0.443723 118.063C0.656743 117.739 0.993168 117.638 1.92387 117.627C1.92387 117.627 3.62824 117.605 4.08796 117.594V123.988C4.08796 125.43 4.08796 126.671 4.0095 127.308C3.9422 127.767 3.87494 128.012 3.65066 128.057C3.29187 128.113 3.21336 128.113 3.21336 128.113C3.04517 128.113 2.97787 128.214 2.97787 128.325C2.97787 128.56 3.24698 128.56 3.33671 128.56L4.60378 128.527H5.02987L6.74551 128.572C7.07067 128.572 7.1043 128.404 7.1043 128.337C7.1043 128.236 7.02584 128.125 6.86886 128.125L6.19607 128.068C5.82602 128.012 5.73629 127.778 5.69146 127.33C5.61294 126.694 5.613 125.442 5.613 123.999V117.605C5.82602 117.605 7.44072 117.638 7.44072 117.638C8.92087 117.672 9.17878 118.029 9.22361 118.387L9.23482 118.555C9.24603 118.7 9.26845 118.924 9.48152 118.924C9.51515 118.924 9.70575 118.913 9.70575 118.611L9.71696 118.119L9.75064 116.923C9.75064 116.833 9.75063 116.61 9.55998 116.61L9.36938 116.643C9.1563 116.688 8.74142 116.767 8.02379 116.767H2.23782C2.23782 116.767 1.15014 116.711 1.038 116.688C0.925861 116.666 0.544602 116.565 0.544602 116.565L0.354 116.509H0.342792C0.208233 116.498 0.15219 116.666 0.0960921 116.822ZM90.3622 116.655C90.0477 116.722 89.7229 116.733 89.7229 116.733L86.1905 116.744L85.9778 116.733L84.4412 116.699C84.352 116.699 84.0712 116.699 84.0712 116.934C84.0712 117.057 84.1724 117.135 84.3068 117.146L84.8003 117.191C85.204 117.225 85.3384 117.448 85.3722 117.963L85.4059 121.272V123.977C85.4059 125.419 85.4059 126.66 85.327 127.297C85.2601 127.755 85.1926 128.001 84.9685 128.046C84.901 128.057 84.531 128.102 84.531 128.102C84.352 128.113 84.2954 128.203 84.2954 128.314C84.2954 128.549 84.5647 128.549 84.6545 128.549L85.9103 128.516L86.7515 128.527L89.9808 128.594C90.5864 128.594 90.7991 128.594 90.9227 128.113C91.001 127.789 91.1245 126.727 91.1245 126.593C91.1245 126.481 91.1245 126.246 90.9112 126.246C90.7208 126.246 90.6871 126.459 90.6647 126.57C90.5635 127.163 90.3954 127.442 90.0368 127.588C89.6554 127.744 88.9938 127.744 88.6015 127.744C87.1101 127.744 86.9642 127.554 86.9305 126.593V124.647V123.966V122.613C86.9305 122.624 89.1173 122.703 89.1173 122.703C89.6445 122.759 89.7898 122.971 89.8127 123.15C89.8464 123.329 89.8687 123.63 89.8687 123.63C89.891 123.798 89.9585 123.887 90.0929 123.887C90.3171 123.887 90.3171 123.608 90.3171 123.485L90.3731 122.512L90.4966 121.641C90.4966 121.417 90.3394 121.394 90.3056 121.406C90.2273 121.406 90.1043 121.562 89.9917 121.629C89.7452 121.775 89.7452 121.786 89.3306 121.819L86.8859 121.853L86.9082 117.571C87.0878 117.538 88.7359 117.549 88.9829 117.582C89.8236 117.672 89.9133 117.862 89.9808 118.041L90.0592 118.544C90.0592 118.824 90.2273 118.857 90.3056 118.857C90.3845 118.857 90.4852 118.812 90.5304 118.589L90.5864 117.806L90.5973 117.56L90.6871 117.035L90.7208 116.833C90.7208 116.598 90.5864 116.576 90.5412 116.576C90.4966 116.576 90.4966 116.632 90.3622 116.655ZM114.482 116.733H114L112.676 116.699C112.586 116.699 112.317 116.699 112.317 116.945C112.317 117.068 112.396 117.146 112.553 117.158L113.001 117.214C113.237 117.247 113.405 117.426 113.439 117.974L113.472 121.283V123.988C113.472 125.43 113.472 126.671 113.394 127.308C113.326 127.778 113.259 128.012 113.035 128.057L112.598 128.113C112.396 128.135 112.351 128.225 112.351 128.325C112.351 128.56 112.631 128.56 112.721 128.56L113.988 128.527H114.414L116.141 128.572C116.477 128.572 116.5 128.404 116.5 128.337C116.5 128.236 116.433 128.135 116.264 128.125L115.592 128.068C115.222 128.012 115.132 127.778 115.087 127.32C115.008 126.682 115.008 125.442 115.008 123.999V121.294L115.042 117.985C115.076 117.459 115.188 117.269 115.513 117.214L115.883 117.169C116.04 117.158 116.13 117.08 116.13 116.956C116.13 116.711 115.849 116.711 115.76 116.711L114.482 116.733ZM117.52 116.822C117.498 116.878 117.161 118.309 117.161 118.499C117.161 118.689 117.263 118.756 117.363 118.756C117.52 118.756 117.587 118.622 117.621 118.521L117.868 118.063C118.081 117.739 118.417 117.638 119.348 117.627C119.348 117.627 121.052 117.605 121.512 117.594V123.988C121.512 125.43 121.512 126.671 121.434 127.308C121.366 127.767 121.299 128.012 121.075 128.057C120.716 128.113 120.638 128.113 120.638 128.113C120.47 128.113 120.402 128.214 120.402 128.325C120.402 128.56 120.671 128.56 120.761 128.56L122.028 128.527H122.454L124.169 128.572C124.495 128.572 124.529 128.404 124.529 128.337C124.529 128.236 124.45 128.125 124.293 128.125L123.62 128.068C123.25 128.012 123.16 127.778 123.116 127.33C123.037 126.694 123.037 125.442 123.037 123.999V117.605C123.25 117.605 124.865 117.638 124.865 117.638C126.345 117.672 126.603 118.029 126.648 118.387L126.659 118.555C126.67 118.7 126.693 118.924 126.906 118.924C126.939 118.924 127.13 118.913 127.13 118.611L127.141 118.119L127.175 116.923C127.175 116.833 127.175 116.61 126.984 116.61L126.794 116.643C126.58 116.688 126.165 116.767 125.448 116.767H119.662C119.662 116.767 118.574 116.711 118.462 116.688C118.35 116.666 117.969 116.565 117.969 116.565L117.778 116.509H117.767C117.621 116.498 117.565 116.666 117.52 116.822ZM103.874 128.325C103.874 128.56 103.582 128.56 103.381 128.56H102.797C101.934 128.56 101.519 128.482 101.093 128.259C100.465 127.923 99.9495 127.252 99.1757 126.235C99.1757 126.235 97.3252 123.653 97.2583 123.642C97.2583 123.642 95.2848 123.608 95.2848 123.619V123.988C95.2848 125.43 95.2848 126.671 95.3632 127.32C95.4078 127.778 95.4976 128.012 95.8675 128.057L96.5406 128.113C96.7425 128.125 96.7871 128.225 96.7871 128.325C96.7871 128.393 96.7533 128.56 96.4171 128.56L94.7015 128.516C94.7015 128.516 94.5219 128.516 94.455 128.516L93.0643 128.56C92.9745 128.56 92.6943 128.56 92.6943 128.325C92.6943 128.214 92.7389 128.135 92.9299 128.113L93.3674 128.057C93.5915 128.012 93.6584 127.755 93.7259 127.308C93.8043 126.671 93.8043 125.43 93.8043 123.988V121.283L93.7705 117.963C93.7373 117.448 93.6024 117.236 93.1987 117.191L92.7057 117.146C92.5599 117.135 92.4587 117.057 92.4587 116.934C92.4587 116.699 92.728 116.699 92.8287 116.699L94.3652 116.733L95.0829 116.722L96.3948 116.688C97.3475 116.688 98.4243 116.767 99.2878 117.381C99.7024 117.683 100.398 118.477 100.398 119.572C100.398 120.836 99.8145 121.964 98.5701 123.138C98.6599 123.25 98.8727 123.519 98.8727 123.519C99.9603 124.916 100.902 126.134 101.721 126.984C102.506 127.811 103.134 127.99 103.537 128.057L103.616 128.068C103.762 128.102 103.874 128.214 103.874 128.325ZM98.8841 120.389C98.8841 118.533 97.9308 117.426 96.3273 117.426C95.8452 117.426 95.4529 117.482 95.3294 117.515C95.2957 117.527 95.2848 117.549 95.2848 117.594V122.624C95.2848 122.658 95.2848 122.68 95.3408 122.714C95.5199 122.825 96.1706 122.937 96.8992 122.937C97.2246 122.937 97.6506 122.903 97.9868 122.669C98.5587 122.277 98.8841 121.428 98.8841 120.389ZM18.0259 147.598C18.0259 147.598 12.1951 159.817 11.6569 160.924C11.5559 160.711 5.26536 147.766 5.26536 147.766C4.97383 147.174 4.81685 147.006 4.58136 147.006C4.42439 147.006 4.22252 147.118 4.12164 147.666L1.78931 163.003C1.66596 163.864 1.45289 164.703 0.869817 164.814L0.174607 164.881C-0.00484133 164.892 -0.262695 164.881 -0.262695 165.105C-0.262695 165.429 0.0848833 165.429 0.219442 165.429L1.66596 165.384L2.55177 165.351L3.30308 165.373L5.02987 165.418C5.33262 165.418 5.65783 165.395 5.65783 165.094C5.65783 164.948 5.53448 164.903 5.24295 164.87L4.26741 164.747C3.81884 164.647 3.60583 164.412 3.60583 164.054L3.67308 162.959C3.67308 162.959 4.74955 154.764 4.88411 153.713C5.07476 154.026 6.02788 156.05 6.02788 156.05L7.32858 158.833C7.60891 159.482 9.43663 163.025 10.0422 164.177L10.1094 164.311C10.4683 164.982 10.6813 165.384 10.9168 165.384C11.1747 165.384 11.298 165.15 11.8475 164.032L16.9943 153.355C16.9943 153.445 18.396 163.685 18.396 163.685C18.4296 163.898 18.4408 164.065 18.4408 164.199C18.4408 164.479 18.3848 164.613 18.3174 164.635C18.1605 164.703 18.0147 164.792 18.0147 164.948C18.0147 165.16 18.2614 165.228 18.7548 165.261C19.6855 165.329 22.9373 165.407 23.554 165.407C23.9913 165.407 24.2268 165.295 24.2268 165.082C24.2268 164.859 23.9352 164.859 23.7895 164.859C23.4643 164.859 23.0158 164.837 22.343 164.624C21.6478 164.412 21.4347 163.707 21.2329 162.299L19.08 147.766C19.0015 147.241 18.8445 146.984 18.5978 146.984C18.3511 146.995 18.2166 147.218 18.0259 147.598ZM45.5318 147.554L44.2869 147.587L43.0871 147.565L41.0576 147.52C40.7774 147.52 40.4857 147.542 40.4857 147.788C40.4857 148.057 40.7213 148.034 40.9455 148.057L41.7084 148.124C42.4706 148.191 42.6388 148.671 42.6725 149.41C42.7171 150.158 42.7171 150.807 42.7171 154.395V158.532C42.7171 160.689 42.7171 162.545 42.5942 163.529C42.493 164.289 42.3586 164.691 41.9548 164.769L41.1136 164.859C40.8895 164.881 40.6767 164.881 40.6767 165.105C40.6767 165.395 41.0799 165.395 41.2034 165.395L42.8292 165.351L44.1748 165.329L47.853 165.418L51.0377 165.463C52.2821 165.463 52.4279 165.339 52.5846 164.781C52.7756 164.087 52.9437 162.333 52.9437 162.064C52.9437 161.841 52.9437 161.606 52.6972 161.606C52.4165 161.606 52.3941 161.863 52.3718 162.008C52.3272 162.444 52.0465 163.093 51.7777 163.383C51.2281 163.976 50.3869 164.02 49.0642 164.02C47.1799 164.02 46.6195 163.842 46.2495 163.517C45.7783 163.115 45.7783 161.472 45.7783 158.509V154.373C45.7783 150.784 45.7783 150.136 45.8235 149.387C45.8681 148.526 46.0814 148.202 46.6532 148.101L47.5614 148.034C47.8078 148.034 48.0434 148.001 48.0434 147.766C48.0434 147.531 47.7746 147.498 47.4939 147.498L45.5318 147.554ZM60.5689 164.032C61.1968 164.289 61.7349 164.311 62.273 164.311C62.7442 164.311 65.0649 164.166 65.0649 161.36C65.0649 160.443 64.8407 158.151 62.8003 156.72C62.3068 156.363 61.7686 156.217 60.8714 156.172L59.8621 156.15C59.8175 156.15 59.7837 156.162 59.7837 156.262V161.841C59.7837 163.372 59.8512 163.741 60.5689 164.032ZM60.7141 148.593L59.9519 148.638C59.8283 148.671 59.7837 148.727 59.7837 148.984V154.798C59.7837 154.965 59.8283 154.988 59.9072 154.999L61.0058 155.066C61.7012 155.066 62.2507 154.988 62.6653 154.63C63.2824 154.127 63.6072 153.277 63.6072 152.182C63.6072 150.796 62.8226 148.593 60.7141 148.593ZM61.1179 147.509C65.8386 147.509 66.1977 150.259 66.1977 151.097C66.1977 152.908 65.2558 154.049 63.8428 155.189C65.9061 155.927 68.0814 157.626 68.0814 160.286C68.0814 162.869 66.1194 165.474 61.7235 165.474L60.9835 165.44L60.0639 165.395L58.3037 165.329L56.9581 165.351L55.3324 165.395C55.1974 165.395 54.8051 165.395 54.8051 165.105C54.8051 164.881 55.007 164.87 55.2426 164.859L56.0832 164.769C56.5207 164.68 56.6328 164.155 56.7225 163.529C56.8346 162.545 56.8346 160.678 56.8346 158.532V154.395C56.8346 150.807 56.8346 150.17 56.79 149.41C56.7449 148.671 56.6551 148.202 55.8144 148.124L54.9058 148.057C54.637 148.034 54.446 148.057 54.446 147.788C54.446 147.542 54.7491 147.52 55.0179 147.52L57.3167 147.565L58.2248 147.587L59.9295 147.542L61.1179 147.509ZM73.8675 155.737C73.8675 160.868 76.8166 164.456 81.0552 164.456C82.681 164.456 86.4707 163.719 86.4707 156.911C86.4707 151.914 83.6566 148.437 79.6198 148.437C77.4668 148.426 73.8675 149.376 73.8675 155.737ZM70.5033 156.463C70.5033 151.992 73.5759 147.184 80.3038 147.184C86.2243 147.184 89.891 150.583 89.891 156.038C89.891 161.751 85.8543 165.742 80.0682 165.742C73.4975 165.742 70.5033 160.935 70.5033 156.463ZM107.406 147.565L104.009 147.52C103.739 147.52 103.459 147.542 103.459 147.788C103.459 148.057 104.199 148.068 104.749 148.124C105.421 148.191 105.679 148.671 105.724 149.41C105.769 150.158 105.769 150.807 105.769 154.395V157.335C105.769 159.851 105.668 161.885 104.423 163.126C103.291 164.255 101.799 164.378 101.205 164.378C100.386 164.378 99.321 164.266 98.2899 163.428C97.3475 162.656 96.4731 161.427 96.4731 157.682V154.384C96.4731 150.796 96.4731 150.158 96.5178 149.398C96.5738 148.537 96.7757 148.213 97.3475 148.113L98.0206 148.045C98.211 148.023 98.4581 148.045 98.4581 147.777C98.4581 147.531 98.155 147.509 97.8862 147.509L96.1592 147.554L94.9817 147.587L93.7259 147.554L91.5391 147.509C91.2589 147.509 90.9673 147.531 90.9673 147.777C90.9673 148.045 91.2143 148.034 91.427 148.045C91.427 148.045 91.6403 148.057 92.3357 148.113C93.0305 148.168 93.2661 148.66 93.2999 149.398C93.3445 150.147 93.3445 150.796 93.3445 154.384V157.816C93.3445 160.801 94.0176 162.791 95.4638 164.087C97.2806 165.731 99.7024 165.731 100.734 165.731C102.113 165.731 103.907 165.541 105.679 164.02C107.664 162.321 107.944 159.594 107.944 156.899V154.384C107.944 150.796 107.944 150.158 107.989 149.398C108.034 148.537 108.247 148.213 108.819 148.113L109.492 148.045C109.772 148.023 109.974 148.012 109.974 147.777C109.974 147.531 109.693 147.509 109.424 147.509L107.406 147.565ZM117.263 156.62C117.699 156.765 118.361 156.855 119.034 156.855C119.976 156.855 120.268 156.754 120.671 156.463C121.187 156.094 122.039 155.144 122.039 152.987C122.039 149.633 119.808 148.739 118.485 148.739C117.845 148.739 117.464 148.772 117.251 148.828C117.117 148.862 117.083 148.928 117.083 149.096V156.251C117.094 156.497 117.139 156.564 117.263 156.62ZM118.944 147.52C120.368 147.52 121.994 147.643 123.317 148.537C123.878 148.918 124.943 150.091 124.943 151.802C124.943 153.736 124.013 155.312 121.848 157.078C121.904 157.156 122.645 158.073 122.645 158.073C124.371 160.242 125.739 161.952 126.939 163.216C128.218 164.534 129.137 164.725 129.518 164.803L129.574 164.814C129.843 164.87 129.911 165.016 129.911 165.116C129.911 165.407 129.563 165.407 129.406 165.407H127.792C126.502 165.407 125.874 165.295 125.235 164.948C124.237 164.423 123.362 163.361 121.983 161.472L120.783 159.784L119.651 158.229C119.55 158.107 119.438 158.084 119.269 158.084L117.217 158.04C117.117 158.04 117.083 158.073 117.083 158.174V158.498C117.083 160.667 117.083 162.545 117.195 163.529C117.273 164.266 117.431 164.691 118.069 164.769L119.213 164.859C119.516 164.859 119.55 165.026 119.55 165.105C119.55 165.395 119.146 165.395 119.023 165.395L116.32 165.339L115.558 165.317L114.605 165.339L112.687 165.384C112.553 165.384 112.16 165.384 112.16 165.094C112.16 164.87 112.385 164.87 112.598 164.847L113.439 164.758C113.887 164.669 113.988 164.143 114.078 163.517C114.19 162.534 114.19 160.667 114.19 158.52V154.384C114.19 150.796 114.19 150.147 114.145 149.398C114.1 148.649 113.943 148.202 113.17 148.113L112.261 148.045C112.115 148.045 111.801 148.045 111.801 147.777C111.801 147.531 112.104 147.509 112.373 147.509L114.661 147.554L115.603 147.576L117.341 147.542L118.944 147.52ZM133.701 147.967L133.488 161.896C133.465 163.92 133.364 164.579 132.793 164.758C132.445 164.859 132.165 164.87 131.929 164.87C131.806 164.87 131.492 164.87 131.492 165.116C131.492 165.407 131.828 165.407 132.063 165.407L134.037 165.351H135.091L137.211 165.395C137.401 165.395 137.816 165.395 137.816 165.105C137.816 164.859 137.491 164.859 137.356 164.859C137.009 164.859 136.706 164.837 136.302 164.691C135.798 164.512 135.562 163.752 135.517 162.131C135.517 162.131 135.26 152.573 135.26 152.361C135.394 152.472 135.742 152.853 135.742 152.853C136.74 153.937 138.803 156.195 140.844 158.229L143.972 161.349L147.807 165.138C148.076 165.407 148.368 165.675 148.648 165.675C148.973 165.675 149.007 165.284 149.007 164.892L149.264 150.046C149.287 148.727 149.332 148.213 149.937 148.101L150.633 148.034C151.003 148.012 151.115 147.945 151.115 147.766C151.115 147.498 150.756 147.498 150.509 147.498L148.782 147.554L148.356 147.576L147.527 147.554L145.654 147.509C145.374 147.509 144.981 147.509 144.981 147.777C144.981 148.012 145.217 148.045 145.419 148.045C145.743 148.045 146.147 148.045 146.495 148.18C146.988 148.392 147.235 148.75 147.258 150.248C147.258 150.248 147.482 160.197 147.493 160.823L147.437 160.756C147.437 160.734 145.777 159.012 145.777 159.012L142.279 155.402C138.691 151.846 135.002 147.889 134.968 147.855L134.744 147.621C134.464 147.319 134.284 147.118 134.048 147.118C133.734 147.118 133.701 147.598 133.701 147.967ZM162.62 147.565C162.294 147.587 158.37 147.587 156.732 147.587L155.533 147.554L155.252 147.542L153.335 147.52C153.055 147.52 152.752 147.542 152.752 147.788C152.752 148.057 153.043 148.057 153.211 148.057L154.12 148.124C154.95 148.224 155.051 148.671 155.096 149.41C155.14 150.158 155.14 150.807 155.14 154.395V158.532C155.14 160.689 155.14 162.556 155.017 163.54C154.928 164.166 154.826 164.691 154.378 164.781L153.537 164.87C153.279 164.892 153.099 164.892 153.099 165.116C153.099 165.407 153.492 165.407 153.627 165.407L155.252 165.362L156.598 165.339L159.054 165.407L159.737 165.429L163.135 165.485C164.021 165.485 164.29 165.485 164.47 164.825C164.593 164.345 164.784 162.757 164.784 162.198C164.784 161.964 164.784 161.717 164.537 161.717C164.313 161.717 164.257 161.885 164.223 162.12C164.055 163.093 163.774 163.551 163.191 163.819C162.586 164.099 161.588 164.099 160.994 164.099C158.549 164.099 158.269 163.707 158.224 162.176V159.504V158.532V156.676C158.224 156.497 158.269 156.497 158.303 156.497C158.829 156.497 161.195 156.519 161.644 156.564C162.395 156.642 162.788 156.911 162.911 157.436L162.99 158.062L163.001 158.274C163.001 158.442 163.09 158.542 163.27 158.542C163.539 158.542 163.539 158.219 163.539 158.04L163.584 157.28L163.628 156.463L163.786 154.999L163.819 154.742C163.819 154.585 163.741 154.496 163.595 154.496C163.46 154.496 163.36 154.607 163.202 154.786C162.978 155.044 162.631 155.111 162.082 155.155C161.734 155.189 160.399 155.2 158.314 155.2C158.235 155.2 158.213 155.178 158.213 154.999V149.052C158.213 148.873 158.269 148.873 158.314 148.873C158.773 148.873 161.252 148.918 161.655 148.962C162.844 149.107 163.034 149.387 163.191 149.778C163.326 150.091 163.326 150.55 163.326 150.606C163.326 150.717 163.326 150.997 163.595 150.997C163.83 150.997 163.875 150.762 163.886 150.695L163.976 149.622L164.01 149.141L164.167 147.844L164.2 147.61C164.223 147.397 164.133 147.341 163.999 147.341C163.808 147.33 163.057 147.554 162.62 147.565ZM35.7541 147.565C35.4288 147.587 31.5041 147.587 29.8669 147.587L28.6671 147.554L28.3869 147.542L26.4694 147.52C26.1891 147.52 25.8864 147.542 25.8864 147.788C25.8864 148.057 26.1779 148.057 26.3461 148.057L27.2544 148.124C28.0844 148.224 28.185 148.671 28.2296 149.41C28.2748 150.158 28.2748 150.807 28.2748 154.395V158.532C28.2748 160.689 28.2748 162.556 28.1513 163.54C28.0615 164.166 27.9608 164.691 27.5123 164.781L26.6712 164.87C26.4134 164.892 26.2339 164.892 26.2339 165.116C26.2339 165.407 26.6264 165.407 26.761 165.407L28.3869 165.362L29.7325 165.339L32.188 165.407L32.872 165.429L36.27 165.485C37.1558 165.485 37.4246 165.485 37.6041 164.825C37.7276 164.345 37.9181 162.757 37.9181 162.198C37.9181 161.964 37.9181 161.717 37.6716 161.717C37.4469 161.717 37.3908 161.885 37.3576 162.12C37.189 163.093 36.9087 163.551 36.326 163.819C35.7204 164.099 34.7225 164.099 34.1278 164.099C31.6836 164.099 31.4034 163.707 31.3583 162.176V159.504V158.532V156.676C31.3583 156.497 31.4034 156.497 31.4366 156.497C31.9639 156.497 34.3297 156.519 34.7786 156.564C35.5294 156.642 35.9223 156.911 36.0452 157.436L36.1241 158.062L36.135 158.274C36.135 158.442 36.2248 158.542 36.4044 158.542C36.6731 158.542 36.6731 158.219 36.6731 158.04L36.7183 157.28L36.7629 156.463L36.9202 154.999L36.9539 154.742C36.9539 154.585 36.875 154.496 36.7297 154.496C36.5948 154.496 36.4941 154.607 36.3369 154.786C36.1127 155.044 35.765 155.111 35.2155 155.155C34.8683 155.189 33.5336 155.2 31.448 155.2C31.3697 155.2 31.3474 155.178 31.3474 154.999V149.052C31.3474 148.873 31.4034 148.873 31.448 148.873C31.9078 148.873 34.3857 148.918 34.7894 148.962C35.9783 149.107 36.1688 149.387 36.326 149.778C36.4604 150.091 36.4604 150.55 36.4604 150.606C36.4604 150.717 36.4604 150.997 36.7297 150.997C36.9648 150.997 37.0099 150.762 37.0208 150.695L37.1106 149.622L37.1443 149.141L37.3016 147.844L37.3348 147.61C37.3576 147.397 37.2679 147.341 37.1329 147.341C36.9425 147.33 36.1911 147.554 35.7541 147.565Z" fill="#000F46"/>
</g>
<defs>
<clipPath id="clip0_924_4680">
<rect width="166" height="178" fill="white"/>
</clipPath>
</defs>
</svg>
