<svg width="199" height="207" viewBox="0 0 199 207" fill="none" xmlns="http://www.w3.org/2000/svg">
<g opacity="0.2" filter="url(#filter0_d_2394_1372)">
<path d="M4 186.665C4.61937 184.566 5.59469 182.618 6.52203 180.646C6.85784 179.932 7.48621 179.571 8.01006 179.094C8.81704 178.357 9.37259 177.472 9.85404 176.518C9.96155 176.305 10.0819 176.072 9.84204 175.884C9.3486 175.498 9.45783 175.033 9.61845 174.544C12.021 167.215 13.7874 159.702 16.0062 152.321C16.91 149.314 17.7726 146.293 18.7582 143.312C19.7567 140.293 20.3833 137.192 20.9445 134.078C21.2507 132.378 21.9596 131.111 23.5213 130.258C26.825 128.453 30.1001 126.586 33.0594 124.237C35.2538 122.495 37.4683 120.77 39.553 118.902C41.1999 117.427 42.6147 115.709 43.112 113.45C43.3467 112.383 43.4371 111.296 43.4093 110.203C43.3951 109.654 43.0281 109.244 42.7805 108.796C42.0403 107.456 41.2273 106.154 40.5197 104.797C38.5318 100.985 37.2755 96.9819 37.6452 92.6185C37.7595 91.269 38.3528 90.0222 38.7404 88.7318C38.8424 88.3917 39.0437 88.0714 38.9889 87.6851C38.7143 87.6135 38.6967 87.8521 38.6218 87.9844C36.8917 91.0497 35.9494 94.3368 35.9524 97.8633C35.955 101.183 35.6821 104.528 36.3054 107.807C36.7748 110.278 36.9547 112.741 36.8759 115.237C36.8652 115.579 36.9963 116.047 36.5182 116.157C36.1126 116.25 35.9404 115.846 35.7956 115.558C34.1251 112.246 31.9732 109.196 30.498 105.776C29.951 104.509 29.8054 103.178 29.721 101.83C29.5702 99.4279 29.7728 97.0539 30.4496 94.7398C31.1345 92.3975 31.9115 90.0899 32.9699 87.8774C34.7749 84.1029 37.79 81.6419 41.4719 79.8898C41.9298 79.6718 42.4682 79.5827 42.9797 79.5258C44.6643 79.3369 46.1956 78.73 47.6519 77.9008C50.0981 76.5085 52.7551 75.5915 55.3345 74.5024C58.7055 73.0792 62.0782 71.6538 65.5614 70.5154C69.4648 69.2396 73.4475 68.9954 77.4794 69.7043C84.8428 70.999 92.1793 72.435 99.473 74.0779C102.35 74.7259 105.269 74.9529 108.194 75.0985C113.019 75.3388 117.839 74.9041 122.664 74.8878C124.629 74.8814 126.579 74.2942 128.547 74.3786C131.219 74.4934 133.888 74.4 136.558 74.442C138.4 74.4711 140.252 74.4231 142.05 73.9867C145.039 73.2616 147.162 71.5335 148.038 68.4909C148.979 65.2244 150.188 62.0401 151.031 58.7448C151.404 57.2878 151.763 55.8256 152.072 54.354C152.568 51.995 153.533 49.8176 154.571 47.665C155.254 46.2482 155.09 45.802 153.546 45.584C149.713 45.0426 146.53 43.1192 143.502 40.9075C141.513 39.4552 140.397 37.4555 140.424 34.9119C140.43 34.3427 140.352 33.7727 140.332 33.2026C140.272 31.4929 141.042 30.2586 142.555 29.5133C143.141 29.2247 143.057 28.9921 142.671 28.6178C141.944 27.9111 141.478 27.0314 141.275 26.0541C140.838 23.952 140.256 21.8478 141.051 19.6931C141.232 19.2002 141.152 18.6695 141.122 18.1491C140.956 15.1833 141.492 12.3146 142.289 9.47247C142.95 7.11689 143.879 4.86452 144.771 2.59503C145.037 1.9209 145.212 1.21166 145.453 0.527256C145.525 0.325104 145.533 -0.00382101 145.826 3.35756e-05C146.107 0.00388816 146.256 0.273709 146.36 0.511837C146.64 1.15727 146.594 1.83139 146.482 2.50337C146.429 2.82459 146.346 3.14109 146.395 3.48972C146.492 3.17236 146.588 2.85457 146.687 2.53807C146.747 2.34234 146.778 2.10036 147.045 2.09393C147.286 2.08836 147.397 2.29737 147.493 2.47725C147.716 2.89354 147.636 3.33511 147.568 3.77282C147.33 5.32493 146.639 6.74128 146.225 8.24157C145.698 10.147 145.204 12.0499 145.161 14.0436C145.147 14.6894 145.385 14.8149 145.867 14.4346C147.218 13.369 148.849 13.2774 150.443 13.1455C152.927 12.9399 155.417 12.8294 157.785 11.9274C158.116 11.8015 158.53 11.7056 158.759 12.1206C158.991 12.5407 158.645 12.7891 158.398 13.0482C158.066 13.396 157.638 13.5823 157.201 13.7549C154.827 14.6933 152.351 15.2869 149.889 15.9246C147.586 16.5212 145.749 17.8391 144.26 19.6246C143.619 20.3929 143.413 21.3622 143.751 22.4153C144.147 23.6496 144.439 24.9178 144.763 26.1748C144.916 26.7689 145.249 27.1393 145.821 27.4147C149.332 29.1017 152.856 30.7438 156.599 31.8766C158.097 32.3302 159.399 33.233 160.782 33.9448C161.372 34.2485 161.696 34.1264 161.927 33.5611C162.152 33.009 162.409 32.4651 162.578 31.895C163.146 29.9707 164.051 28.1818 164.776 26.3209C164.868 26.0832 164.958 25.771 165.276 25.8078C165.625 25.848 165.786 26.1556 165.838 26.4738C165.945 27.1299 165.8 27.7788 165.619 28.3942C164.922 30.7635 164.782 33.185 164.783 35.6348C164.784 36.9039 165.478 37.8953 165.926 38.9888C166.034 39.2543 166.329 39.2924 166.585 39.3464C167.626 39.5665 168.666 39.7952 169.71 40C170.6 40.1743 170.907 39.8937 171.329 39.068C172.092 37.5741 172.211 36.0143 172.1 34.3885C171.943 32.0916 172.598 29.8568 172.665 27.5745C172.672 27.3312 172.668 26.9817 172.969 26.9153C173.31 26.84 173.443 27.174 173.574 27.4211C174.039 28.2966 174.084 29.2636 174.136 30.2204C174.176 30.9455 174.143 31.674 174.157 32.4008C174.161 32.6261 174.126 32.9156 174.389 33.0112C174.622 33.0964 174.746 32.8446 174.887 32.7058C175.219 32.3777 175.503 31.9905 175.868 31.7062C177.096 30.7502 177.114 29.4829 177.034 28.0743C176.867 25.1448 175.371 22.889 173.585 20.7561C172.882 19.9154 172.222 19.0558 171.762 18.0566C171.665 17.8455 171.564 17.6284 171.519 17.4031C171.466 17.135 171.347 16.7842 171.686 16.6446C171.971 16.5268 172.151 16.8185 172.305 17.0159C173.182 18.1402 173.988 19.3282 175.18 20.1655C175.323 20.2662 175.444 20.4837 175.635 20.4019C175.89 20.2927 175.749 20.043 175.744 19.8477C175.62 15.1015 175.32 10.356 175.66 5.60717C175.673 5.42601 175.683 5.24441 175.702 5.06368C175.719 4.90735 175.742 4.73261 175.904 4.6688C176.119 4.584 176.233 4.75831 176.343 4.90221C176.763 5.4547 176.942 6.10656 177.087 6.76783C177.491 8.59962 177.499 10.4768 177.713 12.3304C177.844 13.4637 177.932 14.6016 178.042 15.7375C178.059 15.9139 178.037 16.1345 178.248 16.2004C178.415 16.2527 178.516 16.0792 178.638 15.988C179.347 15.4574 179.777 14.7276 180.139 13.9408C180.251 13.6962 180.332 13.2902 180.686 13.4067C181.071 13.5331 181.173 13.9275 181.068 14.3181C180.823 15.2235 180.598 16.1846 179.965 16.8741C178.286 18.7025 178.037 20.7647 178.671 23.0578C178.965 24.1208 179.31 25.1482 180.081 25.9663C180.71 26.6344 181.212 26.6322 181.878 26.0172C183.136 24.8557 184.365 23.6599 185.667 22.5489C186.378 21.9421 186.516 21.2611 186.383 20.4037C186.103 18.6096 185.818 16.8142 185.622 15.0102C185.381 12.7947 185.225 10.5693 185.046 8.34736C185.027 8.10709 184.924 7.73405 185.232 7.66467C185.568 7.58843 185.699 7.96875 185.775 8.22101C186.128 9.38767 186.477 10.5573 186.768 11.7403C187.346 14.083 187.654 16.4848 188.309 18.8126C188.484 19.4336 188.653 19.682 189.253 19.1548C189.978 18.5183 190.949 18.4027 191.831 18.1089C192.585 17.8571 193.262 17.5046 193.758 16.8587C193.948 16.6112 194.156 16.3169 194.522 16.4942C194.883 16.6681 195.05 17.012 194.99 17.4026C194.88 18.1196 194.56 18.7406 193.957 19.1685C191.086 21.2054 188.555 23.6394 186.15 26.174C183.452 29.0174 180.702 31.8068 177.972 34.6181C177.079 35.5381 176.717 36.8006 176.17 38.0941C177.165 37.9078 177.896 37.4212 178.661 37.0512C180.668 36.0798 182.817 35.7732 184.998 35.6751C186.42 35.6109 187.853 35.6554 189.271 35.879C190.623 36.0923 190.981 36.7887 190.197 37.9198C188.471 40.4098 186.421 42.6057 183.945 44.3711C183.144 44.942 182.38 45.5788 181.471 45.987C181.116 46.1463 180.982 46.4178 180.992 46.7952C181.012 47.6003 181.037 48.4051 180.671 49.1627C180.506 49.5045 180.73 49.7743 180.94 49.9988C183.354 52.5719 185.449 55.4573 188.111 57.7735C189.328 58.8326 189.838 60.0095 190.038 61.4739C190.055 61.6015 190.084 61.7304 190.126 61.852C190.695 63.474 189.991 65.2531 188.437 66.0831C188.228 66.1944 187.998 66.2814 187.873 66.4818C187.314 67.3782 186.443 67.5915 185.5 67.4729C184.13 67.3003 182.684 67.565 181.418 66.7264C180.916 66.3936 180.306 66.7576 179.733 66.687C178.385 66.5199 177.085 66.1765 175.79 65.7961C174.216 65.3336 173.682 65.8283 174.069 67.4369C174.458 69.0507 175.06 70.6152 175.273 72.2688C175.505 74.0681 175.695 75.8742 175.852 77.682C175.956 78.8722 175.51 79.9879 175.199 81.1074C174.449 83.8078 173.808 86.539 172.926 89.2021C172.829 89.4959 172.727 89.7974 172.572 90.0621C170.741 93.1701 168.933 96.2924 167.047 99.3675C166.028 101.03 164.667 102.442 163.359 103.881C161.105 106.361 158.649 108.617 155.945 110.619C154.654 111.574 153.565 112.809 153.291 114.518C152.936 116.727 151.873 118.682 151.105 120.745C150.55 122.235 149.702 123.516 148.644 124.671C148.285 125.061 148.276 125.344 148.645 125.723C151.397 128.552 153.814 131.677 156.46 134.599C158.057 136.363 160.06 137.647 161.947 139.063C163.182 139.991 164.306 141.06 165.206 142.278C166.149 143.551 166.471 145.157 166.806 146.707C167.371 149.325 167.311 152.033 167.902 154.643C169.116 160.008 170.28 165.394 172.419 170.494C172.798 171.396 173.289 172.279 173.872 173.062C175.173 174.811 175.349 176.661 174.644 178.661C174.217 179.875 173.959 181.112 174.207 182.405C174.359 183.195 174.46 184.002 174.694 184.768C175.278 186.676 175.062 188.513 174.318 190.315C174.063 190.935 173.944 191.549 174.09 192.212C174.134 192.411 174.124 192.627 174.106 192.832C174.079 193.141 174.062 193.483 173.718 193.623C173.361 193.769 173.062 193.609 172.8 193.365C172.074 192.689 171.499 191.882 170.893 191.107C169.745 189.639 168.512 188.22 168.077 186.317C167.934 185.692 167.946 185.153 168.302 184.613C169.205 183.248 169.342 181.709 169.283 180.131C169.275 179.902 169.283 179.698 168.964 179.599C167.989 179.299 167.47 178.622 167.635 177.557C167.969 175.406 167.434 173.458 166.586 171.519C165.242 168.446 164.432 165.183 163.299 162.035C162.042 158.542 160.698 155.084 159.261 151.661C158.815 150.599 158.614 149.473 158.322 148.37C158.162 147.768 157.874 147.319 157.339 146.949C154.042 144.674 150.562 142.704 147.036 140.827C143.417 138.9 139.794 136.971 136.043 135.301C134.628 134.67 134.603 134.644 133.756 135.939C130.985 140.173 128.312 144.468 125.927 148.937C124.529 151.555 123.321 154.247 122.614 157.143C122.346 158.239 121.779 159.209 121.283 160.206C119.495 163.805 118.332 167.623 117.275 171.484C116.404 174.664 115.413 177.825 114.851 181.068C114.168 185.01 113.969 188.979 116.124 192.651C116.439 193.187 116.71 193.752 116.964 194.321C117.472 195.461 118.188 196.42 119.225 197.137C119.586 197.388 119.916 197.686 120.241 197.984C120.437 198.163 120.58 198.395 120.453 198.678C120.341 198.928 120.102 198.962 119.863 198.978C119.759 198.985 119.655 198.986 119.552 198.986C117.656 198.986 115.759 199.034 113.865 198.968C112.58 198.924 111.409 198.534 110.774 197.245C110.584 196.857 110.548 196.453 110.551 196.033C110.561 194.735 110.579 193.437 110.57 192.139C110.563 191.26 110.482 190.431 109.369 190.182C108.903 190.078 108.616 189.661 108.404 189.221C107.657 187.668 107.542 186.058 107.816 184.367C108.196 182.024 108.944 179.783 109.605 177.52C111.376 171.452 112.62 165.282 113.34 159.005C113.534 157.312 114.136 155.733 114.598 154.113C115.788 149.941 116.639 145.695 117.427 141.429C118.069 137.947 118.169 134.416 118.621 130.919C118.708 130.25 118.928 129.731 119.456 129.33C119.797 129.071 120.111 128.767 120.004 128.295C119.906 127.862 119.479 127.846 119.138 127.744C116.925 127.08 114.711 126.422 112.499 125.753C111.873 125.564 111.244 125.441 110.586 125.451C108.136 125.487 105.731 125.033 103.307 124.789C100.521 124.509 97.7151 124.397 94.9434 124.023C90.475 123.42 85.9754 123.74 81.504 123.393C78.5206 123.161 75.5998 122.537 72.7287 121.688C71.5876 121.351 71.6138 121.367 71.1255 122.459C68.5812 128.145 65.9105 133.77 63.0047 139.284C61.5415 142.061 59.9918 144.801 58.786 147.707C58.1966 149.128 58.1983 150.659 58.2892 152.155C58.4009 153.991 58.6023 155.827 58.894 157.643C59.061 158.683 59.4906 159.681 59.7917 160.7C61.4246 166.225 63.717 171.463 66.4815 176.517C68.0247 179.338 69.7308 182.002 72.0515 184.251C72.8002 184.976 73.2127 185.918 73.3562 186.942C73.5794 188.532 74.3508 189.863 75.4234 190.966C76.6822 192.26 77.7569 193.679 78.7622 195.16C79.3992 196.099 80.2365 196.827 81.0731 197.564C81.3498 197.808 81.6659 198.054 81.5155 198.474C81.3699 198.882 80.9707 198.813 80.6439 198.814C78.3896 198.822 76.1344 198.848 73.9083 198.386C72.2374 198.039 71.3932 196.978 71.1443 195.335C70.9181 193.842 70.5318 192.393 69.8486 191.032C69.6691 190.675 69.5535 190.394 69.0515 190.633C68.5173 190.888 68.1036 190.549 67.7519 190.182C67.1004 189.501 66.6412 188.684 66.1542 187.886C61.1029 179.619 56.7484 170.965 52.0488 162.503C50.0574 158.917 48.04 155.353 45.5621 152.068C44.7757 151.025 44.2432 149.844 44.2021 148.488C44.1867 147.986 44.2282 147.511 44.3884 147.035C45.1372 144.815 46.1922 142.727 47.1443 140.594C48.5124 137.53 49.6077 134.371 50.3992 131.11C50.4446 130.923 50.5963 130.684 50.3667 130.542C50.1624 130.415 49.9761 130.602 49.7983 130.699C44.421 133.631 39.003 136.49 33.7713 139.683C32.9669 140.173 32.2259 140.737 31.5444 141.373C29.5008 143.282 27.2598 145.014 25.8262 147.489C24.9155 149.06 24.0486 150.657 23.1615 152.243C21.7467 154.772 20.8922 157.522 19.9824 160.253C19.4903 161.73 18.9133 163.181 18.4734 164.672C17.5769 167.713 16.835 170.787 16.8162 173.989C16.8076 175.437 16.2473 176.665 15.2258 177.677C13.9412 178.951 13.237 180.548 12.8802 182.26C12.3341 184.883 10.8491 186.564 8.32189 187.384C7.8066 187.551 7.23221 187.707 6.83857 188.046C5.75531 188.979 5.6251 189.027 4.00214 187.915V186.668L4 186.665ZM155.437 35.2353C155.39 35.2909 155.344 35.3466 155.298 35.4023C156.043 36.419 156.799 37.4289 157.531 38.4555C158.057 39.1918 158.783 39.5156 159.653 39.5503C160.249 39.5742 160.846 39.5592 161.442 39.5503C161.616 39.5477 161.842 39.6209 161.946 39.4415C162.083 39.2072 161.837 39.0693 161.724 38.9147C160.153 36.7672 157.786 36.0177 155.437 35.2353Z" fill="white"/>
</g>
<defs>
<filter id="filter0_d_2394_1372" x="0" y="0" width="199.002" height="207.003" filterUnits="userSpaceOnUse" color-interpolation-filters="sRGB">
<feFlood flood-opacity="0" result="BackgroundImageFix"/>
<feColorMatrix in="SourceAlpha" type="matrix" values="0 0 0 0 0 0 0 0 0 0 0 0 0 0 0 0 0 0 127 0" result="hardAlpha"/>
<feOffset dy="4"/>
<feGaussianBlur stdDeviation="2"/>
<feComposite in2="hardAlpha" operator="out"/>
<feColorMatrix type="matrix" values="0 0 0 0 0 0 0 0 0 0 0 0 0 0 0 0 0 0 0.25 0"/>
<feBlend mode="normal" in2="BackgroundImageFix" result="effect1_dropShadow_2394_1372"/>
<feBlend mode="normal" in="SourceGraphic" in2="effect1_dropShadow_2394_1372" result="shape"/>
</filter>
</defs>
</svg>
