<svg width="905" height="1648" viewBox="0 0 905 1648" fill="none" xmlns="http://www.w3.org/2000/svg">
<path fill-rule="evenodd" clip-rule="evenodd" d="M106.8 313.39C106.942 313.722 110.659 315.965 115.06 318.374C169.393 348.119 208.784 386.046 227.747 426.87C233.162 438.528 237.204 449.844 239.003 458.382C239.682 461.606 240.629 465.439 241.108 466.901C242.27 470.452 243.401 499.549 242.546 503.887C242.174 505.776 242.007 507.943 242.177 508.704C242.637 510.763 239.079 528.642 236.716 536.149C233.727 545.638 218.648 578.402 213.769 586.003C211.475 589.577 207.884 595.096 205.787 598.266C203.692 601.438 201.14 605.339 200.119 606.936C193.23 617.701 185.606 627.537 170.74 644.839C162.822 654.055 155.913 662.698 150.216 670.517C141.732 682.161 130.921 706.95 128.768 719.699C126.414 733.633 127.599 748.361 132.019 760.088C136.522 772.032 137.291 773.481 143.582 781.868C148.186 788.005 157.958 797.712 164.598 802.744C166.132 803.907 168.222 805.497 169.243 806.276C175.631 811.155 193.67 820.979 205.287 825.907C221.428 832.753 247.716 841.144 269.035 846.252C278.664 848.559 316.381 855.298 319.2 855.215C320.588 855.174 326.932 856.025 333.298 857.107C339.664 858.189 345.661 858.652 346.627 858.137C347.592 857.62 352.197 857.962 356.858 858.894C364.225 860.369 375.438 861.56 383.539 861.728C424.679 862.581 465.139 873.138 497.843 891.554C518.697 903.297 520.556 904.577 535.442 917.444C546.607 927.097 557.812 940.408 562.834 949.985C566.774 957.498 573.497 978.409 572.63 980.453C572.362 981.084 572.486 982.998 572.905 984.704C573.551 987.335 574.968 988.498 582.221 992.345C598.647 1001.06 609.754 1007.96 632.405 1023.51C653.959 1038.3 683.564 1061.26 697.124 1073.69C707.852 1083.52 714.589 1094.44 712.628 1098.82C711.02 1102.41 707.556 1101.38 682.237 1089.8C658.035 1078.73 621.679 1065 605.158 1060.7C582.791 1054.87 550.263 1048.7 546.875 1049.64C545.828 1049.94 541.598 1052.59 537.474 1055.54C525.446 1064.14 491.943 1079.06 473.99 1083.8C470.495 1084.73 466.922 1085.72 466.051 1086.02C463.492 1086.89 439.722 1092.44 418.759 1097.07C408.062 1099.43 380.825 1104.55 358.232 1108.45C314.792 1115.95 307.84 1116.94 286.483 1118.68C282.573 1119 277.144 1119.56 274.421 1119.94C271.696 1120.32 269.273 1120.54 269.035 1120.43C268.796 1120.33 264.601 1120.74 259.713 1121.35C254.825 1121.97 248.711 1122.66 246.127 1122.9C239.652 1123.49 190.785 1125.56 183.136 1125.56C179.71 1125.56 168.963 1125.78 159.254 1126.04C149.544 1126.31 140.278 1126.35 138.661 1126.14C137.045 1125.92 134.047 1125.73 132.001 1125.71C117.794 1125.58 96.5919 1124.69 89.2946 1123.91C78.7043 1122.79 65.6461 1122.05 58.7135 1122.19C55.8737 1122.24 53.0754 1122.07 52.4945 1121.81C51.0506 1121.17 32.6338 1119.12 20.1452 1118.23C-0.10935 1116.77 -13.4778 1114.86 -68.8298 1105.54C-82.5247 1103.23 -98.2804 1100.87 -103.843 1100.29C-109.405 1099.71 -118.99 1097.96 -125.142 1096.4C-131.294 1094.84 -155.437 1089.93 -178.793 1085.48C-222.651 1077.14 -227.437 1076.15 -253.984 1069.83C-262.65 1067.77 -282.635 1063.59 -298.395 1060.54C-314.154 1057.48 -335.044 1052.88 -344.816 1050.3C-369.829 1043.7 -438.21 1030.58 -454.977 1029.17C-464.323 1028.38 -483.311 1027.25 -486.523 1027.3C-487.901 1027.32 -493.983 1027.13 -500.038 1026.88C-506.093 1026.64 -514.02 1026.47 -517.652 1026.51C-521.285 1026.55 -524.445 1026.5 -524.672 1026.39C-526.152 1025.73 -584.497 1027.77 -599.328 1029.01C-602.918 1029.3 -611.625 1029.91 -618.675 1030.36C-637.793 1031.57 -649.684 1032.65 -667.998 1034.81C-675.232 1035.67 -682.91 1036.54 -685.06 1036.75C-699.473 1038.18 -719.671 1040.59 -730.45 1042.15C-775.46 1048.69 -795.18 1051.7 -816.013 1055.21C-828.979 1057.39 -841.145 1059.16 -843.046 1059.12C-855.4 1058.92 -865.568 1045.09 -862.8 1032.25C-860.45 1021.35 -853.507 1014.67 -843.045 1013.26C-839.186 1012.74 -826.086 1010.76 -813.935 1008.87C-801.784 1006.98 -778.924 1003.49 -763.135 1001.12C-747.347 998.759 -725.807 995.442 -715.269 993.755C-704.73 992.069 -695.656 990.892 -695.103 991.14C-694.549 991.388 -693.888 991.124 -693.632 990.553C-693.376 989.983 -692.683 989.733 -692.091 989.998C-690.217 990.838 -667.411 986.466 -663.298 984.478C-657.236 981.55 -653.952 977.933 -652.485 972.575C-651.773 969.973 -651.434 966.881 -651.732 965.705C-652.907 961.048 -656.35 956.192 -659.465 954.796C-663.468 953.003 -698.615 946.687 -700.959 947.339C-701.885 947.598 -708.361 946.883 -715.353 945.752C-727.562 943.778 -740.136 942.086 -761.69 939.517C-780.185 937.313 -798.713 934.82 -809.852 933.034C-815.924 932.061 -825.495 930.906 -831.121 930.468C-836.748 930.029 -848.443 928.611 -857.111 927.316C-865.778 926.021 -877.168 924.546 -882.421 924.038C-902.834 922.067 -912.902 913.236 -912.045 898.05C-911.777 893.317 -911.196 891.802 -907.895 887.251C-905.784 884.34 -902.678 881.175 -900.991 880.218C-895.434 877.063 -884.854 876.674 -871.3 879.127C-864.188 880.415 -857.509 881.428 -856.459 881.378C-852.759 881.205 -816.399 885.473 -803.803 887.561C-796.789 888.724 -784.013 890.234 -775.414 890.917C-766.814 891.6 -754.037 893.106 -747.02 894.262C-740.003 895.419 -733.125 896.33 -731.735 896.285C-727.932 896.165 -711.424 898.117 -700.98 899.921C-695.894 900.8 -691.106 901.372 -690.34 901.193C-688.905 900.857 -674.194 902.538 -661.904 904.442C-655.233 905.475 -637.432 906.678 -629.079 906.658C-626.919 906.654 -624.631 906.883 -623.996 907.167C-623.362 907.451 -621.835 907.608 -620.604 907.515C-613.171 906.954 -595.532 907.263 -586.14 908.118C-580.118 908.665 -568.365 909.328 -560.022 909.591C-551.68 909.855 -538.841 910.256 -531.489 910.486C-508.2 911.214 -472.738 910.019 -452.934 907.841C-450.772 907.604 -446.381 907.184 -443.175 906.909C-421.678 905.065 -386.838 899.061 -366.377 893.677C-349.17 889.148 -320.593 878.144 -310.134 872.019C-283.805 856.6 -263.098 836.928 -243.425 808.644C-233.783 794.78 -224.328 771.905 -219.537 750.845C-215.904 734.873 -211.119 701.817 -211.553 695.695C-212.269 685.604 -203.078 658.129 -193.852 642.787C-182.732 624.295 -164.144 604.981 -135.223 581.87C-128.906 576.822 -117.44 567.667 -109.745 561.525C-102.048 555.383 -94.6179 549.184 -93.2329 547.749C-91.8489 546.314 -88.5569 543.025 -85.9198 540.439C-69.2474 524.095 -57.6959 500.972 -57.4479 483.448C-57.3291 475.023 -57.4634 472.796 -58.451 466.807C-61.9807 445.403 -75.1216 426.939 -99.4067 409.257C-110.777 400.979 -131.584 388.09 -142.792 382.382C-148.927 379.258 -158.96 374.128 -165.087 370.984C-176.335 365.212 -296.844 311.313 -325.915 299.051C-334.558 295.406 -365.782 281.905 -395.302 269.05C-520.662 214.458 -559.111 197.951 -569.75 194.156C-581.115 190.101 -610.102 176.737 -618.268 171.787C-634.659 161.852 -647.139 152.813 -651.181 147.949C-655.68 142.537 -656.047 140.278 -653.045 136.467C-648.754 131.019 -604.528 134.531 -581.331 142.164C-577.45 143.44 -564.964 146.22 -553.582 148.338C-542.201 150.458 -529.413 153.189 -525.164 154.408C-520.914 155.627 -509.459 158.207 -499.708 160.141C-489.957 162.076 -480.49 164.089 -478.671 164.616C-476.851 165.142 -469.704 166.703 -462.786 168.082C-455.869 169.462 -447.994 171.274 -445.284 172.108C-439.974 173.743 -424.007 177.249 -410.131 179.825C-405.388 180.707 -395.211 183.012 -387.516 184.949C-370.532 189.224 -359.704 191.738 -346.902 194.38C-333.547 197.135 -304.805 203.663 -296.03 205.934C-292.04 206.967 -282.344 209.094 -274.483 210.661C-254.311 214.68 -238.269 218.251 -232.993 219.898C-230.509 220.674 -222.401 222.593 -214.975 224.162C-207.55 225.731 -198.95 227.636 -195.865 228.395C-192.779 229.153 -184.597 230.907 -177.682 232.291C-170.767 233.675 -163.046 235.46 -160.525 236.259C-154.949 238.022 -132.788 242.904 -110.11 247.364C-100.872 249.18 -92.0505 251.233 -90.5071 251.924C-88.9625 252.616 -82.0089 254.39 -75.0525 255.869C-50.7211 261.037 -23.7675 267.113 -10.4345 270.436C-3.0399 272.279 5.53547 274.406 8.62228 275.161C11.7087 275.917 19.8276 278.437 26.6637 280.763C33.4998 283.088 41.2892 285.718 43.9722 286.61C50.5665 288.8 106.476 312.631 106.8 313.39ZM454.389 921.955C449.007 923.031 441.815 927.721 439.272 931.812C433.335 941.359 434.555 954.79 441.936 961.163C449.812 967.965 453.987 969.093 464.29 967.206C472.023 965.789 480.71 954.971 481.054 946.327C481.244 941.554 478.859 934.386 475.697 930.223C471.766 925.048 460.593 920.713 454.389 921.955Z" fill="#1B4FA3"/>
<circle cx="458" cy="940" r="31" fill="white"/>
<path d="M497.788 891.772C465.084 873.357 424.624 862.799 383.484 861.947C375.383 861.778 364.17 860.587 356.803 859.113C352.657 858.283 348.556 857.922 347.021 858.215C328.34 920.978 358.973 989.61 420.869 1017.34C474.69 1041.45 535.855 1027.34 573.515 986.611C573.204 986.094 573.004 985.55 572.85 984.923C572.431 983.217 572.307 981.302 572.575 980.671C573.441 978.625 566.718 957.717 562.779 950.204C557.757 940.627 546.552 927.315 535.386 917.662C520.501 904.795 518.641 903.515 497.788 891.772ZM454.334 922.173C460.538 920.931 471.71 925.266 475.642 930.441C478.804 934.604 481.189 941.772 480.998 946.546C480.654 955.19 471.967 966.008 464.234 967.425C453.932 969.311 449.757 968.183 441.881 961.381C434.499 955.008 433.28 941.577 439.216 932.03C441.759 927.94 448.952 923.249 454.334 922.173Z" fill="#268944"/>
</svg>
