<svg width="967" height="1266" viewBox="0 0 967 1266" fill="none" xmlns="http://www.w3.org/2000/svg">
<path fill-rule="evenodd" clip-rule="evenodd" d="M1007.88 103.434C1007.58 103.641 1003.24 103.594 998.23 103.328C936.374 100.05 882.923 111.589 845.324 136.337C834.587 143.404 825.197 150.903 819.177 157.218C816.903 159.603 814.082 162.365 812.906 163.357C810.049 165.766 793.784 189.918 792.229 194.057C791.553 195.859 790.555 197.79 790.01 198.348C788.536 199.858 782.159 216.935 780.22 224.563C777.771 234.205 773.364 270.003 773.516 279.034C773.587 283.279 773.738 289.862 773.854 293.661C773.969 297.461 774.087 302.121 774.116 304.017C774.313 316.795 775.624 329.171 779.167 351.705C781.054 363.708 782.384 374.693 783.118 384.339C784.209 398.705 780.366 425.474 775.492 437.45C770.165 450.539 761.411 462.442 751.484 470.092C741.373 477.882 739.956 478.71 730.194 482.534C723.05 485.332 709.634 488.449 701.34 489.236C699.424 489.419 696.81 489.671 695.531 489.797C687.532 490.586 667.024 489.454 654.551 487.536C637.222 484.869 610.451 478.179 589.632 471.31C580.229 468.208 544.606 454.103 542.252 452.549C541.093 451.785 535.249 449.171 529.266 446.744C523.283 444.316 517.938 441.555 517.388 440.609C516.839 439.662 512.743 437.531 508.288 435.872C501.247 433.252 491.083 428.367 484.105 424.249C448.666 403.337 408.702 391.036 371.201 389.498C347.288 388.517 345.034 388.628 325.606 391.743C311.032 394.08 294.501 399.508 285.193 405.012C277.891 409.33 261.174 423.578 260.837 425.773C260.732 426.45 259.62 428.013 258.367 429.243C256.434 431.141 254.617 431.385 246.425 430.843C227.872 429.615 214.798 429.639 187.354 430.95C161.24 432.198 123.986 436.153 105.915 439.593C91.6182 442.316 80.1447 448.061 79.5105 452.814C78.9905 456.711 82.4774 457.659 110.103 461.126C136.509 464.44 174.65 471.888 190.966 476.916C213.054 483.722 243.964 495.583 246.35 498.167C247.087 498.967 249.29 503.447 251.246 508.124C256.95 521.77 277.599 552.077 290.373 565.554C292.86 568.179 295.375 570.905 295.96 571.614C297.681 573.697 314.977 590.921 330.372 605.885C338.228 613.52 358.698 632.202 375.862 647.403C408.864 676.629 414.256 681.128 431.508 693.836C434.666 696.163 438.984 699.501 441.102 701.254C443.221 703.008 445.166 704.47 445.425 704.505C445.684 704.54 449.034 707.098 452.869 710.19C456.704 713.282 461.539 717.09 463.611 718.651C468.806 722.561 509.281 750.021 515.786 754.045C518.699 755.849 527.725 761.686 535.843 767.018C543.962 772.35 551.821 777.26 553.309 777.928C554.796 778.596 557.446 780.01 559.197 781.071C571.349 788.429 589.853 798.819 596.466 802C606.065 806.614 617.558 812.855 623.384 816.615C625.77 818.156 628.238 819.485 628.869 819.569C630.438 819.779 647.175 827.728 658.27 833.533C676.263 842.946 688.635 848.356 740.617 869.538C753.478 874.779 768.122 881.056 773.158 883.488C778.195 885.919 787.267 889.471 793.32 891.381C799.372 893.291 822.488 901.813 844.689 910.318C886.379 926.291 890.973 927.961 916.873 936.551C925.329 939.356 944.527 946.309 959.534 952.004C974.542 957.697 994.732 964.767 1004.4 967.713C1029.15 975.253 1094.2 1000.06 1109.21 1007.68C1117.57 1011.93 1134.31 1020.95 1137.02 1022.68C1138.18 1023.42 1143.46 1026.46 1148.73 1029.44C1154.01 1032.41 1160.84 1036.44 1163.91 1038.38C1166.98 1040.33 1169.7 1041.95 1169.94 1041.98C1171.55 1042.19 1220.1 1074.62 1232.06 1083.46C1234.96 1085.61 1242.05 1090.71 1247.81 1094.79C1263.43 1105.88 1272.98 1113.05 1287.42 1124.52C1293.12 1129.05 1299.19 1133.83 1300.91 1135.15C1312.41 1143.94 1328.33 1156.61 1336.67 1163.61C1371.51 1192.85 1386.7 1205.78 1402.58 1219.72C1412.45 1228.4 1421.88 1236.29 1423.51 1237.27C1434.12 1243.59 1450.05 1237.17 1454.45 1224.8C1458.18 1214.29 1455.78 1204.96 1447.63 1198.26C1444.62 1195.79 1434.52 1187.22 1425.18 1179.21C1415.84 1171.21 1398.23 1156.23 1386.05 1145.91C1373.87 1135.59 1357.29 1121.44 1349.21 1114.46C1341.14 1107.49 1334.04 1101.71 1333.44 1101.63C1332.84 1101.55 1332.41 1100.98 1332.5 1100.36C1332.58 1099.74 1332.12 1099.16 1331.48 1099.08C1329.44 1098.81 1312.34 1083.09 1309.89 1079.24C1306.28 1073.56 1305.38 1068.76 1306.96 1063.43C1307.72 1060.84 1309.06 1058.03 1309.93 1057.19C1313.38 1053.85 1318.86 1051.53 1322.24 1051.98C1326.59 1052.56 1359.81 1065.67 1361.46 1067.46C1362.11 1068.17 1367.99 1070.97 1374.53 1073.68C1385.96 1078.42 1397.54 1083.6 1417.22 1092.75C1434.11 1100.6 1451.18 1108.23 1461.59 1112.57C1467.27 1114.93 1476.02 1118.98 1481.03 1121.57C1486.05 1124.16 1496.74 1129.1 1504.8 1132.56C1512.85 1136.02 1523.31 1140.75 1528.05 1143.08C1546.45 1152.14 1559.65 1149.93 1566.91 1136.56C1569.17 1132.39 1569.48 1130.8 1569.06 1125.19C1568.8 1121.61 1567.82 1117.28 1566.89 1115.58C1563.82 1109.97 1555.03 1104.08 1542.21 1099.04C1535.48 1096.39 1529.27 1093.74 1528.4 1093.15C1525.35 1091.05 1492.18 1075.56 1480.37 1070.71C1473.79 1068.01 1462.13 1062.57 1454.46 1058.63C1446.78 1054.69 1435.12 1049.25 1428.55 1046.54C1421.97 1043.84 1415.64 1040.99 1414.48 1040.22C1411.31 1038.12 1396.25 1031.1 1386.41 1027.14C1381.63 1025.21 1377.25 1023.18 1376.7 1022.63C1375.65 1021.59 1362.26 1015.28 1350.8 1010.43C1344.58 1007.8 1328.81 999.465 1321.72 995.055C1319.88 993.915 1317.82 992.906 1317.13 992.814C1316.44 992.722 1315.06 992.053 1314.06 991.326C1308.03 986.94 1292.87 977.925 1284.43 973.712C1279.02 971.01 1268.68 965.393 1261.44 961.228C1254.21 957.065 1243.08 950.654 1236.7 946.982C1216.51 935.352 1186.98 915.685 1171.28 903.416C1169.57 902.078 1166.05 899.41 1163.47 897.49C1146.16 884.616 1119.68 861.185 1105.11 845.844C1092.86 832.943 1074.34 808.553 1068.67 797.843C1054.39 770.881 1047.12 743.259 1045.27 708.856C1044.36 691.993 1048.35 667.564 1055.35 647.133C1060.66 631.638 1073.97 601.007 1077.56 596.028C1083.48 587.822 1090.11 559.62 1090.34 541.719C1090.61 520.143 1084.95 493.939 1072.51 459.072C1069.79 451.457 1064.86 437.64 1061.54 428.368C1058.23 419.096 1055.17 409.916 1054.74 407.967C1054.32 406.019 1053.25 401.49 1052.37 397.903C1046.79 375.234 1049.12 349.491 1058.13 334.457C1062.46 327.229 1063.74 325.405 1067.73 320.831C1081.99 304.483 1102.88 295.691 1132.84 293.425C1146.86 292.365 1171.34 292.346 1183.87 293.387C1190.73 293.956 1201.96 294.869 1208.83 295.418C1221.43 296.424 1352.27 313.966 1383.45 318.827C1392.72 320.272 1426.37 325.212 1458.24 329.805C1593.57 349.307 1634.96 355.491 1646 357.859C1657.8 360.387 1689.48 364.267 1699.03 364.352C1718.2 364.523 1733.57 363.399 1739.56 361.388C1746.24 359.152 1747.74 357.423 1747.19 352.603C1746.4 345.712 1706.94 325.439 1683.2 319.73C1679.23 318.774 1667.14 314.571 1656.35 310.387C1645.55 306.204 1633.24 301.801 1628.99 300.602C1624.73 299.404 1613.63 295.573 1604.32 292.089C1595.01 288.606 1585.9 285.339 1584.07 284.831C1582.25 284.321 1575.35 281.889 1568.74 279.424C1562.13 276.96 1554.48 274.359 1551.74 273.643C1546.36 272.24 1530.94 266.825 1517.78 261.717C1513.28 259.973 1503.42 256.581 1495.85 254.181C1479.16 248.884 1468.63 245.327 1456.35 240.841C1443.54 236.16 1415.66 226.595 1407.01 223.912C1403.07 222.692 1393.7 219.401 1386.19 216.599C1366.92 209.408 1351.4 204.008 1346.05 202.634C1343.53 201.987 1335.62 199.354 1328.48 196.784C1321.34 194.213 1313.02 191.31 1310 190.332C1306.98 189.354 1299.1 186.542 1292.49 184.083C1285.88 181.623 1278.37 179.08 1275.81 178.433C1270.14 177 1248.72 169.496 1227.09 161.363C1218.28 158.048 1209.69 155.155 1208.02 154.931C1206.34 154.707 1199.49 152.559 1192.8 150.157C1169.39 141.756 1143.27 132.747 1130.18 128.561C1122.92 126.239 1114.51 123.538 1111.48 122.556C1108.46 121.576 1100.23 119.45 1093.19 117.832C1086.16 116.214 1078.15 114.354 1075.4 113.702C1068.64 112.096 1008.55 102.958 1007.88 103.434ZM392.17 438.209C396.181 441.955 399.831 449.727 399.843 454.543C399.87 465.786 391.769 476.568 382.139 478.106C371.863 479.748 367.719 478.512 359.949 471.488C354.117 466.216 352.419 452.446 356.672 444.913C359.021 440.754 364.819 435.912 369.698 434.034C375.764 431.7 387.547 433.89 392.17 438.209Z" fill="#1B4FA3"/>
<path d="M371.133 389.713C408.634 391.251 448.599 403.552 484.037 424.464C491.016 428.582 501.179 433.466 508.22 436.087C512.182 437.562 515.86 439.412 517.012 440.469C499.89 503.675 437.738 545.935 370.511 536.965C312.054 529.165 267.456 484.992 256.845 430.546C257.382 430.269 257.837 429.912 258.299 429.459C259.552 428.228 260.664 426.666 260.769 425.988C261.106 423.794 277.823 409.545 285.125 405.227C294.433 399.723 310.965 394.295 325.538 391.957C344.966 388.843 347.221 388.732 371.133 389.713ZM392.102 438.425C387.479 434.105 375.696 431.915 369.631 434.249C364.752 436.127 358.953 440.969 356.605 445.129C352.351 452.661 354.05 466.432 359.881 471.704C367.651 478.727 371.796 479.963 382.071 478.32C391.702 476.782 399.803 466.001 399.776 454.759C399.763 449.942 396.113 442.171 392.102 438.425Z" fill="#268944"/>
</svg>
