<svg width="464" height="531" viewBox="0 0 464 531" fill="none" xmlns="http://www.w3.org/2000/svg">
<path fill-rule="evenodd" clip-rule="evenodd" d="M-9.36294 -28.3312C-9.22258 -28.22 -7.0678 -28.1193 -4.5748 -28.1082C26.2037 -27.9671 52.3897 -20.7161 70.3349 -7.36523C75.4594 -3.55292 79.9033 0.435232 82.7094 3.74013C83.769 4.98797 85.0897 6.43875 85.6447 6.9645C86.993 8.24101 94.372 20.6869 95.0249 22.7849C95.3089 23.698 95.749 24.6844 96.0032 24.9768C96.6914 25.7677 99.3671 34.4217 100.111 38.2607C101.05 43.1141 102.214 60.9983 101.881 65.4739C101.724 67.5779 101.461 70.8391 101.295 72.7207C101.13 74.6022 100.938 76.9104 100.87 77.8501C100.407 84.1836 99.4028 90.2855 97.0012 101.363C95.7223 107.263 94.7487 112.675 94.1093 117.439C93.1576 124.534 94.2996 137.924 96.3754 144.004C98.6438 150.649 102.646 156.804 107.353 160.882C112.146 165.035 112.825 165.487 117.559 167.663C121.022 169.255 127.589 171.184 131.681 171.812C132.626 171.957 133.916 172.157 134.546 172.256C138.492 172.876 148.698 172.9 154.94 172.304C163.613 171.477 177.084 168.923 187.608 166.11C192.361 164.84 210.436 158.86 211.648 158.157C212.245 157.81 215.218 156.681 218.256 155.648C221.293 154.614 224.023 153.397 224.323 152.943C224.623 152.489 226.716 151.549 228.973 150.854C232.541 149.755 237.722 147.622 241.302 145.779C259.479 136.417 279.656 131.456 298.303 131.765C310.193 131.961 311.308 132.08 320.857 134.181C328.02 135.756 336.066 138.921 340.526 141.918C344.025 144.268 351.911 151.814 352.016 152.912C352.048 153.251 352.555 154.058 353.142 154.705C354.046 155.701 354.941 155.874 359.02 155.839C368.259 155.76 374.744 156.145 388.321 157.58C401.239 158.945 419.607 161.971 428.473 164.194C435.488 165.953 441.015 169.13 441.194 171.506C441.341 173.454 439.584 173.825 425.781 174.756C412.587 175.646 393.453 178.251 385.216 180.279C374.064 183.024 358.391 188.025 357.134 189.239C356.745 189.614 355.525 191.774 354.421 194.038C351.201 200.645 340.092 215.09 333.37 221.41C332.062 222.641 330.736 223.922 330.426 224.257C329.513 225.241 320.44 233.291 312.376 240.275C308.261 243.838 297.572 252.521 288.624 259.571C271.417 273.127 268.614 275.205 259.693 281.016C258.06 282.08 255.822 283.613 254.721 284.422C253.62 285.231 252.613 285.901 252.484 285.911C252.354 285.921 250.619 287.094 248.629 288.519C246.638 289.943 244.131 291.694 243.058 292.409C240.37 294.2 219.506 306.666 216.164 308.477C214.668 309.288 210.024 311.926 205.844 314.339C201.665 316.753 197.625 318.964 196.868 319.252C196.111 319.541 194.757 320.167 193.858 320.643C187.619 323.946 178.143 328.572 174.771 329.961C169.878 331.976 163.998 334.744 161.001 336.442C159.773 337.139 158.511 337.728 158.195 337.751C157.411 337.81 148.881 341.276 143.212 343.838C134.017 347.994 127.725 350.324 101.333 359.347C94.8031 361.58 87.3596 364.275 84.7917 365.338C82.2237 366.4 77.6215 367.903 74.5646 368.677C71.5078 369.452 59.7969 373.019 48.5405 376.604C27.4029 383.337 25.0765 384.034 11.9825 387.556C7.70778 388.706 -2.01419 391.607 -9.62179 394.003C-17.2295 396.399 -27.4471 399.329 -32.3274 400.514C-44.8187 403.547 -77.801 413.996 -85.4614 417.347C-89.7314 419.214 -98.2944 423.215 -99.6875 423.994C-100.285 424.328 -102.987 425.685 -105.691 427.011C-108.395 428.336 -111.898 430.138 -113.476 431.014C-115.054 431.891 -116.447 432.617 -116.57 432.626C-117.374 432.687 -142.384 447.384 -148.572 451.432C-150.07 452.412 -153.73 454.739 -156.705 456.602C-164.771 461.655 -169.713 464.938 -177.204 470.217C-180.162 472.303 -183.31 474.501 -184.199 475.103C-190.158 479.139 -198.415 484.968 -202.754 488.203C-220.873 501.71 -228.778 507.691 -237.05 514.154C-242.199 518.176 -247.098 521.824 -247.936 522.26C-253.382 525.094 -261.098 521.456 -262.927 515.191C-264.479 509.872 -263.024 505.314 -258.787 502.221C-257.225 501.08 -251.968 497.117 -247.107 493.415C-242.246 489.712 -233.082 482.78 -226.743 478.01C-220.405 473.24 -211.778 466.694 -207.572 463.464C-203.366 460.233 -199.68 457.572 -199.38 457.549C-199.079 457.527 -198.853 457.255 -198.876 456.945C-198.899 456.635 -198.655 456.362 -198.334 456.338C-197.317 456.261 -188.386 448.954 -187.059 447.113C-185.104 444.399 -184.524 442.042 -185.151 439.353C-185.456 438.048 -186.039 436.616 -186.448 436.173C-188.063 434.417 -190.717 433.109 -192.408 433.237C-194.581 433.4 -211.433 438.957 -212.303 439.797C-212.646 440.128 -215.645 441.349 -218.967 442.509C-224.769 444.535 -230.664 446.771 -240.689 450.749C-249.292 454.162 -257.978 457.457 -263.267 459.312C-266.15 460.324 -270.606 462.083 -273.168 463.223C-275.73 464.363 -281.176 466.511 -285.27 467.996C-289.363 469.481 -294.689 471.531 -297.104 472.552C-306.49 476.521 -312.978 475.045 -316.197 468.207C-317.2 466.075 -317.305 465.276 -316.939 462.506C-316.706 460.735 -316.098 458.617 -315.587 457.799C-313.905 455.106 -309.374 452.433 -302.872 450.297C-299.459 449.177 -296.301 448.04 -295.854 447.769C-294.279 446.818 -277.382 440.08 -271.384 438.011C-268.044 436.86 -262.105 434.497 -258.185 432.761C-254.266 431.024 -248.327 428.659 -244.988 427.504C-241.648 426.349 -238.427 425.119 -237.83 424.771C-236.197 423.819 -228.522 420.765 -223.532 419.083C-221.101 418.263 -218.874 417.38 -218.582 417.121C-218.034 416.634 -211.209 413.888 -205.388 411.812C-202.229 410.685 -194.166 406.998 -190.521 405.013C-189.578 404.5 -188.525 404.059 -188.18 404.033C-187.835 404.007 -187.131 403.715 -186.615 403.382C-183.5 401.378 -175.72 397.34 -171.414 395.491C-168.653 394.305 -163.361 391.814 -159.653 389.955C-155.946 388.096 -150.241 385.234 -146.974 383.594C-136.626 378.402 -121.414 369.489 -113.276 363.851C-112.388 363.236 -110.568 362.013 -109.233 361.135C-100.276 355.242 -86.4737 344.375 -78.8075 337.181C-72.3607 331.131 -62.4779 319.561 -59.3573 314.41C-51.5014 301.443 -47.1085 287.948 -45.2052 270.935C-44.2724 262.595 -45.5539 250.363 -48.4438 240.028C-50.6355 232.189 -56.3661 216.613 -58.0046 214.041C-60.7054 209.801 -63.1903 195.622 -62.7892 186.735C-62.3062 176.024 -58.7542 163.186 -51.586 146.245C-50.0203 142.545 -47.1764 135.832 -45.2674 131.327C-43.3579 126.822 -41.578 122.355 -41.3122 121.401C-41.0471 120.446 -40.3869 118.23 -39.8466 116.476C-36.429 105.39 -36.8531 92.5533 -40.8911 84.8378C-42.8326 81.1286 -43.4183 80.1872 -45.2668 77.8042C-51.8737 69.287 -61.9844 64.3286 -76.7793 62.3491C-83.7065 61.4223 -95.8473 60.7139 -102.095 60.872C-105.515 60.9584 -111.113 61.0908 -114.534 61.167C-120.814 61.3061 -186.223 66.2703 -201.827 67.7913C-206.466 68.2435 -223.303 69.7327 -239.243 71.1006C-306.936 76.9095 -327.641 78.7946 -333.188 79.6539C-339.114 80.5711 -354.941 81.5907 -359.68 81.36C-369.193 80.8973 -376.785 79.9009 -379.702 78.7323C-382.948 77.4321 -383.643 76.5317 -383.233 74.1561C-382.647 70.7602 -362.492 61.8305 -350.551 59.6767C-348.553 59.3162 -342.439 57.576 -336.965 55.8087C-331.491 54.0419 -325.257 52.2094 -323.112 51.7365C-320.967 51.2635 -315.351 49.6804 -310.632 48.218C-305.914 46.7562 -301.301 45.3957 -300.381 45.1957C-299.462 44.9951 -295.97 43.9858 -292.621 42.9516C-289.272 41.9179 -285.402 40.8462 -284.021 40.5695C-281.314 40.0271 -273.508 37.7812 -266.835 35.6235C-264.554 34.8866 -259.562 33.4857 -255.741 32.5111C-247.309 30.3603 -241.982 28.8969 -235.764 27.022C-229.276 25.0657 -215.173 21.1174 -210.802 20.0335C-208.814 19.5406 -204.074 18.1757 -200.269 17.0001C-190.504 13.9833 -182.649 11.7479 -179.954 11.2194C-178.685 10.9704 -174.688 9.89024 -171.073 8.81896C-167.457 7.74768 -163.249 6.54513 -161.721 6.1464C-160.193 5.74768 -156.203 4.57799 -152.854 3.54659C-149.505 2.5152 -145.709 1.4683 -144.419 1.22053C-141.565 0.671606 -130.727 -2.43908 -119.763 -5.85603C-115.297 -7.24844 -110.956 -8.43882 -110.118 -8.50189C-109.28 -8.56501 -105.822 -9.43526 -102.432 -10.4351C-90.5781 -13.9343 -77.3633 -17.6572 -70.7514 -19.36C-67.0842 -20.3044 -62.834 -21.4042 -61.3066 -21.8046C-59.7791 -22.2044 -55.6353 -23.0243 -52.0981 -23.6258C-48.5609 -24.2274 -44.535 -24.9211 -43.1516 -25.1663C-39.7522 -25.7699 -9.68401 -28.5862 -9.36294 -28.3312ZM286.509 155.33C284.413 157.074 282.38 160.825 282.236 163.214C281.902 168.79 285.612 174.37 290.346 175.408C295.396 176.517 297.488 176.022 301.543 172.759C304.586 170.311 305.822 163.528 303.927 159.67C302.881 157.539 300.143 154.972 297.776 153.901C294.834 152.57 288.926 153.319 286.509 155.33Z" fill="#1B4FA3"/>
<path d="M298.329 131.873C279.682 131.565 259.505 136.526 241.328 145.888C237.749 147.731 232.567 149.864 229 150.963C226.994 151.581 225.12 152.393 224.516 152.884C231.204 184.728 260.827 207.467 294.433 204.938C323.655 202.739 347.041 182.1 353.86 155.394C353.601 155.242 353.384 155.052 353.168 154.814C352.582 154.168 352.075 153.361 352.042 153.022C351.937 151.924 344.052 144.378 340.553 142.027C336.092 139.031 328.047 135.866 320.884 134.29C311.335 132.19 310.219 132.07 298.329 131.873ZM286.536 155.439C288.953 153.428 294.861 152.679 297.803 154.01C300.17 155.081 302.907 157.648 303.954 159.779C305.849 163.637 304.613 170.42 301.569 172.869C297.514 176.131 295.422 176.626 290.372 175.517C285.639 174.479 281.928 168.899 282.263 163.323C282.407 160.934 284.439 157.183 286.536 155.439Z" fill="#268944"/>
</svg>
