<svg width="150" height="123" viewBox="0 0 150 123" fill="none" xmlns="http://www.w3.org/2000/svg">
<g opacity="0.2">
<mask id="mask0_1635_570" style="mask-type:alpha" maskUnits="userSpaceOnUse" x="10" y="12" width="130" height="85">
<path fill-rule="evenodd" clip-rule="evenodd" d="M79.5457 13.9817C79.5623 14.0077 79.8883 14.1319 80.2701 14.2576C84.9842 15.8106 88.6775 18.352 90.8352 21.5277C91.4514 22.4346 91.9554 23.3377 92.2386 24.0425C92.3456 24.3087 92.4835 24.6225 92.5452 24.74C92.6952 25.0254 93.2728 27.5214 93.2795 27.9128C93.2824 28.0832 93.306 28.2738 93.3319 28.3365C93.4023 28.506 93.4273 30.1196 93.3704 30.8134C93.2985 31.6905 92.6807 34.8083 92.4303 35.5576C92.3126 35.9098 92.127 36.4547 92.0178 36.7684C91.9087 37.0821 91.7765 37.4675 91.7242 37.6249C91.3712 38.6856 90.9455 39.6798 90.084 41.4558C89.6252 42.4019 89.2349 43.2794 88.9247 44.0628C88.4629 45.2296 88.0419 47.5772 88.0895 48.7207C88.1415 49.9703 88.4814 51.2223 89.0216 52.1538C89.5718 53.1026 89.6559 53.2135 90.2849 53.821C90.7453 54.2654 91.6665 54.9217 92.2661 55.2323C92.4046 55.3041 92.5935 55.4024 92.6858 55.4507C93.2633 55.7527 94.8275 56.2638 95.8114 56.472C97.1783 56.7612 99.3581 56.9934 101.097 57.0348C101.883 57.0536 104.921 56.9282 105.138 56.8681C105.245 56.8385 105.752 56.7929 106.264 56.767C106.775 56.741 107.248 56.6684 107.314 56.6057C107.381 56.5429 107.743 56.486 108.121 56.4791C108.717 56.4683 109.606 56.3608 110.237 56.2232C113.442 55.5242 116.757 55.6777 119.603 56.6567C121.418 57.2809 121.584 57.3567 122.955 58.1904C123.983 58.8158 125.076 59.757 125.627 60.4912C126.059 61.0672 126.932 62.75 126.9 62.9431C126.889 63.0027 126.931 63.166 126.992 63.3057C127.087 63.5212 127.216 63.5952 127.844 63.7918C129.264 64.2372 130.241 64.6252 132.26 65.545C134.18 66.4203 136.863 67.8504 138.123 68.6711C139.121 69.3206 139.827 70.1388 139.749 70.5543C139.685 70.8949 139.399 70.871 137.24 70.3446C135.177 69.8415 132.127 69.3368 130.773 69.2747C128.94 69.1905 126.314 69.2677 126.067 69.4129C125.991 69.4578 125.708 69.7668 125.437 70.0993C124.649 71.0698 122.303 72.9895 120.99 73.7371C120.735 73.8827 120.474 74.036 120.412 74.0778C120.228 74.2009 118.478 75.1277 116.931 75.922C116.141 76.3272 114.115 77.282 112.429 78.0438C109.186 79.5085 108.664 79.7248 107.037 80.276C106.739 80.3769 106.327 80.5281 106.123 80.6118C105.918 80.6956 105.733 80.7602 105.713 80.7555C105.693 80.7507 105.375 80.8653 105.006 81.0102C104.637 81.155 104.175 81.33 103.978 81.399C103.486 81.572 99.7314 82.6686 99.1383 82.8124C98.8726 82.877 98.0429 83.0976 97.2945 83.3029C96.546 83.5082 95.8281 83.6859 95.6991 83.6977C95.5702 83.7095 95.3345 83.7493 95.1755 83.7861C94.0716 84.0414 92.4123 84.3622 91.8334 84.4323C90.9932 84.534 89.9682 84.7156 89.4329 84.8573C89.2136 84.9155 88.9938 84.9535 88.9443 84.9419C88.8215 84.9131 87.3589 85.0823 86.3753 85.2391C84.7801 85.4935 83.7113 85.5796 79.262 85.8125C78.1611 85.8702 76.8995 85.9617 76.4584 86.0159C76.0173 86.0701 75.2445 86.0986 74.7412 86.0793C74.2379 86.06 72.283 86.0887 70.3971 86.143C66.8555 86.245 66.4677 86.2487 64.3027 86.2009C63.5959 86.1853 61.9757 86.1987 60.7022 86.2308C59.4288 86.2629 57.7313 86.2567 56.9301 86.2171C54.8792 86.1156 49.3557 86.2651 48.0316 86.4579C47.2936 86.5653 45.8022 86.8245 45.5539 86.8886C45.4473 86.9161 44.9725 87.0141 44.4988 87.1066C44.0251 87.199 43.4076 87.3333 43.1266 87.4049C42.8455 87.4766 42.5996 87.5316 42.5803 87.527C42.4543 87.4974 37.9643 88.7699 36.8349 89.1551C36.5616 89.2484 35.8966 89.4647 35.3574 89.6358C33.8953 90.0997 32.9913 90.4159 31.6074 90.9471C31.0609 91.157 30.4802 91.3768 30.317 91.4357C29.2234 91.8302 27.6976 92.4174 26.8881 92.7553C23.5078 94.1665 22.0292 94.7972 20.4728 95.4921C19.504 95.9245 18.5903 96.3053 18.4423 96.3383C17.4808 96.5527 16.4595 95.5468 16.458 94.3842C16.4567 93.397 16.8828 92.6893 17.6703 92.3705C17.9607 92.2529 18.9433 91.836 19.8538 91.444C20.7642 91.052 22.4782 90.321 23.6628 89.8197C24.8473 89.3184 26.4618 88.6269 27.2506 88.2831C28.0395 87.9392 28.7233 87.667 28.7704 87.678C28.8175 87.6891 28.8643 87.6538 28.8746 87.5997C28.8848 87.5455 28.9343 87.5109 28.9847 87.5227C29.1441 87.5601 30.8391 86.7535 31.1246 86.5044C31.5454 86.1371 31.7392 85.7626 31.7627 85.2715C31.7741 85.033 31.7484 84.7591 31.7055 84.6629C31.5359 84.2822 31.1872 83.9267 30.9221 83.8644C30.5815 83.7845 27.7497 83.8982 27.5788 83.9987C27.5114 84.0384 26.9971 84.0982 26.4359 84.1317C25.4559 84.1902 24.4523 84.2799 22.7376 84.4626C21.2663 84.6192 19.7875 84.7515 18.8937 84.8063C18.4064 84.8361 17.6448 84.9159 17.2011 84.9837C16.7574 85.0514 15.8266 85.1484 15.1326 85.1991C14.4387 85.2499 13.5306 85.3362 13.1147 85.391C11.4986 85.6038 10.5692 85.0289 10.38 83.699C10.321 83.2844 10.3406 83.1425 10.5199 82.6868C10.6346 82.3953 10.8222 82.0631 10.9369 81.9486C11.3147 81.5713 12.1287 81.339 13.221 81.2966C13.7943 81.2745 14.3293 81.2367 14.4098 81.2126C14.6938 81.1281 17.5853 80.8145 18.5972 80.7585C19.1607 80.7274 20.1768 80.6181 20.8552 80.5157C21.5336 80.4133 22.5497 80.3035 23.1134 80.2718C23.677 80.2401 24.2257 80.1897 24.3328 80.1597C24.6257 80.0779 25.9387 79.9367 26.7789 79.8967C27.1882 79.8772 27.5691 79.8367 27.6254 79.8069C27.7311 79.7509 28.9001 79.62 29.8853 79.5539C30.42 79.518 31.8207 79.2877 32.468 79.1291C32.6355 79.0881 32.8168 79.065 32.8708 79.0777C32.9248 79.0903 33.0458 79.0753 33.1397 79.044C33.7067 78.8559 35.0797 78.5513 35.8224 78.4489C36.2987 78.3831 37.2212 78.2198 37.8727 78.0858C38.524 77.9519 39.5264 77.7455 40.1003 77.6273C41.9186 77.2529 44.6484 76.4835 46.1476 75.9231C46.3112 75.862 46.6447 75.7431 46.8886 75.6591C48.5246 75.0959 51.1253 73.9221 52.6214 73.072C53.8794 72.3571 55.9103 70.8683 56.6182 70.1419C58.4004 68.3135 59.675 66.2226 60.7244 63.4062C61.2387 62.0256 61.5868 59.869 61.6038 57.9571C61.6166 56.507 61.4312 53.5573 61.2944 53.0358C61.069 52.1762 61.3192 49.6266 61.7764 48.126C62.3274 46.3174 63.4437 44.2973 65.2974 41.7547C65.7022 41.1993 66.4373 40.1919 66.9306 39.516C67.4241 38.8401 67.8959 38.1642 67.9792 38.0141C68.0623 37.8639 68.2622 37.5175 68.4232 37.2443C69.4409 35.5171 69.9474 33.2997 69.6717 31.779C69.5391 31.0479 69.4911 30.8577 69.3137 30.3582C68.6797 28.5727 67.3498 27.2221 65.1689 26.1485C64.1478 25.6458 62.3173 24.9216 61.352 24.6383C60.8236 24.4832 59.9593 24.2278 59.4312 24.0709C58.4618 23.7827 48.2092 21.3831 45.7484 20.8683C45.0169 20.7152 42.3683 20.1337 39.8627 19.576C29.2222 17.2075 25.9628 16.5015 25.0738 16.373C24.1242 16.2356 21.6514 15.6239 20.9348 15.349C19.4965 14.7973 18.3765 14.2498 17.9812 13.9049C17.5412 13.5212 17.4747 13.3326 17.6433 12.9465C17.8844 12.3946 21.3731 11.8678 23.3004 12.0925C23.6229 12.13 24.638 12.1359 25.5562 12.1055C26.4745 12.0751 27.5122 12.0712 27.8622 12.0968C28.2122 12.1225 29.144 12.1305 29.9328 12.1147C30.7215 12.0989 31.4895 12.0953 31.6395 12.1067C31.7894 12.1181 32.37 12.1189 32.9296 12.1083C33.4892 12.0977 34.1305 12.1066 34.3546 12.1279C34.794 12.1695 36.0911 12.173 37.2106 12.1353C37.5932 12.1225 38.4212 12.1307 39.0506 12.1538C40.4396 12.2046 41.3216 12.2188 42.3588 12.2069C43.4409 12.1944 45.7796 12.2194 46.4983 12.251C46.8251 12.2655 47.6128 12.2674 48.2488 12.2552C49.8807 12.2241 51.1849 12.2318 51.6217 12.2752C51.8275 12.2956 52.4885 12.3094 53.0908 12.3057C53.693 12.302 54.392 12.3052 54.644 12.3129C54.896 12.3206 55.56 12.3186 56.1196 12.3085C56.6792 12.2984 57.308 12.3078 57.5169 12.3295C57.979 12.3773 59.7797 12.3834 61.6134 12.3434C62.3603 12.327 63.079 12.3389 63.2103 12.3698C63.3417 12.4006 63.9108 12.4235 64.4752 12.4208C66.449 12.4109 68.6415 12.4303 69.7313 12.4673C70.3358 12.4879 71.0366 12.5109 71.2887 12.5182C71.5408 12.5257 72.2128 12.5912 72.7821 12.664C73.3513 12.7368 73.9997 12.818 74.2227 12.8448C74.771 12.9104 79.5078 13.9221 79.5457 13.9817ZM116.745 60.1029C116.346 60.2971 115.868 60.838 115.739 61.2396C115.439 62.1771 115.76 63.3162 116.44 63.7289C117.165 64.1694 117.508 64.1886 118.275 63.8319C118.851 63.5641 119.342 62.465 119.224 61.7107C119.158 61.2941 118.852 60.7188 118.537 60.4181C118.145 60.0442 117.206 59.879 116.745 60.1029Z" fill="#1B4FA3"/>
</mask>
<g mask="url(#mask0_1635_570)">
<rect x="-15.001" y="0.00012207" width="162" height="120" fill="white"/>
</g>
</g>
</svg>
