<svg width="186" height="257" viewBox="0 0 186 257" fill="none" xmlns="http://www.w3.org/2000/svg">
<g clip-path="url(#clip0_1577_197)">
<path d="M19.9667 105.523C19.9667 105.523 24.3652 112.192 28.2808 113.781C32.1965 115.369 32.5967 112.959 32.5967 112.959C32.5967 112.959 24.0285 111.175 20.2475 105.004L19.9667 105.525V105.523Z" fill="#1B1B2F"/>
<path d="M71.994 79.2431L72.4984 58.5994C72.4984 58.5994 80.2103 63.1534 81.1377 71.2301C81.7145 76.2546 85.8779 77.5276 85.8779 77.5276C85.8779 77.5276 82.4196 80.5568 80.0692 76.5382C80.0692 76.5382 80.0705 76.5433 80.0731 76.5535C80.1442 76.8472 80.0349 78.9201 83.1667 82.004C83.1667 82.004 81.9572 83.1664 80.6308 82.5954C79.7021 82.1948 79.3819 81.2626 79.3819 81.2626C79.1913 82.7048 78.4036 84.2079 77.2017 84.5818L76.8269 81.7255C76.893 82.4046 76.9273 84.3326 75.606 86.4805C73.7219 89.5453 71.2063 89.8683 71.2063 89.8683L71.994 79.2431Z" fill="#1B1B2F"/>
<path d="M50.7891 106.688L71.2059 127.982C89.7678 120.625 95.4443 103.399 95.4443 103.399L75.6755 82.781L50.7891 106.688Z" fill="#FFC89F"/>
<path d="M76.0564 115.876C85.2103 107.082 85.5089 92.5275 76.7234 83.3648L57.2913 63.0987C48.5058 53.936 33.965 53.6371 24.8111 62.431C15.6573 71.225 15.3587 85.7798 24.1441 94.9425L43.5763 115.209C52.3618 124.371 66.9025 124.67 76.0564 115.876Z" fill="#FFC89F"/>
<path d="M65.2102 121.727L68.4284 125.085C68.4284 125.085 73.1432 120.114 74.9092 114.508C74.9092 114.508 72.6375 119.16 65.2102 121.727Z" fill="#FF9A6C"/>
<path d="M37.8231 97.8444C36.7843 97.3687 36.3274 96.1402 36.8026 95.1004C37.2777 94.0606 38.5051 93.6032 39.5439 94.0789C40.5827 94.5545 41.0396 95.783 40.5644 96.8228C40.0893 97.8626 38.862 98.32 37.8231 97.8444Z" fill="#1B1B2F"/>
<path d="M33.6316 98.0467C33.6951 97.6652 33.7866 97.2926 33.9149 96.9314C33.9759 96.7508 34.0445 96.5728 34.1156 96.396C34.1982 96.2243 34.2694 96.0476 34.3621 95.8823C34.7204 95.2159 35.1638 94.5902 35.7266 94.0879C35.8524 93.9454 36.015 93.8462 36.1573 93.7229L36.3784 93.5461C36.4533 93.4889 36.5385 93.4456 36.616 93.3935L37.0962 93.0921C37.2677 93.012 37.438 92.9293 37.6082 92.8441L37.8649 92.7182L38.1342 92.6228L38.6742 92.4308C39.0388 92.3151 39.4161 92.2413 39.7871 92.132C39.406 92.1803 39.0197 92.2273 38.6386 92.2998L38.077 92.4575L37.795 92.5376L37.5244 92.6483C37.3439 92.722 37.1623 92.7983 36.9831 92.8772C36.8116 92.9713 36.6439 93.0743 36.4737 93.1722C36.3898 93.2231 36.3021 93.2689 36.2234 93.3274L35.9909 93.508C35.8397 93.6339 35.6694 93.7381 35.5373 93.8844C34.9541 94.4147 34.4942 95.076 34.1715 95.7881C33.8476 96.5003 33.6481 97.271 33.6316 98.0454V98.0467Z" fill="#1B1B2F"/>
<path d="M52.3192 81.4082C52.0539 80.296 52.7396 79.1792 53.8507 78.9136C54.9618 78.648 56.0775 79.3343 56.3428 80.4465C56.6082 81.5586 55.9225 82.6755 54.8114 82.9411C53.7004 83.2066 52.5846 82.5203 52.3192 81.4082Z" fill="#1B1B2F"/>
<path d="M49.2888 83.0048C49.3523 82.6233 49.4438 82.2507 49.5721 81.8895C49.6331 81.709 49.7017 81.5309 49.7729 81.3542C49.8554 81.1825 49.9266 81.0057 50.0193 80.8404C50.3776 80.174 50.821 79.5483 51.3838 79.046C51.5096 78.9036 51.6722 78.8031 51.8145 78.681L52.0356 78.5042C52.1106 78.447 52.1957 78.4038 52.2732 78.3516L52.7534 78.0502C52.9249 77.9701 53.0952 77.8875 53.2654 77.8022L53.5221 77.6763L53.7914 77.581L54.3314 77.3889C54.696 77.2732 55.0734 77.1995 55.4443 77.0901C55.0632 77.1384 54.677 77.1855 54.2958 77.258L53.7342 77.4156L53.4522 77.4958L53.1816 77.6064C53.0012 77.6802 52.8195 77.7565 52.6404 77.8353C52.4688 77.9294 52.3011 78.0324 52.1309 78.1304C52.047 78.1812 51.9594 78.227 51.8806 78.2855L51.6481 78.4661C51.4969 78.592 51.3267 78.6963 51.1945 78.8425C50.6114 79.3728 50.1515 80.0341 49.8288 80.7463C49.5048 81.4584 49.3053 82.2291 49.2888 83.0036V83.0048Z" fill="#1B1B2F"/>
<path d="M48.7508 95.5237C49.2272 96.2829 49.7291 97.0243 50.2347 97.7632C50.7378 98.5033 51.2575 99.232 51.7784 99.9594C52.0363 100.316 52.3044 100.706 52.6575 101.006C53.0031 101.31 53.3995 101.564 53.8353 101.719C54.2685 101.873 54.7488 101.942 55.2036 101.826C55.6343 101.702 56.065 101.583 56.4932 101.45C56.051 101.522 55.6127 101.615 55.1731 101.695C54.7488 101.775 54.3079 101.69 53.9128 101.522C53.5164 101.351 53.148 101.112 52.8329 100.814C52.5064 100.525 52.2637 100.169 52.002 99.8005C51.476 99.0769 50.95 98.352 50.4062 97.6411C49.865 96.9277 49.32 96.218 48.7508 95.525V95.5237Z" fill="#1B1B2F"/>
<path d="M58.0331 105.764C58.9453 106.164 59.9121 106.162 60.8561 105.856C61.7963 105.559 62.6983 104.822 63.2027 103.856C63.7134 102.891 63.8113 101.784 63.5826 100.843C63.4695 100.366 63.2865 99.9238 63.035 99.522C62.7733 99.1252 62.4671 98.7577 62.0364 98.4843C61.8674 99.1188 61.7391 99.6708 61.6108 100.165C61.5485 100.416 61.485 100.654 61.4189 100.879C61.2194 101.553 61.0111 102.091 60.7633 102.563C60.6388 102.8 60.4965 103.023 60.3314 103.258C60.2551 103.378 60.1548 103.49 60.0658 103.617C59.9579 103.728 59.8689 103.867 59.7482 103.988C59.4522 104.33 59.0939 104.675 58.6899 105.081C58.4803 105.289 58.2605 105.516 58.0331 105.765V105.764Z" fill="#E43F5A"/>
<path d="M58.6902 105.079C59.037 105.11 59.3953 105.072 59.7536 104.978C60.526 104.777 61.2832 104.182 61.6962 103.387C62.1167 102.592 62.1764 101.684 61.9541 100.932C61.8702 100.66 61.7584 100.401 61.6123 100.164C61.5501 100.415 61.4865 100.653 61.4205 100.878C61.221 101.552 61.0126 102.09 60.7649 102.561C60.6404 102.799 60.4981 103.022 60.3329 103.257C60.2567 103.377 60.1563 103.488 60.0674 103.616C59.9594 103.726 59.8705 103.866 59.7498 103.987C59.4537 104.329 59.0955 104.674 58.6914 105.079H58.6902Z" fill="white"/>
<path d="M29.6413 93.8844C30.2893 93.1837 30.7695 92.6407 31.2498 92.1498C31.7224 91.6653 32.1353 91.2342 32.5838 90.8361C32.6333 90.7802 32.688 90.728 32.749 90.6835L32.9192 90.5347C32.9738 90.4826 33.0297 90.4305 33.0831 90.3745C33.1377 90.3198 33.2051 90.2804 33.2623 90.227C33.3829 90.1291 33.4973 90.0171 33.6167 89.9052C33.7463 89.8073 33.8759 89.703 34.0042 89.586C34.069 89.5301 34.1325 89.4652 34.1973 89.4042C34.2672 89.3508 34.3396 89.2999 34.4095 89.2389C34.5518 89.1244 34.6941 88.9972 34.8415 88.8612C35.1413 88.6017 35.464 88.3487 35.7969 87.971C35.5872 87.8603 35.3713 87.7713 35.1527 87.7052C34.9342 87.639 34.7119 87.5729 34.4895 87.5487C34.2685 87.5297 34.0449 87.5182 33.82 87.5208C33.7056 87.5182 33.5951 87.5259 33.4808 87.5309C33.3702 87.5462 33.2584 87.5627 33.1479 87.5856C32.9256 87.6276 32.7032 87.6823 32.4822 87.7433C32.2675 87.8222 32.0566 87.9175 31.8469 88.018C31.7427 88.0689 31.6373 88.1172 31.5369 88.1782L31.2472 88.3766C31.0605 88.5178 30.8597 88.6424 30.6984 88.8166C29.9996 89.4512 29.5105 90.3071 29.3008 91.2011C29.2665 91.3092 29.2577 91.4275 29.2399 91.5407C29.2234 91.6538 29.2068 91.767 29.1992 91.8802C29.1865 92.1091 29.1891 92.338 29.2094 92.5644C29.2615 93.0184 29.3733 93.4749 29.6401 93.887L29.6413 93.8844Z" fill="#1B1B2F"/>
<path d="M45.2986 78.8426C45.9465 78.1419 46.4268 77.5988 46.907 77.108C47.3796 76.6234 47.7925 76.1923 48.241 75.7943C48.2906 75.7383 48.3452 75.6862 48.4062 75.6417L48.5764 75.4929C48.6311 75.4407 48.687 75.3886 48.7403 75.3326C48.795 75.2779 48.8623 75.2385 48.9195 75.1851C49.0402 75.0872 49.1545 74.9753 49.2739 74.8634C49.4035 74.7654 49.5331 74.6612 49.6614 74.5442C49.7262 74.4882 49.7898 74.4234 49.8546 74.3623C49.9244 74.3089 49.9968 74.258 50.0667 74.197C50.209 74.0825 50.3513 73.9554 50.4987 73.8193C50.7985 73.5599 51.1212 73.3068 51.4541 72.9291C51.2445 72.8184 51.0285 72.7294 50.81 72.6633C50.5914 72.5972 50.3691 72.531 50.1468 72.5069C49.9257 72.4878 49.7021 72.4764 49.4772 72.4789C49.3629 72.4764 49.2523 72.484 49.138 72.4891C49.0275 72.5043 48.9157 72.5209 48.8051 72.5438C48.5828 72.5857 48.3605 72.6404 48.1394 72.7014C47.9247 72.7803 47.7138 72.8757 47.5041 72.9761C47.4 73.027 47.2945 73.0753 47.1941 73.1364L46.9045 73.3348C46.7177 73.4759 46.517 73.6006 46.3556 73.7748C45.6568 74.4094 45.1677 75.2652 44.9581 76.1592C44.9238 76.2673 44.9149 76.3856 44.8971 76.4988C44.8806 76.612 44.8641 76.7252 44.8564 76.8383C44.8437 77.0673 44.8463 77.2962 44.8666 77.5225C44.9187 77.9765 45.0305 78.4331 45.2973 78.8451L45.2986 78.8426Z" fill="#1B1B2F"/>
<path d="M40.3594 61.448C37.1806 60.1292 33.4923 61.3717 31.8369 64.3908C30.5918 66.6633 29.8689 70.2203 30.9056 75.7675C31.2703 77.7184 31.8521 79.6374 32.5751 81.5132C33.8697 84.8705 36.4145 93.5894 31.9805 101.868L40.677 112.184L40.3339 112.308C33.8875 113.005 27.2034 111.191 21.7047 107.166C21.288 106.861 20.8662 106.543 20.4419 106.212C20.4419 106.212 21.828 107.307 21.6476 109.19C21.4837 110.897 19.7228 111.915 19.7228 111.915C19.7228 111.915 19.1345 105.958 12.0706 101.087C5.69017 96.6873 4.66869 90.901 7.03435 83.4284C7.03435 83.4284 3.85939 87.372 -0.00163269 84.6225C-0.00163269 84.6225 11.3045 80.4945 10.5663 68.8214C9.66046 54.4879 19.4115 47.4782 28.1792 52.7444C28.1792 52.7444 26.1082 46.9263 31.4812 46.3502C36.8553 45.7741 43.6614 46.7139 50.7367 44.0357C57.8121 41.3562 67.0346 58.3679 77.5225 54.0619C77.5225 54.0619 75.1708 59.7935 69.4714 56.5697C69.4714 56.5697 83.3109 62.5086 75.8493 82.6145L67.5987 71.9664C67.5987 71.9664 60.766 76.3818 53.1316 70.4937C47.2607 65.9664 44.0565 62.9817 40.3581 61.4467L40.3594 61.448Z" fill="#1B1B2F"/>
<path d="M28.2414 52.7139C27.9772 51.7639 27.8158 50.7936 27.8031 49.8551C27.7942 48.9191 27.9734 48.0085 28.4295 47.3002C28.6607 46.9492 28.944 46.6402 29.2858 46.3884C29.6237 46.1315 30.0214 45.9445 30.4343 45.7792C31.2652 45.4549 32.1901 45.2591 33.1392 45.1306C35.0462 44.8649 37.051 44.9717 38.9695 45.3939C39.93 45.5897 40.8714 45.9077 41.9018 46.0615C42.9309 46.2116 44.0082 46.1442 45.0107 45.9077C46.022 45.6813 46.9736 45.3214 47.9086 44.9424L48.6074 44.6512L49.2922 44.3384C49.7509 44.1311 50.2019 43.9149 50.6466 43.6872C51.1103 43.4558 51.4965 43.2434 51.9132 43.0781C52.3274 42.9166 52.7467 42.792 53.1634 42.7335C53.5801 42.6762 53.993 42.68 54.3971 42.7576C54.8023 42.8314 55.1949 42.9891 55.5786 43.1925C56.3485 43.6071 57.0397 44.2557 57.7079 44.9437C58.375 45.6368 59.0089 46.3935 59.6759 47.1323C60.3366 47.8763 61.0316 48.6088 61.7913 49.2752C62.5523 49.9365 63.387 50.5291 64.3005 50.9424L64.3691 50.8216C62.748 49.6847 61.5588 48.1294 60.395 46.5473C59.8144 45.7512 59.2325 44.945 58.5833 44.1591C57.9354 43.3769 57.201 42.6139 56.2583 42.0226C55.787 41.7313 55.2584 41.4973 54.6931 41.3702C54.1302 41.2366 53.5407 41.2138 52.9779 41.2824C52.4138 41.3486 51.8738 41.4999 51.3682 41.6983C50.8638 41.8941 50.3798 42.1574 49.9643 42.3786C48.2453 43.3045 46.5086 44.2163 44.7096 44.8216C44.4859 44.9017 44.2598 44.959 44.0336 45.0302C43.8075 45.0912 43.5801 45.1446 43.3514 45.198C42.8927 45.2782 42.429 45.3456 41.9564 45.3354C41.0099 45.3417 40.0354 45.1192 39.0508 44.964C38.0712 44.7936 37.0891 44.6436 36.102 44.4833C35.1135 44.332 34.1136 44.1959 33.0884 44.1641C32.0669 44.1476 31.0086 44.2328 29.9884 44.6194C29.4814 44.8127 28.9872 45.0785 28.5476 45.4359C28.1068 45.7868 27.718 46.2294 27.455 46.7368C27.1869 47.2404 27.0218 47.7873 26.9633 48.3303C26.91 48.8733 26.9201 49.4112 27.0141 49.9276C27.1005 50.4439 27.2403 50.9424 27.427 51.4193C27.6113 51.8962 27.8374 52.3515 28.1169 52.7762L28.2414 52.7152V52.7139Z" fill="#1B1B2F"/>
<path d="M37.1562 60.7842C36.5477 60.7893 35.9366 60.9813 35.3928 61.2763C34.8452 61.5701 34.3573 61.9707 33.933 62.4222C33.7157 62.646 33.5264 62.8901 33.3371 63.1356C33.1644 63.3912 32.9877 63.6455 32.8391 63.9164C32.524 64.4467 32.2852 65.0165 32.0959 65.5976C31.7262 66.7663 31.594 67.977 31.4593 69.1635C31.3285 70.3538 31.2319 71.5442 31.1659 72.7447C31.0973 73.9452 31.1379 75.1508 31.2484 76.3474C31.3653 77.5429 31.5254 78.737 31.777 79.9095C32.2852 82.2546 33.0093 84.5488 33.9952 86.7323L34.074 86.7069C33.5976 84.3631 33.0691 82.0562 32.6434 79.7353L32.4732 78.868L32.3182 77.9981C32.2026 77.4195 32.1238 76.8371 32.0273 76.2546C31.9523 75.6709 31.8646 75.0872 31.8036 74.5009L31.7007 73.6209L31.6207 72.7383C31.5305 71.5594 31.5419 70.3678 31.7274 69.1991C31.9078 68.0292 32.3004 66.9037 32.7451 65.8367C33.1898 64.7697 33.7043 63.7346 34.4196 62.8456C35.1273 61.9605 36.0293 61.2 37.1689 60.8668L37.1575 60.7842H37.1562Z" fill="#1B1B2F"/>
<path d="M67.9392 71.5849C66.7145 72.5488 65.4313 73.4098 64.0464 74.0393C63.3553 74.3547 62.6438 74.6141 61.9158 74.8023C61.1866 74.9842 60.4459 75.1088 59.6963 75.1546C58.9479 75.2003 58.1895 75.1787 57.4373 75.0643C56.6852 74.9498 55.9432 74.7362 55.2356 74.4335C53.819 73.8243 52.5675 72.8668 51.4927 71.768C50.4191 70.6616 49.4764 69.442 48.5883 68.1868C47.7041 66.896 46.7233 65.6409 45.6014 64.5192C44.4707 63.4077 43.2002 62.4107 41.7722 61.6884C41.4139 61.5103 41.0505 61.345 40.6732 61.2089C40.2997 61.0678 39.916 60.9508 39.5247 60.8656C39.1359 60.7765 38.7382 60.7206 38.3406 60.7015C37.9429 60.6812 37.544 60.6913 37.1527 60.7854L37.1679 60.8668C37.934 60.8427 38.6925 61.0309 39.4065 61.2789C40.1231 61.5307 40.8028 61.8766 41.452 62.2657C42.7416 63.0644 43.9104 64.0512 44.9725 65.1474C46.0461 66.2335 47.0345 67.4035 47.9645 68.6434C48.9111 69.9036 49.9922 71.0698 51.1979 72.0859C52.4024 73.102 53.7021 73.9986 55.1212 74.684C56.5302 75.3695 58.0967 75.8591 59.7179 75.8515C60.5246 75.8515 61.3314 75.7307 62.1038 75.5106C62.8788 75.2957 63.6246 74.9892 64.3285 74.6128C65.7336 73.8561 66.98 72.8413 67.9951 71.6446L67.9379 71.5849H67.9392Z" fill="#1B1B2F"/>
<path d="M13.1514 101.55C12.8439 101.182 12.5136 100.857 12.1807 100.542C11.8504 100.223 11.5264 99.9035 11.1872 99.6072C10.8531 99.3045 10.5329 98.9904 10.1924 98.7017C9.86587 98.3965 9.53936 98.0964 9.17854 97.8281C8.49755 97.2583 7.71113 96.7497 7.15338 96.0324C6.85482 95.6903 6.6312 95.2948 6.4114 94.9019C6.2221 94.4924 6.0455 94.0765 5.93624 93.6403C5.80157 93.2143 5.73677 92.7717 5.65038 92.347C5.62497 92.1295 5.57162 91.9197 5.54621 91.706L5.47251 91.0664C5.40263 90.2105 5.46743 89.3648 5.57415 88.5242C5.6796 87.6823 5.86256 86.8417 6.11411 85.9986C6.37202 85.158 6.69854 84.3212 7.08731 83.4755L6.98312 83.3839C6.20685 83.9575 5.60973 84.7268 5.11805 85.5586C4.63272 86.3966 4.28969 87.33 4.11436 88.3016C3.94157 89.2758 3.98858 90.2842 4.17788 91.2469C4.23125 91.4873 4.28714 91.7251 4.34813 91.9616C4.41673 92.1956 4.49677 92.4271 4.58316 92.6535C4.66066 92.8836 4.78263 93.0973 4.88808 93.3135C4.98972 93.5322 5.11678 93.7382 5.24128 93.9417C5.73805 94.7607 6.27419 95.5199 6.79128 96.2944C7.29439 97.0778 7.77083 97.9082 8.37051 98.6509C8.68559 99.0019 9.02227 99.3376 9.38817 99.6326C9.76043 99.92 10.1327 100.21 10.5291 100.461C10.9305 100.705 11.332 100.946 11.7564 101.15C12.1871 101.343 12.6203 101.527 13.0751 101.666L13.1488 101.549L13.1514 101.55Z" fill="#1B1B2F"/>
<path d="M66.5042 69.4673L65.6416 70.2959C63.9402 71.9302 63.8835 74.6408 65.5171 76.3447L70.7996 81.8547C72.4323 83.5577 75.1403 83.6145 76.8426 81.9793L77.7052 81.1507C79.4065 79.5165 79.4632 76.8059 77.8296 75.1019L72.5471 69.5919C70.9145 67.8889 68.2065 67.8322 66.5042 69.4673Z" fill="#FFC89F"/>
<path d="M69.169 73.1987C69.6239 72.9749 70.1028 72.8871 70.5577 72.9685C71.0125 73.0334 71.4381 73.2267 71.8218 73.4746C72.5828 73.9833 73.2067 74.7158 73.5573 75.5374C73.7301 75.9481 73.8279 76.3831 73.819 76.8129C73.8165 77.0253 73.7835 77.258 73.7263 77.4157C73.6958 77.4945 73.6615 77.5492 73.6386 77.5708C73.617 77.5937 73.5891 77.6128 73.5141 77.6077C73.3655 77.6001 73.1546 77.4933 72.9615 77.375C72.7645 77.2529 72.5778 77.1003 72.3885 76.9464C72.0124 76.6336 71.6554 76.2851 71.2946 75.9341C71.5182 76.3881 71.7951 76.8129 72.1102 77.2173C72.269 77.4195 72.4456 77.609 72.6451 77.7896C72.8484 77.9663 73.0682 78.1431 73.4125 78.2258C73.5815 78.2665 73.8178 78.2512 74.0045 78.1342C74.1926 78.021 74.3018 77.857 74.3742 77.7107C74.514 77.4106 74.5635 77.1435 74.589 76.8587C74.6436 76.2915 74.5292 75.7256 74.3209 75.2182C73.894 74.2033 73.1114 73.3767 72.142 72.9011C71.8981 72.7866 71.6452 72.6875 71.381 72.6251C71.1154 72.5679 70.8435 72.5412 70.5729 72.5527C70.0304 72.5806 69.507 72.8197 69.169 73.1974V73.1987Z" fill="#FF9A6C"/>
<path d="M69.8105 75.3784C69.6606 75.0732 69.4967 74.8277 69.3379 74.5912C69.1791 74.3585 69.0241 74.1423 68.9047 73.9388C68.7853 73.7315 68.7014 73.5649 68.6849 73.3831C68.6608 73.1961 68.756 72.938 68.911 72.6315C68.5794 72.648 68.2212 72.8324 68.0522 73.2279C67.9696 73.4212 67.9582 73.6438 67.9937 73.8383C68.028 74.0354 68.1043 74.2084 68.1932 74.3623C68.3774 74.6675 68.6239 74.8926 68.8945 75.0643C69.1677 75.2321 69.4688 75.3542 69.8105 75.3758V75.3784Z" fill="#FF9A6C"/>
<path d="M69.3112 56.4349C70.01 56.9462 70.7088 57.3862 71.4088 57.8148C71.7569 58.0309 72.1063 58.2408 72.457 58.4481C72.8038 58.6604 73.1583 58.8576 73.5255 59.0369C74.2573 59.3942 75.0602 59.6867 75.7259 60.1814C76.3955 60.6672 76.952 61.2967 77.4043 61.9847L77.7359 62.5036C77.8362 62.6829 77.9404 62.8571 78.0471 63.0288C78.1526 63.2005 78.2453 63.3798 78.3521 63.5489C78.4588 63.7181 78.5553 63.8923 78.6481 64.0691C78.8463 64.415 79 64.7812 79.1728 65.1335C79.3164 65.501 79.4917 65.852 79.6251 66.2208C80.2527 67.6667 80.6275 69.2004 81.0226 70.8766L81.1611 70.8816C81.2221 70.6744 81.2755 70.4632 81.3225 70.2509C81.3695 70.0385 81.4152 69.8236 81.4305 69.6074C81.4546 69.3912 81.4762 69.1725 81.4902 68.9537C81.4965 68.735 81.4953 68.5162 81.4864 68.2962C81.4889 67.855 81.4139 67.4188 81.3504 66.9813C81.2551 66.5502 81.1624 66.114 81.0048 65.6994C80.8676 65.2772 80.6669 64.8791 80.4662 64.4862C80.2413 64.1047 80.0151 63.7257 79.7521 63.3734C79.6264 63.1928 79.4993 63.0148 79.357 62.8482C79.2173 62.6803 79.0839 62.5074 78.9276 62.3535C78.7751 62.1971 78.6189 62.0445 78.4588 61.8982L77.9633 61.476C77.2899 60.9305 76.628 60.4116 76.0067 59.8355C75.3829 59.2671 74.8175 58.5956 74.1391 58.0602C73.8012 57.7931 73.4353 57.5655 73.0528 57.3722C72.673 57.1725 72.2804 56.9996 71.8789 56.847C71.0747 56.5507 70.2374 56.323 69.3532 56.304L69.3112 56.4362V56.4349Z" fill="#1B1B2F"/>
<path d="M14.0144 55.2751C13.5532 55.5562 13.1492 55.9097 12.7833 56.2951C12.4085 56.6753 12.0807 57.095 11.7758 57.5324C11.481 57.975 11.2028 58.4316 10.9754 58.9135L10.7988 59.2722C10.7492 59.3955 10.6971 59.5176 10.6527 59.6435C10.5612 59.894 10.4672 60.1433 10.4024 60.4014C10.2829 60.9228 10.1711 61.4417 10.1241 61.9733C10.0987 62.2378 10.0504 62.496 10.0288 62.7579C10.0085 63.0199 9.9793 63.2806 9.94372 63.5375C9.92467 63.6659 9.90815 63.7957 9.88401 63.9228L9.83953 64.3094C9.80904 64.5676 9.76967 64.8245 9.72647 65.0814C9.64516 65.5964 9.58799 66.1153 9.49905 66.6379C9.45712 66.8999 9.44823 67.1619 9.42155 67.4251C9.39614 67.6884 9.37835 67.9529 9.36437 68.2187C9.33388 68.7337 9.32499 69.2233 9.31609 69.7231C9.30085 69.9698 9.26909 70.214 9.2475 70.4594C9.21954 70.7023 9.22082 70.9516 9.16873 71.1894C9.07852 71.665 9.03151 72.1496 8.90827 72.6061L8.83586 72.9558C8.81172 73.0728 8.76852 73.1797 8.73803 73.2941L8.63765 73.6324L8.59065 73.8028L8.52585 73.9643C8.36069 74.3992 8.16504 74.8214 7.91475 75.2106C7.42053 75.9863 6.71414 76.6832 5.77143 77.0762L5.78413 77.2135C6.88819 77.2822 7.97064 76.7048 8.75834 75.8973C9.56129 75.0809 10.0581 74.0203 10.3401 72.9596C10.4977 72.4243 10.5523 71.8825 10.6031 71.3407C10.6399 70.8003 10.626 70.2636 10.6196 69.7282C10.5764 69.2004 10.5332 68.6625 10.4684 68.15C10.4138 67.6528 10.3096 67.153 10.2524 66.6481C10.2347 66.3963 10.2093 66.142 10.1991 65.8889C10.1877 65.6346 10.161 65.3789 10.1864 65.1259C10.2016 64.8728 10.222 64.6185 10.2499 64.3667C10.2626 64.2408 10.2766 64.1136 10.2969 63.989C10.3211 63.8643 10.3515 63.741 10.3795 63.6163C10.4379 63.3684 10.5053 63.1229 10.579 62.8813C10.6616 62.6409 10.7606 62.4044 10.8585 62.1704C11.0427 61.6986 11.2866 61.2509 11.4836 60.7944C11.5865 60.5668 11.6995 60.3455 11.7948 60.1166C11.8456 60.0034 11.8876 59.8877 11.9358 59.7732C11.9892 59.6613 12.0362 59.5468 12.087 59.4337C12.2802 58.9771 12.4936 58.5295 12.7032 58.0767C13.1339 57.1764 13.6002 56.2887 14.1084 55.3769L14.0118 55.2777L14.0144 55.2751Z" fill="#1B1B2F"/>
<path d="M4.88328 85.0969C6.29733 84.5361 7.58562 83.651 8.69222 82.5878C9.80263 81.5234 10.7301 80.2567 11.4009 78.8629C11.7338 78.166 12.0146 77.4424 12.2178 76.6972C12.3309 76.3284 12.3995 75.9469 12.4846 75.5717C12.5444 75.1915 12.6219 74.8138 12.6485 74.4297C12.8124 72.8999 12.7248 71.3573 12.4364 69.8668C12.5113 71.384 12.4503 72.896 12.2216 74.3725C12.1975 74.5582 12.1619 74.7413 12.1213 74.9232L12.0107 75.4713C11.9142 75.8312 11.8367 76.1962 11.7147 76.5484C11.5038 77.2619 11.2294 77.9549 10.9029 78.6213C10.2689 79.9642 9.40115 81.1915 8.38603 82.2851C7.87402 82.8282 7.33024 83.3445 6.74328 83.8125C6.16393 84.2906 5.54139 84.7205 4.88328 85.0969Z" fill="#1F4168"/>
<path d="M21.6336 109.3C21.7607 108.817 21.7327 108.297 21.6336 107.803C21.5282 107.31 21.3655 106.823 21.1343 106.373C20.6807 105.467 20.0607 104.647 19.3366 103.953C19.1638 103.768 18.9732 103.607 18.7814 103.445L18.2096 102.958C17.7993 102.675 17.4054 102.364 16.9811 102.105C16.5529 101.852 16.1286 101.592 15.6877 101.367C15.2392 101.155 14.792 100.941 14.3346 100.752C14.7336 101.049 15.1414 101.324 15.5467 101.6C15.9507 101.877 16.3357 102.182 16.7359 102.461C17.1234 102.757 17.4982 103.066 17.8806 103.366L18.4218 103.85C18.6048 104.009 18.7852 104.169 18.9478 104.347L19.4585 104.858L19.9248 105.406C20.2285 105.776 20.5092 106.167 20.7557 106.576C21.0047 106.984 21.2118 107.419 21.3719 107.872C21.5358 108.325 21.6374 108.804 21.6324 109.299L21.6336 109.3Z" fill="#1F4168"/>
<path d="M34.238 94.9807C34.0423 96.0973 33.7755 97.1884 33.4541 98.2579C33.1263 99.3262 32.7388 100.372 32.2496 101.367C32.0146 101.87 31.744 102.353 31.453 102.823C31.171 103.3 30.8432 103.747 30.504 104.184C29.8192 105.057 29.0086 105.827 28.1066 106.515C29.1293 106.024 30.0593 105.316 30.8318 104.465C31.6144 103.621 32.242 102.639 32.7477 101.609C32.9929 101.089 33.2152 100.56 33.4033 100.019C33.5837 99.4762 33.7488 98.9269 33.8695 98.3686C34.1198 97.2558 34.2697 96.1176 34.238 94.9807Z" fill="#1F4168"/>
<path d="M25.5855 65.6206C25.1141 66.6316 24.8435 67.7367 24.7241 68.8559C24.6161 69.9775 24.6745 71.1132 24.8498 72.2259C25.198 74.4578 25.9768 76.5815 26.8229 78.643C27.6818 80.7044 28.6397 82.7112 29.4757 84.7612C29.8886 85.7875 30.2736 86.8252 30.5633 87.8909C30.8644 88.9541 31.0473 90.0503 31.06 91.1656C31.1731 90.0541 31.0422 88.9261 30.8262 87.8286C30.5963 86.7298 30.2609 85.6578 29.8785 84.6073C29.1149 82.5039 28.176 80.4819 27.3324 78.4319C26.903 77.4107 26.4989 76.3793 26.1432 75.3353C25.7824 74.2924 25.4851 73.2306 25.2717 72.1521C24.8486 70.0029 24.8435 67.7355 25.5842 65.6219L25.5855 65.6206Z" fill="#1F4168"/>
<path d="M25.5854 65.6206C25.8649 65.1513 26.119 64.6782 26.3744 64.2077L26.8152 63.5362C26.969 63.3175 27.0871 63.0771 27.2586 62.8737C27.4251 62.6664 27.5902 62.4591 27.749 62.2493C27.8329 62.1475 27.904 62.0343 27.9968 61.9415L28.2725 61.6592C28.4605 61.4761 28.6244 61.2675 28.8239 61.0984L29.4261 60.5973C30.2544 59.9653 31.1921 59.4795 32.1996 59.1933C33.2071 58.9097 34.2806 58.808 35.3555 58.9428C34.3276 58.5816 33.1842 58.5524 32.0992 58.7737L31.6901 58.8576L31.2937 58.9886L30.8973 59.1221C30.769 59.1755 30.6445 59.2378 30.5174 59.2963C30.2646 59.4159 30.0092 59.5316 29.7818 59.6931L29.4299 59.9195C29.3143 59.9971 29.191 60.0644 29.0881 60.1598L28.4554 60.7041C28.2483 60.8898 28.073 61.106 27.885 61.3095L27.6105 61.6198C27.5178 61.7228 27.4479 61.8436 27.3666 61.9542C27.2078 62.1793 27.0528 62.407 26.9003 62.6359C26.6107 63.1026 26.3832 63.6036 26.133 64.0869C25.9424 64.5994 25.7505 65.1094 25.5841 65.6231L25.5854 65.6206Z" fill="#1F4168"/>
<path d="M76.017 61.415C75.3779 60.5388 74.6461 59.7173 73.7847 59.0267L73.4608 58.7699C73.3502 58.6872 73.2321 58.616 73.1177 58.5384C73.0021 58.4634 72.8878 58.3833 72.7696 58.3133L72.4075 58.1086C71.9222 57.8415 71.4127 57.6291 70.9071 57.4256C69.8881 57.0416 68.8819 56.6931 67.9062 56.2569C66.9292 55.8233 65.9865 55.3095 65.031 54.7906C65.8543 55.4977 66.7526 56.1272 67.7169 56.6448C68.1958 56.9093 68.6964 57.1332 69.1983 57.3468C69.7014 57.5579 70.2108 57.7423 70.7089 57.9407C71.7138 58.3133 72.6565 58.7737 73.5319 59.3739C74.4073 59.9729 75.209 60.6914 76.0195 61.4163L76.017 61.415Z" fill="#1F4168"/>
<path d="M68.7881 67.2814C67.9851 67.5243 67.1682 67.6985 66.3437 67.8143C65.5217 67.9376 64.6933 68.0063 63.8662 68.0343C62.212 68.0788 60.554 67.9516 58.9405 67.6019C58.5352 67.5269 58.1363 67.4175 57.7361 67.3183C57.341 67.2 56.942 67.0907 56.5533 66.952C55.7655 66.7002 55.0045 66.3734 54.2498 66.0313C52.7519 65.3217 51.3163 64.4671 49.9505 63.4917C51.1803 64.6337 52.5614 65.6269 54.058 66.4179C55.5534 67.2089 57.1656 67.7965 58.8287 68.1424C60.4905 68.4908 62.2031 68.5989 63.8903 68.4641C65.575 68.328 67.2533 67.9694 68.7881 67.2827V67.2814Z" fill="#1F4168"/>
<path d="M30.748 54.0912C30.2144 53.4655 29.7176 52.8131 29.3708 52.1111C29.2082 51.7588 29.0786 51.3938 29.0633 51.0365C29.0354 50.6791 29.1459 50.3485 29.3631 50.0763C29.7977 49.5155 30.565 49.2001 31.3134 48.9572C32.0756 48.7143 32.8735 48.549 33.6777 48.3595C32.8532 48.3188 32.0236 48.3659 31.2015 48.5401C30.7886 48.6139 30.3872 48.7614 29.9882 48.928C29.6007 49.12 29.217 49.3705 28.9248 49.7406C28.6377 50.1107 28.484 50.6156 28.5437 51.0759C28.597 51.5375 28.7686 51.9534 28.9947 52.3184C29.4495 53.0458 30.0607 53.6333 30.748 54.0924V54.0912Z" fill="#1F4168"/>
<path d="M31.5107 56.2188C29.9087 55.4265 28.0232 55.2357 26.2395 55.5244C25.3412 55.6592 24.4709 55.9365 23.6337 56.2836C22.8028 56.6499 22.0126 57.1001 21.2719 57.6189C19.7917 58.6618 18.5212 60.0085 17.5849 61.5524C16.6523 63.0937 16.0107 64.8232 15.8392 66.5998C16.0285 65.73 16.3118 64.8894 16.6752 64.0856C17.0284 63.2781 17.4604 62.51 17.9444 61.7826C18.9252 60.3341 20.1589 59.0662 21.5895 58.0704C23.0112 57.0645 24.612 56.304 26.3182 55.953C27.1695 55.7775 28.0448 55.6999 28.9202 55.7419C29.7956 55.7724 30.6735 55.9237 31.5107 56.2201V56.2188Z" fill="#1F4168"/>
<path d="M20.2783 99.2308C19.469 99.2447 18.7105 98.998 18.0461 98.6254C17.3841 98.2414 16.8239 97.6996 16.3614 97.0841C16.1022 96.7967 15.9218 96.447 15.702 96.1265C15.5076 95.7882 15.326 95.4398 15.1417 95.09C14.9867 94.7276 14.8025 94.3741 14.6488 94.0053C14.5001 93.6352 14.3515 93.2626 14.1787 92.8938C14.2333 93.2944 14.3121 93.6912 14.3909 94.0918C14.4862 94.486 14.6196 94.8713 14.7453 95.2605C14.8076 95.455 14.9016 95.6382 14.9842 95.8264C15.0718 96.012 15.1481 96.2028 15.2459 96.3847L15.5673 96.915C15.6677 97.0956 15.796 97.2609 15.9256 97.4237C16.1734 97.7581 16.477 98.0506 16.7857 98.3342L17.2939 98.7068C17.4769 98.8124 17.6624 98.9141 17.8491 99.0069C18.614 99.3452 19.4957 99.4762 20.277 99.2308H20.2783Z" fill="#1F4168"/>
<path d="M22.5439 97.5636C22.2771 97.8116 21.9849 98.0087 21.68 98.1435C21.3738 98.277 21.0562 98.3419 20.7399 98.3381C20.4235 98.3177 20.1122 98.2478 19.8086 98.1232C19.6561 98.0647 19.5126 97.9769 19.3601 97.9108C19.2191 97.8179 19.0717 97.7353 18.9256 97.6463L18.6118 98.0227C18.8722 98.2427 19.1416 98.4525 19.4173 98.656C19.693 98.8595 19.9763 99.054 20.2774 99.2308C20.0792 98.9447 19.8632 98.6764 19.6383 98.4182C19.4147 98.1588 19.1848 97.9057 18.9459 97.6641L18.6321 98.0405C18.7833 98.1511 18.9319 98.2669 19.0882 98.3737C19.2572 98.464 19.4211 98.5619 19.6002 98.6357C19.9585 98.7806 20.3562 98.8646 20.7551 98.8391C21.1553 98.8124 21.5403 98.6624 21.849 98.4347C22.1603 98.2096 22.4017 97.9044 22.5427 97.5661L22.5439 97.5636Z" fill="#1F4168"/>
<path d="M15.7408 82.5471C15.4346 83.9943 15.3774 85.4924 15.4867 86.9752C15.5387 87.7179 15.6505 88.4568 15.8043 89.1893C15.9656 89.9193 16.1841 90.6378 16.451 91.3385C16.7241 92.0379 17.0608 92.7132 17.4597 93.3504C17.8599 93.9862 18.3135 94.5916 18.8446 95.1231C19.0974 95.4004 19.3858 95.642 19.664 95.8913C19.9651 96.1138 20.2485 96.3592 20.5673 96.5525C21.1835 96.9722 21.8607 97.2889 22.543 97.5648C21.9141 97.1782 21.2839 96.8043 20.7262 96.3338C20.4314 96.1202 20.176 95.8595 19.9042 95.6216C19.6551 95.3584 19.3883 95.1155 19.1622 94.8319C18.9195 94.5648 18.7112 94.2698 18.4901 93.9862C18.2894 93.6861 18.0797 93.3936 17.9069 93.0782C17.5385 92.4602 17.2196 91.8116 16.9655 91.1363C16.4344 89.7946 16.1054 88.3729 15.9135 86.9307C15.728 85.4873 15.662 84.0198 15.7408 82.5471Z" fill="#1F4168"/>
<path d="M25.5714 75.1394C25.8534 76.1809 26.1215 77.2238 26.3477 78.2767C26.5852 79.3259 26.7949 80.3802 26.9854 81.4369C27.1697 82.495 27.3386 83.5544 27.4581 84.6201C27.5826 85.6845 27.6893 86.7502 27.7236 87.8197C27.8214 89.9536 27.7274 92.1016 27.2802 94.1834C27.0528 95.2224 26.7136 96.2372 26.2435 97.191C25.7836 98.1511 25.1585 99.0324 24.4 99.8005C25.2436 99.124 25.9309 98.2579 26.4823 97.3182C27.0223 96.3694 27.4288 95.3432 27.6995 94.2838C27.9752 93.2258 28.1314 92.1423 28.228 91.0575C28.3144 89.9702 28.3131 88.8816 28.275 87.7955C28.1721 85.6234 27.8672 83.4691 27.406 81.3543C26.9473 79.2394 26.3477 77.1551 25.5714 75.1394Z" fill="#1F4168"/>
<path d="M79.0596 72.3632C79.0151 72.9596 79.0024 73.5522 79.0571 74.1512C79.1066 74.7489 79.2324 75.3492 79.4484 75.9252C79.672 76.4962 79.9947 77.0443 80.4368 77.4805C80.8726 77.9193 81.4164 78.241 81.9932 78.4013C81.518 78.0337 81.1 77.6446 80.7608 77.1957C80.4254 76.748 80.1611 76.2533 79.9629 75.7268C79.7558 75.2029 79.6148 74.6484 79.4801 74.0838C79.348 73.5191 79.2413 72.9367 79.0583 72.3644L79.0596 72.3632Z" fill="#1F4168"/>
<path d="M59.185 51.5872C59.8799 52.5982 60.6498 53.5533 61.4388 54.4931C61.8314 54.9649 62.2392 55.4227 62.6471 55.8818C63.0676 56.3282 63.478 56.786 63.9125 57.2196C65.6302 58.9746 67.461 60.6266 69.4251 62.1119C69.9232 62.4731 70.4123 62.8483 70.9205 63.1954L72.4553 64.2179C73.4729 64.8843 74.4753 65.5723 75.4079 66.3404C76.3379 67.106 77.2132 67.9491 77.8574 68.9589C78.1801 69.4625 78.4355 70.008 78.6273 70.5828C78.8191 71.1577 78.9399 71.7592 79.0605 72.3607C78.997 71.1449 78.7874 69.8821 78.1623 68.7796C77.555 67.6744 76.6746 66.7562 75.7408 65.9462C75.2732 65.5379 74.779 65.1641 74.2809 64.7991C73.7829 64.4341 73.2709 64.0895 72.75 63.7614C72.2316 63.4294 71.7323 63.0912 71.2229 62.7567C70.721 62.4133 70.2306 62.0522 69.7326 61.7024C67.771 60.2578 65.9211 58.6605 64.1589 56.9729C62.398 55.2815 60.7223 53.4948 59.1862 51.5859L59.185 51.5872Z" fill="#1F4168"/>
<path d="M75.4688 56.6498C74.4727 57.1534 73.4347 57.3785 72.384 57.4256C71.858 57.4294 71.3282 57.4141 70.7971 57.3378C70.6625 57.3302 70.5316 57.2997 70.3982 57.2768L69.9955 57.2119C69.7274 57.1611 69.4619 57.0949 69.1785 57.0568C69.4136 57.2081 69.6601 57.3455 69.9129 57.4701C70.1746 57.5693 70.4325 57.6939 70.7082 57.76C71.2533 57.9215 71.8275 57.9864 72.4031 57.9775C72.9773 57.9508 73.5503 57.8351 74.0814 57.6163C74.6086 57.3989 75.1092 57.0873 75.4688 56.6486V56.6498Z" fill="#1F4168"/>
<path d="M44.2642 55.1454C45.6198 55.2802 46.9691 55.4023 48.3056 55.5905C49.6396 55.7838 50.9622 56.0318 52.2403 56.4248C53.5197 56.8063 54.7508 57.3379 55.8993 58.0221C57.0479 58.7075 58.1036 59.5545 59.0908 60.4943C58.2764 59.4019 57.274 58.4354 56.1331 57.6583C54.9948 56.875 53.7192 56.2976 52.4017 55.8945C51.0791 55.499 49.7184 55.2688 48.3552 55.162C46.9919 55.0513 45.6249 55.05 44.2667 55.1429L44.2642 55.1454Z" fill="#1F4168"/>
<path d="M33.2943 56.4171C32.8699 55.7927 32.4849 55.1429 32.1686 54.4638C32.0136 54.1242 31.8776 53.7745 31.7925 53.4171C31.7087 53.0649 31.6731 52.6859 31.7951 52.382C31.9107 52.0742 32.2219 51.9127 32.565 51.8618C32.9144 51.8237 33.2904 51.8262 33.6449 51.8682C34.3614 51.9585 35.0361 52.2243 35.6802 52.5816C36.332 52.925 36.9609 53.3472 37.6355 53.7071C38.3038 54.0772 39.0089 54.4002 39.7407 54.6367C41.2056 55.1225 42.7569 55.2573 44.2637 55.1454C42.7581 54.9953 41.2806 54.7168 39.9008 54.184C39.5552 54.053 39.216 53.9067 38.8844 53.7427C38.5503 53.585 38.2225 53.4133 37.8985 53.2302C37.2518 52.8627 36.6102 52.4684 35.9242 52.1111C35.2381 51.7664 34.4733 51.4867 33.6805 51.4523C33.2828 51.4282 32.9004 51.4676 32.5053 51.5363C32.3071 51.5782 32.1038 51.6444 31.9247 51.7703C31.7442 51.8911 31.6007 52.0793 31.5308 52.2828C31.3911 52.6973 31.4749 53.1068 31.5803 53.4756C31.6934 53.8482 31.8535 54.1967 32.0314 54.5324C32.3897 55.2052 32.8203 55.8309 33.2955 56.4171H33.2943Z" fill="#1F4168"/>
<path d="M39.6597 45.5313C40.0866 45.8289 40.591 46.0056 41.0992 46.1277C41.3533 46.1913 41.6137 46.2269 41.8742 46.2676C42.1346 46.288 42.3976 46.3223 42.6593 46.321C43.1853 46.3414 43.7075 46.2918 44.2297 46.2384L45.0034 46.1061C45.2626 46.0641 45.5116 45.9878 45.767 45.9293C46.2764 45.8111 46.7643 45.6241 47.2585 45.4613C47.7426 45.2706 48.2203 45.0671 48.6916 44.8496C49.1528 44.6118 49.6127 44.374 50.0612 44.1159C50.4983 43.8386 50.9353 43.5627 51.3584 43.2664C50.8756 43.4558 50.4068 43.6657 49.9393 43.873L48.5214 44.4529C48.0399 44.6195 47.5685 44.8089 47.0857 44.9666C46.6004 45.1091 46.124 45.2884 45.6298 45.3939C44.6566 45.6635 43.6592 45.8314 42.6555 45.8899C42.404 45.9141 42.1537 45.895 41.9009 45.9064C41.6506 45.8975 41.3965 45.8899 41.1462 45.8607C40.6431 45.8161 40.1412 45.7182 39.661 45.53L39.6597 45.5313Z" fill="#1F4168"/>
<path d="M98.6866 96.1506C107.725 90.4877 115.606 73.1237 121.609 73.8994C124.94 70.42 143.975 76.4339 153.22 81.9634L168.728 84.2003V232.951L147.054 222.573C147.054 222.573 133.833 235.205 113.249 223.776C95.9576 214.175 55.6995 184.264 56.6143 172.368C52.4623 162.796 63.6147 154.517 66.5317 135.397C66.5317 135.397 62.9515 131.843 67.9216 125.905C72.5462 120.379 80.7625 113.641 88.9203 98.4919C93.3073 90.3453 95.5637 94.1184 98.6853 96.1506H98.6866Z" fill="#F9A21B"/>
<path d="M89.4278 175.703C88.1307 176.306 86.7611 176.758 85.3508 176.994C85.0002 177.065 84.6444 177.097 84.2912 177.145C83.9355 177.168 83.5798 177.209 83.2227 177.207C83.0449 177.207 82.8657 177.221 82.6879 177.211L82.153 177.192C81.9751 177.186 81.7973 177.162 81.6207 177.146L81.3539 177.121C81.2649 177.109 81.1773 177.094 81.0896 177.08C80.3819 176.987 79.6895 176.803 79.0162 176.573L78.5156 176.387L78.029 176.167C77.8625 176.096 77.7088 176.021 77.611 175.886C77.5119 175.754 77.4789 175.581 77.5081 175.417C77.5373 175.254 77.625 175.099 77.7533 174.997C77.8816 174.894 78.0531 174.852 78.2145 174.889C78.2932 174.912 78.372 174.937 78.4521 174.979C78.5308 175.02 78.6121 175.053 78.6871 175.1C78.7633 175.146 78.8408 175.187 78.9145 175.235L79.1343 175.384C79.7048 175.802 80.1799 176.346 80.5268 176.963C80.8685 177.581 81.0807 178.274 81.0883 178.984C81.1125 179.692 81.0019 180.404 80.7732 181.077C80.3184 182.428 79.4824 183.627 78.4978 184.655C77.5043 185.682 76.3507 186.538 75.2034 187.391C74.0587 188.248 72.9051 189.107 71.8887 190.119C72.9191 189.122 74.0828 188.281 75.2403 187.441C76.3926 186.594 77.5525 185.742 78.5588 184.713C79.5548 183.684 80.4048 182.48 80.8736 181.112C81.1087 180.43 81.2268 179.704 81.2052 178.981C81.2014 178.255 80.9867 177.537 80.6386 176.902C80.2803 176.271 79.7899 175.717 79.2042 175.291L78.978 175.14C78.9018 175.09 78.8218 175.048 78.7443 175.002C78.6668 174.954 78.5829 174.921 78.5016 174.879C78.4241 174.837 78.3314 174.805 78.2386 174.781C78.0493 174.738 77.8384 174.789 77.6885 174.912C77.5373 175.033 77.4382 175.211 77.4064 175.399C77.3734 175.587 77.4128 175.792 77.5309 175.947C77.6466 176.106 77.8295 176.19 77.9896 176.257L78.4825 176.477L78.9895 176.662C79.6705 176.891 80.3692 177.073 81.082 177.163C81.1709 177.176 81.2598 177.191 81.3488 177.202L81.6169 177.226C81.796 177.24 81.9739 177.263 82.153 177.27L82.6904 177.286C82.8696 177.295 83.0487 177.281 83.2278 177.28C83.5874 177.28 83.9431 177.237 84.3014 177.211L84.835 177.14C85.0129 177.12 85.1895 177.088 85.3661 177.052C86.7776 176.795 88.1434 176.321 89.4316 175.7L89.4278 175.703Z" fill="white"/>
<path d="M125.392 126.9C122.792 128.449 120.019 129.683 117.473 131.33C116.84 131.746 116.219 132.181 115.627 132.654C115.477 132.77 115.336 132.896 115.188 133.017L114.971 133.2L114.761 133.392L114.343 133.776L113.943 134.18L113.744 134.382L113.553 134.593L113.175 135.017L112.815 135.457C112.755 135.531 112.694 135.603 112.636 135.678L112.467 135.907C112.003 136.507 111.602 137.152 111.215 137.805C110.471 139.125 109.867 140.53 109.469 141.995C109.258 142.724 109.113 143.47 108.998 144.22C108.95 144.597 108.897 144.973 108.874 145.352C108.851 145.731 108.843 146.113 108.86 146.493C108.88 146.873 108.911 147.253 108.982 147.627C109.01 147.816 109.059 148 109.101 148.187C109.127 148.278 109.156 148.37 109.183 148.462L109.225 148.599L109.275 148.732C109.532 149.451 109.956 150.12 110.545 150.617L110.772 150.794C110.846 150.855 110.933 150.901 111.015 150.953C111.186 151.043 111.364 151.122 111.551 151.173C111.923 151.28 112.316 151.3 112.697 151.262C113.079 151.217 113.455 151.118 113.803 150.954C114.154 150.794 114.477 150.573 114.746 150.294C114.877 150.152 114.996 149.997 115.09 149.825C115.182 149.652 115.252 149.469 115.291 149.275C115.324 149.082 115.331 148.884 115.304 148.69C115.27 148.498 115.221 148.308 115.135 148.132C115.057 147.954 114.949 147.791 114.833 147.636C114.707 147.489 114.572 147.346 114.416 147.233C114.265 147.111 114.092 147.021 113.918 146.937C113.739 146.864 113.556 146.799 113.364 146.768C112.984 146.693 112.589 146.703 112.215 146.798L112.076 146.834L111.938 146.882C111.846 146.911 111.76 146.955 111.673 146.994C111.586 147.035 111.499 147.073 111.414 147.116L111.166 147.262C111.125 147.288 111.083 147.311 111.043 147.337L110.927 147.423C110.851 147.48 110.772 147.534 110.697 147.594C110.556 147.724 110.406 147.845 110.282 147.99C110.015 148.266 109.798 148.582 109.601 148.909C109.404 149.236 109.249 149.586 109.101 149.937C108.964 150.292 108.838 150.65 108.732 151.014C108.514 151.741 108.337 152.476 108.138 153.206C107.744 154.666 107.316 156.119 106.823 157.548C105.839 160.403 104.597 163.193 102.866 165.676C102.004 166.917 101.02 168.074 99.9093 169.102C98.7977 170.127 97.5284 170.976 96.169 171.637C97.5335 170.985 98.8104 170.143 99.9309 169.124C101.05 168.103 102.045 166.95 102.918 165.712C104.661 163.227 105.911 160.433 106.903 157.577C107.4 156.147 107.833 154.694 108.23 153.233C108.431 152.503 108.61 151.767 108.828 151.044C108.935 150.682 109.062 150.327 109.198 149.976C109.344 149.63 109.498 149.286 109.692 148.964C109.885 148.643 110.1 148.333 110.36 148.065C110.482 147.922 110.628 147.805 110.766 147.679C110.838 147.621 110.916 147.569 110.991 147.513L111.104 147.43C111.142 147.405 111.184 147.382 111.223 147.358L111.464 147.215C111.547 147.173 111.633 147.136 111.719 147.097C111.804 147.059 111.888 147.016 111.975 146.989L112.106 146.943L112.241 146.909C112.599 146.818 112.978 146.811 113.341 146.882C113.524 146.914 113.698 146.976 113.87 147.045C114.035 147.125 114.2 147.211 114.343 147.328C114.493 147.437 114.619 147.573 114.739 147.713C114.848 147.86 114.951 148.015 115.023 148.184C115.104 148.35 115.15 148.529 115.182 148.708C115.206 148.89 115.2 149.073 115.169 149.253C115.132 149.432 115.066 149.604 114.98 149.765C114.891 149.925 114.778 150.072 114.653 150.208C114.397 150.473 114.088 150.688 113.75 150.842C113.415 151.001 113.05 151.098 112.682 151.141C112.313 151.179 111.936 151.16 111.58 151.058C111.401 151.011 111.232 150.936 111.068 150.85C110.991 150.8 110.908 150.758 110.836 150.699L110.615 150.528C110.043 150.049 109.629 149.398 109.375 148.694L109.325 148.563L109.284 148.428C109.258 148.338 109.228 148.249 109.204 148.159C109.164 147.976 109.113 147.795 109.085 147.608C109.014 147.239 108.982 146.863 108.962 146.488C108.945 146.111 108.951 145.735 108.973 145.359C108.995 144.982 109.047 144.608 109.094 144.234C109.204 143.488 109.348 142.745 109.556 142.02C109.949 140.562 110.546 139.163 111.284 137.847C111.666 137.197 112.065 136.553 112.525 135.954L112.693 135.727C112.75 135.652 112.811 135.579 112.871 135.507L113.228 135.067L113.604 134.644L113.792 134.433L113.99 134.231L114.388 133.828L114.803 133.444L115.012 133.252L115.228 133.069C115.373 132.948 115.514 132.822 115.663 132.706C116.252 132.233 116.872 131.8 117.501 131.381C120.03 129.72 122.797 128.464 125.387 126.898L125.392 126.9Z" fill="white"/>
<path d="M138.651 94.8103C138.375 95.5899 138.157 96.3885 138.004 97.2024C137.853 98.0163 137.76 98.8391 137.697 99.6632C137.571 101.311 137.551 102.968 137.326 104.604C137.219 105.422 137.049 106.23 136.795 107.014C136.545 107.797 136.209 108.555 135.773 109.251C135.669 109.429 135.546 109.593 135.429 109.761C135.373 109.846 135.303 109.922 135.24 110.004C135.174 110.082 135.114 110.165 135.044 110.24C134.903 110.389 134.771 110.547 134.617 110.681C134.542 110.751 134.469 110.822 134.392 110.89L134.152 111.082C133.511 111.589 132.756 111.958 131.948 112.079C131.144 112.209 130.306 112.136 129.534 111.877C129.341 111.813 129.152 111.734 128.969 111.644C128.875 111.603 128.79 111.549 128.699 111.5C128.608 111.452 128.53 111.396 128.458 111.329C128.317 111.195 128.222 111.015 128.204 110.82C128.185 110.627 128.23 110.427 128.33 110.257C128.427 110.087 128.571 109.94 128.748 109.856C128.922 109.768 129.126 109.745 129.316 109.792C129.412 109.811 129.502 109.855 129.59 109.9L129.852 110.062C130.031 110.162 130.19 110.291 130.353 110.416C130.998 110.922 131.544 111.552 131.972 112.253C132.826 113.655 133.264 115.322 133.147 116.965C133.089 117.785 132.886 118.594 132.59 119.363C132.295 120.134 131.901 120.867 131.441 121.552C131.91 120.873 132.313 120.144 132.619 119.375C132.925 118.607 133.14 117.798 133.21 116.97C133.337 115.313 132.901 113.63 132.045 112.209C131.615 111.498 131.065 110.857 130.413 110.341C130.248 110.215 130.085 110.082 129.905 109.979L129.639 109.814C129.545 109.764 129.446 109.717 129.34 109.694C129.129 109.642 128.898 109.666 128.703 109.763C128.506 109.857 128.346 110.017 128.238 110.204C128.129 110.391 128.077 110.613 128.096 110.831C128.115 111.05 128.223 111.259 128.38 111.409C128.459 111.483 128.551 111.549 128.642 111.597C128.734 111.647 128.823 111.704 128.918 111.746C129.105 111.839 129.298 111.92 129.496 111.986C130.286 112.256 131.141 112.335 131.968 112.204C132.381 112.136 132.785 112.015 133.164 111.836C133.26 111.795 133.351 111.742 133.441 111.69C133.531 111.638 133.624 111.589 133.713 111.535L133.972 111.359L134.101 111.271L134.223 111.173L134.467 110.978C134.545 110.909 134.62 110.835 134.696 110.764C134.852 110.627 134.986 110.465 135.128 110.314C135.199 110.237 135.259 110.152 135.326 110.072C135.39 109.99 135.46 109.912 135.517 109.825C135.635 109.655 135.759 109.487 135.864 109.307C136.302 108.6 136.637 107.834 136.886 107.043C137.139 106.253 137.307 105.437 137.411 104.615C137.63 102.972 137.644 101.315 137.76 99.6683C137.814 98.8442 137.895 98.0214 138.036 97.2088C138.178 96.3961 138.387 95.5937 138.652 94.8116L138.651 94.8103Z" fill="white"/>
<path d="M149.313 83.0762C148.26 83.562 147.263 84.1673 146.332 84.8629C145.4 85.5586 144.544 86.3534 143.765 87.2169C142.994 88.0867 142.3 89.0278 141.713 90.0312L141.293 90.7955L140.912 91.5789L140.576 92.3826L140.285 93.2029L140.608 92.3953L140.969 91.6056L141.364 90.8336L141.797 90.0821C142.398 89.0939 143.086 88.1605 143.861 87.3021C144.627 86.4373 145.479 85.6501 146.391 84.9418C147.305 84.2334 148.284 83.6103 149.313 83.0774V83.0762Z" fill="white"/>
<path d="M105.265 186.88C105.178 187.848 104.85 188.777 104.385 189.622C103.915 190.465 103.322 191.237 102.649 191.927C101.298 193.312 99.6707 194.383 98.1283 195.553C97.3584 196.142 96.6037 196.757 95.9164 197.445C95.2328 198.137 94.6116 198.893 94.0907 199.713C93.8239 200.119 93.5876 200.545 93.3614 200.974C93.1442 201.409 92.9371 201.848 92.763 202.302C92.406 203.205 92.1494 204.145 91.9677 205.096C92.1697 204.149 92.4454 203.217 92.8202 202.325C93.0006 201.876 93.2115 201.441 93.4326 201.011C93.6625 200.587 93.9014 200.167 94.172 199.766C94.703 198.96 95.3154 198.209 95.9977 197.527C96.6825 196.846 97.4346 196.237 98.2045 195.654C98.9732 195.067 99.7609 194.503 100.53 193.911C101.296 193.317 102.05 192.702 102.719 191.994C103.389 191.29 103.979 190.506 104.44 189.65C104.891 188.79 105.199 187.848 105.265 186.879V186.88Z" fill="white"/>
<path d="M128.657 148.956C127.066 151.24 126.065 153.944 125.838 156.728C125.792 157.425 125.812 158.128 125.941 158.817C126.008 159.16 126.092 159.503 126.224 159.827C126.353 160.151 126.51 160.47 126.721 160.753C126.929 161.034 127.168 161.299 127.456 161.503C127.733 161.724 128.074 161.858 128.421 161.921C129.119 162.04 129.849 161.877 130.452 161.514C130.753 161.331 131.024 161.09 131.217 160.789C131.409 160.492 131.515 160.126 131.475 159.768C131.471 159.678 131.447 159.592 131.429 159.504C131.4 159.42 131.38 159.332 131.34 159.252L131.286 159.13L131.219 159.014C131.179 158.935 131.122 158.865 131.071 158.793C130.852 158.512 130.559 158.291 130.234 158.149C129.906 158.013 129.547 157.943 129.193 157.968C128.839 157.987 128.488 158.087 128.177 158.251C128.137 158.27 128.097 158.287 128.057 158.307L127.943 158.374C127.868 158.42 127.789 158.462 127.717 158.511C127.576 158.616 127.428 158.714 127.301 158.837C127.165 158.951 127.051 159.084 126.929 159.213C126.821 159.351 126.705 159.485 126.613 159.635C126.218 160.218 125.958 160.88 125.745 161.544C125.534 162.21 125.37 162.888 125.186 163.559C124.823 164.902 124.426 166.236 123.967 167.55C123.058 170.172 121.898 172.733 120.255 174.979C119.437 176.1 118.493 177.131 117.44 178.033C116.374 178.919 115.169 179.639 113.887 180.169C112.607 180.699 111.246 181.049 109.864 181.162C108.483 181.281 107.075 181.157 105.75 180.744C105.585 180.693 105.422 180.633 105.257 180.576C105.097 180.51 104.933 180.451 104.775 180.379C104.622 180.303 104.449 180.247 104.322 180.141C104.194 180.034 104.124 179.867 104.131 179.699C104.135 179.531 104.218 179.367 104.342 179.256C104.467 179.143 104.646 179.096 104.81 179.139L104.93 179.178L105.047 179.234L105.164 179.29L105.277 179.355L105.39 179.42L105.498 179.493L105.606 179.565L105.709 179.644C106.259 180.065 106.708 180.621 107.004 181.249C107.151 181.563 107.259 181.897 107.316 182.241C107.372 182.584 107.379 182.935 107.356 183.282C107.381 182.935 107.377 182.585 107.324 182.24C107.269 181.895 107.164 181.559 107.019 181.243C106.728 180.609 106.281 180.047 105.73 179.619L105.625 179.538L105.517 179.465L105.409 179.391L105.296 179.325L105.183 179.259L105.065 179.2L104.947 179.143L104.82 179.1C104.646 179.051 104.449 179.102 104.316 179.222C104.181 179.34 104.093 179.513 104.087 179.695C104.077 179.875 104.152 180.061 104.29 180.178C104.359 180.237 104.44 180.281 104.518 180.317L104.755 180.427C104.913 180.501 105.077 180.562 105.238 180.63C105.403 180.687 105.566 180.749 105.732 180.801C107.065 181.222 108.48 181.349 109.87 181.234C111.261 181.123 112.631 180.776 113.92 180.245C115.211 179.716 116.425 178.994 117.502 178.104C118.565 177.198 119.516 176.165 120.342 175.039C121.999 172.787 123.171 170.218 124.088 167.589C124.544 166.272 124.938 164.934 125.299 163.587C125.482 162.915 125.643 162.237 125.85 161.575C126.061 160.917 126.314 160.264 126.7 159.692C126.791 159.544 126.904 159.415 127.008 159.279C127.125 159.154 127.236 159.022 127.369 158.912C127.492 158.792 127.635 158.696 127.773 158.593C127.844 158.545 127.92 158.504 127.992 158.46L128.103 158.394C128.141 158.373 128.18 158.357 128.22 158.339C128.823 158.012 129.565 157.964 130.194 158.233C130.505 158.368 130.786 158.579 130.996 158.846C131.044 158.916 131.099 158.982 131.138 159.057L131.202 159.168L131.254 159.285C131.293 159.361 131.311 159.445 131.339 159.524C131.355 159.607 131.378 159.689 131.382 159.773C131.421 160.11 131.322 160.454 131.141 160.739C130.958 161.026 130.696 161.26 130.405 161.439C129.821 161.793 129.108 161.953 128.431 161.841C128.094 161.78 127.768 161.653 127.498 161.439C127.216 161.242 126.981 160.983 126.777 160.708C126.569 160.432 126.414 160.119 126.286 159.8C126.155 159.48 126.071 159.143 126.004 158.803C125.874 158.121 125.854 157.423 125.896 156.73C126.102 153.957 127.079 151.249 128.653 148.954L128.657 148.956Z" fill="white"/>
<path d="M156.37 115.171C156.058 116.099 155.618 116.993 155.011 117.762C154.407 118.529 153.621 119.171 152.706 119.51C152.25 119.679 151.761 119.75 151.275 119.758C150.789 119.754 150.301 119.688 149.839 119.535C149.605 119.465 149.384 119.363 149.165 119.257C149.061 119.195 148.948 119.142 148.855 119.072C148.761 119.001 148.681 118.912 148.626 118.809C148.516 118.603 148.516 118.347 148.606 118.131C148.696 117.915 148.867 117.728 149.081 117.636C149.296 117.542 149.548 117.561 149.756 117.668C149.861 117.722 149.963 117.794 150.066 117.856L150.221 117.953L150.366 118.064C150.762 118.346 151.104 118.7 151.416 119.072L151.641 119.36C151.712 119.459 151.777 119.562 151.846 119.662L151.948 119.814L152.038 119.973C152.097 120.079 152.158 120.184 152.217 120.292C152.317 120.513 152.434 120.728 152.515 120.958C152.557 121.073 152.607 121.184 152.644 121.3L152.752 121.65C152.881 122.119 152.98 122.599 153.011 123.084C153.039 123.327 153.029 123.57 153.031 123.813C153.029 123.935 153.013 124.056 153.006 124.177L152.992 124.359C152.987 124.42 152.973 124.478 152.964 124.539C152.808 125.499 152.475 126.43 152.014 127.289C151.555 128.148 150.972 128.942 150.309 129.659C149.647 130.378 148.911 131.029 148.135 131.624C146.582 132.819 144.852 133.757 143.125 134.684C141.399 135.611 139.653 136.524 138.052 137.666C137.655 137.953 137.263 138.251 136.888 138.568C136.51 138.88 136.148 139.212 135.802 139.562C135.111 140.259 134.483 141.019 133.929 141.83C134.492 141.026 135.126 140.273 135.824 139.584C136.172 139.239 136.538 138.912 136.918 138.603C137.295 138.29 137.688 137.998 138.088 137.716C139.69 136.584 141.434 135.677 143.165 134.756C144.894 133.836 146.633 132.903 148.198 131.707C148.981 131.111 149.723 130.46 150.394 129.737C151.065 129.016 151.657 128.217 152.124 127.347C152.588 126.476 152.922 125.534 153.078 124.556C153.087 124.495 153.1 124.434 153.106 124.373L153.12 124.187C153.128 124.064 153.143 123.94 153.144 123.817C153.142 123.569 153.149 123.322 153.12 123.076C153.087 122.582 152.986 122.095 152.852 121.619L152.742 121.266C152.703 121.149 152.654 121.036 152.609 120.92C152.527 120.687 152.407 120.47 152.305 120.245C152.246 120.137 152.183 120.03 152.123 119.922L152.031 119.761L151.928 119.608C151.859 119.506 151.793 119.402 151.72 119.301L151.49 119.01C151.171 118.633 150.824 118.276 150.42 117.99L150.273 117.878L150.115 117.78C150.009 117.716 149.91 117.647 149.795 117.589C149.569 117.474 149.286 117.453 149.048 117.558C148.811 117.659 148.626 117.863 148.53 118.098C148.432 118.333 148.432 118.616 148.557 118.845C148.618 118.959 148.705 119.056 148.808 119.132C148.912 119.208 149.023 119.26 149.13 119.323C149.352 119.431 149.578 119.533 149.816 119.604C150.757 119.9 151.796 119.906 152.726 119.566C153.653 119.211 154.436 118.556 155.035 117.779C155.637 116.999 156.068 116.1 156.37 115.168V115.171Z" fill="white"/>
<path d="M166.22 92.7234C165.461 93.2983 164.747 93.9303 164.083 94.6145C163.422 95.3012 162.814 96.0388 162.266 96.8196C161.181 98.3889 160.346 100.135 159.829 101.974L159.658 102.67C159.599 102.901 159.565 103.138 159.517 103.372C159.425 103.841 159.367 104.315 159.317 104.789C159.218 105.738 159.171 106.691 159.128 107.641C159.085 108.591 159.035 109.541 158.93 110.486C158.874 110.957 158.813 111.429 158.721 111.896C158.63 112.363 158.514 112.824 158.369 113.278C158.523 112.828 158.649 112.368 158.751 111.902C158.852 111.437 158.925 110.965 158.991 110.493C159.109 109.547 159.17 108.596 159.224 107.646C159.283 106.696 159.326 105.746 159.431 104.801C159.484 104.329 159.543 103.857 159.636 103.393C159.684 103.162 159.72 102.926 159.778 102.696L159.951 102.007C160.456 100.178 161.284 98.4462 162.346 96.8731C162.881 96.0884 163.478 95.3483 164.127 94.6552C164.774 93.9596 165.473 93.3122 166.218 92.7222L166.22 92.7234Z" fill="white"/>
<g style="mix-blend-mode:multiply" opacity="0.4">
<path d="M121.609 192.768C121.609 192.768 114.332 198.565 118.01 209.846C118.01 209.846 109.771 202.035 121.609 192.768Z" fill="#A65B3C"/>
</g>
<g style="mix-blend-mode:multiply" opacity="0.4">
<path d="M116.827 191.06C116.827 191.06 111.435 191.515 108.389 196.9C108.389 196.9 107.634 191.72 116.827 191.06Z" fill="#A65B3C"/>
</g>
<g style="mix-blend-mode:multiply" opacity="0.4">
<path d="M109.138 188.928C109.138 188.928 92.3977 193.763 75.9143 186.88C75.9143 186.88 93.672 191.775 109.138 188.928Z" fill="#A65B3C"/>
</g>
<g style="mix-blend-mode:multiply" opacity="0.4">
<path d="M159.987 194.995C159.987 194.995 158.112 213.707 147.056 222.573L154.354 226.068C154.354 226.068 159.532 214.083 159.987 194.996V194.995Z" fill="#A65B3C"/>
</g>
<g style="mix-blend-mode:multiply" opacity="0.4">
<path d="M109.138 188.928C109.138 188.928 101.986 182.262 97.5368 179.076C97.5368 179.076 107.553 183.689 109.138 188.928Z" fill="#A65B3C"/>
</g>
<g style="mix-blend-mode:multiply" opacity="0.4">
<path d="M99.4801 98.6191C99.4801 98.6191 107.147 120.681 73.3676 133.177C73.3676 133.177 110.799 121.445 99.4801 98.6191Z" fill="#A65B3C"/>
</g>
<g style="mix-blend-mode:multiply" opacity="0.4">
<path d="M166.22 120.893C166.22 120.893 149.951 112.441 142.909 100.904C142.909 100.904 155.919 114.341 166.22 120.893Z" fill="#A65B3C"/>
</g>
<g style="mix-blend-mode:multiply" opacity="0.4">
<path d="M166.22 157.142C166.22 157.142 167.734 157.801 168.954 158.236V149.986C168.954 149.986 167.036 152.548 166.22 157.144V157.142Z" fill="#A65B3C"/>
</g>
<g style="mix-blend-mode:multiply" opacity="0.4">
<path d="M96.188 163.988C96.188 163.988 125.826 161.985 148.625 146.045C148.625 146.045 116.98 161.584 96.188 163.988Z" fill="#A65B3C"/>
</g>
<g style="mix-blend-mode:multiply" opacity="0.4">
<path d="M116.827 191.06C116.827 191.06 119.77 190.485 121.609 192.768C121.609 192.768 130.172 186.56 134.714 178.594C134.714 178.594 129.082 187.731 116.827 191.06Z" fill="#A65B3C"/>
</g>
<g style="mix-blend-mode:multiply" opacity="0.4">
<path d="M159.987 194.995C159.987 194.995 169.016 184.841 166.22 174.198C166.22 174.198 161.557 175.021 156.358 170.648C156.358 170.648 157.78 172.059 160.135 173.413C163.959 175.61 165.967 180.004 165.021 184.316C164.328 187.483 162.873 191.209 159.987 194.995Z" fill="#A65B3C"/>
</g>
<path d="M109.138 188.928C108.267 188.059 107.367 187.218 106.463 186.384C106.01 185.967 105.551 185.559 105.091 185.149C104.633 184.737 104.167 184.335 103.703 183.931C103.471 183.73 103.241 183.525 103.006 183.327L102.298 182.734L101.589 182.142L100.873 181.559C100.392 181.174 99.921 180.778 99.4331 180.402L97.9784 179.264L96.4957 178.162C96.004 177.791 95.4996 177.439 94.9965 177.084C93.9979 176.364 92.9701 175.684 91.9397 175.01C91.4201 174.681 90.8916 174.364 90.3681 174.04C90.1039 173.881 89.846 173.713 89.5779 173.561L88.7724 173.109L87.9656 172.661C87.831 172.587 87.6976 172.51 87.5616 172.438L87.1474 172.232L85.492 171.416L87.1157 172.292L87.5222 172.51C87.6556 172.586 87.7865 172.666 87.9186 172.745L88.7101 173.217L89.5042 173.685C89.7685 173.841 90.0238 174.013 90.283 174.177C90.7988 174.51 91.3197 174.836 91.833 175.174C93.876 176.54 95.8719 177.974 97.8246 179.466C99.7825 180.953 101.691 182.503 103.577 184.08C104.049 184.475 104.521 184.867 104.986 185.27C105.454 185.669 105.92 186.07 106.381 186.477C107.314 187.279 108.229 188.101 109.14 188.929L109.138 188.928Z" fill="#A65B3C"/>
<path d="M97.7656 179.26C97.2282 178.794 96.706 178.311 96.2016 177.811C95.6947 177.315 95.2018 176.803 94.7241 176.28C93.7712 175.231 92.8717 174.132 92.0827 172.957C91.6825 172.375 91.3166 171.768 90.9863 171.144C90.8148 170.835 90.6674 170.514 90.5149 170.195C90.3777 169.871 90.2341 169.548 90.1185 169.215L90.0271 168.967L89.9496 168.714L89.8708 168.461L89.8314 168.335L89.7996 168.206L89.6713 167.692L89.5773 167.171C89.463 166.473 89.435 165.762 89.4807 165.051C89.3766 165.757 89.3804 166.475 89.4541 167.188C89.5278 167.901 89.7094 168.599 89.9318 169.279C90.1516 169.962 90.4463 170.619 90.7741 171.256C91.1032 171.893 91.4716 172.507 91.8731 173.1C92.6748 174.285 93.5921 175.388 94.5805 176.415C95.5702 177.443 96.6285 178.404 97.7656 179.26Z" fill="#A65B3C"/>
<path d="M96.188 163.988C97.3518 163.912 98.513 163.793 99.6717 163.657C100.83 163.52 101.988 163.369 103.141 163.196C105.45 162.847 107.748 162.435 110.034 161.962C112.321 161.493 114.591 160.943 116.849 160.344C119.105 159.742 121.349 159.091 123.566 158.357C124.122 158.18 124.674 157.985 125.225 157.793C125.775 157.599 126.33 157.417 126.877 157.208L128.519 156.599L130.15 155.958C132.316 155.086 134.465 154.168 136.56 153.135C140.772 151.114 144.815 148.741 148.625 146.045L147.163 147.008L146.433 147.49L145.689 147.949L144.199 148.865L142.682 149.736C142.428 149.88 142.179 150.031 141.923 150.171L141.153 150.587C140.639 150.861 140.13 151.145 139.612 151.412C138.57 151.935 137.536 152.474 136.477 152.96L135.686 153.332L135.291 153.519L134.891 153.696L133.294 154.407C132.762 154.645 132.22 154.86 131.683 155.087L130.876 155.424C130.607 155.535 130.334 155.638 130.063 155.745C127.901 156.613 125.699 157.385 123.487 158.116C119.062 159.585 114.549 160.779 109.994 161.773C107.716 162.269 105.424 162.701 103.122 163.075C100.821 163.454 98.5105 163.773 96.1867 163.989L96.188 163.988Z" fill="#A65B3C"/>
<path d="M122.08 139.147C123.192 139.2 124.306 139.21 125.419 139.217C125.976 139.217 126.532 139.208 127.09 139.205L128.761 139.17C130.988 139.108 133.211 138.967 135.432 138.789C137.651 138.597 139.866 138.337 142.069 138.005C144.273 137.681 146.46 137.241 148.626 136.731C148.078 136.829 147.531 136.93 146.985 137.034L146.164 137.185L145.339 137.315C144.79 137.403 144.243 137.499 143.693 137.582L142.041 137.811C141.491 137.892 140.938 137.952 140.387 138.022C139.834 138.087 139.284 138.166 138.731 138.218L137.072 138.388C136.519 138.444 135.964 138.485 135.41 138.533C133.196 138.733 130.975 138.869 128.753 138.973L127.086 139.043L125.418 139.093C124.306 139.128 123.193 139.141 122.08 139.147Z" fill="#A65B3C"/>
<path d="M80.9994 169.313C79.1331 168.632 77.1701 168.232 75.1971 167.987C73.2215 167.745 71.2204 167.717 69.2347 167.854C68.2411 167.933 67.254 168.07 66.2731 168.242C65.7853 168.34 65.2949 168.429 64.8121 168.551C64.5707 168.611 64.3255 168.659 64.0866 168.73L63.3688 168.935C62.4185 169.23 61.4758 169.552 60.5623 169.947C59.645 170.331 58.7594 170.785 57.8917 171.267L58.5638 170.947C58.7874 170.839 59.0085 170.727 59.2372 170.633L59.9194 170.336C60.1456 170.235 60.3806 170.154 60.6106 170.063C61.5291 169.693 62.4731 169.393 63.4234 169.123C64.3788 168.867 65.3406 168.641 66.3151 168.469C67.2895 168.307 68.2704 168.179 69.2563 168.107C70.2409 168.031 71.2293 167.998 72.2178 168.009C73.2062 168.018 74.1934 168.089 75.178 168.181C76.1626 168.279 77.1435 168.417 78.1154 168.607C79.0886 168.789 80.0554 169.015 81.002 169.311L80.9994 169.313Z" fill="#A65B3C"/>
<path d="M99.4798 98.6191C99.7631 99.5741 99.9308 100.558 100.043 101.545C100.154 102.533 100.184 103.529 100.157 104.521C100.143 105.514 100.031 106.502 99.8914 107.484C99.7237 108.462 99.5242 109.435 99.2333 110.384C98.1165 114.193 96.0405 117.686 93.3623 120.606C93.046 120.987 92.6852 121.329 92.3396 121.684C91.9877 122.033 91.6535 122.401 91.2749 122.722L90.1671 123.715L90.0286 123.84L89.8837 123.955L89.5928 124.187L89.0109 124.651C88.2499 125.29 87.4215 125.838 86.616 126.419L86.3124 126.635C86.2095 126.704 86.1028 126.769 85.9986 126.835L85.3697 127.233L84.1132 128.033L82.8185 128.769L82.1706 129.138C81.9546 129.261 81.7399 129.386 81.5163 129.494L80.1873 130.168L79.5229 130.505L79.19 130.673L78.8508 130.827L77.4939 131.445L76.8155 131.754C76.5893 131.857 76.3644 131.962 76.1319 132.051L73.3673 133.175L76.1573 132.114C76.3911 132.028 76.6185 131.928 76.8472 131.829L77.532 131.532L78.9029 130.94L79.2459 130.791L79.5813 130.627L80.2509 130.298L81.5912 129.638C81.8174 129.532 82.0334 129.409 82.2519 129.288L82.9062 128.925L84.2135 128.2L85.484 127.412L86.118 127.015C86.2234 126.949 86.3302 126.884 86.4344 126.816L86.7405 126.601C87.5511 126.021 88.3871 125.473 89.1545 124.833L89.7414 124.369L90.0349 124.136L90.181 124.019L90.3208 123.894L91.4388 122.899C91.8212 122.577 92.1592 122.207 92.5149 121.857C92.8656 121.501 93.2302 121.159 93.5504 120.775C93.8782 120.397 94.2123 120.026 94.5337 119.643L95.4485 118.455C95.606 118.262 95.7394 118.05 95.8805 117.842L96.2997 117.22C96.5907 116.814 96.8282 116.372 97.0836 115.942C98.0797 114.21 98.8839 112.363 99.4213 110.436C99.7034 109.477 99.8927 108.493 100.05 107.507C100.179 106.516 100.281 105.521 100.281 104.522C100.289 103.524 100.242 102.526 100.11 101.536C99.9829 100.548 99.791 99.5652 99.481 98.6178L99.4798 98.6191Z" fill="#A65B3C"/>
<path d="M91.6582 96.0133C92.3798 96.1189 93.0697 96.349 93.7342 96.6237C94.3973 96.9048 95.0313 97.2494 95.631 97.6449L96.0719 97.9565C96.1443 98.0099 96.2205 98.0582 96.2904 98.1155L96.5 98.2859C96.6398 98.4003 96.7846 98.5084 96.9193 98.6267C97.0514 98.75 97.1848 98.8709 97.3195 98.9917L97.5202 99.1735L97.7082 99.3681L98.0894 99.756C98.3397 100.018 98.5671 100.302 98.8174 100.569C98.7157 100.417 98.6128 100.267 98.5061 100.118C98.3981 99.9709 98.3003 99.8157 98.1834 99.6746L97.8302 99.2549L97.6511 99.0464L97.458 98.8505C97.3296 98.7195 97.1988 98.5898 97.0679 98.4614C96.9345 98.3355 96.791 98.221 96.6525 98.0989C96.5127 97.9781 96.3717 97.8611 96.2205 97.7556L95.7733 97.4325C95.1558 97.032 94.499 96.6886 93.8066 96.4393C93.1167 96.1901 92.39 96.0197 91.6594 96.0133H91.6582Z" fill="#A65B3C"/>
<path d="M88.9209 103.548C89.5714 103.839 90.1977 104.173 90.8177 104.514C91.1264 104.686 91.4339 104.861 91.7375 105.044L92.1924 105.318L92.6396 105.603C92.7908 105.695 92.9356 105.797 93.0843 105.893C93.2316 105.991 93.3803 106.088 93.5238 106.191L93.9596 106.494L94.3891 106.806C94.9633 107.222 95.5185 107.664 96.0801 108.104C95.9568 107.975 95.8311 107.848 95.704 107.723C95.577 107.599 95.4525 107.469 95.3203 107.351C95.0548 107.113 94.7918 106.87 94.511 106.649C93.9622 106.191 93.3752 105.78 92.7781 105.388C92.1771 105.002 91.5533 104.65 90.9104 104.337C90.2688 104.023 89.6069 103.747 88.9221 103.547L88.9209 103.548Z" fill="#A65B3C"/>
<path d="M70.7932 125.7C70.924 126.206 71.1807 126.676 71.4818 127.104C71.7842 127.535 72.1475 127.921 72.5439 128.267C72.9517 128.597 73.3824 128.905 73.8513 129.14L74.024 129.233L74.2032 129.313L74.5627 129.468C74.8067 129.56 75.0569 129.638 75.3047 129.711C75.076 129.584 74.841 129.477 74.6148 129.355L74.2794 129.166L74.1104 129.073L73.9478 128.97C73.8398 128.9 73.7318 128.831 73.6238 128.765C73.5171 128.695 73.4155 128.618 73.3113 128.544C73.0979 128.403 72.9073 128.234 72.7078 128.076C72.3216 127.744 71.9633 127.38 71.6381 126.987C71.3166 126.592 71.0219 126.17 70.7919 125.703L70.7932 125.7Z" fill="#A65B3C"/>
<path d="M78.276 117.916C78.6254 118.546 79.0587 119.127 79.5275 119.672C79.9976 120.219 80.5058 120.733 81.0495 121.209C81.5971 121.678 82.1625 122.128 82.7698 122.517C83.0658 122.723 83.3809 122.897 83.6909 123.079C83.8459 123.171 84.0098 123.247 84.1686 123.33C84.3287 123.412 84.49 123.491 84.6514 123.569C84.0504 123.173 83.4546 122.782 82.8828 122.354C82.7405 122.246 82.5957 122.143 82.4534 122.035L82.0342 121.703C81.8931 121.595 81.7572 121.479 81.6212 121.365C81.4866 121.249 81.3456 121.14 81.216 121.018L80.817 120.663L80.4295 120.297C80.1716 120.051 79.9201 119.798 79.6749 119.54C79.1857 119.023 78.708 118.49 78.276 117.916Z" fill="#A65B3C"/>
<path d="M84.6516 111.741C85.2589 112.107 85.8586 112.481 86.4608 112.852C87.0605 113.227 87.6614 113.599 88.2535 113.981C88.8493 114.362 89.4414 114.746 90.0322 115.134L91.8096 116.297C91.5415 116.065 91.2671 115.839 90.9914 115.616C90.7119 115.397 90.4324 115.178 90.1452 114.971C89.576 114.547 88.9853 114.152 88.3907 113.767C87.7923 113.385 87.1824 113.021 86.5599 112.681C85.9386 112.337 85.3034 112.019 84.6504 111.741H84.6516Z" fill="#A65B3C"/>
<path d="M116.827 191.06C116.573 190.368 116.098 189.759 115.513 189.294C115.221 189.06 114.896 188.868 114.556 188.71C114.214 188.555 113.852 188.447 113.486 188.369C112.751 188.217 111.994 188.229 111.262 188.332C110.528 188.435 109.818 188.652 109.138 188.928C109.317 188.887 109.495 188.844 109.672 188.798C109.851 188.758 110.03 188.724 110.208 188.687L110.745 188.594C110.926 188.575 111.105 188.546 111.285 188.53C111.466 188.519 111.646 188.496 111.826 188.495L112.097 188.488L112.366 188.495C112.547 188.495 112.725 188.518 112.904 188.531C113.082 188.556 113.26 188.577 113.434 188.617C114.136 188.753 114.808 189.036 115.393 189.451C115.685 189.66 115.953 189.903 116.196 190.171C116.44 190.438 116.654 190.736 116.825 191.06H116.827Z" fill="#A65B3C"/>
<path d="M121.609 192.768C120.413 193.744 119.452 194.995 118.695 196.344C117.94 197.699 117.41 199.181 117.122 200.708C116.841 202.235 116.784 203.803 116.957 205.343C117.119 206.884 117.487 208.398 118.01 209.846C117.581 208.366 117.282 206.851 117.154 205.324C117.113 204.942 117.111 204.56 117.092 204.177C117.084 203.986 117.092 203.794 117.092 203.603C117.094 203.412 117.092 203.22 117.108 203.03L117.14 202.457L117.198 201.888C117.215 201.697 117.244 201.509 117.274 201.319C117.306 201.131 117.327 200.94 117.37 200.755C117.502 200.002 117.71 199.264 117.958 198.542C118.206 197.819 118.513 197.117 118.868 196.438C119.225 195.762 119.631 195.109 120.085 194.491C120.541 193.875 121.04 193.287 121.609 192.768Z" fill="#A65B3C"/>
<path d="M116.827 191.06C115.94 191.117 115.065 191.337 114.23 191.65C113.811 191.805 113.404 191.992 113.006 192.196C112.609 192.403 112.228 192.638 111.857 192.89C111.12 193.4 110.449 194.004 109.862 194.678C109.278 195.355 108.782 196.105 108.387 196.9C108.869 196.153 109.411 195.455 110.01 194.812C110.317 194.498 110.625 194.184 110.963 193.904C111.295 193.618 111.638 193.345 112.002 193.1C112.72 192.598 113.495 192.178 114.303 191.833C114.708 191.663 115.12 191.508 115.541 191.379C115.962 191.246 116.39 191.138 116.827 191.06Z" fill="#A65B3C"/>
<path d="M109.138 188.928C107.769 189.267 106.383 189.525 104.991 189.736C103.6 189.954 102.2 190.117 100.797 190.234C97.9917 190.471 95.1724 190.521 92.3634 190.372C90.9595 190.296 89.5569 190.175 88.1606 190C87.8125 189.954 87.4644 189.9 87.1163 189.852L86.5941 189.777L86.0745 189.687C85.7276 189.626 85.3808 189.568 85.0352 189.504L84.001 189.298C83.6554 189.233 83.3137 189.15 82.9706 189.07C82.6289 188.989 82.2846 188.916 81.9441 188.826C81.2656 188.641 80.5808 188.472 79.91 188.257C78.5544 187.873 77.2344 187.379 75.9143 186.881C78.5023 188.002 81.2008 188.879 83.9591 189.488L84.9945 189.713C85.3414 189.782 85.6895 189.841 86.0363 189.904L86.5572 189.998L87.0807 190.077C87.4301 190.128 87.7794 190.184 88.1288 190.231C89.5302 190.414 90.9379 190.544 92.3481 190.628C93.7597 190.695 95.1724 190.712 96.5852 190.681C97.9967 190.649 99.4083 190.573 100.813 190.429C103.621 190.147 106.421 189.697 109.136 188.93L109.138 188.928Z" fill="#A65B3C"/>
<path d="M121.609 192.768C121.401 192.368 121.082 192.028 120.721 191.749C120.36 191.47 119.948 191.256 119.513 191.109C119.404 191.074 119.292 191.049 119.181 191.018C119.126 191.004 119.071 190.988 119.015 190.978L118.846 190.951C118.733 190.936 118.621 190.914 118.507 190.906C118.394 190.9 118.279 190.896 118.166 190.892C118.109 190.892 118.053 190.887 117.996 190.889L117.826 190.9L117.488 190.928C117.264 190.961 117.043 191.009 116.826 191.06C117.052 191.065 117.273 191.051 117.494 191.053L117.826 191.067L117.991 191.072C118.046 191.075 118.1 191.084 118.155 191.089C118.264 191.103 118.372 191.116 118.481 191.126C118.589 191.14 118.696 191.167 118.803 191.187L118.963 191.218C119.016 191.228 119.068 191.246 119.12 191.26C119.225 191.29 119.33 191.316 119.433 191.35C119.846 191.485 120.239 191.676 120.606 191.911C120.972 192.147 121.313 192.43 121.608 192.768H121.609Z" fill="#A65B3C"/>
<path d="M146.988 157.739C146.523 157.637 146.043 157.626 145.569 157.673C145.095 157.717 144.625 157.83 144.182 158.008C143.289 158.359 142.509 158.972 141.908 159.719C141.601 160.089 141.351 160.5 141.119 160.917C141.012 161.13 140.896 161.34 140.806 161.562L140.663 161.89L140.537 162.225C140.368 162.672 140.238 163.132 140.124 163.594C140.012 164.057 139.926 164.526 139.832 164.986L139.697 165.682C139.65 165.913 139.597 166.142 139.546 166.374L139.392 167.064L139.219 167.751C138.993 168.668 138.723 169.573 138.423 170.47C137.829 172.264 137.089 174.009 136.225 175.689C135.36 177.368 134.388 178.989 133.317 180.539C132.246 182.092 131.051 183.553 129.811 184.976C127.319 187.808 124.583 190.431 121.601 192.757L121.617 192.777C124.695 190.576 127.499 187.989 130.008 185.149C130.633 184.437 131.251 183.719 131.834 182.971C132.122 182.594 132.421 182.226 132.694 181.838L133.111 181.262C133.251 181.071 133.379 180.87 133.512 180.675C134.578 179.106 135.525 177.458 136.348 175.751C136.558 175.327 136.747 174.892 136.946 174.463L137.505 173.157C137.677 172.716 137.857 172.278 138.023 171.834C138.179 171.388 138.358 170.949 138.505 170.499C138.654 170.05 138.814 169.604 138.947 169.15C139.088 168.698 139.233 168.247 139.355 167.789L139.547 167.105L139.72 166.416C139.776 166.185 139.837 165.957 139.889 165.725L140.039 165.029C140.138 164.564 140.227 164.104 140.341 163.648C140.457 163.193 140.589 162.743 140.748 162.303L140.868 161.972L141.006 161.649C141.092 161.432 141.203 161.226 141.305 161.016C141.529 160.606 141.768 160.203 142.063 159.841C142.354 159.478 142.676 159.139 143.041 158.849C143.404 158.558 143.807 158.316 144.235 158.133C145.092 157.768 146.056 157.624 146.986 157.765L146.992 157.741L146.988 157.739Z" fill="#A65B3C"/>
<path d="M166.22 174.198C166.479 175.1 166.598 176.034 166.649 176.966C166.706 177.898 166.677 178.834 166.59 179.762C166.41 181.619 166.004 183.453 165.38 185.212C164.788 186.982 163.98 188.674 163.069 190.305L162.9 190.611L162.721 190.913L162.361 191.514C162.119 191.913 161.857 192.301 161.605 192.697L160.815 193.858C160.537 194.234 160.261 194.613 159.987 194.994C160.283 194.63 160.578 194.265 160.869 193.897L161.708 192.767C161.971 192.378 162.243 191.995 162.497 191.599L162.873 191.004L163.061 190.707L163.239 190.403C164.192 188.783 165.005 187.075 165.621 185.294C165.924 184.403 166.184 183.495 166.377 182.573C166.572 181.651 166.72 180.719 166.784 179.778C166.849 178.838 166.856 177.893 166.773 176.956C166.732 176.486 166.665 176.021 166.578 175.559C166.49 175.098 166.381 174.639 166.22 174.198Z" fill="#A65B3C"/>
<path d="M159.249 195.9C159.011 196.143 158.776 196.386 158.544 196.632C158.308 196.873 158.087 197.129 157.83 197.351C157.333 197.809 156.855 198.287 156.327 198.707L155.939 199.031C155.809 199.137 155.687 199.254 155.548 199.352L154.74 199.96C154.476 200.168 154.191 200.35 153.913 200.54C153.632 200.725 153.36 200.926 153.068 201.093L152.205 201.619L151.319 202.104C150.723 202.418 150.117 202.713 149.499 202.983C148.263 203.519 146.991 203.987 145.671 204.29C146.343 204.197 147 204.024 147.655 203.842C148.304 203.644 148.948 203.426 149.575 203.166C149.889 203.035 150.207 202.913 150.512 202.761L150.973 202.544C151.127 202.473 151.28 202.4 151.43 202.317L152.33 201.835L153.204 201.309C154.346 200.574 155.458 199.779 156.456 198.856C156.977 198.418 157.44 197.919 157.918 197.438C158.161 197.201 158.369 196.932 158.592 196.676C158.813 196.419 159.032 196.16 159.248 195.9H159.249Z" fill="#A65B3C"/>
<path d="M148.24 161.347C148.721 162.185 149.261 162.986 149.814 163.778C150.375 164.564 150.965 165.332 151.579 166.079C152.811 167.569 154.161 168.967 155.638 170.223C156.381 170.845 157.16 171.426 157.976 171.951C158.791 172.475 159.644 172.948 160.541 173.321C161.438 173.691 162.37 173.985 163.328 174.141C164.285 174.298 165.263 174.322 166.22 174.197C165.738 174.232 165.257 174.234 164.776 174.207C164.296 174.182 163.82 174.112 163.35 174.019C162.407 173.84 161.493 173.53 160.618 173.143C158.866 172.362 157.264 171.271 155.802 170.03C155.064 169.416 154.36 168.759 153.683 168.078C153.005 167.395 152.36 166.68 151.728 165.954C151.1 165.225 150.495 164.474 149.914 163.706C149.329 162.94 148.77 162.154 148.24 161.347Z" fill="#A65B3C"/>
<path d="M152.917 141.625C152.541 141.539 152.137 141.565 151.771 141.702C151.401 141.838 151.088 142.103 150.856 142.42C150.629 142.741 150.472 143.109 150.369 143.486C150.266 143.865 150.212 144.253 150.183 144.642C150.165 144.837 150.165 145.032 150.158 145.226L150.167 145.809C150.175 146.193 150.172 146.577 150.162 146.961C150.139 147.729 150.085 148.496 150.005 149.26C149.838 150.787 149.582 152.308 149.162 153.785C148.951 154.522 148.701 155.25 148.367 155.94C148.034 156.625 147.617 157.297 146.987 157.751C147.32 157.554 147.602 157.277 147.846 156.976C148.089 156.672 148.3 156.344 148.485 156.001C148.854 155.316 149.131 154.586 149.362 153.846C149.818 152.361 150.094 150.828 150.252 149.287C150.331 148.516 150.378 147.742 150.386 146.966C150.391 146.578 150.386 146.19 150.366 145.802C150.354 145.608 150.35 145.42 150.344 145.227C150.346 145.037 150.343 144.845 150.357 144.655C150.392 143.897 150.528 143.12 150.94 142.479C151.151 142.168 151.44 141.902 151.792 141.756C152.143 141.611 152.538 141.561 152.918 141.626L152.917 141.625Z" fill="#A65B3C"/>
<path d="M159.987 194.995C159.812 196.282 159.581 197.559 159.311 198.828C159.045 200.097 158.742 201.359 158.398 202.609C158.05 203.857 157.685 205.101 157.26 206.325C156.839 207.549 156.375 208.76 155.867 209.95C155.36 211.142 154.804 212.311 154.2 213.456C153.594 214.601 152.913 215.702 152.202 216.783C151.479 217.857 150.682 218.879 149.832 219.856C148.976 220.827 148.041 221.726 147.056 222.573C147.556 222.16 148.074 221.765 148.539 221.311L148.897 220.98C148.957 220.924 149.018 220.871 149.075 220.813L149.245 220.639L149.926 219.94C150.798 218.974 151.617 217.961 152.364 216.894C152.552 216.628 152.728 216.353 152.909 216.084L153.178 215.676L153.43 215.258C153.597 214.979 153.773 214.704 153.93 214.419L154.406 213.567C155.02 212.419 155.588 211.247 156.104 210.052C157.107 207.65 157.944 205.18 158.589 202.66C158.911 201.399 159.193 200.13 159.436 198.853C159.665 197.574 159.873 196.289 159.991 194.996L159.987 194.995Z" fill="#A65B3C"/>
<path d="M166.22 174.199C166.562 173.811 166.862 173.387 167.141 172.951C167.283 172.735 167.412 172.51 167.543 172.287C167.667 172.061 167.79 171.833 167.906 171.602C168.023 171.37 168.128 171.134 168.235 170.898C168.332 170.658 168.438 170.423 168.521 170.176C168.704 169.692 168.845 169.192 168.954 168.687C168.744 169.16 168.553 169.636 168.338 170.101C168.127 170.568 167.91 171.031 167.679 171.487C167.454 171.946 167.214 172.399 166.971 172.85C166.727 173.302 166.477 173.75 166.22 174.199Z" fill="#A65B3C"/>
<path d="M166.22 120.893C165.093 120.261 163.983 119.599 162.89 118.912C161.794 118.229 160.711 117.524 159.645 116.797C158.582 116.066 157.521 115.33 156.487 114.558C155.45 113.788 154.432 112.995 153.434 112.178C152.434 111.363 151.456 110.521 150.5 109.654C149.549 108.783 148.633 107.875 147.732 106.95C146.843 106.015 145.989 105.048 145.177 104.044C144.369 103.037 143.616 101.988 142.909 100.904C143.566 102.018 144.302 103.085 145.079 104.122C145.873 105.144 146.716 106.13 147.591 107.085C148.473 108.034 149.398 108.942 150.345 109.824C151.299 110.7 152.275 111.551 153.274 112.375C155.289 114.001 157.375 115.539 159.539 116.959C160.62 117.668 161.716 118.356 162.828 119.017C163.945 119.67 165.068 120.311 166.223 120.893H166.22Z" fill="#A65B3C"/>
<path d="M164.268 108.551C163.919 106.267 163.43 104.006 162.869 101.765C162.591 100.644 162.274 99.531 161.944 98.4233C161.614 97.3157 161.253 96.2169 160.869 95.1258C160.482 94.0359 160.058 92.9587 159.605 91.8943C159.153 90.8299 158.669 89.7769 158.122 88.757C157.05 86.7095 155.776 84.7473 154.177 83.0775C154.94 83.9461 155.624 84.8744 156.243 85.846C156.394 86.0902 156.56 86.3267 156.702 86.5773L157.139 87.3212C157.415 87.8274 157.695 88.3297 157.948 88.8473C158.078 89.1042 158.209 89.3598 158.328 89.623L158.699 90.4026C158.934 90.9278 159.173 91.4518 159.391 91.9859C159.836 93.0478 160.249 94.1236 160.63 95.2122C161.415 97.3792 162.075 99.5908 162.681 101.816C162.984 102.929 163.265 104.048 163.528 105.171C163.797 106.293 164.044 107.421 164.268 108.554V108.551Z" fill="#A65B3C"/>
<path d="M139.115 95.5886C138.856 95.1181 138.588 94.6526 138.314 94.191C138.04 93.7293 137.763 93.2677 137.483 92.8099C136.919 91.8955 136.337 90.9926 135.746 90.0948C134.561 88.3017 133.309 86.5543 132.02 84.8337L131.027 83.5632C130.863 83.3496 130.694 83.141 130.523 82.935L130.011 82.3119L129.499 81.6887C129.329 81.4814 129.148 81.2818 128.973 81.077C128.621 80.6714 128.269 80.2644 127.909 79.8651C127.171 79.083 126.451 78.2843 125.675 77.5417C124.919 76.7774 124.104 76.0741 123.301 75.3619C124.066 76.1161 124.862 76.8359 125.586 77.6294C126.343 78.3886 127.046 79.2 127.763 79.9948C129.163 81.6188 130.524 83.2758 131.816 84.9876C133.119 86.6917 134.366 88.4377 135.583 90.2042C136.193 91.0867 136.792 91.9782 137.377 92.8773C137.973 93.77 138.546 94.6781 139.114 95.5886H139.115Z" fill="#A65B3C"/>
<path d="M168.72 0H169.19V257H168.72V0Z" fill="#1B1A2E"/>
<path d="M168.729 150.29L166.22 157.142C152.015 150.669 152.411 143.761 152.411 143.761C152.411 143.761 153.997 137.715 154.022 128.11C154.032 124.44 156.778 121.38 159.367 119.37C161.495 117.718 164.053 116.714 166.728 116.412C168.506 116.211 170.305 116.332 172.04 116.768C174.083 117.282 176.8 117.936 178.083 118.12C180.287 118.435 179.531 121.964 177.012 122.784C177.012 122.784 182.311 122.866 183.373 124.947C184.788 127.722 182.574 128.429 180.008 128.677C180.008 128.677 184.973 129.644 183.911 132.76C182.977 135.496 175.945 134.331 172.338 135.289L168.449 136.266L173.794 136.149C173.794 136.149 180.619 136.724 180.238 138.395C179.987 139.495 177.267 141.153 173.589 140.314L168.729 142.446V150.289V150.29Z" fill="#FFC89F"/>
<path d="M180.008 128.679L178.241 128.482L176.472 128.295C175.293 128.167 174.113 128.054 172.934 127.937H172.924L172.913 127.939C172.151 128.125 171.39 128.316 170.63 128.51L168.349 129.087C166.829 129.48 165.309 129.872 163.795 130.282C165.325 129.93 166.849 129.56 168.374 129.191L170.658 128.627C171.421 128.44 172.182 128.249 172.941 128.056H172.921C174.101 128.166 175.282 128.281 176.463 128.382L178.235 128.536L180.008 128.68V128.679Z" fill="#FF9A6C"/>
<path d="M177.944 122.838C176.845 122.683 175.745 122.539 174.645 122.398C173.545 122.254 172.443 122.126 171.342 121.99H171.335H171.328C170.699 122.051 170.071 122.123 169.443 122.189L167.559 122.394L165.676 122.609L163.795 122.838L165.683 122.674L167.569 122.496L169.455 122.306C170.084 122.241 170.713 122.182 171.34 122.113H171.326C172.429 122.239 173.531 122.372 174.633 122.491C175.736 122.613 176.839 122.731 177.944 122.838Z" fill="#FF9A6C"/>
<path d="M170.629 135.719C170.146 135.817 169.666 135.929 169.187 136.042C168.708 136.155 168.231 136.28 167.753 136.398C167.277 136.526 166.8 136.65 166.326 136.782L165.616 136.984C165.379 137.057 165.143 137.124 164.908 137.199C165.149 137.151 165.389 137.096 165.631 137.044L166.35 136.876C166.829 136.763 167.305 136.638 167.784 136.52C168.259 136.392 168.737 136.268 169.211 136.135C169.685 136.001 170.159 135.866 170.629 135.718V135.719Z" fill="#FF9A6C"/>
<path d="M168.719 94.219C168.719 94.219 166.238 93.4153 164.21 93.2042C163.685 93.1495 163.171 93.0223 162.688 92.8087C161.293 92.1906 158.228 90.9621 155.905 90.9392C152.8 90.9087 156.558 84.4179 163.967 87.3098C163.967 87.3098 161.078 83.0673 164.658 78.8554C164.658 78.8554 160.342 76.1822 163.591 70.1505C163.591 70.1505 159.855 67.6681 162.712 62.9856C162.712 62.9856 159.575 55.3401 168.72 54.2845V58.1226L170.109 59.3167C170.109 59.3167 175.934 57.3189 177.931 62.0687C177.931 62.0687 182.214 61.6681 184.67 63.2044C186.302 64.2256 185.905 66.7461 184.046 67.2484C184.026 67.2535 184.007 67.2586 183.986 67.2637C183.986 67.2637 186.313 68.0763 185.966 70.0309C185.674 71.6804 183.521 72.713 183.521 72.713C183.521 72.713 184.493 76.0411 180.557 78.4141C176.621 80.7871 174.44 82.2585 174.44 82.2585L168.72 86.7222V94.219H168.719Z" fill="#FFC89F"/>
<path d="M164.659 78.8477C165.06 78.9711 165.479 79.0181 165.894 79.0308C166.311 79.0385 166.728 79.0092 167.137 78.9367C167.343 78.9075 167.543 78.8515 167.747 78.8096C167.945 78.7472 168.147 78.6964 168.343 78.6252L168.635 78.5145C168.733 78.4789 168.83 78.4446 168.925 78.3988C169.113 78.3098 169.307 78.2335 169.491 78.1343C169.674 78.0338 169.861 77.941 170.043 77.8392L170.575 77.5073C170.929 77.281 171.289 77.0584 171.662 76.8664C172.409 76.4798 173.182 76.1453 173.965 75.8401C174.748 75.5349 175.544 75.2627 176.347 75.0148C177.15 74.7655 177.955 74.529 178.764 74.3064C179.571 74.0775 180.383 73.8613 181.186 73.6222C181.586 73.5001 181.988 73.3793 182.38 73.2356C182.772 73.0907 183.165 72.9393 183.514 72.7053L183.522 72.718C183.183 72.9711 182.797 73.1492 182.408 73.3094C182.018 73.4671 181.621 73.6082 181.222 73.7392C180.422 73.9987 179.616 74.2352 178.808 74.4628C177.194 74.9245 175.577 75.367 173.994 75.9215C173.205 76.2013 172.423 76.5154 171.687 76.9147C171.314 77.1093 170.966 77.3407 170.623 77.5798L170.098 77.9333C169.918 78.0427 169.734 78.1457 169.55 78.25C168.803 78.643 167.995 78.9355 167.155 79.0563C166.32 79.1733 165.447 79.1567 164.653 78.863L164.659 78.849V78.8477Z" fill="#FF9A6C"/>
<path d="M163.594 70.1442C163.944 70.4112 164.354 70.5867 164.774 70.7088C165.195 70.8309 165.631 70.8805 166.067 70.9072C166.942 70.9364 167.815 70.7902 168.66 70.5613C168.87 70.4977 169.084 70.4468 169.291 70.3756L169.913 70.1531C170.328 70.003 170.736 69.8326 171.15 69.68C171.975 69.3646 172.806 69.0645 173.639 68.7733C175.311 68.2023 177.019 67.7203 178.763 67.4163L179.089 67.3578L179.418 67.3095C179.638 67.279 179.856 67.2421 180.077 67.2192L180.737 67.1544C180.957 67.1315 181.179 67.1264 181.4 67.1124C182.285 67.073 183.174 67.0959 184.047 67.2396L184.044 67.2548C183.166 67.1594 182.283 67.1734 181.407 67.2345C180.529 67.2917 179.657 67.424 178.791 67.5753C177.924 67.7279 177.066 67.9263 176.21 68.1374C175.357 68.3549 174.509 68.5978 173.666 68.8546C172.826 69.1217 171.987 69.4002 171.169 69.7309C170.346 70.0437 169.552 70.4443 168.696 70.6872C167.844 70.9364 166.952 71.0712 166.062 71.028C165.617 70.9962 165.175 70.9237 164.751 70.7889L164.437 70.6732C164.336 70.6249 164.234 70.5816 164.136 70.5295C163.939 70.4252 163.749 70.3069 163.586 70.1569L163.596 70.1454L163.594 70.1442Z" fill="#FF9A6C"/>
<path d="M177.936 62.0649L178.039 62.3155C178.073 62.3981 178.11 62.4833 178.12 62.5774C178.148 62.7618 178.101 62.959 177.992 63.1141C177.885 63.2718 177.715 63.3837 177.528 63.4282C177.339 63.46 177.168 63.4715 176.987 63.4918C176.273 63.5668 175.561 63.6584 174.85 63.7512C173.429 63.9305 171.994 64.1506 170.658 64.6796C170.493 64.747 170.332 64.8208 170.162 64.8907C169.993 64.9581 169.817 65.0102 169.638 65.0509C169.281 65.1349 168.915 65.1514 168.556 65.1641C167.834 65.1934 167.107 65.159 166.392 65.0471C165.676 64.9403 164.969 64.7368 164.32 64.4074C163.673 64.0793 163.091 63.6012 162.704 62.9908L162.717 62.9818C163.143 63.563 163.732 63.9967 164.373 64.2981C165.016 64.602 165.712 64.7813 166.416 64.8882C167.121 64.9886 167.837 65.0344 168.551 65.0179C168.909 65.0077 169.266 65.0026 169.612 64.9301C169.784 64.8945 169.956 64.8487 170.124 64.7915C170.289 64.733 170.458 64.6631 170.627 64.6007C171.306 64.354 172.009 64.1938 172.71 64.0323C173.413 63.881 174.119 63.736 174.831 63.6241C175.542 63.5134 176.257 63.4371 176.975 63.3735C177.151 63.3545 177.341 63.3494 177.506 63.3278C177.669 63.2947 177.824 63.2044 177.924 63.0658C178.026 62.931 178.082 62.7568 178.067 62.5838C178.063 62.4973 178.032 62.4134 178.004 62.3282L177.922 62.0713L177.936 62.0649Z" fill="#FF9A6C"/>
<path d="M163.76 86.96C163.882 87.1736 164.033 87.3682 164.207 87.5373C164.38 87.7052 164.574 87.854 164.79 87.9557C165.22 88.1668 165.714 88.205 166.182 88.1096C166.652 88.0142 167.096 87.8108 167.516 87.564C167.726 87.442 167.93 87.3072 168.128 87.1635C168.331 87.0261 168.521 86.871 168.719 86.7222C168.373 87.0732 167.993 87.3936 167.579 87.6658C167.373 87.8057 167.152 87.9214 166.927 88.0295C166.697 88.1274 166.46 88.2113 166.212 88.2635C165.964 88.3093 165.708 88.3271 165.455 88.2953C165.203 88.2635 164.956 88.1872 164.734 88.0626C164.291 87.8158 163.949 87.4153 163.76 86.96Z" fill="#FF9A6C"/>
<path d="M168.719 58.1226C168.387 58.0831 168.067 58.0374 167.744 58.0119C167.583 57.9954 167.423 57.9916 167.26 57.9865C167.098 57.9827 166.936 57.9916 166.769 57.9967C167.076 57.858 167.424 57.8288 167.757 57.8555C167.923 57.8708 168.09 57.8975 168.251 57.942C168.413 57.9852 168.571 58.0412 168.719 58.1226Z" fill="#FF9A6C"/>
</g>
<defs>
<clipPath id="clip0_1577_197">
<rect width="186" height="257" fill="white" transform="matrix(-1 0 0 1 186 0)"/>
</clipPath>
</defs>
</svg>
