<svg width="1891" height="820" viewBox="0 0 1891 820" fill="none" xmlns="http://www.w3.org/2000/svg">
<g style="mix-blend-mode:plus-darker" opacity="0.04">
<path d="M1527.17 158.573C1533.49 160.547 1539.26 160.1 1545.24 157.219C1552.24 153.85 1559.39 150.493 1566.16 146.669C1580.64 138.511 1593.63 127.747 1607.79 118.994C1622.67 109.791 1637.96 101.313 1652.65 91.7903C1667.16 82.3902 1682.02 73.693 1696.79 64.6854C1711.7 55.5789 1726.75 46.6972 1741.58 37.4889C1756.08 28.4932 1770.96 18.7863 1787.41 13.7228C1796.07 11.0568 1806.01 9.09923 1815.09 9.05124C1823.09 9.00594 1830.8 11.8463 1838.61 13.1129C1842.55 13.7575 1846.14 15.3315 1849.95 16.405C1853.28 17.336 1856.89 17.0731 1860.15 18.0933C1863.79 19.2185 1865.23 23.6756 1865.54 27.1542C1865.96 31.9379 1863.35 35.4525 1859.98 38.4967C1846.51 50.6401 1830.63 59.886 1816.6 71.4229C1809.52 77.2502 1802.56 83.2339 1794.86 88.2301C1787.18 93.2139 1778.06 98.7776 1768.76 94.6812C1768.52 95.5365 1768.28 96.3832 1768.04 97.2385C1775.1 98.2654 1782.12 97.4825 1789.15 96.5087C1797.08 95.4027 1805.04 94.7074 1812.99 93.8409C1826.57 92.3635 1842.43 89.6691 1853.61 81.1725C1855.6 79.6585 1857.35 77.8612 1859.53 76.5658C1861.84 75.1939 1866.94 74.1031 1863.14 77.6128C1859.7 80.797 1855.08 83.0163 1850.85 84.8866C1843.43 88.1555 1835.57 90.2502 1828.08 93.3267C1821.05 96.2156 1814.18 99.3977 1807.27 102.573C1792.79 109.219 1777.76 114.703 1762.76 120.042C1747.36 125.521 1732.14 131.472 1716.77 136.997C1704.87 141.282 1692.79 145.134 1680.98 149.677C1675.4 151.824 1664.52 155.115 1661.85 161.207C1658.98 167.715 1668.73 167.586 1672.38 167.015C1679.81 165.851 1688.83 163.714 1694.98 159.231C1700.73 155.038 1705.17 148.882 1710.25 143.935C1715.58 138.746 1720.25 132.964 1725.7 127.911C1730.76 123.219 1736.26 119.027 1742.12 115.385C1748.84 111.204 1756 108.42 1763.29 105.419C1766.97 103.898 1782.62 99.7385 1778.9 92.7203C1775.78 86.827 1759.81 92.7982 1756 94.4362C1749.18 97.3492 1742.83 101.263 1736.21 104.564C1729 108.161 1721.89 111.937 1714.89 115.95C1701.55 123.583 1688.95 131.762 1677.57 142.137C1673.84 145.538 1670.09 148.859 1666.93 152.804C1665.14 155.04 1662.49 158.287 1662.84 161.388C1663.88 170.72 1684.52 162.411 1688.86 160.749C1703.87 155.016 1718.1 147.293 1732.87 140.984C1747.09 134.915 1761.51 129.758 1775.42 123.031C1780.83 120.411 1786.97 119.526 1792.14 116.533C1793.44 115.779 1792.3 114.126 1791.16 114.135C1778.53 114.185 1774.7 135.894 1789.37 134.788C1795.99 134.285 1799.53 127.08 1796.02 121.417C1793 116.568 1783.63 114.606 1778.94 118.055C1774.41 121.382 1774.52 131.393 1777.8 135.473C1782.21 140.936 1791.49 143.675 1798.21 142.476C1811.23 140.151 1821.22 121.241 1809.24 111.45C1797.95 102.218 1784.6 123.232 1785.35 132.994C1785.91 140.28 1793.57 143.197 1800.02 143.312C1809.8 143.49 1820.02 138.165 1828.23 133.327C1836.38 128.517 1844.69 121.773 1848.73 112.985C1851.76 106.386 1852.5 96.2901 1845.32 92.0641C1841.54 89.8385 1836.8 89.1823 1832.57 88.3523C1826 87.0834 1819.91 85.2523 1813.16 85.1253C1801.24 84.897 1789.48 87.4399 1777.93 90.0689C1764.38 93.1439 1753.1 99.8195 1740.53 105.424C1728.26 110.902 1716.51 117.303 1705.11 124.416C1694.17 131.251 1685.4 139.824 1676.45 148.945C1672.51 152.955 1668.43 157.012 1664.39 160.925C1663 162.264 1660.41 164.649 1660.17 166.541C1660.04 167.646 1661.05 168.237 1662.01 167.977C1662.26 167.907 1662.5 167.847 1662.74 167.777C1663.13 167.668 1663.55 167.143 1663.56 166.729C1663.57 166.476 1663.57 166.224 1663.58 165.971C1663.61 164.265 1660.96 163.855 1660.92 165.582C1660.95 165.549 1660.98 165.525 1660.99 165.493L1662.83 166.93C1663.15 164.342 1668.38 161.019 1670.06 158.958C1672.1 156.451 1674.51 154.553 1676.84 152.382C1679.88 149.541 1682.39 146.18 1685.38 143.294C1697.04 132.047 1710.84 123.48 1725.07 115.868C1732.41 111.944 1740.09 108.803 1747.51 105.08C1754.61 101.518 1761.62 97.5029 1769.2 95.0306C1777.1 92.4375 1785.7 90.8975 1793.89 89.4982C1801.79 88.154 1809.88 87.2915 1817.9 88.0587C1821.89 88.4354 1825.64 89.5261 1829.52 90.4298C1833.43 91.3397 1837.38 91.8317 1841.18 93.1879C1851.14 96.74 1848.82 108.5 1844.19 115.609C1836.54 127.339 1821.53 135.521 1808.36 139.386C1801.95 141.261 1788.26 141.895 1787.99 132.347C1787.83 126.836 1791.3 121.16 1794.8 117.144C1799.4 111.863 1806.45 109.535 1810.21 117.124C1813.1 122.955 1811.44 129.898 1807.18 134.594C1801.81 140.503 1793.39 141.447 1786.38 138.087C1782.79 136.371 1778.94 134.396 1778.4 130.05C1777.95 126.398 1778.2 120.705 1782.32 119.473C1785.74 118.458 1791.39 119.557 1793.52 122.539C1797.99 128.791 1789.56 134.945 1784.26 130.761C1778.23 126 1785.52 116.823 1791.43 116.802C1791.1 116.006 1790.78 115.199 1790.45 114.403C1787.68 116.003 1784.63 116.569 1781.61 117.465C1778.78 118.296 1776.19 119.651 1773.54 120.944C1767.15 124.047 1761 127.09 1754.29 129.486C1740.44 134.432 1726.93 140.495 1713.59 146.678C1700.86 152.574 1687.72 160.154 1673.68 162.322C1671.55 162.655 1665.59 164.012 1665.5 160.406C1665.45 158.426 1667.83 155.918 1668.99 154.476C1672.38 150.251 1676.47 146.706 1680.46 143.081C1701.36 124.182 1727.83 111.156 1752.96 98.7996C1758.24 96.196 1763.5 94.401 1769.34 93.6529C1770.85 93.4576 1773.96 92.6318 1775.33 93.4211C1778.93 95.4975 1772.73 98.6263 1771.11 99.3697C1760.85 104.086 1750.12 107.269 1740.45 113.273C1729.96 119.801 1721.68 128.062 1713.34 137.046C1708.92 141.811 1704 146.043 1699.73 150.931C1696 155.187 1692.11 158.547 1686.72 160.377C1683.77 161.374 1665.04 168.24 1664.13 163.023C1663.65 160.271 1671.2 156.955 1672.92 156.099C1676.51 154.318 1680.23 152.802 1684 151.422C1708.81 142.308 1733.7 133.306 1758.59 124.394C1771.81 119.656 1784.91 114.742 1797.94 109.504C1811.11 104.208 1823.65 97.5582 1837.07 92.8568C1846.53 89.5487 1858.83 86.4549 1865.91 78.6729C1867.26 77.1873 1868.55 75.1248 1866.7 73.4576C1864.27 71.2484 1860.15 73.0743 1857.88 74.4612C1855.85 75.7085 1854.14 77.3186 1852.29 78.7858C1848.93 81.4344 1844.87 83.274 1840.91 84.8385C1833.09 87.9255 1824.79 89.6905 1816.47 90.7535C1808.38 91.7772 1800.24 92.2837 1792.17 93.3868C1784.26 94.4692 1776.39 95.7489 1768.42 94.6023C1766.91 94.3846 1766.29 96.5465 1767.7 97.1596C1780.98 103.013 1795.06 91.9131 1805.06 84.2563C1819.44 73.2509 1833.14 61.7133 1848.1 51.4522C1853.92 47.4629 1860.4 42.7979 1864.91 37.2964C1868.33 33.1187 1869.03 28.0545 1867.39 22.957C1865.2 16.164 1861.24 15.5517 1854.73 14.6996C1850.69 14.1677 1847.04 12.5104 1843.17 11.3947C1839.39 10.2977 1835.43 9.94714 1831.6 9.02747C1823.06 6.96427 1815.54 6.02449 1806.81 7.15729C1798.29 8.26448 1789.86 9.79478 1781.79 12.8515C1765.22 19.1389 1750.29 29.0243 1735.28 38.2732C1718.96 48.3393 1702.52 58.3381 1686.01 68.085C1670.19 77.424 1654.91 87.5232 1639.28 97.1516C1621.31 108.225 1602.8 118.298 1585.48 130.421C1576.51 136.702 1567.99 143.078 1558.1 147.921C1553.91 149.967 1549.75 151.888 1545.63 154.048C1539.97 157.009 1534.46 158.079 1528.23 156.125C1526.59 155.611 1525.52 158.071 1527.17 158.592L1527.17 158.573Z" fill="#010202"/>
<path d="M1661.11 166.346C1656.27 168.452 1652.47 171.91 1648.51 175.329C1644.33 178.946 1639.77 181.35 1635.09 184.212C1630 187.326 1623.22 194.426 1627.35 200.759C1629.72 204.387 1636.39 208.726 1639.53 203.474C1642.24 198.94 1638.62 192.352 1637.88 187.718C1637.61 186.018 1635.04 186.324 1635.22 188.045C1635.7 192.732 1635.72 197.404 1636.98 201.974C1637.15 202.578 1637.84 202.805 1638.38 202.789C1645.42 202.7 1652.83 200.158 1653.04 191.88C1653.23 184.462 1646.81 178.863 1639.66 181.021C1638.81 181.276 1638.61 182.439 1639.1 183.074C1642.79 187.871 1649.61 183.979 1653.59 181.627C1657.19 179.491 1660.59 177.008 1664.02 174.593C1666.64 172.749 1669.79 169.843 1673.03 169.233C1674.72 168.914 1674.41 166.253 1672.7 166.573C1666.35 167.767 1646.46 188.236 1641.24 181.441C1641.05 182.129 1640.87 182.806 1640.69 183.494C1649.98 180.679 1653.87 195.012 1645.82 198.914C1644.57 199.52 1643.16 199.744 1641.8 199.921C1639.7 200.2 1639.32 200.639 1638.79 198.014C1638.13 194.659 1638.24 191.1 1637.89 187.707L1635.23 188.034C1635.75 191.314 1637.08 194.435 1637.49 197.74C1637.81 200.331 1637.67 203.985 1633.9 202.987C1629.36 201.782 1628.08 196.56 1629.95 192.864C1632.94 186.975 1639.85 185.119 1644.95 181.59C1650.84 177.501 1655.44 171.707 1662.14 168.809C1663.71 168.121 1662.7 165.636 1661.12 166.325L1661.11 166.346Z" fill="#010202"/>
<path d="M1709.64 151.838C1714.82 150.899 1719.1 147.925 1723.49 145.179C1729.1 141.679 1735.34 137.909 1741.62 135.798L1739.88 134.027C1737.68 140.937 1731.98 146.866 1733.71 154.684C1734.61 158.784 1738.05 165.928 1743.43 164.371C1750.43 162.342 1745.46 153.834 1744.51 149.841C1743.32 144.888 1747.46 143.655 1749.99 140.452C1751.08 139.09 1752.26 137.1 1751.22 135.395C1749.05 131.833 1741.83 134.321 1739.5 136.381C1734.97 140.343 1734.21 147.298 1734.4 152.937C1734.51 156.178 1736.38 160.199 1735.58 163.32C1734.76 166.524 1731.47 166.062 1730.02 168.719C1728.67 171.191 1729.64 174.297 1730.13 176.855C1730.61 179.346 1730.85 181.836 1732.41 183.93C1735.09 187.511 1740.36 187.236 1741.55 182.496C1742.7 177.88 1736.75 167.257 1744.17 166.566C1745.69 166.431 1745.7 164.112 1744.21 163.902C1735.86 162.742 1738.74 179.698 1744.08 182.265C1752.85 186.457 1759.47 177.644 1756.77 169.512C1754.38 162.32 1743.46 159.411 1740.45 167.739C1738.42 173.379 1741.63 186.465 1749.53 185.736C1754.3 185.302 1755.64 178.346 1755.26 174.554C1754.63 168.132 1749.01 169.035 1744.33 170.779C1742.71 171.381 1743.73 173.865 1745.35 173.263C1747.21 172.571 1750.78 171.014 1752.29 173.186C1753.22 174.522 1752.55 177.597 1752.17 179.014C1750.92 183.632 1747.19 183.536 1744.78 179.822C1742.22 175.895 1740.38 165.592 1747.47 165.306C1754.05 165.03 1757.13 174.545 1752.81 178.966C1749.5 182.355 1743.65 180.272 1742.43 176.04C1741.94 174.337 1740.78 166.138 1743.81 166.571C1743.82 165.683 1743.84 164.794 1743.85 163.906C1740.25 164.237 1738.08 166.056 1737.73 169.696C1737.39 173.264 1740.22 178.175 1739 181.448C1737.84 184.584 1734.53 182.986 1733.63 180.597C1733.09 179.143 1732.95 177.396 1732.65 175.881C1732.45 174.827 1731.9 173.102 1732.04 172.007C1732.53 168.128 1733.76 169.267 1735.78 167.98C1739.81 165.44 1738.02 160.199 1737.4 156.396C1736.49 150.795 1736.59 141.374 1742 137.848C1742.65 137.415 1747.3 135.584 1748.1 136.543C1749.25 137.914 1746.54 140.141 1745.82 140.804C1744.25 142.236 1742.62 143.524 1741.9 145.597C1741.15 147.724 1741.53 149.864 1742.31 151.914C1742.76 153.088 1743.49 154.148 1743.9 155.336C1745.47 158.447 1743.88 160.044 1739.11 160.126C1738.46 159.208 1737.9 158.239 1737.44 157.217C1733.55 148.92 1739.94 142.624 1742.34 135.116C1742.7 133.983 1741.75 132.952 1740.59 133.346C1735 135.221 1729.67 138.476 1724.57 141.41C1719.63 144.243 1715.04 148.162 1709.3 149.201C1707.6 149.51 1707.92 152.171 1709.62 151.86L1709.64 151.838Z" fill="#010202"/>
<path d="M1641.47 184.405C1635.36 188.47 1629.34 192.808 1622.72 196.039C1615.27 199.685 1607.03 200.929 1599.02 202.8C1584.5 206.197 1570.02 210.464 1555.69 214.663C1540.87 219.003 1525.5 221.446 1510.25 223.783C1502.82 224.928 1495.35 224.869 1487.86 225.235C1481.18 225.562 1474.65 226.414 1468.04 227.277C1466.95 227.411 1464.51 227.962 1463.53 227.508C1459.33 225.577 1461.8 223.047 1463.63 221.462C1465.78 219.585 1469.06 218.437 1471.87 218.192C1478.3 217.624 1481.48 227.832 1474.37 228.01C1471.11 228.089 1468.4 224.311 1465.83 222.712C1461.38 219.934 1456.44 221.146 1451.51 221.953C1444.48 223.109 1437.44 223.792 1430.36 224.502C1418.4 225.699 1405.8 227.277 1394.48 231.369C1392.87 231.95 1388.97 233.889 1387.31 232.995C1385.44 231.987 1387.03 230.793 1388.17 229.907C1391.29 227.509 1395.6 226.264 1399.29 225.055C1421.36 217.82 1444.55 215.957 1466.92 210.045C1472.3 208.618 1486.36 204.513 1478.77 196.852C1474.39 192.433 1469.03 191.076 1465.7 185.45C1462.07 179.317 1459.02 172.791 1455.62 166.518C1452.05 159.914 1449.73 152.734 1446.64 145.899C1443.56 139.064 1439.67 132.62 1436.58 125.786C1434.07 120.221 1429.85 111.45 1432.42 105.301C1434.51 100.298 1440.88 98.3766 1445.65 97.0855C1450.81 95.676 1454.77 94.8161 1459.25 98.477C1463.02 101.561 1465.81 105.742 1468.67 109.631C1476.56 120.369 1486.18 130.14 1495.12 140.003C1503.82 149.613 1515.94 158.148 1529.47 156.769C1536.35 156.064 1542.86 153.481 1549.68 152.532C1555.67 151.706 1562.31 150.527 1567.4 147C1569.61 145.469 1572.33 142.737 1570.07 140.103C1567.04 136.575 1558.69 137.884 1554.74 138.319C1548.45 139.011 1541.81 139.907 1535.7 141.455C1527.4 143.552 1519.65 147.306 1511.13 148.544C1509.42 148.794 1509.74 151.455 1511.45 151.204C1518.78 150.143 1525.51 147.332 1532.52 145.14C1539.24 143.035 1546.57 142.063 1553.54 141.166C1556.89 140.735 1561.31 139.869 1564.6 140.825C1565.83 141.178 1565.79 140.78 1566.84 142.041C1568.14 143.604 1567.81 142.93 1566.66 144.209C1565.58 145.41 1563.66 146.018 1562.21 146.629C1555.27 149.528 1547.74 149.768 1540.52 151.703C1532.28 153.905 1524.12 155.643 1515.94 152.185C1508.62 149.095 1501.98 143.754 1496.75 137.827C1487.3 127.121 1477.35 116.777 1468.83 105.3C1463.41 97.997 1457.8 91.4015 1448.09 93.7329C1440.32 95.5946 1429.6 98.585 1429.15 108.222C1428.5 122.205 1439.16 135.624 1444.56 147.797C1447.96 155.49 1450.87 163.233 1454.83 170.665C1456.67 174.097 1458.48 177.542 1460.3 180.985C1461.96 184.097 1463.41 187.968 1465.77 190.62C1467.35 192.391 1469.58 193.648 1471.55 194.918C1474.49 196.813 1479.88 199.465 1476.59 203.477C1474.9 205.538 1470.09 206.431 1467.72 207.085C1463.01 208.39 1458.23 209.44 1453.44 210.402C1439.34 213.222 1424.98 214.997 1411.11 218.888C1403.51 221.02 1395.35 222.698 1388.42 226.632C1385.09 228.523 1380.52 234.838 1387.34 235.682C1391.56 236.202 1395.75 233.439 1399.65 232.325C1406.69 230.302 1414.51 229.24 1421.77 228.217C1429.72 227.089 1437.75 226.707 1445.71 225.618C1449.46 225.106 1453.18 224.267 1456.96 223.863C1461.74 223.356 1464.57 225.083 1468.13 227.87C1471.19 230.276 1474.6 231.841 1478.22 229.432C1481.44 227.283 1481.95 223.16 1480.16 219.884C1475.9 212.106 1462.43 215.725 1459.11 222.782C1453.87 233.965 1474.98 228.883 1479.18 228.507C1487.41 227.778 1495.68 227.93 1503.9 227.263C1512.55 226.563 1520.98 224.328 1529.56 223.093C1546.11 220.707 1561.83 215.461 1577.99 211.278C1586.32 209.126 1594.52 206.526 1602.93 204.667C1610.3 203.036 1617.71 201.581 1624.5 198.137C1631.03 194.827 1637.03 190.583 1643.12 186.531C1644.55 185.569 1642.93 183.441 1641.49 184.393L1641.47 184.405Z" fill="#010202"/>
<path d="M1445.53 157.521C1441.09 159.618 1436.09 159.609 1431.29 160.107C1425.8 160.671 1420.32 161.445 1414.84 162.108C1403.32 163.524 1391.98 163.991 1380.48 162.069C1379.72 161.941 1379.12 162.508 1378.96 163.203C1374.72 181.326 1427.03 173.618 1435.79 173.438C1447.74 173.199 1456.05 182.002 1464.06 189.702C1468.3 193.786 1472.07 198.4 1473.96 204.052C1475.33 208.135 1475.63 211.866 1479.44 214.522C1485.12 218.488 1493.05 216.638 1498.64 213.513C1503.36 210.867 1507.75 207.667 1512.09 204.434C1517.59 200.333 1522.91 198.288 1529.17 195.807C1534.87 193.544 1540.65 192.764 1546.74 192.257C1549.71 192.014 1552.66 191.742 1555.62 191.438C1556.36 191.358 1557.29 191.102 1558.02 191.224C1561.48 191.796 1560.56 194.508 1558.17 196.173C1554.83 198.498 1550.27 199.097 1546.4 200.098C1539.69 201.829 1532.9 203.257 1526.16 204.911C1514.48 207.788 1502.99 211.346 1491.34 214.338C1488.44 215.088 1478.54 218.25 1483.08 223.082C1486.64 226.876 1496.03 224.644 1500.29 223.999C1514.06 221.915 1527.53 217.831 1541.33 216.105C1550.73 214.93 1578.44 219.414 1578.12 203.846C1578.01 198.148 1574.03 193.71 1570.84 189.376C1568.86 186.668 1566.71 184.121 1564.53 181.567C1562.49 179.169 1556.75 174.322 1557.92 170.662C1558.35 169.33 1560.75 167.635 1561.83 167.099C1565.48 165.301 1568.4 166.06 1570.8 169.584C1572.76 172.466 1574 176.081 1575.41 179.243C1576.53 181.766 1578.67 184.878 1579.02 187.586C1579.6 192.27 1576.6 192.064 1574.97 194.834C1571.89 200.038 1576.72 208.311 1582.49 208.63C1586.22 208.836 1590.39 207.981 1594.08 207.477C1597.08 207.069 1601.52 206.493 1602.55 203.091C1603.05 201.459 1600.59 200.381 1600.08 202.034C1599.07 205.384 1591.54 205.019 1588.73 205.343C1583.21 205.982 1579.1 206.92 1577.41 200.337C1576.68 197.495 1577.24 196.338 1579.32 194.219C1580.37 193.142 1581.39 192.201 1581.8 190.659C1582.72 187.232 1580.23 183.487 1578.91 180.516C1575.99 173.953 1573.05 161.63 1563.51 163.658C1557.2 164.998 1552.6 170.944 1556.92 176.679C1560.36 181.234 1564.49 185.281 1567.9 189.869C1571.21 194.309 1577.45 200.726 1575.01 206.747C1572.18 213.744 1558.69 212.884 1552.67 212.899C1541.48 212.924 1530.98 215.281 1520.07 217.549C1510.2 219.598 1498.94 223.239 1488.75 222.213C1486.52 221.984 1483.8 220.877 1486.73 218.683C1488.24 217.55 1491.13 217.125 1492.85 216.712C1497.08 215.708 1501.07 214.685 1505.25 213.385C1518.15 209.392 1531.33 206.413 1544.47 203.337C1550.16 202.003 1559.36 201.024 1562.57 195.46C1566.31 188.996 1559.46 188.378 1554.85 188.823C1549.23 189.382 1543.54 189.598 1537.97 190.514C1532.39 191.432 1527.25 193.645 1521.98 195.561C1512.12 199.151 1505.1 207.621 1495.65 212.066C1491.86 213.852 1487.05 214.866 1483 213.358C1477.3 211.228 1477.52 204.833 1475.29 200.069C1471.4 191.732 1463.71 185.332 1456.89 179.41C1450.29 173.672 1443.2 170.402 1434.35 170.804C1428.42 171.08 1422.5 171.676 1416.56 171.953C1411.09 172.202 1379.03 174.761 1381.64 163.589C1381.13 163.964 1380.62 164.339 1380.11 164.724C1391.85 166.687 1403.42 166.212 1415.19 164.766C1420.92 164.062 1426.64 163.248 1432.38 162.693C1437.19 162.233 1442.14 162.1 1446.57 159.993C1448.12 159.258 1447.11 156.773 1445.55 157.509L1445.53 157.521Z" fill="#010202"/>
<path d="M1385 234.336C1310.54 245.595 1227.02 247.745 1167.16 299.578C1113.59 345.959 1078.77 409.438 1033.05 463.047C944.396 566.985 818.602 603.063 686.902 620.897C545.006 640.112 400.819 632.315 257.752 632.315C215.076 632.315 173.205 633.089 131.073 640.651C53.7839 654.524 -10.6373 686.339 -80.2401 723.473C-130.77 750.431 -180.545 778.503 -228.667 809.557C-232.496 812.027 -239.195 818.255 -244.796 818.255C-253.981 818.255 -260.787 815.787 -268.899 811.731" stroke="#010202" stroke-width="3" stroke-linecap="round"/>
</g>
</svg>
