<svg width="272" height="280" viewBox="0 0 272 280" fill="none" xmlns="http://www.w3.org/2000/svg">
<path opacity="0.14" d="M189.641 174.617V172.484C189.695 162.586 190.625 154.711 192.43 148.859C194.289 143.008 196.914 138.305 200.305 134.75C203.695 131.141 207.824 127.832 212.691 124.824C216.027 122.746 219.008 120.477 221.633 118.016C224.313 115.5 226.418 112.711 227.949 109.648C229.48 106.531 230.246 103.059 230.246 99.2305C230.246 94.9102 229.234 91.1641 227.211 87.9922C225.188 84.8203 222.453 82.3594 219.008 80.6094C215.617 78.8594 211.816 77.9844 207.605 77.9844C203.723 77.9844 200.031 78.832 196.531 80.5273C193.086 82.168 190.215 84.6836 187.918 88.0742C185.676 91.4102 184.418 95.6484 184.145 100.789H154.941C155.215 90.3984 157.73 81.7031 162.488 74.7031C167.301 67.7031 173.645 62.4531 181.52 58.9531C189.449 55.4531 198.199 53.7031 207.77 53.7031C218.215 53.7031 227.402 55.5352 235.332 59.1992C243.316 62.8633 249.523 68.0859 253.953 74.8672C258.438 81.5937 260.68 89.5781 260.68 98.8203C260.68 105.055 259.668 110.633 257.645 115.555C255.676 120.477 252.859 124.852 249.195 128.68C245.531 132.508 241.184 135.926 236.152 138.934C231.723 141.668 228.086 144.512 225.242 147.465C222.453 150.418 220.375 153.891 219.008 157.883C217.695 161.82 217.012 166.687 216.957 172.484V174.617H189.641ZM203.914 225.805C198.992 225.805 194.754 224.055 191.199 220.555C187.645 217.055 185.867 212.789 185.867 207.758C185.867 202.836 187.645 198.625 191.199 195.125C194.754 191.625 198.992 189.875 203.914 189.875C208.781 189.875 212.992 191.625 216.547 195.125C220.156 198.625 221.961 202.836 221.961 207.758C221.961 211.094 221.113 214.129 219.418 216.863C217.777 219.598 215.59 221.785 212.855 223.426C210.176 225.012 207.195 225.805 203.914 225.805Z" fill="white"/>
<path opacity="0.14" d="M18.9863 61.5658L23.1429 99.4755L14.7266 100.593L8.87095 62.9091L18.9863 61.5658ZM21.1007 116.344C19.515 116.555 18.0818 116.178 16.8011 115.213C15.5378 114.246 14.7997 112.961 14.5868 111.358C14.3785 109.789 14.7579 108.374 15.725 107.11C16.7096 105.845 17.9947 105.107 19.5804 104.896C21.1312 104.69 22.547 105.069 23.8277 106.034C25.1259 106.997 25.8791 108.262 26.0874 109.83C26.2285 110.893 26.0869 111.896 25.6624 112.839C25.2553 113.78 24.6509 114.569 23.8491 115.208C23.0623 115.827 22.1462 116.205 21.1007 116.344Z" fill="white"/>
<path opacity="0.1" d="M84.0953 106.104L106.802 56.3156L113.927 58.2512L91.2199 108.04L84.0953 106.104ZM64.2597 86.2885L67.3913 79.4888L107.492 90.3835L104.361 97.1832L64.2597 86.2885ZM65.775 101.127L88.4821 51.3383L95.6067 53.274L72.8996 103.062L65.775 101.127ZM72.2097 68.9944L75.3157 62.1878L115.417 73.0825L112.311 79.8891L72.2097 68.9944Z" fill="white"/>
</svg>
