<svg width="428" height="317" viewBox="0 0 428 317" fill="none" xmlns="http://www.w3.org/2000/svg">
<g filter="url(#filter0_d_2204_390)">
<rect x="15" y="26" width="398" height="272" rx="23" fill="#288737"/>
</g>
<path opacity="0.14" d="M323.641 174.617V172.484C323.695 162.586 324.625 154.711 326.43 148.859C328.289 143.008 330.914 138.305 334.305 134.75C337.695 131.141 341.824 127.832 346.691 124.824C350.027 122.746 353.008 120.477 355.633 118.016C358.313 115.5 360.418 112.711 361.949 109.648C363.48 106.531 364.246 103.059 364.246 99.2305C364.246 94.9102 363.234 91.1641 361.211 87.9922C359.188 84.8203 356.453 82.3594 353.008 80.6094C349.617 78.8594 345.816 77.9844 341.605 77.9844C337.723 77.9844 334.031 78.832 330.531 80.5273C327.086 82.168 324.215 84.6836 321.918 88.0742C319.676 91.4102 318.418 95.6484 318.145 100.789H288.941C289.215 90.3984 291.73 81.7031 296.488 74.7031C301.301 67.7031 307.645 62.4531 315.52 58.9531C323.449 55.4531 332.199 53.7031 341.77 53.7031C352.215 53.7031 361.402 55.5352 369.332 59.1992C377.316 62.8633 383.523 68.0859 387.953 74.8672C392.438 81.5937 394.68 89.5781 394.68 98.8203C394.68 105.055 393.668 110.633 391.645 115.555C389.676 120.477 386.859 124.852 383.195 128.68C379.531 132.508 375.184 135.926 370.152 138.934C365.723 141.668 362.086 144.512 359.242 147.465C356.453 150.418 354.375 153.891 353.008 157.883C351.695 161.82 351.012 166.687 350.957 172.484V174.617H323.641ZM337.914 225.805C332.992 225.805 328.754 224.055 325.199 220.555C321.645 217.055 319.867 212.789 319.867 207.758C319.867 202.836 321.645 198.625 325.199 195.125C328.754 191.625 332.992 189.875 337.914 189.875C342.781 189.875 346.992 191.625 350.547 195.125C354.156 198.625 355.961 202.836 355.961 207.758C355.961 211.094 355.113 214.129 353.418 216.863C351.777 219.598 349.59 221.785 346.855 223.426C344.176 225.012 341.195 225.805 337.914 225.805Z" fill="white"/>
<path opacity="0.14" d="M152.986 61.5658L157.143 99.4755L148.727 100.593L142.871 62.9091L152.986 61.5658ZM155.101 116.344C153.515 116.555 152.082 116.178 150.801 115.213C149.538 114.246 148.8 112.961 148.587 111.358C148.379 109.789 148.758 108.374 149.725 107.11C150.71 105.845 151.995 105.107 153.58 104.896C155.131 104.69 156.547 105.069 157.828 106.034C159.126 106.997 159.879 108.262 160.087 109.83C160.229 110.893 160.087 111.896 159.662 112.839C159.255 113.78 158.651 114.569 157.849 115.208C157.062 115.827 156.146 116.205 155.101 116.344Z" fill="white"/>
<path opacity="0.1" d="M218.095 106.104L240.802 56.3156L247.927 58.2512L225.22 108.04L218.095 106.104ZM198.26 86.2885L201.391 79.4888L241.492 90.3835L238.361 97.1832L198.26 86.2885ZM199.775 101.127L222.482 51.3383L229.607 53.274L206.9 103.062L199.775 101.127ZM206.21 68.9944L209.316 62.1878L249.417 73.0825L246.311 79.8891L206.21 68.9944Z" fill="white"/>
<defs>
<filter id="filter0_d_2204_390" x="0.5" y="15.5" width="427" height="301" filterUnits="userSpaceOnUse" color-interpolation-filters="sRGB">
<feFlood flood-opacity="0" result="BackgroundImageFix"/>
<feColorMatrix in="SourceAlpha" type="matrix" values="0 0 0 0 0 0 0 0 0 0 0 0 0 0 0 0 0 0 127 0" result="hardAlpha"/>
<feOffset dy="4"/>
<feGaussianBlur stdDeviation="7.25"/>
<feComposite in2="hardAlpha" operator="out"/>
<feColorMatrix type="matrix" values="0 0 0 0 0 0 0 0 0 0 0 0 0 0 0 0 0 0 0.45 0"/>
<feBlend mode="normal" in2="BackgroundImageFix" result="effect1_dropShadow_2204_390"/>
<feBlend mode="normal" in="SourceGraphic" in2="effect1_dropShadow_2204_390" result="shape"/>
</filter>
</defs>
</svg>
