<svg width="750" height="181" viewBox="0 0 750 181" fill="none" xmlns="http://www.w3.org/2000/svg">
<path fill-rule="evenodd" clip-rule="evenodd" d="M296 0V9.7998H296.49V11.3604H297.61V12.1396H297.27V15.2695H296.99C297.08 18.8895 297.19 22.2802 297.32 25.4502L297.34 25.5195C297.36 25.5895 297.36 25.6702 297.34 25.7402V25.7695C297.61 32.1395 297.96 37.6302 298.42 42.4502C298.44 42.5102 298.44 42.5804 298.44 42.6504C298.76 46 299.13 49.0198 299.55 51.7695H300.48V52.8496H300.14V53.3896H299.81C300.01 54.5896 300.22 55.7299 300.45 56.8398H301.25C301.5 56.8398 301.71 57.0499 301.71 57.2998C301.71 57.5498 301.51 57.7598 301.25 57.7598H300.64C300.88 58.8698 301.14 59.9302 301.4 60.9502C301.41 60.9603 301.41 60.9802 301.41 61C301.74 62.26 302.08 63.4604 302.45 64.6104C302.5 64.6902 302.53 64.7703 302.53 64.8701C303.08 66.5701 303.68 68.18 304.33 69.71H306.09V70.79H305.75V72.8096C305.82 72.9396 305.88 73.0604 305.94 73.1904C306.11 73.5302 306.28 73.8701 306.46 74.21C306.67 74.6099 306.88 75.0102 307.1 75.4102C307.36 75.8901 307.63 76.3799 307.92 76.8799C308.01 77.0299 308.1 77.1898 308.19 77.3398C308.19 77.3598 308.21 77.3699 308.21 77.3799C310.03 80.4999 312.11 83.6405 314.49 87.2305C314.67 87.5002 314.86 87.7798 315.04 88.0596H339.56L339.53 87.9805H359.19L360.2 84.0596H363.22L364.66 78.4502H367.69L369.13 72.8398H372.37L373.6 67.96H376.62L378.06 62.2305H381.08L382.52 56.5H385.55L386.99 50.7695H390.01L391.45 45.0498H394.47L395.91 39.3203H402.25V34.8203H402.03V34.2598H402.25V31.7305H402.03V31.1699H402.25V30.3301H422.42V31.1699H422.64V31.7305H422.42V34.2598H422.64V34.8203H422.42V39.3203H428.76L430.2 45.04H433.22L434.66 50.7695H437.68L439.12 56.5H442.15L443.59 62.2305H446.62L448.06 67.96H451.09L452.32 72.8398H452.97V67.4697H452.77V67.1104H452.97V65.21H452.77V64.8496H452.97V57.9697H452.77V57.6104H452.97V55.71H452.77V55.3496H452.97V48.4697H452.77V48.1104H452.97V46.0596H452.16V37.54H452.33V36.2002H452.5V37.54H452.97V33.5596H453.17V31.4404H453.36V33.3896L455.92 28.79H455.47V28.2598H455.92V23.4902C455.92 23.3102 456.04 23.1804 456.2 23.1104V21.4102H456.39V22.8203C457.21 20.9003 458.27 15.3098 458.55 13.7998H458.07V13.25H458.49V12.2158C458.379 12.1686 458.3 12.0573 458.3 11.9297C458.3 11.7599 458.44 11.6201 458.61 11.6201C458.78 11.6203 458.92 11.76 458.92 11.9297C458.92 12.0756 458.816 12.1984 458.68 12.2305V13.25H459.17V13.7998H458.69C458.97 15.2997 460.03 20.8596 460.84 22.7998V21.4102H461.03V23.1104C461.18 23.1704 461.31 23.3006 461.31 23.4805H461.32V28.25H461.77V28.7803H461.32L463.92 33.46V31.4297H464.11V33.5498H464.27V37.5303H464.82V36.1904H464.99V37.5303H465.08V46.0498H464.27V48.0996H464.46V48.46H464.27V55.3398H464.46V55.7002H464.27V57.5996H464.46V57.96H464.27V64.8398H464.46V65.2002H464.27V67.0996H464.46V67.46H464.27V73.5303H467.62V71.4697L467.94 70.2803V68.9697H468.13V70.2803L468.45 71.4697V73.5303H471.8V71.4697L472.12 70.2803V68.9697H472.31V70.2803L472.63 71.4697V73.5303H475.98V71.4697L476.3 70.2803V68.9697H476.49V70.2803L476.81 71.4697V73.5303H480.16V71.4697L480.48 70.2803V68.9697H480.67V70.2803L480.99 71.4697V73.5303H484.34V71.4697L484.66 70.2803V68.9697H484.85V70.2803L485.17 71.4697V73.5303H488.52V71.4697L488.84 70.2803V68.9697H489.03V70.2803L489.35 71.4697V73.5303H492.7V71.4697L493.02 70.2803V68.9697H493.21V70.2803L493.53 71.4697V73.5303H496.88V71.4697L497.2 70.2803V68.9697H497.39V70.2803L497.71 71.4697V73.5303H501.06V71.4697L501.38 70.2803V68.9697H501.57V70.2803L501.89 71.4697V73.5303H503.8L503.82 73.4805L504.2 72.5303L504.34 72.1797C504.71 69.46 505.05 67.1102 505.35 65.1104L505.16 64.7695L498.17 52.4697H497.09V52.04H497.92L497.43 51.1797L497.81 50.96L498.42 52.04H506.19L510.73 47.5L484.13 36.9502L484.44 36.1602L484.7 35.5098C484.63 35.4798 484.61 35.4096 484.63 35.3496L484.94 34.5703L485.2 33.9297L485.7 32.6797L486.05 31.7998C486.06 31.7698 486.08 31.7405 486.11 31.7305C486.14 31.7206 486.2 31.7305 486.2 31.7305L494.73 35.1201L496.63 35.8701L498.53 36.6299L500.43 37.3799L502.33 38.1396L504.23 38.8896L509.92 41.1504L513.72 42.6699L515.09 43.21L518.21 40.0898L519.8 41.6797L530.35 15.0801L531.14 15.3896L531.79 15.6504C531.79 15.6304 531.82 15.6398 531.84 15.6299C531.85 15.6199 531.85 15.5996 531.87 15.5996H531.96L533.46 16.1904L534.76 16.71L535.49 17C535.56 17.03 535.58 17.1002 535.56 17.1602L535.18 18.1104L533.68 21.9004L533.3 22.8496L532.17 25.6904L531.42 27.5898L531.04 28.54L529.91 31.3799L529.53 32.3301L528.78 34.2305L528.4 35.1797L526.9 38.9697L524.24 45.6201L524.07 46.0498L524.26 46.2402L530.14 52.1201H537.9L538.25 51.0898L538.66 51.2305L538.36 52.1299H539.17V52.5596H538.21L537.271 55.3896L549.771 60.3496C550.021 59.4899 550.601 58.88 551.94 57.4902C553.46 55.9119 553.713 55.0047 553.72 54.9805C553.725 55.0015 553.978 55.909 555.5 57.4902C557.08 59.1301 557.87 61.0564 557.87 63.2695V64.5H557.14V66.2197H557.87V67.4502H557.14V76.2598H562.87V64.6104H562.43V64.3701H562.8C562.8 63.9435 562.953 63.57 563.26 63.25C563.55 62.94 563.6 62.7598 563.6 62.7598C563.6 62.7598 563.65 62.94 563.95 63.25C564.257 63.57 564.41 63.9435 564.41 64.3701H564.78V64.6104H564.34V71.1699H567.95V64.6104H567.51V64.3701H567.88C567.88 63.9435 568.033 63.57 568.34 63.25C568.63 62.94 568.68 62.7598 568.68 62.7598C568.68 62.7598 568.721 62.94 569.021 63.25C569.327 63.5699 569.48 63.9436 569.48 64.3701H569.85V64.6104H569.41V71.1699H572.28V64.6104H571.84V64.3701H572.21C572.21 63.9435 572.363 63.57 572.67 63.25C572.96 62.94 573.01 62.7598 573.01 62.7598C573.01 62.7598 573.05 62.9401 573.35 63.25C573.656 63.57 573.81 63.9435 573.81 64.3701H574.18V64.6104H573.74V71.1699H577.7V60.7197H576.97V59.6797H577.88C575.88 56.2399 576.7 53.3001 581.47 49.5303C582.29 48.8703 582.91 48.3098 583.41 47.7998H582.95V47.2803H583.89C584.68 46.3903 585 45.7697 585.11 45.4297H584.81V44.6699H585.57V45.4297H585.271C585.391 45.7697 585.71 46.3903 586.49 47.2803H587.43V47.7998H586.97C587.47 48.3098 588.09 48.8803 588.91 49.5303C589.67 50.1302 590.3 50.7103 590.87 51.2803C588.83 44.5503 591.85 38.2796 601.57 30.5996C603.58 29.0097 605.12 27.6198 606.34 26.3799H605.45V25.8604H606.14C608.77 23.2504 609.86 21.4098 610.34 20.2998V19.7695H610.55C610.698 19.3038 610.719 19.0444 610.72 19.04C610.72 19.0426 610.741 19.3022 610.89 19.7695H611.1V20.2998C611.58 21.4098 612.68 23.2504 615.3 25.8604H615.99V26.3799H615.1C615.14 26.4199 615.18 26.4598 615.23 26.5098C615.38 26.6597 615.52 26.8001 615.68 26.96C615.9 27.1799 616.15 27.41 616.39 27.6299C616.55 27.7798 616.7 27.9299 616.88 28.0898C617.15 28.3398 617.46 28.6004 617.76 28.8604C617.93 29.0103 618.091 29.1498 618.271 29.2998C618.76 29.7197 619.29 30.15 619.85 30.5898C629.569 38.2697 632.58 44.5397 630.55 51.2695C631.12 50.6996 631.74 50.1195 632.51 49.5195C633.33 48.8596 633.95 48.3 634.45 47.79H633.99V47.2695H634.93C635.72 46.3796 636.04 45.7599 636.15 45.4199H635.85V44.6602H636.61V45.4199H636.31C636.43 45.7599 636.75 46.3796 637.53 47.2695H638.47V47.79H638.01C638.51 48.3 639.13 48.8696 639.95 49.5195C644.73 53.2895 645.54 56.23 643.54 59.6699H644.45V60.71H643.72V71.1602H647.68V64.5996H647.24V64.3604H647.61C647.61 63.9337 647.764 63.5602 648.07 63.2402C648.36 62.9303 648.41 62.75 648.41 62.75C648.411 62.7531 648.453 62.9329 648.75 63.2402C649.057 63.5602 649.21 63.9337 649.21 64.3604H649.58V64.5996H649.14V71.1602H652.01V64.5996H651.57V64.3604H651.94C651.94 63.9337 652.094 63.5602 652.4 63.2402C652.69 62.9303 652.74 62.75 652.74 62.75C652.741 62.7535 652.783 62.9333 653.08 63.2402C653.387 63.5602 653.54 63.9338 653.54 64.3604H653.91V64.5996H653.47V71.1602H657.08V64.5996H656.64V64.3604H657.01C657.01 63.9338 657.163 63.5602 657.47 63.2402C657.756 62.9347 657.808 62.7551 657.81 62.75C657.81 62.75 657.85 62.9302 658.15 63.2402C658.457 63.5602 658.61 63.9338 658.61 64.3604H658.98V64.5996H658.54V76.25H664.271V67.4404H663.54V66.21H664.271V64.4902H663.54V63.2598C663.54 61.0466 664.33 59.1204 665.91 57.4805C667.45 55.8805 667.69 54.9697 667.69 54.9697C667.69 54.9697 667.93 55.8805 669.47 57.4805C671.05 59.1204 671.84 61.0466 671.84 63.2598V64.4902H671.11V66.21H671.84V67.4404H671.11V85.0596H671.84V86.29H671.11V88.0596H677.39V87.6104H678.45L678.71 58.29V58.0303H678.44V57.46H677.91V56.8203H678.44V54.1904H678.18V53.5498H678.44V50.9199H677.91V50.2803L676.86 49.29V48.6504H677.39V44.3701H676.86V43.7305H743.68V44.3701H743.15V48.6504H743.68V49.29L742.63 50.2803V50.9199H742.12V53.5498H742.37V54.1904H742.12V56.8203H742.63V57.46H742.12V58.0303H741.85L742.11 87.6104H743.17V88.0596H750V180.03H0V88.0596H4.20996C5.20983 87.6596 6.40982 87.2302 7.80957 86.7803L52.0303 27.6904L73.2002 56.8203L77.1104 61.9297L83.6104 53.4404L105.96 82.6504C111.42 83.1504 114.24 86.1003 115.53 88.0303H125.36L125.76 84.5596L125.55 84.7197L125.86 81.9902L126.02 82.2002L126.08 81.6396L125.58 81.5801L125.65 80.9199L125.98 80.96V80.8301L125.51 80.7803L125.58 80.1904L126.69 80.3203L131.91 34.71L131.46 34.6602L131.49 34.4297L131.34 34.4102L131.37 34.1797L131.98 34.25L132.05 33.6504L132.09 33.3203L132.12 33.0596C131.99 32.9896 131.84 32.9399 131.68 32.9199L131.23 32.8701L131.28 32.4199L131.07 32.4004L131.1 32.1104L130.87 32.0801L130.9 31.79L134.53 32.21L134.66 31.1699L135.34 25.2598L135.56 25.2803L135.62 24.75L135.13 24.6904L135.2 24.0996L151 25.9102L150.93 26.5L150.44 26.4404L150.38 26.9697L150.6 26.9902L149.81 33.8701L152.84 34.29L153.44 34.3604L153.41 34.6504L153.18 34.6201L153.15 34.9102L152.939 34.8838L152.89 35.3301L152.44 35.2803C152.281 35.2603 152.13 35.2804 151.98 35.3203L151.84 36.5L152.45 36.5703L152.42 36.7998L152.27 36.7803L152.24 37.0098L151.79 36.96L146.57 82.5703L147.68 82.7002L147.61 83.29L147.12 83.2402V83.3701L146.93 83.3496L147.48 83.4102L147.4 84.0703L146.85 84.0098L146.81 84.3896L146.79 84.5801L147 84.4199L146.97 84.6396L146.93 85L146.84 85.7803L146.71 86.9199L146.68 87.1396L146.52 86.9297L146.39 88.0303H154.57V86.7197H168.67V86.0498H172.17V83.8701H175.14V81.6904H185.44V79.7402H184.78L184.2 78.71V77.6797H185.23V76.1396H185.44V73.0801H185.68V72.71H185.88V71.5996C185.88 70.5598 185.6 69.5199 185.44 68.5C185.42 68.38 185.4 68.2499 185.44 68.1299C185.49 67.98 185.63 67.8897 185.72 67.7598C186.16 67.1398 185.7 65.7996 185.67 65.0996C185.64 64.3297 185.29 63.5296 185.54 62.7598C185.61 62.5399 185.72 62.3398 185.79 62.1299C185.99 61.5099 185.53 60.7696 185.38 60.1797L185.08 58.9805C184.97 58.5605 184.67 58.2696 184.85 57.8096C184.99 57.4697 185.33 57.2001 185.57 56.9502C185.66 56.8503 185.75 56.7102 185.73 56.5703C185.72 56.4804 185.67 56.4001 185.62 56.3301C185.32 55.9001 184.72 55.6195 184.93 55.0195C185.12 54.5098 185.66 54.2599 186.01 53.8701C186.29 53.5601 186.66 53.2399 186.87 52.8799C187.25 52.2299 186.72 51.5499 186.5 50.9199C186.3 50.3301 186.09 49.6002 186.43 49.0303C186.6 48.7403 186.87 48.4398 186.69 48.0898C186.44 47.6099 186.22 47.1504 185.88 46.7305C185.7 46.5005 185.23 46.0996 185.2 45.8096C185.181 45.5597 185.45 45.2695 185.55 45.0596C185.62 44.9097 185.7 44.7597 185.73 44.5898C185.87 43.8601 184.96 43.75 184.79 43.1602C184.71 42.8902 185.1 42.2801 185.21 42.04C185.39 41.61 185.57 41.1895 185.75 40.7695C185.67 38.9497 185.69 37.1597 185.77 35.3398H185.34C185.34 35.1799 185.37 34.9996 185.31 34.8496C185.258 34.7171 184.731 33.5 185.11 33.5C185.03 33.5 184.95 33.4804 184.88 33.4404C184.86 33.1704 184.86 32.8796 184.86 32.5996V32.3096H185.12V30.9697H184.87L184.57 30.6602V29.7402H184.29C184.29 29.7402 184.29 29.4597 184.29 29.4297C184.47 29.4197 184.67 29.5598 184.76 29.3398C184.82 29.1899 184.61 28.9701 184.58 28.8301C184.54 28.6201 184.56 28.41 184.62 28.21C184.73 27.84 184.96 27.5099 185.14 27.1699C185.32 26.8199 185.45 26.4198 185.35 26.0498C185.58 26.3898 185.66 26.8302 185.59 27.2402C185.85 26.9803 185.9 26.5603 185.85 26.1904C185.81 25.8205 185.69 25.45 185.72 25.0801C185.75 24.7001 185.99 24.3098 186.36 24.2598C186.11 24.4598 186.07 24.8201 186.15 25.1201C186.23 25.42 186.39 25.6905 186.5 25.9805C186.78 26.7504 186.6 27.6601 186.04 28.25C186.35 28.14 186.62 27.91 186.77 27.6201C186.73 27.7005 186.82 28.0393 186.82 28.1396C186.81 28.3596 186.77 28.5803 186.69 28.7803C186.56 29.1103 186.32 29.5004 186.91 29.4404V29.75H186.66V30.6699L186.36 30.9805H186.11V31.5498L186.13 31.5098L186.8 32.54V33.4199C186.8 33.8298 186.8 39.9959 187.27 40H188.4L188.09 40.54C187.72 41.0202 188.84 42.9702 189.06 43.4502C189.29 43.0802 190.17 39.6001 189.97 39.6201C189.86 39.6301 189.78 39.6601 189.66 39.6602V38.71L188.15 38.5498L189.77 38.3701L188.67 37.2803L189.96 37.8496V37.5898L190.22 37.5498L189.77 36.21L190.69 37.4805L191.3 37.4004L191.59 35.7002L191.87 37.4004L192.48 37.4805L193.4 36.21L192.95 37.5498L193.21 37.5898V37.8496L194.5 37.2803L193.4 38.3701L195.02 38.5498L193.51 38.71V39.6602C193.39 39.6601 193.31 39.6301 193.2 39.6201C193.21 39.6501 193.195 44.1508 194.68 44.4004C194.7 44.4004 196.3 44.6702 196.3 46.2002C196.3 46.5104 196.35 47.3502 196.41 48.5L196.9 49.3799C197.06 49.6799 197.21 49.9797 197.44 50.2197C197.83 49.8697 198.1 49.3297 198.39 48.8799C199.49 49.3499 200.49 50.0297 201.32 50.8896C201.12 50.6901 198.56 55.6892 198.34 56.0498C198.01 56.5897 197.36 56.7497 197.01 57.2695C196.64 57.8295 196.64 58.5798 196.69 59.2197C196.78 60.2797 197.16 61.2703 197.26 62.3203C197.37 63.4602 197.35 64.6401 197.35 65.79C197.36 68.11 197.3 70.4202 197.3 72.7402H197.53V73.1104H197.77V76.1699H197.98V77.71H199.01V78.7402L198.43 79.7695H197.77V81.7197H208.07V83.9004H211.04V86.0801H214.54V86.75H228.68V88.0596H235.36V40.8496C233.93 40.6996 232.86 40.1595 232.86 39.5195C232.861 38.8797 233.921 38.3404 235.36 38.1904V36.0801H236.19V10.75L237.01 7.79004V22.3301C242.65 26.3 246.92 30.9999 250.1 36.0498H251.45V35.6602H258.25V36.0498H256.55L256.47 36.3496L256.26 37.1299L254.47 39.8799L254.27 39.4902L254.56 38.9199L255.46 37.1299L253.8 36.3496L253.17 36.0498H251.7C264.29 55.8798 259.72 81.3303 258.2 88.0303H276.38C276.55 87.7704 276.74 87.4904 276.91 87.2305C279.44 83.4306 281.62 80.13 283.52 76.8301C283.77 76.3902 284.01 75.9602 284.25 75.5303C284.51 75.0503 284.76 74.5796 285.01 74.0996C285.16 73.8197 285.3 73.5395 285.44 73.2695C285.52 73.1098 285.6 72.9498 285.68 72.79V70.7803H285.33V69.7002H287.1C287.76 68.1402 288.36 66.52 288.92 64.79C288.93 64.76 288.95 64.74 288.95 64.71C289.63 62.58 290.24 60.29 290.79 57.75H290.18C289.93 57.7498 289.72 57.5399 289.72 57.29C289.72 57.0401 289.92 56.8302 290.18 56.8301H290.98C291.2 55.7301 291.42 54.5799 291.62 53.3799H291.3V52.8398H290.95V51.7598H291.87C293.22 42.9698 294.02 31.4798 294.43 15.25H294.15V12.1201H293.81V11.3398H294.93V9.78027H295.44V0H296ZM532.17 70.9297L532 71.4502C532.62 75.9401 533.32 81.4599 534.05 88.0596V88.0801H550.4V86.3096H549.67V85.0801H550.4V67.46H549.67V66.3096L549.29 66.1602L547.4 65.4102L546.45 65.0303L544.56 64.2803L543.61 63.9004L541.72 63.1504L540.771 62.7695L538.87 62.0195L536.97 61.2598L535.58 60.71L532.17 70.9297ZM295.69 77.9805C292.32 77.9805 289.18 79.79 287.49 82.71C287.49 82.73 287.47 82.7305 287.47 82.7305H287.46C286.57 84.4603 285.599 86.2197 284.52 88.0596H306.85C305.78 86.2198 304.8 84.47 303.92 82.7402C303.91 82.7302 303.89 82.72 303.89 82.71C302.2 79.7902 299.06 77.9806 295.69 77.9805ZM685.16 57.46V58.0303H684.92V58.29L685.15 87.0801V87.6104H686.11V88.0596H689.34V87.6104H690.4L690.66 58.29V58.0303H690.39V57.46H685.16ZM695.92 57.46V58.0195H695.68L695.91 87.0801V87.6104H696.87V88.0596H701.271V87.6104H702.33V87.0801L702.58 58.29V58.0303H702.32V57.46H695.92ZM706.7 57.46V58.0303H706.46L706.69 87.6104H707.65V88.0596H712.93V87.6104H713.89V87.0801L714.12 58.29V58.0303H713.88V57.46H706.7ZM718.24 57.46V58.0303H717.98L718.24 87.6104H719.3V88.0596H723.69V87.6104H724.64V87.0801L724.87 58.29V58.0303H724.64V57.46H718.24ZM730.18 57.46V58.0303H729.91L730.17 87.6104H731.23V88.0596H734.46V87.6104H735.41V87.0801L735.64 58.29V58.0303H735.41V57.46H730.18ZM518.26 81.2803C517.59 81.2804 517.04 81.8099 517.04 82.4697V84.8604H519.48V82.4697C519.48 81.8099 518.93 81.2803 518.26 81.2803ZM518.26 72.4404C517.59 72.4406 517.04 72.97 517.04 73.6299V76.0195H519.48V73.6299C519.48 72.9699 518.93 72.4404 518.26 72.4404ZM504.19 73.5303L504.26 73.5596C504.27 73.4597 504.29 73.3499 504.3 73.25L504.19 73.5303ZM580.57 65.9404C580.19 65.9704 579.89 66.6001 579.89 67.3701V71.1602H580.6V66.25C580.6 66.1402 580.57 66.0403 580.57 65.9404ZM585.021 65.9297C584.221 65.9297 583.58 66.5801 583.58 67.3701V71.1602H586.46V67.3701C586.46 66.5703 585.82 65.9299 585.021 65.9297ZM589.47 65.9404C589.46 66.0502 589.44 66.1402 589.44 66.25V71.1602H590.15V67.3701C590.15 66.6001 589.85 65.9704 589.47 65.9404ZM632.05 65.9404C631.67 65.9706 631.37 66.6003 631.37 67.3701V71.1602H632.08V66.25C632.08 66.1402 632.05 66.0403 632.05 65.9404ZM636.49 65.9297C635.69 65.9297 635.05 66.5801 635.05 67.3701V71.1602H637.93V67.3701C637.93 66.5702 637.29 65.9298 636.49 65.9297ZM640.94 65.9404C640.93 66.0503 640.91 66.1401 640.91 66.25V71.1602H641.62V67.3701C641.62 66.6004 641.32 65.9709 640.94 65.9404ZM530.05 58.7305C530.07 58.8202 530.08 58.91 530.1 59.0098C530.11 59.0398 530.12 59.1201 530.12 59.1201C530.15 59.2701 530.17 59.4201 530.2 59.5801C530.26 59.92 530.32 60.31 530.39 60.71C530.41 60.8 530.42 60.9002 530.44 60.9902C530.81 63.2602 531.31 66.42 531.87 70.4697L531.88 70.4902L532.05 69.9697L535.19 60.5596L530.34 58.6201L530.01 58.4902C530.02 58.5702 530.04 58.6505 530.05 58.7305ZM294.7 57.7598C294.53 59.0398 294.36 60.2802 294.17 61.4502V61.4805C293.95 62.8202 293.72 64.08 293.48 65.2998V65.3398C293.17 66.8698 292.84 68.33 292.48 69.71H298.9C297.99 66.24 297.27 62.3498 296.67 57.7598H294.7ZM518.26 65.0703C517.88 65.0704 517.56 65.38 517.56 65.7598H517.55V67.1396H518.96V65.7598C518.96 65.3799 518.64 65.0703 518.26 65.0703ZM550.03 64.5898L549.49 65.96L550.11 66.21H550.23L550.4 65.7803V64.7305L550.04 64.5898H550.03ZM548.56 65.5801L549.28 65.8701L549.82 64.4902H549.67V64.4404L549.098 64.2129L548.56 65.5801ZM547.6 65.21L548.32 65.5L548.86 64.1299L548.14 63.8398L547.6 65.21ZM546.66 64.8301L547.38 65.1201L547.92 63.75L547.2 63.46L546.66 64.8301ZM545.71 64.4502L546.43 64.7402L546.97 63.3701L546.25 63.0801L545.71 64.4502ZM498.76 52.54L505.36 64.1504V64.1602L505.55 64.5C506.17 60.47 506.61 57.9898 506.79 57.0098C506.82 56.8702 506.83 56.7703 506.85 56.6904C506.87 56.5804 506.88 56.5195 506.88 56.5195H506.52V55.5703H506.88V53.6699H504.72L505.85 52.54H498.76ZM544.76 64.0801L545.48 64.3701L546.021 63L545.3 62.71L544.76 64.0801ZM549.18 63.9902L549.67 64.1797V63.0801L549.56 63.04L549.18 63.9902ZM543.81 63.7002L544.53 63.9902L545.07 62.6201L544.35 62.3301L543.81 63.7002ZM548.23 63.6104L548.95 63.9004L549.33 62.9502L548.61 62.6602L548.23 63.6104ZM542.86 63.3301L543.58 63.6201L544.12 62.25L543.4 61.96L542.86 63.3301ZM547.28 63.2305L548 63.5195L548.38 62.5703L547.66 62.2803L547.28 63.2305ZM541.92 62.9502L542.64 63.2402L543.18 61.8701L542.46 61.5801L541.92 62.9502ZM546.34 62.8496L547.06 63.1396L547.44 62.1904L546.72 61.9004L546.34 62.8496ZM540.97 62.5703L541.69 62.8604L542.23 61.4902L541.51 61.2002L540.97 62.5703ZM549.65 62.8203H549.67V62.7598L549.65 62.8203ZM545.39 62.4805L546.11 62.7695L546.49 61.8203L545.771 61.5303L545.39 62.4805ZM548.7 62.4297L549.42 62.7197L549.63 62.1904L548.91 61.9004L548.7 62.4297ZM540.021 62.2002L540.74 62.4902L541.28 61.1201L540.56 60.8301L540.021 62.2002ZM544.44 62.0996L545.16 62.3896L545.54 61.4404L544.82 61.1504L544.44 62.0996ZM547.75 62.0498L548.47 62.3398L548.68 61.8096L547.96 61.5195L547.75 62.0498ZM539.07 61.8203L539.79 62.1104L540.33 60.7402L539.61 60.4502L539.07 61.8203ZM543.49 61.7305L544.21 62.0195L544.59 61.0703L543.87 60.7803L543.49 61.7305ZM546.81 61.6797L547.53 61.9697L547.74 61.4404L547.021 61.1504L546.81 61.6797ZM538.13 61.4502L538.85 61.7402L539.39 60.3701L538.67 60.0801L538.13 61.4502ZM542.55 61.3496L543.271 61.6396L543.65 60.6904L542.93 60.4004L542.55 61.3496ZM545.86 61.2998L546.58 61.5898L546.79 61.0596L546.07 60.7695L545.86 61.2998ZM537.18 61.0703L537.9 61.3604L538.44 59.9902L537.72 59.7002L537.18 61.0703ZM541.6 60.9697L542.32 61.2598L542.7 60.3096L541.98 60.0195L541.6 60.9697ZM544.91 60.9297L545.63 61.2197L545.84 60.6904L545.12 60.4004L544.91 60.9297ZM536.23 60.6904L536.95 60.9805L537.49 59.6104L536.771 59.3203L536.23 60.6904ZM540.65 60.5996L541.37 60.8896L541.75 59.9404L541.03 59.6504L540.65 60.5996ZM543.96 60.5498L544.68 60.8398L544.89 60.3096L544.17 60.0195L543.96 60.5498ZM535.66 60.4697L536 60.5996L536.54 59.2305L536.13 59.0703L535.66 60.4697ZM539.7 60.2197L540.42 60.5098L540.8 59.5596L540.08 59.2695L539.7 60.2197ZM543.01 60.1699L543.73 60.46L543.94 59.9297L543.22 59.6396L543.01 60.1699ZM534.33 59.9404L535.05 60.2305L535.59 58.8604L534.87 58.5703L534.33 59.9404ZM538.75 59.8496L539.47 60.1396L539.85 59.1904L539.13 58.9004L538.75 59.8496ZM542.07 59.7998L542.79 60.0898L543 59.5596L542.28 59.2695L542.07 59.7998ZM533.39 59.5703L534.11 59.8604L534.65 58.4902L533.93 58.2002L533.39 59.5703ZM537.81 59.4697L538.53 59.7598L538.91 58.8096L538.19 58.5195L537.81 59.4697ZM541.12 59.4199L541.84 59.71L542.05 59.1797L541.33 58.8896L541.12 59.4199ZM532.44 59.1904L533.16 59.4805L533.7 58.1104L532.98 57.8203L532.44 59.1904ZM536.86 59.0898L537.58 59.3799L537.96 58.4297L537.24 58.1396L536.86 59.0898ZM540.17 59.0498L540.89 59.3398L541.1 58.8096L540.38 58.5195L540.17 59.0498ZM531.49 58.8096L532.21 59.0996L532.75 57.7305L532.03 57.4404L531.49 58.8096ZM536.521 57.8701L536.2 58.8398L536.63 59.0098L537.01 58.0596L536.53 57.8701H536.521ZM539.22 58.6699L539.94 58.96L540.15 58.4297L539.43 58.1396L539.22 58.6699ZM530.55 58.4297L531.271 58.7197L531.81 57.3496L531.09 57.0596L530.55 58.4297ZM534.96 58.3496L535.68 58.6396L536.06 57.6904L535.34 57.4004L534.96 58.3496ZM538.28 58.29L539 58.5801L539.21 58.0498L538.49 57.7598L538.28 58.29ZM529.82 57.4805C529.83 57.51 529.84 57.53 529.84 57.5596C529.88 57.7496 529.92 57.97 529.96 58.21L530.32 58.3496L530.86 56.9805H530.85L530.13 56.6904L529.82 57.4805ZM534.021 57.9697L534.74 58.2598L535.12 57.3096L534.4 57.0195L534.021 57.9697ZM537.33 57.9199L538.05 58.21L538.26 57.6797L537.54 57.3896L537.33 57.9199ZM533.07 57.5898L533.79 57.8799L534.17 56.9297L533.45 56.6396L533.07 57.5898ZM536.61 57.6299L537.1 57.8301L537.31 57.2998L536.79 57.0898L536.61 57.6299ZM532.12 57.21L532.84 57.5L533.22 56.5498L532.5 56.2598L532.12 57.21ZM535.43 57.1699L536.15 57.46L536.36 56.9297L535.64 56.6396L535.43 57.1699ZM531.17 56.8398L531.89 57.1299L532.271 56.1797L531.55 55.8896L531.17 56.8398ZM534.48 56.79L535.2 57.0801L535.41 56.5498L534.69 56.2598L534.48 56.79ZM529.64 56.5098C529.64 56.5098 529.65 56.5399 529.66 56.5898C529.68 56.6598 529.7 56.78 529.74 57V57.0303L529.91 56.5996L529.7 56.5195V56.5098H529.64ZM295.22 53.3799C295.1 54.5699 294.97 55.7201 294.83 56.8301H296.56C296.42 55.7301 296.29 54.5699 296.17 53.3799H295.22ZM530.23 56.46L530.95 56.75L531.33 55.7998L530.61 55.5098L530.23 56.46ZM533.54 56.4199L534.26 56.71L534.47 56.1797L533.75 55.8896L533.54 56.4199ZM529.64 55.3301L529.63 55.3398V55.5801H529.99V56.3799L530.37 55.4297L529.64 55.1396V55.3301ZM532.59 56.04L533.31 56.3301L533.521 55.7998L532.8 55.5098L532.59 56.04ZM531.64 55.6602L532.36 55.9502L532.57 55.4199L531.85 55.1299L531.64 55.6602ZM530.69 55.29L531.41 55.5801L531.62 55.0498L530.9 54.7598L530.69 55.29ZM529.74 54.9199L530.46 55.21L530.67 54.6797L529.95 54.3896L529.74 54.9199ZM530.68 52.54L530.97 52.8301L536.96 55.21L537.85 52.54H530.68ZM529.64 54.5098L529.73 54.29L529.64 54.2598V54.5098ZM295.69 48.2998C295.59 49.4898 295.49 50.64 295.38 51.75H296C295.89 50.64 295.79 49.4998 295.69 48.2998ZM511.54 45.9102L512.22 46.1797L512.3 46.0996L512.47 45.6699L511.75 45.3799L511.54 45.9102ZM523.89 45.7598L523.98 45.8496L524.07 45.6396L523.57 45.4404L523.89 45.7598ZM510.59 45.5303L511.31 45.8203L511.52 45.29L510.8 45L510.59 45.5303ZM512.78 45.5303L512.84 45.5498V45.5596L513.17 45.2305L513.63 44.7695L513.16 44.5801L512.78 45.5303ZM509.64 45.1504L510.36 45.4404L510.57 44.9102L509.85 44.6201L509.64 45.1504ZM511.84 45.1504L512.56 45.4404L512.94 44.4902L512.22 44.2002L511.84 45.1504ZM522.85 44.7197L523.14 45.0098L524.16 45.4102L524.45 44.6904L523.08 44.1504L522.85 44.7197ZM508.7 44.7695L509.42 45.0596L509.63 44.5303L508.91 44.2402L508.7 44.7695ZM510.89 44.7695L511.61 45.0596L511.99 44.1104L511.27 43.8203L510.89 44.7695ZM507.75 44.4004L508.47 44.6904L508.68 44.1602L507.96 43.8701L507.75 44.4004ZM509.94 44.4004L510.66 44.6904L511.04 43.7402L510.32 43.4502L509.94 44.4004ZM513.79 42.9902L513.25 44.3604L513.82 44.5801L514.12 44.2803L514.521 43.2695L513.8 42.9805L513.79 42.9902ZM521.87 43.7402L522.66 44.5303L522.85 44.0596H522.84L521.89 43.6797L521.87 43.7402ZM523.17 43.9297L524.54 44.4697L524.83 43.75L523.46 43.21L523.17 43.9297ZM506.8 44.0195L507.52 44.3096L507.73 43.7803L507.01 43.4902L506.8 44.0195ZM508.99 44.0195L509.71 44.3096L510.09 43.3604L509.37 43.0703L508.99 44.0195ZM512.31 43.9697L513.03 44.2598L513.57 42.8896L512.85 42.5996L512.31 43.9697ZM508.04 43.6504L508.76 43.9404L509.14 42.9902L508.42 42.7002L508.04 43.6504ZM505.85 43.6396L506.57 43.9297L506.78 43.4004L506.06 43.1104L505.85 43.6396ZM511.36 43.5898L512.08 43.8799L512.62 42.5098L511.9 42.2197L511.36 43.5898ZM514.55 43.8301L514.95 43.4297L514.74 43.3496V43.3398L514.55 43.8301ZM521.99 43.4502L522.94 43.8301L523.23 43.1104L522.28 42.7305L521.99 43.4502ZM504.91 43.2695L505.63 43.5596L505.84 43.0303L505.12 42.7402L504.91 43.2695ZM507.1 43.2695L507.82 43.5596L508.2 42.6104L507.48 42.3203L507.1 43.2695ZM523.54 42.9805L524.91 43.5195L525.2 42.7998L523.83 42.2598L523.54 42.9805ZM510.41 43.2197L511.13 43.5098L511.67 42.1396L510.95 41.8496L510.41 43.2197ZM521.521 42.4404L521.25 43.1201L521.32 43.1904L521.76 43.3604L522.05 42.6396L521.521 42.4297V42.4404ZM503.96 42.8896L504.68 43.1797L504.89 42.6504L504.17 42.3604L503.96 42.8896ZM506.15 42.8896L506.87 43.1797L507.25 42.2305L506.53 41.9404L506.15 42.8896ZM509.47 42.8398L510.19 43.1299L510.73 41.7598L510.01 41.4697L509.47 42.8398ZM522.36 42.5L523.31 42.8799L523.6 42.1602L522.65 41.7803L522.36 42.5ZM503.01 42.5195L503.73 42.8096L503.94 42.2803L503.22 41.9902L503.01 42.5195ZM505.2 42.5195L505.92 42.8096L506.3 41.8604L505.58 41.5703L505.2 42.5195ZM508.52 42.46L509.24 42.75L509.78 41.3799L509.06 41.0898L508.52 42.46ZM523.92 42.0303L525.29 42.5703L525.58 41.8496L524.21 41.3096L523.92 42.0303ZM502.06 42.1396L502.78 42.4297L502.99 41.9004L502.27 41.6104L502.06 42.1396ZM504.25 42.1396L504.97 42.4297L505.35 41.4805L504.63 41.1904L504.25 42.1396ZM521.61 42.21L522.14 42.4199L522.43 41.7002L521.9 41.4902L521.61 42.21ZM507.57 42.0898L508.29 42.3799L508.83 41.0098L508.11 40.7197L507.57 42.0898ZM503.31 41.7695L504.03 42.0596L504.41 41.1104L503.69 40.8203L503.31 41.7695ZM501.12 41.7598L501.84 42.0498L502.05 41.5195L501.33 41.2305L501.12 41.7598ZM506.62 41.71L507.34 42L507.88 40.6299L507.16 40.3398L506.62 41.71ZM522.74 41.5498L523.69 41.9297L523.98 41.21L523.03 40.8301L522.74 41.5498ZM500.17 41.3896L500.89 41.6797L501.1 41.1504L500.38 40.8604L500.17 41.3896ZM502.36 41.3896L503.08 41.6797L503.46 40.7305L502.74 40.4404L502.36 41.3896ZM505.68 41.3398L506.4 41.6299L506.94 40.2598L506.22 39.9697L505.68 41.3398ZM524.29 41.0801L525.66 41.6201L525.95 40.9004L524.58 40.3604L524.29 41.0801ZM521.98 41.2598L522.51 41.4697L522.8 40.75L522.271 40.54L521.98 41.2598ZM499.22 41.0098L499.94 41.2998L500.15 40.7695L499.43 40.4805L499.22 41.0098ZM501.41 41.0098L502.13 41.2998L502.51 40.3496L501.79 40.0596L501.41 41.0098ZM504.73 40.96L505.45 41.25L505.99 39.8799L505.27 39.5898L504.73 40.96ZM523.11 40.6104L524.06 40.9902L524.35 40.2695L523.4 39.8896L523.11 40.6104ZM498.27 40.6396L498.99 40.9297L499.2 40.4004L498.48 40.1104L498.27 40.6396ZM500.46 40.6396L501.18 40.9297L501.56 39.9805L500.84 39.6904L500.46 40.6396ZM503.78 40.5898L504.5 40.8799L505.04 39.5098L504.32 39.2197L503.78 40.5898ZM524.67 40.1396L526.04 40.6797L526.33 39.96L524.96 39.4199L524.67 40.1396ZM497.32 40.2598L498.04 40.5498L498.25 40.0195L497.53 39.7305L497.32 40.2598ZM499.51 40.2598L500.23 40.5498L500.61 39.5996L499.89 39.3096L499.51 40.2598ZM522.36 40.3096L522.89 40.5195L523.18 39.7998L522.65 39.5898L522.36 40.3096ZM502.83 40.21L503.55 40.5L504.09 39.1299L503.37 38.8398L502.83 40.21ZM498.57 39.8896L499.29 40.1797L499.67 39.2305L498.95 38.9404L498.57 39.8896ZM496.38 39.8799L497.1 40.1699L497.31 39.6396L496.59 39.3496L496.38 39.8799ZM501.88 39.8398L502.6 40.1299L503.14 38.7598L502.42 38.4697L501.88 39.8398ZM523.49 39.6602L524.44 40.04L524.73 39.3203L523.78 38.9404L523.49 39.6602ZM495.43 39.5098L496.15 39.7998L496.36 39.2695L495.64 38.9805L495.43 39.5098ZM497.62 39.5098L498.34 39.7998L498.72 38.8496L498 38.5596L497.62 39.5098ZM500.94 39.46L501.66 39.75L502.2 38.3799L501.48 38.0898L500.94 39.46ZM525.05 39.1904L526.42 39.7305L526.71 39.0098L525.34 38.4697L525.05 39.1904ZM522.73 39.3604L523.26 39.5703L523.55 38.8496L523.021 38.6396L522.73 39.3604ZM494.48 39.1299L495.2 39.4199L495.41 38.8896L494.69 38.5996L494.48 39.1299ZM496.67 39.1299L497.39 39.4199L497.77 38.4697L497.05 38.1797L496.67 39.1299ZM499.99 39.0801L500.71 39.3701L501.25 38L500.53 37.71L499.99 39.0801ZM523.87 38.71L524.82 39.0898L525.11 38.3701L524.16 37.9902L523.87 38.71ZM493.53 38.7598L494.25 39.0498L494.46 38.5195L493.74 38.2305L493.53 38.7598ZM495.72 38.7598L496.44 39.0498L496.82 38.0996L496.1 37.8096L495.72 38.7598ZM499.04 38.7002L499.76 38.9902L500.3 37.6201L499.58 37.3301L499.04 38.7002ZM525.42 38.2402L526.79 38.7803L527.08 38.0596L525.71 37.5195L525.42 38.2402ZM492.59 38.3799L493.31 38.6699L493.52 38.1396L492.8 37.8496L492.59 38.3799ZM494.78 38.3799L495.5 38.6699L495.88 37.7197L495.16 37.4297L494.78 38.3799ZM523.11 38.4199L523.64 38.6299L523.93 37.9102L523.4 37.7002L523.11 38.4199ZM498.09 38.3301L498.81 38.6201L499.35 37.25L498.63 36.96L498.09 38.3301ZM493.83 38.0098L494.55 38.2998L494.93 37.3496L494.21 37.0596L493.83 38.0098ZM491.64 38L492.36 38.29L492.57 37.7598L491.85 37.4697L491.64 38ZM497.15 37.96L497.87 38.25L498.41 36.8799L497.69 36.5898L497.15 37.96ZM524.24 37.7598L525.19 38.1396L525.48 37.4199L524.53 37.04L524.24 37.7598ZM490.69 37.6299L491.41 37.9199L491.62 37.3896L490.9 37.0996L490.69 37.6299ZM492.88 37.6299L493.6 37.9199L493.98 36.9697L493.26 36.6797L492.88 37.6299ZM496.2 37.5801L496.92 37.8701L497.46 36.5L496.74 36.21L496.2 37.5801ZM525.8 37.29L527.17 37.8301L527.46 37.1104L526.09 36.5703L525.8 37.29ZM523.49 37.4697L524.021 37.6797L524.31 36.96L523.78 36.75L523.49 37.4697ZM489.74 37.25L490.46 37.54L490.67 37.0098L489.95 36.7197L489.74 37.25ZM491.93 37.25L492.65 37.54L493.03 36.5898L492.31 36.2998L491.93 37.25ZM495.25 37.2002L495.97 37.4902L496.51 36.1201L495.79 35.8301L495.25 37.2002ZM524.62 36.8203L525.57 37.2002L525.86 36.4805L524.91 36.0996L524.62 36.8203ZM488.79 36.8799L489.51 37.1699L489.72 36.6396L489 36.3496L488.79 36.8799ZM490.98 36.8799L491.7 37.1699L492.08 36.2197L491.36 35.9297L490.98 36.8799ZM494.3 36.8301L495.02 37.1201L495.56 35.75L494.84 35.46L494.3 36.8301ZM526.17 36.3398L527.54 36.8799L527.83 36.1602L526.46 35.6201L526.17 36.3398ZM487.85 36.5L488.57 36.79L488.78 36.2598L488.06 35.9697L487.85 36.5ZM490.04 36.5L490.76 36.79L491.14 35.8398L490.42 35.5498L490.04 36.5ZM493.36 36.4502L494.08 36.7402L494.62 35.3701L493.9 35.0801L493.36 36.4502ZM523.86 36.5195L524.39 36.7305L524.68 36.0098L524.15 35.7998L523.86 36.5195ZM489.09 36.1299L489.81 36.4199L490.19 35.4697L489.47 35.1797L489.09 36.1299ZM486.9 36.1201L487.62 36.4102L487.83 35.8799L487.11 35.5898L486.9 36.1201ZM492.41 36.0703L493.13 36.3604L493.67 34.9902L492.95 34.7002L492.41 36.0703ZM524.99 35.8701L525.94 36.25L526.23 35.5303L525.28 35.1504L524.99 35.8701ZM239.05 36.0801H247.74C245.35 32.4102 242.4 28.9202 238.73 25.7803L239.05 36.0801ZM485.95 35.75L486.67 36.04L486.88 35.5098L486.16 35.2197L485.95 35.75ZM488.14 35.75L488.86 36.04L489.24 35.0898L488.52 34.7998L488.14 35.75ZM491.46 35.7002L492.18 35.9902L492.72 34.6201L492 34.3301L491.46 35.7002ZM526.55 35.4004L527.92 35.9404L528.21 35.2197L526.84 34.6797L526.55 35.4004ZM524.24 35.5703L524.771 35.7803L525.06 35.0596L524.53 34.8496L524.24 35.5703ZM485 35.3701L485.72 35.6602L485.93 35.1299L485.21 34.8398L485 35.3701ZM487.19 35.3701L487.91 35.6602L488.29 34.71L487.57 34.4199L487.19 35.3701ZM490.51 35.3203L491.23 35.6104L491.77 34.2402L491.05 33.9502L490.51 35.3203ZM525.37 34.9199L526.32 35.2998L526.61 34.5801L525.66 34.2002L525.37 34.9199ZM486.25 34.9902L486.97 35.2803L487.35 34.3301L486.63 34.04L486.25 34.9902ZM489.57 34.9404L490.29 35.2305L490.83 33.8604L490.11 33.5703L489.57 34.9404ZM526.93 34.4502L528.3 34.9902L528.59 34.2695L527.22 33.7305L526.93 34.4502ZM485.3 34.6201L486.02 34.9102L486.4 33.96L485.68 33.6699L485.3 34.6201ZM488.62 34.5703L489.34 34.8604L489.88 33.4902L489.16 33.2002L488.62 34.5703ZM524.61 34.6201L525.14 34.8301L525.43 34.1104L524.9 33.9004L524.61 34.6201ZM487.67 34.1904L488.39 34.4805L488.93 33.1104L488.21 32.8203L487.67 34.1904ZM525.75 33.9697L526.7 34.3496L526.99 33.6299L526.04 33.25L525.75 33.9697ZM486.72 33.8203L487.44 34.1104L487.98 32.7402L487.26 32.4502L486.72 33.8203ZM527.3 33.5L528.67 34.04L528.96 33.3203L527.59 32.7803L527.3 33.5ZM524.99 33.6797L525.521 33.8896L525.81 33.1699L525.28 32.96L524.99 33.6797ZM486.09 32.6299L485.77 33.4404L486.49 33.7305L487.03 32.3604L486.31 32.0703L486.09 32.6299ZM526.12 33.0303L527.07 33.4102L527.36 32.6904L526.41 32.3096L526.12 33.0303ZM527.68 32.5498L529.05 33.0898L529.34 32.3701L527.97 31.8301L527.68 32.5498ZM525.37 32.7305L525.9 32.9404L526.19 32.2197L525.66 32.0098L525.37 32.7305ZM526.5 32.0801L527.45 32.46L527.74 31.7402L526.79 31.3604L526.5 32.0801ZM528.05 31.6104L529.42 32.1504L529.71 31.4297L528.34 30.8896L528.05 31.6104ZM525.74 31.7803L526.271 31.9902L526.56 31.2695L526.03 31.0596L525.74 31.7803ZM526.87 31.1299L527.82 31.5098L528.11 30.79L527.16 30.4102L526.87 31.1299ZM528.43 30.6602L529.8 31.2002L530.09 30.4805L528.72 29.9404L528.43 30.6602ZM526.12 30.8301L526.65 31.04L526.94 30.3203L526.41 30.1104L526.12 30.8301ZM527.25 30.1797L528.2 30.5596L528.49 29.8398L527.54 29.46L527.25 30.1797ZM528.81 29.71L530.18 30.25L530.47 29.5303L529.1 28.9902L528.81 29.71ZM526.49 29.8896L527.021 30.0996L527.31 29.3799L526.78 29.1699L526.49 29.8896ZM527.63 29.2305L528.58 29.6104L528.87 28.8896L527.92 28.5098L527.63 29.2305ZM529.18 28.7598L530.55 29.2998L530.84 28.5801L529.47 28.04L529.18 28.7598ZM526.87 28.9404L527.4 29.1504L527.69 28.4297L527.16 28.2197L526.87 28.9404ZM528 28.29L528.95 28.6699L529.24 27.9502L528.29 27.5703L528 28.29ZM529.56 27.8203L530.93 28.3604L531.22 27.6396L529.85 27.0996L529.56 27.8203ZM527.25 27.9902L527.78 28.2002L528.07 27.4805L527.54 27.2695L527.25 27.9902ZM528.38 27.3398L529.33 27.7197L529.62 27L528.67 26.6201L528.38 27.3398ZM529.93 26.8701L531.3 27.4102L531.59 26.6904L530.22 26.1504L529.93 26.8701ZM527.62 27.04L528.15 27.25L528.44 26.5303L527.91 26.3203L527.62 27.04ZM528.75 26.3896L529.7 26.7695L529.99 26.0498L529.04 25.6699L528.75 26.3896ZM530.31 25.9199L531.68 26.46L531.97 25.7402L530.6 25.2002L530.31 25.9199ZM528 26.0996L528.53 26.3096L528.82 25.5898L528.29 25.3799L528 26.0996ZM529.13 25.4404L530.08 25.8203L530.37 25.0996L529.42 24.7197L529.13 25.4404ZM530.69 24.9697L532.06 25.5098L532.35 24.79L530.98 24.25L530.69 24.9697ZM528.37 25.1504L528.9 25.3604L529.19 24.6396L528.66 24.4297L528.37 25.1504ZM529.51 24.5L530.46 24.8799L530.75 24.1602L529.8 23.7803L529.51 24.5ZM531.06 24.0195L532.43 24.5596L532.72 23.8398L531.35 23.2998L531.06 24.0195ZM528.75 24.2002L529.28 24.4102L529.57 23.6904L529.04 23.4805L528.75 24.2002ZM529.88 23.5498L530.83 23.9297L531.12 23.21L530.17 22.8301L529.88 23.5498ZM531.44 23.0801L532.81 23.6201L533.1 22.9004L531.73 22.3604L531.44 23.0801ZM529.13 23.25L529.66 23.46L529.95 22.7402L529.42 22.5303L529.13 23.25ZM530.26 22.5996L531.21 22.9805L531.5 22.2598L530.55 21.8799L530.26 22.5996ZM531.81 22.1299L533.18 22.6699L533.47 21.9502L532.1 21.4102L531.81 22.1299ZM529.5 22.2998L530.03 22.5098L530.32 21.79L529.79 21.5801L529.5 22.2998ZM530.63 21.6504L531.58 22.0303L531.87 21.3096L530.92 20.9297L530.63 21.6504ZM532.19 21.1797L533.56 21.7197L533.85 21L532.48 20.46L532.19 21.1797ZM529.88 21.3604L530.41 21.5703L530.7 20.8496L530.17 20.6396L529.88 21.3604ZM531.01 20.71L531.96 21.0898L532.25 20.3701L531.3 19.9902L531.01 20.71ZM532.57 20.2305L533.94 20.7695L534.23 20.0498L532.86 19.5098L532.57 20.2305ZM530.25 20.4102L530.78 20.6201L531.07 19.9004L530.54 19.6904L530.25 20.4102ZM531.38 19.7598L532.33 20.1396L532.62 19.4199L531.67 19.04L531.38 19.7598ZM532.94 19.29L534.31 19.8301L534.6 19.1104L533.23 18.5703L532.94 19.29ZM530.63 19.46L531.16 19.6699L531.45 18.9502L530.92 18.7402L530.63 19.46ZM531.76 18.8096L532.71 19.1904L533 18.4697L532.05 18.0898L531.76 18.8096ZM533.32 18.3398L534.69 18.8799L534.98 18.1602L533.61 17.6201L533.32 18.3398ZM531.01 18.5098L531.54 18.7197L531.83 18L531.3 17.79L531.01 18.5098ZM532.14 17.8701L533.09 18.25L533.38 17.5303L532.43 17.1504L532.14 17.8701ZM533.69 17.3896L535.06 17.9297L535.35 17.21L533.98 16.6699L533.69 17.3896ZM531.38 17.5703L531.91 17.7803L532.2 17.0596L531.67 16.8496L531.38 17.5703ZM532.51 16.9199L533.46 17.2998L533.75 16.5801L533.33 16.4102L532.8 16.2002L532.51 16.9199ZM531.76 16.6201L532.29 16.8301L532.58 16.1104L532.05 15.9004L531.76 16.6201Z" fill="#0046AA"/>
</svg>
