<svg width="492" height="85" viewBox="0 0 492 85" fill="none" xmlns="http://www.w3.org/2000/svg">
<path d="M33.0815 38.0087V84.4636L0 57.7168V38.0087H33.0815Z" fill="#001F51"/>
<path d="M418.798 4.57764e-05V57.7168L488.481 26.0769L418.798 4.57764e-05Z" fill="#CFCFCF"/>
<path d="M477.219 21.1159V32.3777L492 26.2041L477.219 21.1159Z" fill="#2A2A2A"/>
<rect width="418.798" height="57.7167" fill="#1B4FA3"/>
<path d="M49.174 33.9727L53.3601 16.9831H55.6263L55.7707 20.5629L51.2959 38H48.8998L49.174 33.9727ZM46.5325 16.9831L49.9679 33.915V38H47.3553L42.5918 16.9831H46.5325ZM60.1155 33.8428L63.4932 16.9831H67.4483L62.6849 38H60.0722L60.1155 33.8428ZM56.7089 16.9831L60.895 34.0305L61.1404 38H58.7442L54.2839 20.5485L54.4571 16.9831H56.7089ZM76.2246 38.2887C75.041 38.2887 73.9776 38.0962 73.0346 37.7113C72.0915 37.3264 71.288 36.7923 70.624 36.1091C69.9696 35.4162 69.4644 34.6127 69.1083 33.6985C68.7619 32.7746 68.5887 31.7835 68.5887 30.7249V30.1475C68.5887 28.9446 68.7619 27.8524 69.1083 26.8709C69.4548 25.8797 69.9455 25.028 70.5807 24.3159C71.2158 23.6038 71.976 23.0553 72.8614 22.6704C73.7467 22.2854 74.7234 22.093 75.7916 22.093C76.8983 22.093 77.875 22.2806 78.7218 22.6559C79.5687 23.0216 80.276 23.5413 80.8437 24.2149C81.4115 24.8885 81.8397 25.6968 82.1284 26.6399C82.4171 27.5733 82.5615 28.6078 82.5615 29.7434V31.3456H70.3208V28.7185H78.8084V28.4298C78.7892 27.8235 78.6737 27.2702 78.462 26.7698C78.2503 26.2598 77.9231 25.8556 77.4805 25.5573C77.0378 25.2494 76.4652 25.0954 75.7627 25.0954C75.195 25.0954 74.6994 25.2205 74.276 25.4707C73.8622 25.7113 73.5157 26.0577 73.2367 26.51C72.9672 26.9527 72.7651 27.4819 72.6304 28.0978C72.4957 28.7137 72.4283 29.3969 72.4283 30.1475V30.7249C72.4283 31.3793 72.5149 31.9855 72.6881 32.5437C72.871 33.1018 73.1356 33.5878 73.482 34.0016C73.8381 34.4058 74.2615 34.7233 74.7523 34.9543C75.2527 35.1756 75.8205 35.2863 76.4556 35.2863C77.2543 35.2863 77.976 35.1323 78.6208 34.8244C79.2752 34.5068 79.8429 34.0401 80.3241 33.4242L82.2439 35.4162C81.9167 35.8973 81.474 36.3593 80.9159 36.8019C80.3674 37.2446 79.7034 37.6055 78.9239 37.8845C78.1444 38.154 77.2447 38.2887 76.2246 38.2887ZM98.8871 35.2863C99.426 35.2863 99.9071 35.1804 100.331 34.9687C100.754 34.757 101.091 34.4587 101.341 34.0738C101.601 33.6888 101.74 33.2414 101.76 32.7313H105.354C105.335 33.7899 105.036 34.7378 104.459 35.575C103.881 36.4122 103.112 37.0762 102.149 37.567C101.197 38.0481 100.128 38.2887 98.9448 38.2887C97.7419 38.2887 96.693 38.0866 95.7981 37.6824C94.9031 37.2783 94.1573 36.7153 93.5607 35.9936C92.9737 35.2718 92.531 34.4346 92.2327 33.4819C91.944 32.5293 91.7997 31.5092 91.7997 30.4218V29.9599C91.7997 28.8725 91.944 27.8524 92.2327 26.8997C92.531 25.947 92.9737 25.1098 93.5607 24.3881C94.1573 23.6664 94.9031 23.1034 95.7981 22.6992C96.693 22.2951 97.7371 22.093 98.9304 22.093C100.191 22.093 101.298 22.3384 102.25 22.8291C103.213 23.3199 103.963 24.0128 104.502 24.9077C105.051 25.8027 105.335 26.8564 105.354 28.0689H101.76C101.74 27.5108 101.615 27.0104 101.384 26.5677C101.153 26.1251 100.826 25.769 100.403 25.4996C99.9793 25.2301 99.4645 25.0954 98.8582 25.0954C98.2135 25.0954 97.6746 25.2301 97.2415 25.4996C96.8181 25.769 96.4861 26.1395 96.2455 26.611C96.0146 27.0729 95.851 27.5926 95.7548 28.17C95.6682 28.7377 95.6248 29.3344 95.6248 29.9599V30.4218C95.6248 31.0569 95.6682 31.6632 95.7548 32.2406C95.851 32.8179 96.0146 33.3376 96.2455 33.7995C96.4861 34.2518 96.8181 34.6127 97.2415 34.8821C97.6746 35.1516 98.2231 35.2863 98.8871 35.2863ZM116.497 34.68V27.4771C116.497 26.9478 116.406 26.4907 116.223 26.1058C116.04 25.7209 115.761 25.4226 115.386 25.2109C115.011 24.9992 114.534 24.8933 113.957 24.8933C113.447 24.8933 112.999 24.9799 112.614 25.1531C112.239 25.3263 111.95 25.5717 111.748 25.8893C111.546 26.1972 111.445 26.5533 111.445 26.9575H107.62C107.62 26.3127 107.774 25.7016 108.082 25.1243C108.39 24.5373 108.828 24.0176 109.396 23.5653C109.973 23.1034 110.661 22.7425 111.46 22.4827C112.268 22.2229 113.173 22.093 114.173 22.093C115.357 22.093 116.411 22.2951 117.335 22.6992C118.268 23.0938 118.999 23.6904 119.529 24.4891C120.068 25.2879 120.337 26.2935 120.337 27.506V34.3192C120.337 35.0986 120.385 35.7674 120.481 36.3256C120.587 36.8741 120.741 37.3504 120.943 37.7546V38H117.06C116.878 37.6055 116.738 37.105 116.642 36.4988C116.546 35.8829 116.497 35.2767 116.497 34.68ZM117.031 28.4875L117.06 30.7538H114.65C114.053 30.7538 113.529 30.8163 113.076 30.9414C112.624 31.0569 112.254 31.2301 111.965 31.4611C111.676 31.6824 111.46 31.9519 111.315 32.2694C111.171 32.5774 111.099 32.9286 111.099 33.3232C111.099 33.7081 111.185 34.0545 111.359 34.3625C111.541 34.6704 111.801 34.9158 112.138 35.0986C112.485 35.2718 112.889 35.3585 113.351 35.3585C114.024 35.3585 114.611 35.2237 115.112 34.9543C115.612 34.6752 116.002 34.3384 116.281 33.9439C116.56 33.5493 116.709 33.174 116.728 32.8179L117.825 34.4635C117.691 34.8581 117.489 35.2767 117.219 35.7193C116.95 36.162 116.603 36.5758 116.18 36.9607C115.756 37.3456 115.246 37.6632 114.65 37.9134C114.053 38.1636 113.36 38.2887 112.571 38.2887C111.561 38.2887 110.656 38.0866 109.857 37.6824C109.059 37.2783 108.428 36.7249 107.967 36.0224C107.505 35.32 107.274 34.5212 107.274 33.6263C107.274 32.7987 107.428 32.0673 107.736 31.4322C108.043 30.7971 108.501 30.263 109.107 29.83C109.713 29.3873 110.464 29.0553 111.359 28.834C112.263 28.603 113.298 28.4875 114.462 28.4875H117.031ZM127.511 25.7161V38H123.7V22.3817H127.28L127.511 25.7161ZM126.905 29.6279H125.779C125.789 28.4924 125.942 27.4627 126.241 26.5389C126.539 25.615 126.958 24.8211 127.497 24.1571C128.045 23.4931 128.695 22.9831 129.445 22.6271C130.196 22.271 131.033 22.093 131.957 22.093C132.708 22.093 133.386 22.1988 133.992 22.4105C134.598 22.6222 135.118 22.9591 135.551 23.421C135.994 23.8829 136.331 24.4891 136.562 25.2397C136.802 25.9807 136.922 26.8949 136.922 27.9823V38H133.083V27.9535C133.083 27.2413 132.977 26.6784 132.765 26.2646C132.563 25.8508 132.265 25.5573 131.87 25.3841C131.485 25.2109 131.009 25.1243 130.441 25.1243C129.854 25.1243 129.339 25.2446 128.897 25.4851C128.464 25.7161 128.098 26.0385 127.8 26.4523C127.511 26.866 127.29 27.3424 127.136 27.8813C126.982 28.4202 126.905 29.0024 126.905 29.6279ZM151.386 15.8283V38H147.561V15.8283H151.386ZM150.78 29.6279H149.654C149.654 28.5405 149.798 27.5397 150.087 26.6255C150.376 25.7113 150.785 24.9174 151.314 24.2437C151.843 23.5605 152.473 23.0312 153.205 22.6559C153.946 22.2806 154.764 22.093 155.659 22.093C156.429 22.093 157.126 22.2036 157.752 22.425C158.387 22.6367 158.931 22.9783 159.383 23.4498C159.835 23.9214 160.182 24.5373 160.422 25.2975C160.672 26.0481 160.797 26.9623 160.797 28.0401V38H156.958V28.0112C156.958 27.2895 156.852 26.7217 156.64 26.3079C156.429 25.8845 156.125 25.5814 155.731 25.3985C155.346 25.2157 154.87 25.1243 154.302 25.1243C153.686 25.1243 153.157 25.2446 152.714 25.4851C152.271 25.7161 151.906 26.0385 151.617 26.4523C151.338 26.866 151.126 27.3424 150.982 27.8813C150.847 28.4202 150.78 29.0024 150.78 29.6279ZM171.176 38.2887C169.992 38.2887 168.929 38.0962 167.986 37.7113C167.043 37.3264 166.239 36.7923 165.575 36.1091C164.921 35.4162 164.416 34.6127 164.06 33.6985C163.713 32.7746 163.54 31.7835 163.54 30.7249V30.1475C163.54 28.9446 163.713 27.8524 164.06 26.8709C164.406 25.8797 164.897 25.028 165.532 24.3159C166.167 23.6038 166.927 23.0553 167.813 22.6704C168.698 22.2854 169.675 22.093 170.743 22.093C171.85 22.093 172.826 22.2806 173.673 22.6559C174.52 23.0216 175.227 23.5413 175.795 24.2149C176.363 24.8885 176.791 25.6968 177.08 26.6399C177.368 27.5733 177.513 28.6078 177.513 29.7434V31.3456H165.272V28.7185H173.76V28.4298C173.741 27.8235 173.625 27.2702 173.413 26.7698C173.202 26.2598 172.874 25.8556 172.432 25.5573C171.989 25.2494 171.417 25.0954 170.714 25.0954C170.146 25.0954 169.651 25.2205 169.227 25.4707C168.814 25.7113 168.467 26.0577 168.188 26.51C167.919 26.9527 167.716 27.4819 167.582 28.0978C167.447 28.7137 167.38 29.3969 167.38 30.1475V30.7249C167.38 31.3793 167.466 31.9855 167.639 32.5437C167.822 33.1018 168.087 33.5878 168.433 34.0016C168.789 34.4058 169.213 34.7233 169.704 34.9543C170.204 35.1756 170.772 35.2863 171.407 35.2863C172.206 35.2863 172.927 35.1323 173.572 34.8244C174.227 34.5068 174.794 34.0401 175.275 33.4242L177.195 35.4162C176.868 35.8973 176.425 36.3593 175.867 36.8019C175.319 37.2446 174.655 37.6055 173.875 37.8845C173.096 38.154 172.196 38.2887 171.176 38.2887ZM184.109 15.8283V38H180.284V15.8283H184.109ZM191.558 25.3841V44.0048H187.733V22.3817H191.269L191.558 25.3841ZM201.59 30.0321V30.3352C201.59 31.4707 201.455 32.5244 201.186 33.4964C200.926 34.4587 200.541 35.3007 200.031 36.0224C199.521 36.7346 198.886 37.2927 198.126 37.6969C197.375 38.0914 196.509 38.2887 195.527 38.2887C194.565 38.2887 193.728 38.1059 193.016 37.7402C192.304 37.3649 191.702 36.8356 191.211 36.1524C190.721 35.4691 190.326 34.6752 190.028 33.7706C189.739 32.8564 189.522 31.8604 189.378 30.7827V29.8155C189.522 28.6704 189.739 27.6311 190.028 26.6976C190.326 25.7546 190.721 24.9414 191.211 24.2582C191.702 23.5653 192.299 23.0312 193.001 22.6559C193.713 22.2806 194.546 22.093 195.498 22.093C196.49 22.093 197.361 22.2806 198.111 22.6559C198.871 23.0312 199.511 23.5701 200.031 24.2726C200.551 24.9751 200.94 25.8123 201.2 26.7843C201.46 27.7562 201.59 28.8388 201.59 30.0321ZM197.765 30.3352V30.0321C197.765 29.3392 197.702 28.6993 197.577 28.1122C197.452 27.5156 197.259 26.996 197 26.5533C196.74 26.101 196.403 25.7498 195.989 25.4996C195.575 25.2494 195.075 25.1243 194.488 25.1243C193.901 25.1243 193.396 25.2205 192.972 25.413C192.549 25.6054 192.203 25.8797 191.933 26.2357C191.664 26.5918 191.452 27.0152 191.298 27.506C191.154 27.9871 191.057 28.5212 191.009 29.1082V31.5044C191.096 32.2165 191.264 32.8564 191.514 33.4242C191.765 33.992 192.13 34.4443 192.611 34.7811C193.102 35.1179 193.737 35.2863 194.517 35.2863C195.104 35.2863 195.604 35.1564 196.018 34.8965C196.432 34.6367 196.769 34.2807 197.029 33.8284C197.288 33.3665 197.476 32.8372 197.591 32.2406C197.707 31.6439 197.765 31.0088 197.765 30.3352ZM216.313 36.2678L220.499 22.3817H224.584L218.32 40.3673C218.175 40.7522 217.988 41.1708 217.757 41.6231C217.535 42.0754 217.237 42.5036 216.862 42.9078C216.486 43.3216 216.015 43.6584 215.447 43.9182C214.889 44.178 214.211 44.308 213.412 44.308C213.065 44.308 212.758 44.2839 212.488 44.2358C212.219 44.1877 211.935 44.1251 211.636 44.0481V41.1901C211.733 41.1997 211.843 41.2045 211.968 41.2045C212.103 41.2141 212.219 41.2189 212.315 41.2189C212.873 41.2189 213.335 41.1516 213.701 41.0168C214.066 40.8917 214.36 40.6849 214.581 40.3962C214.812 40.1171 215.005 39.7514 215.158 39.2991L216.313 36.2678ZM214.249 22.3817L217.786 33.8861L218.406 37.9134L215.779 38.3897L210.135 22.3817H214.249ZM225.523 30.3496V30.0465C225.523 28.9013 225.686 27.8476 226.013 26.8853C226.341 25.9134 226.817 25.0713 227.442 24.3592C228.068 23.6471 228.833 23.0938 229.738 22.6992C230.642 22.2951 231.672 22.093 232.827 22.093C234.001 22.093 235.04 22.2951 235.944 22.6992C236.859 23.0938 237.628 23.6471 238.254 24.3592C238.879 25.0713 239.356 25.9134 239.683 26.8853C240.01 27.8476 240.174 28.9013 240.174 30.0465V30.3496C240.174 31.4851 240.01 32.5389 239.683 33.5108C239.356 34.4731 238.879 35.3151 238.254 36.0369C237.628 36.749 236.863 37.3023 235.959 37.6969C235.054 38.0914 234.02 38.2887 232.855 38.2887C231.701 38.2887 230.666 38.0914 229.752 37.6969C228.838 37.3023 228.068 36.749 227.442 36.0369C226.817 35.3151 226.341 34.4731 226.013 33.5108C225.686 32.5389 225.523 31.4851 225.523 30.3496ZM229.333 30.0465V30.3496C229.333 31.0329 229.401 31.6728 229.535 32.2694C229.67 32.8661 229.877 33.3905 230.156 33.8428C230.435 34.2951 230.796 34.6512 231.239 34.911C231.691 35.1612 232.23 35.2863 232.855 35.2863C233.471 35.2863 234.001 35.1612 234.443 34.911C234.886 34.6512 235.247 34.2951 235.526 33.8428C235.815 33.3905 236.026 32.8661 236.161 32.2694C236.296 31.6728 236.363 31.0329 236.363 30.3496V30.0465C236.363 29.3729 236.296 28.7426 236.161 28.1555C236.026 27.5589 235.815 27.0345 235.526 26.5822C235.247 26.1203 234.881 25.7594 234.429 25.4996C233.986 25.2301 233.452 25.0954 232.827 25.0954C232.211 25.0954 231.681 25.2301 231.239 25.4996C230.796 25.7594 230.435 26.1203 230.156 26.5822C229.877 27.0345 229.67 27.5589 229.535 28.1555C229.401 28.7426 229.333 29.3729 229.333 30.0465ZM252.241 34.2903V22.3817H256.081V38H252.472L252.241 34.2903ZM252.732 31.0569L253.916 31.028C253.916 32.077 253.8 33.0441 253.569 33.9294C253.338 34.8147 252.977 35.5846 252.487 36.239C252.005 36.8837 251.394 37.3889 250.653 37.7546C249.912 38.1107 249.037 38.2887 248.026 38.2887C247.256 38.2887 246.554 38.1828 245.919 37.9711C245.284 37.7498 244.735 37.4082 244.273 36.9463C243.821 36.4747 243.47 35.8733 243.219 35.1419C242.969 34.401 242.844 33.5108 242.844 32.4715V22.3817H246.655V32.5004C246.655 33.02 246.713 33.4531 246.828 33.7995C246.953 34.1459 247.122 34.4298 247.333 34.6512C247.555 34.8629 247.81 35.0168 248.098 35.1131C248.397 35.1997 248.714 35.243 249.051 35.243C249.975 35.243 250.701 35.0601 251.231 34.6945C251.77 34.3192 252.155 33.8188 252.386 33.1933C252.616 32.5581 252.732 31.846 252.732 31.0569ZM271.165 34.247L274.586 22.3817H277.011L276.289 26.4811L272.839 38H270.746L271.165 34.247ZM269.274 22.3817L271.843 34.2759L272.074 38H269.664L265.564 22.3817H269.274ZM280.187 34.1026L282.698 22.3817H286.394L282.323 38H279.912L280.187 34.1026ZM277.386 22.3817L280.779 34.1315L281.226 38H279.133L275.654 26.4811L274.947 22.3817H277.386ZM292.687 22.3817V38H288.862V22.3817H292.687ZM288.602 18.2967C288.602 17.7289 288.795 17.2574 289.18 16.8821C289.574 16.5068 290.103 16.3191 290.767 16.3191C291.431 16.3191 291.956 16.5068 292.341 16.8821C292.735 17.2574 292.933 17.7289 292.933 18.2967C292.933 18.8548 292.735 19.3215 292.341 19.6968C291.956 20.0721 291.431 20.2598 290.767 20.2598C290.103 20.2598 289.574 20.0721 289.18 19.6968C288.795 19.3215 288.602 18.8548 288.602 18.2967ZM303.715 22.3817V25.1243H294.766V22.3817H303.715ZM297.162 18.542H300.987V33.4964C300.987 33.9583 301.05 34.3143 301.175 34.5645C301.3 34.8147 301.488 34.9832 301.738 35.0698C301.988 35.1564 302.286 35.1997 302.633 35.1997C302.883 35.1997 303.114 35.1852 303.326 35.1564C303.537 35.1275 303.715 35.0986 303.86 35.0698L303.874 37.9278C303.556 38.0337 303.196 38.1203 302.791 38.1877C302.397 38.255 301.949 38.2887 301.449 38.2887C300.593 38.2887 299.842 38.1443 299.197 37.8557C298.552 37.5573 298.052 37.081 297.696 36.4266C297.34 35.7626 297.162 34.8869 297.162 33.7995V18.542ZM309.994 15.8283V38H306.169V15.8283H309.994ZM309.388 29.6279H308.262C308.262 28.5405 308.407 27.5397 308.695 26.6255C308.984 25.7113 309.393 24.9174 309.922 24.2437C310.451 23.5605 311.082 23.0312 311.813 22.6559C312.554 22.2806 313.372 22.093 314.267 22.093C315.037 22.093 315.735 22.2036 316.36 22.425C316.995 22.6367 317.539 22.9783 317.991 23.4498C318.443 23.9214 318.79 24.5373 319.03 25.2975C319.281 26.0481 319.406 26.9623 319.406 28.0401V38H315.566V28.0112C315.566 27.2895 315.46 26.7217 315.249 26.3079C315.037 25.8845 314.734 25.5814 314.339 25.3985C313.954 25.2157 313.478 25.1243 312.91 25.1243C312.294 25.1243 311.765 25.2446 311.322 25.4851C310.88 25.7161 310.514 26.0385 310.225 26.4523C309.946 26.866 309.735 27.3424 309.59 27.8813C309.455 28.4202 309.388 29.0024 309.388 29.6279Z" fill="white"/>
</svg>
