<svg width="105" height="104" viewBox="0 0 105 104" fill="none" xmlns="http://www.w3.org/2000/svg">
<g clip-path="url(#clip0_753_625)">
<path d="M76.0826 56.5897L59.6969 46.8421L56.4704 28.0452C56.2793 26.9321 55.7514 25.9044 54.9579 25.1008C54.1644 24.2972 53.1435 23.7563 52.0329 23.5511C50.9224 23.3459 49.7756 23.4864 48.7474 23.9534C47.7191 24.4205 46.8589 25.1917 46.2827 26.163L36.512 42.5586L17.7151 45.7851C16.6021 45.9762 15.5744 46.5041 14.7708 47.2976C13.9671 48.0911 13.4263 49.112 13.2211 50.2225C13.0159 51.3331 13.1563 52.4799 13.6234 53.5081C14.0904 54.5364 14.8616 55.3966 15.8329 55.9728L32.2286 65.7435L35.4551 84.5403C35.6461 85.6534 36.174 86.6811 36.9675 87.4847C37.761 88.2883 38.7819 88.8292 39.8925 89.0344C41.003 89.2396 42.1498 89.0992 43.1781 88.6321C44.2063 88.1651 45.0666 87.3938 45.6427 86.4225L55.4134 70.0269L74.2103 66.8004C75.3233 66.6093 76.351 66.0814 77.1547 65.2879C77.9583 64.4944 78.4992 63.4735 78.7043 62.363C78.9095 61.2524 78.7691 60.1057 78.3021 59.0774C77.835 58.0491 77.0638 57.1889 76.0925 56.6127L76.0826 56.5897ZM53.2129 64.7616C52.8174 64.8297 52.4414 64.9827 52.1109 65.2102C51.7803 65.4377 51.503 65.7341 51.2982 66.0792L40.9328 83.5179L37.4938 63.5429C37.4267 63.1436 37.273 62.7638 37.0435 62.4302C36.8139 62.0967 36.5141 61.8174 36.1652 61.612L18.7376 51.2629L38.7126 47.8239C39.1119 47.7568 39.4917 47.603 39.8252 47.3735C40.1588 47.144 40.4381 46.8442 40.6434 46.4952L50.9926 29.0676L54.4316 49.0426C54.4996 49.4381 54.6527 49.814 54.8801 50.1446C55.1076 50.4752 55.4041 50.7525 55.7491 50.9573L73.1879 61.3226L53.2129 64.7616ZM63.4244 22.8493C63.558 22.1259 63.9736 21.4852 64.5796 21.0682C65.1856 20.6512 65.9325 20.492 66.6559 20.6256L72.1112 21.6335L73.1191 16.1782C73.2527 15.4548 73.6683 14.8141 74.2743 14.3971C74.8803 13.9801 75.6272 13.8209 76.3506 13.9545C77.074 14.0882 77.7147 14.5037 78.1317 15.1098C78.5488 15.7158 78.708 16.4627 78.5743 17.1861L77.5664 22.6414L83.0217 23.6492C83.7451 23.7829 84.3858 24.1984 84.8028 24.8045C85.2199 25.4105 85.379 26.1574 85.2454 26.8808C85.1117 27.6042 84.6962 28.2449 84.0902 28.6619C83.4841 29.0789 82.7372 29.2381 82.0138 29.1045L76.5586 28.0966L75.5507 33.5519C75.4171 34.2753 75.0015 34.916 74.3955 35.333C73.7894 35.75 73.0426 35.9092 72.3191 35.7756C71.5957 35.6419 70.955 35.2264 70.538 34.6203C70.121 34.0143 69.9618 33.2674 70.0955 32.544L71.1033 27.0887L65.6481 26.0809C64.9247 25.9472 64.284 25.5317 63.8669 24.9256C63.4499 24.3196 63.2907 23.5727 63.4244 22.8493ZM95.8599 45.7662C95.7263 46.4896 95.3107 47.1303 94.7047 47.5474C94.0987 47.9644 93.3518 48.1236 92.6284 47.9899L89.9007 47.486L89.3968 50.2136C89.2632 50.937 88.8476 51.5777 88.2416 51.9947C87.6355 52.4118 86.8887 52.571 86.1652 52.4373C85.4418 52.3037 84.8011 51.8881 84.3841 51.2821C83.9671 50.676 83.8079 49.9292 83.9416 49.2058L84.4455 46.4781L81.7179 45.9742C80.9944 45.8405 80.3538 45.425 79.9367 44.8189C79.5197 44.2129 79.3605 43.466 79.4942 42.7426C79.6278 42.0192 80.0434 41.3785 80.6494 40.9615C81.2554 40.5445 82.0023 40.3853 82.7257 40.5189L85.4534 41.0229L85.9573 38.2952C86.0909 37.5718 86.5065 36.9311 87.1125 36.5141C87.7186 36.0971 88.4654 35.9379 89.1889 36.0715C89.9123 36.2052 90.553 36.6207 90.97 37.2268C91.387 37.8328 91.5462 38.5797 91.4126 39.3031L90.9086 42.0307L93.6362 42.5347C94.3597 42.6683 95.0003 43.0839 95.4174 43.6899C95.8344 44.2959 95.9936 45.0428 95.8599 45.7662Z" fill="#288737"/>
</g>
<defs>
<clipPath id="clip0_753_625">
<rect width="88.7613" height="88.7613" fill="white" transform="translate(16.8467 0.140625) rotate(10.4675)"/>
</clipPath>
</defs>
</svg>
