<svg width="200" height="218" viewBox="0 0 200 218" fill="none" xmlns="http://www.w3.org/2000/svg">
<path opacity="0.2" fill-rule="evenodd" clip-rule="evenodd" d="M40.4853 92.7359C53.8345 88.8172 64.786 85.1085 91.5683 76.5076C116.968 71.6571 131.231 70.437 135.552 69.5069C139.991 66.9433 144.349 57.5057 144.349 57.5057L136.306 44.5044C136.306 44.5044 127.761 36.5036 124.745 36.0036C121.729 35.5035 122.608 26.0026 122.608 26.0026L141.348 24.7091L149.627 22.0022C149.627 22.0022 146.359 17.5017 145.857 15.7516C145.354 14.0014 145.605 9.50094 145.605 9.50094C145.605 9.50094 149.375 16.5016 153.145 18.7519C154.462 19.5386 157.755 19.3203 160.959 18.8735C161.835 19.1369 162.728 19.3586 163.462 19.5203C164.144 19.2836 164.931 18.9402 165.466 18.6419C168.792 18.5635 174.199 18.6002 177.624 18.6852C180.57 17.8218 182.92 15.4799 183.912 12.8563C184.417 8.28749 182.3 2.05687 182.176 0C183.721 1.7185 187.376 8.53751 188.374 13.578C188.612 17.3167 186.451 20.9821 185.011 22.8223C183.517 24.6408 183.363 26.1626 181.344 29.2596C181.344 29.2596 193.863 59.0075 198.388 72.0088C202.912 85.0101 197.064 129.51 191.35 145.016C189.303 150.573 184.216 160.539 181.778 171.999C182.61 185.913 185.633 197.403 185.633 197.403C187.413 201.215 193.203 209.681 194.502 211.844C191.839 211.984 185.169 211.559 182.619 211.561C181.208 210.826 177.357 202.4 175.33 198.653C173.492 195.258 168.995 185.567 163.805 174.151C160.101 168.925 158.005 165.131 153.402 158.602C153.402 158.602 145.976 169.405 141.904 176.778C141.904 178.453 141.629 191.334 143.938 204.777C147.589 210.528 150.331 218 150.331 218L139.272 217.875C137.057 215.863 135.024 209.394 132.705 203.855C128.163 193.011 124.215 183.278 122.551 176.528C122.679 169.717 120.423 161.356 120.423 161.356C114.775 162.373 93.765 160.793 79.6701 160.353C77.5036 165.191 73.5007 170.005 73.0969 176.021C72.7835 180.69 70.0222 185.627 73.8006 193.899C76.0928 198.916 80.1326 207.006 80.1326 207.006H71.1633C71.1633 207.006 66.1784 199.787 63.9633 195.524C59.9889 187.874 58.6216 182.833 58.6216 178.659C58.6216 173.387 56.7366 163.585 56.0245 160.068C51.8775 163.333 46.5676 167.093 40.0513 171.219C33.8517 178.403 22.7276 186.334 19.5423 194.769C18.0997 194.569 22.8214 210.196 23.3023 211.966H13.6192C12.3206 207.862 11.7308 200.623 9.49227 194.024C9.79722 184.435 19.1017 162.891 21.9551 156.271C23.8636 151.84 23.7346 133.81 25.3649 125.576C21.6401 131.786 23.5436 133.468 19.7736 142.469C17.6221 147.606 12.964 155.064 7.09788 162.876C4.65993 166.123 7.0074 175.521 0.440845 176.833C0.0370327 174.964 -1.29169 170.024 4.11202 161.523C10.7758 151.04 13.9878 148.635 16.8044 139.02C21.6468 122.494 24.822 106.162 40.4936 92.7426L40.4853 92.7359Z" fill="white"/>
</svg>
