<svg width="147" height="147" viewBox="0 0 147 147" fill="none" xmlns="http://www.w3.org/2000/svg">
<path opacity="0.2" d="M132.367 91.8333C133.189 89.8383 133.81 88.6088 134.108 86.3952C133.187 88.1818 132.141 89.9826 130.927 91.5878C130.419 92.259 129.848 92.868 129.322 93.5212C129.512 92.6757 129.924 91.8115 130.209 90.9865C130.545 90.0127 130.814 89.0152 131.093 88.0235C130.355 89.0434 129.675 90.1082 128.966 91.1474C127.489 93.3116 126.069 95.2463 125.371 97.8196C125.431 96.3631 125.693 95.0085 126.012 93.5905C125.375 94.2867 124.735 94.9867 124.045 95.6316C122.739 96.8522 121.26 98.0439 120.189 99.4806C119.814 99.9851 119.521 100.549 119.222 101.101C119.372 99.5344 120.002 98.1792 120.699 96.7919C119.506 97.9728 118.335 99.212 117.722 100.79C117.829 99.8235 117.985 98.935 118.289 98.0093C117.475 98.5292 116.78 99.2658 116.015 99.8569C115.161 100.517 114.209 101.076 113.297 101.654C113.026 102.511 112.749 103.377 112.385 104.2C111.175 106.941 109.689 108.978 106.838 110.087C106.335 111.334 105.868 112.595 105.437 113.869C104.397 117.082 103.427 120.315 102.529 123.57C102.214 124.697 101.748 125.857 101.527 127C101.468 127.306 101.451 127.611 101.494 127.921C101.826 130.31 104.366 131.108 106.002 132.405C108.016 134 110.005 136.93 110.286 139.502C108.992 137.996 107.636 136.569 106.278 135.121C103.312 136.11 103.203 133.324 99.9968 133.066C100.093 134.811 100.851 136.042 101.147 137.685C101.671 140.594 100.576 144.593 98.887 147C99.2516 144.571 99.3991 142.291 99.0171 139.856C97.0346 139.325 97.8294 138.172 96.9058 137.573C96.4672 137.288 95.4128 137.673 94.9027 137.773C93.067 138.132 91.2565 138.525 89.4723 139.096C87.8531 139.613 86.2287 140.328 84.5566 140.652C83.4533 140.864 82.6128 140.53 81.7155 139.928C78.3972 140.92 75.7519 141.832 72.9018 143.918C73.0061 143.7 73.1144 143.485 73.2271 143.272C74.7716 140.394 77.9882 138.843 80.9826 137.938C82.1509 136.589 83.7193 136.496 85.3308 136.096C85.6793 136.01 86.3028 135.877 86.4908 135.559C85.906 135.383 83.4127 136.119 82.4498 136.092C81.3394 136.062 80.3031 135.635 79.5301 134.838C79.5089 134.816 79.4876 134.794 79.4664 134.771C76.1854 134.804 73.3559 135.268 70.451 136.866C70.5264 136.751 70.6056 136.639 70.69 136.531C72.297 134.473 75.0743 133.374 77.5721 132.924C78.4255 132.77 79.3079 132.748 80.1549 132.575C80.9845 132.405 81.6582 131.911 82.5297 131.841C83.3535 131.776 84.2223 131.864 85.0487 131.891C86.3846 131.933 87.75 131.918 89.0769 131.747C90.5782 131.554 92.059 131.127 93.0078 129.862C93.4734 129.242 93.7169 128.507 93.9063 127.765C94.7365 124.51 95.8804 112.969 95.4038 109.882C95.1133 108.003 93.8425 107.498 92.868 106.082C92.4893 105.543 92.146 104.983 91.8381 104.4C91.4149 103.597 91.1251 102.697 90.4842 102.036C89.5219 101.043 88.2234 100.149 87.0473 99.4395C85.781 98.6767 84.4742 97.9561 83.0681 97.4817C81.17 96.8407 79.1714 96.6451 77.2069 96.3009C75.6405 96.0105 74.0985 95.6233 72.5817 95.138C66.9143 93.2821 62.8759 91.2166 58.0555 87.7081C48.2202 80.5487 41.4032 68.9518 38.7862 57.2165C38.2806 54.9491 37.8986 52.6144 37.6204 50.3097C37.4336 48.7609 37.3331 47.1929 37.0877 45.6524C36.5963 42.574 35.2869 39.3796 32.668 37.5077C30.6301 36.0512 27.4953 34.9697 24.9692 35.4082C21.4421 36.0204 13.0232 46.0242 10.6021 49.1244C9.09231 51.0931 7.65663 53.1137 6.29373 55.1863C5.24128 56.8287 4.24294 58.5032 3.29935 60.2097C2.70936 61.254 2.1548 62.3784 1.44759 63.3483C1.20025 63.6874 0.752611 64.274 0.307543 64.3099C0.176793 64.3208 0.147809 64.2516 0.057636 64.1727C-0.258613 63.2534 0.811867 60.6809 1.19897 59.6904C4.00849 52.4996 8.31618 45.1678 12.7392 38.8527L17.0913 32.7158C17.9717 31.4811 19.2857 29.8374 19.8918 28.4662C20.3562 27.4148 20.1423 23.4582 20.2158 22.0639C20.3864 18.8348 20.7703 15.5712 21.9664 12.5389C23.8748 7.70148 27.9333 3.53072 32.7324 1.49214C37.6301 -0.588106 43.1029 -0.428481 48.0077 1.56779C54.0048 4.00832 58.6764 9.69775 61.5658 15.3103C62.5242 17.1719 63.2823 19.1547 64.0919 21.0837C66.4808 19.7977 68.5703 18.2431 71.1022 17.154C74.4219 15.7257 77.9045 14.5243 81.4515 13.7948C90.9969 11.8325 101.289 13.0999 110.308 16.6693C125.089 22.5184 135.875 33.1946 143.209 47.0929C144.645 49.8148 145.781 52.6413 147 55.4607C145.948 54.669 145.083 53.4035 144.268 52.374C144.779 53.6676 145.028 54.9998 145.307 56.3556C145.89 59.1917 146.266 61.9963 146.666 64.8599C145.765 62.8214 145.012 60.686 144.05 58.6827C144.294 59.868 144.56 61.0559 144.702 62.2585C145.241 66.846 144.796 72.3309 142.734 76.5228C143.04 74.9894 143.231 73.4258 143.163 71.8597C142.335 73.7335 141.738 76.2363 141.108 78.2345C140.792 79.2345 140.504 80.3057 139.933 81.1955C140.453 79.3903 140.919 77.4735 140.996 75.5939C140.555 76.8517 138.346 84.2194 137.736 84.6964C137.619 84.5746 137.645 84.4066 137.656 84.2438C137.767 82.6886 138.068 81.2558 137.963 79.6717C137.652 80.9961 137.356 82.3187 136.909 83.6059C136.186 85.6881 133.972 90.3749 132.369 91.8333H132.367ZM30.2861 19.5515C29.8056 19.8041 29.4507 20.0439 29.2685 20.5766C29.1371 20.9599 29.1654 21.3907 29.3677 21.7446C29.5673 22.0933 29.9325 22.3562 30.3274 22.4376C30.6011 22.494 30.8896 22.4517 31.1647 22.4222C31.6072 22.1953 31.9556 21.9606 32.1269 21.4734C32.1443 21.426 32.1585 21.3773 32.1707 21.3286C32.183 21.2792 32.192 21.2298 32.1984 21.1798C32.2049 21.1298 32.2087 21.0792 32.21 21.0285C32.2113 20.9779 32.21 20.9279 32.2055 20.8773C32.201 20.8266 32.1946 20.7766 32.1849 20.7272C32.1753 20.6779 32.163 20.6285 32.1482 20.5804C32.1334 20.5317 32.116 20.4849 32.096 20.4381C32.0761 20.3913 32.0535 20.3464 32.029 20.3022C31.8274 19.9407 31.4674 19.6599 31.0623 19.5631C30.8027 19.5015 30.5489 19.5246 30.2861 19.5515ZM100.737 107.559C100.32 108.304 99.9974 109.038 99.7913 109.867C99.448 111.249 99.3669 112.748 99.2207 114.164C98.9373 116.919 98.6146 119.788 98.6906 122.56L99.0783 121.384C99.7224 119.362 102.138 112.096 102.103 110.451C102.091 109.907 101.823 109.335 101.574 108.857C101.348 108.424 101.092 107.9 100.737 107.559Z" fill="white"/>
</svg>
